<svg xmlns="http://www.w3.org/2000/svg" width="301.99" height="301.597" viewBox="0 0 301.99 301.597"><defs><style>.a{fill:#371a45;}.b{fill:#fff;}.c{opacity:0.35;}.d{opacity:0.7;}.e{fill:#111a28;}.f{opacity:0.5;}.g{fill:#c5d3e2;}.h{opacity:0.6;}.i{fill:#ad82ff;}.j{fill:#db2c2c;}.k{fill:#22a7f0;}.l{opacity:0.15;}.m{opacity:0.2;}.n{fill:#102770;}.o{opacity:0.3;}.p{fill:#fff2bd;}</style></defs><g transform="translate(2.434)"><path class="a" d="M970.274,9739.193c43.413-26.279,72.57-74.961,72.57-130.685,0-83.605-65.625-151.38-146.577-151.38S749.69,9524.9,749.69,9608.509c0,55.724,29.157,104.405,72.571,130.685,22.378-.416,47.482-.649,74.006-.649S947.9,9738.785,970.274,9739.193Z" transform="translate(-749.69 -9457.129)"/></g><g transform="translate(55.853 64.646)"><path class="b" d="M1404.052,10205.255a91.83,91.83,0,0,0-13.558-23.94v-9.435a17.986,17.986,0,0,0-5.5-12.765l.118-1a12.981,12.981,0,0,0-3.268-10.262,14.348,14.348,0,0,0-10.741-4.751h-.411q.522-.668,1.024-1.347c.425-.479.775-.905,1.068-1.3a65.321,65.321,0,0,0,9.837-19.4,18.372,18.372,0,0,0,15.709-19.045l-.637-13.523a18.375,18.375,0,0,0-17.665-17.5,71.722,71.722,0,0,0-64.1-43.342c-.6-.015-1.209-.022-1.807-.022a71.659,71.659,0,0,0-68.068,49.67,18.378,18.378,0,0,0-15.965,19.084l.637,13.522a18.344,18.344,0,0,0,17.726,17.5,71.481,71.481,0,0,0,9.3,15.707h-.341a14.346,14.346,0,0,0-10.741,4.751,12.982,12.982,0,0,0-3.321,9.717,20.514,20.514,0,0,0-3.548,3.671,17.616,17.616,0,0,0-3.641,10.637v12.047a91.264,91.264,0,0,0-11.593,21.328c-4.42,11.678-4.616,20.85-.583,27.258h-1.351a146.837,146.837,0,0,0,17.619,12.533c22.378-.416,47.482-.649,74.006-.649s51.629.233,74.007.649a146.826,146.826,0,0,0,17.618-12.533h-1.249C1408.669,10226.105,1408.472,10216.926,1404.052,10205.255Z" transform="translate(-1221.1 -10027.622)"/></g><g transform="translate(237.695 41.544)"><path class="b" d="M2825.832,9849.681a33.213,33.213,0,0,0,8.569,22.019,1.006,1.006,0,0,1,.1,1.2l-4.822,8.257a5.666,5.666,0,0,0,7.749,7.75l12.411-7.247a.874.874,0,0,1,.439-.122.806.806,0,0,1,.2.024,33.305,33.305,0,0,0,8.346,1.135h.278a32.929,32.929,0,0,0,14.855-3.542,151.988,151.988,0,0,0-35.946-55.406A33.271,33.271,0,0,0,2825.832,9849.681Z" transform="translate(-2825.831 -9823.748)"/></g><g transform="translate(73.18 191.693)"><path class="b" d="M1535.071,11178.877v48.992a13.38,13.38,0,0,1-1.65,6.413c-2.9,5.381-9.333,9.144-16.755,9.144H1406.975a19.554,19.554,0,0,1-15.111-6.7,13.868,13.868,0,0,1-3.294-8.855v-48.992a13.721,13.721,0,0,1,2.858-8.287,19.373,19.373,0,0,1,15.547-7.269h109.692a20.637,20.637,0,0,1,2.605.161C1528.172,11164.565,1535.071,11171.069,1535.071,11178.877Z" transform="translate(-1386.92 -11161.675)"/><path class="a" d="M1503.755,11232.192H1394.064a21.265,21.265,0,0,1-16.383-7.3,15.464,15.464,0,0,1-3.67-9.9V11166a15.383,15.383,0,0,1,3.189-9.28c3.711-4.961,10.017-7.925,16.865-7.925h109.692a22.646,22.646,0,0,1,2.809.173c9.828,1.186,17.245,8.509,17.245,17.032v48.992a14.929,14.929,0,0,1-1.851,7.2C1518.682,11228.26,1511.535,11232.192,1503.755,11232.192Zm-109.69-80.1a17.645,17.645,0,0,0-14.227,6.607,12.112,12.112,0,0,0-2.529,7.3v48.992a12.208,12.208,0,0,0,2.918,7.807,17.943,17.943,0,0,0,13.839,6.1h109.692c6.585,0,12.593-3.249,15.3-8.278a11.684,11.684,0,0,0,1.453-5.631V11166c0-6.856-6.169-12.772-14.349-13.759a19.3,19.3,0,0,0-2.408-.148H1394.065Z" transform="translate(-1374.01 -11148.79)"/></g><g transform="translate(59.768 179.728)"><path class="b" d="M1345.364,11043.2c37.477,6.2,72.432,28.964,85.667,63.937,10.7,28.265-8.731,29.788-8.731,29.788H1267.6s-19.427-1.523-8.731-29.788c13.235-34.973,48.189-57.739,85.667-63.937" transform="translate(-1255.656 -11043.199)"/></g><g class="c" transform="translate(59.771 255.122)"><path class="a" d="M1422.322,11726.87h-154.7s-13.591-1.067-11.774-17.955c.026.2.054.405.085.6,1.308,8.268,12.563,9.885,16.321,2.406l1.7-3.383h141.921l1.821,3.562c3.8,7.426,14.935,5.77,16.295-2.457q.059-.357.105-.729C1435.917,11725.793,1422.322,11726.87,1422.322,11726.87Z" transform="translate(-1255.684 -11708.54)"/></g><g transform="translate(65.382 234.143)"><path class="b" d="M1305.2,11545.787s7.4-22.316,27.33-22.379c18.389-.06,25.41,9.113,21.1,21.709-2.144,6.269-25.05,12.193-35.77-.736" transform="translate(-1305.2 -11523.408)"/></g><g class="c" transform="translate(78.046 246.076)"><path class="a" d="M1452.721,11638.489c-2.147,6.267-25.052,12.189-35.771-.737h0a2.835,2.835,0,0,1,4.406-2.354c11.591,7.556,29.479,2.318,31.365-3.185a23.982,23.982,0,0,0,.923-3.5A18.512,18.512,0,0,1,1452.721,11638.489Z" transform="translate(-1416.95 -11628.711)"/></g><g transform="translate(64.86 232.498)"><path class="a" d="M1300.59,11532.744a15.786,15.786,0,0,1,2.1-7.172,29.961,29.961,0,0,1,4.292-6.119,38.18,38.18,0,0,1,5.5-5.158,27.83,27.83,0,0,1,6.658-3.7,25.532,25.532,0,0,1,7.461-1.639l1.906-.068c.618.01,1.234.009,1.852.029,1.236.049,2.475.122,3.714.271a31.422,31.422,0,0,1,7.37,1.673,18.718,18.718,0,0,1,6.678,4.06,13.873,13.873,0,0,1,3.909,6.993,18.221,18.221,0,0,1-.087,7.829c-.121.634-.3,1.246-.467,1.863l-.288.908-.073.227c-.025.078-.078.193-.117.287l-.266.59a9.574,9.574,0,0,1-3.039,3.088,23.626,23.626,0,0,1-7.078,3.041,33.067,33.067,0,0,1-14.993.441c-.622-.133-1.242-.275-1.853-.462-.618-.159-1.218-.383-1.824-.591s-1.194-.47-1.8-.693c-.581-.278-1.19-.51-1.753-.834a11.056,11.056,0,0,1-1.641-1.049,10.426,10.426,0,0,1-1.463-1.291,7.643,7.643,0,0,1-1.938-3.41.607.607,0,0,1,.441-.736.593.593,0,0,1,.343.016l.061.021a11.834,11.834,0,0,1,1.671.794c.533.259.98.586,1.472.855.238.144.467.3.692.451s.477.275.7.427.452.3.692.438.47.278.7.426a18,18,0,0,0,6.175,2.414,29.825,29.825,0,0,0,13.467-.405,20.478,20.478,0,0,0,6.068-2.581,6.555,6.555,0,0,0,2-1.94q.044-.119.1-.231a1.035,1.035,0,0,0,.058-.127l.063-.2.254-.8c.142-.539.3-1.076.406-1.62a14.939,14.939,0,0,0,.1-6.417,10.544,10.544,0,0,0-3-5.363,15.476,15.476,0,0,0-5.515-3.324,28.316,28.316,0,0,0-6.6-1.49c-1.138-.138-2.291-.205-3.446-.251l-1.738-.026-1.683.061a22.2,22.2,0,0,0-6.516,1.43,25.86,25.86,0,0,0-10.734,7.976c-.708.9-1.387,1.814-2.026,2.765s-1.282,1.9-1.9,2.869a51.049,51.049,0,0,1-4.017,5.8l-.027.032a.576.576,0,0,1-.81.073A.607.607,0,0,1,1300.59,11532.744Z" transform="translate(-1300.59 -11508.891)"/></g><g transform="translate(182.968 234.143)"><path class="b" d="M2392.529,11545.787s-7.4-22.316-27.33-22.379c-18.389-.06-25.41,9.113-21.1,21.709,2.144,6.269,25.05,12.193,35.77-.736" transform="translate(-2342.869 -11523.408)"/></g><g transform="translate(182.968 234.143)"><path class="b" d="M2392.529,11545.787s-7.4-22.316-27.33-22.379c-18.389-.06-25.41,9.113-21.1,21.709,2.144,6.269,25.05,12.193,35.77-.736Z" transform="translate(-2342.869 -11523.408)"/></g><g class="c" transform="translate(182.967 246.076)"><path class="a" d="M2379.86,11637.752c-10.719,12.927-33.623,7-35.771.736a18.518,18.518,0,0,1-.924-9.778,23.983,23.983,0,0,0,.924,3.5c1.885,5.5,19.774,10.74,31.365,3.184a2.835,2.835,0,0,1,4.406,2.355Z" transform="translate(-2342.862 -11628.71)"/></g><g transform="translate(181.326 232.494)"><path class="a" d="M2379.164,11533.049a51.224,51.224,0,0,1-4.017-5.8c-.621-.971-1.25-1.93-1.9-2.869s-1.318-1.87-2.026-2.766a25.847,25.847,0,0,0-10.734-7.975,22.227,22.227,0,0,0-6.516-1.431l-1.683-.062-1.738.027c-1.155.047-2.308.113-3.446.251a28.252,28.252,0,0,0-6.6,1.491,15.444,15.444,0,0,0-5.515,3.323,10.545,10.545,0,0,0-3,5.364,14.932,14.932,0,0,0,.1,6.416c.1.543.263,1.08.406,1.619l.254.8.064.2a1.293,1.293,0,0,0,.058.127c.036.075.069.151.1.23a6.546,6.546,0,0,0,2,1.939,20.482,20.482,0,0,0,6.068,2.582,29.825,29.825,0,0,0,13.467.406,18,18,0,0,0,6.175-2.415c.231-.147.463-.292.7-.427s.455-.3.692-.437.47-.281.7-.426.454-.309.692-.451c.492-.27.939-.6,1.472-.855a11.827,11.827,0,0,1,1.671-.794l.062-.021a.605.605,0,0,1,.77.38.593.593,0,0,1,.014.343,7.641,7.641,0,0,1-1.938,3.409,10.37,10.37,0,0,1-1.463,1.291,11.05,11.05,0,0,1-1.641,1.049c-.563.324-1.171.557-1.753.834-.6.225-1.193.486-1.8.693s-1.206.432-1.823.592c-.612.187-1.23.329-1.853.461a33.08,33.08,0,0,1-14.993-.441,23.6,23.6,0,0,1-7.078-3.04,9.579,9.579,0,0,1-3.039-3.089l-.266-.59c-.04-.094-.092-.209-.117-.287l-.073-.227-.288-.908c-.165-.617-.347-1.229-.467-1.863a18.215,18.215,0,0,1-.087-7.828,13.868,13.868,0,0,1,3.909-6.994,18.7,18.7,0,0,1,6.678-4.059,31.475,31.475,0,0,1,7.37-1.674c1.239-.148,2.477-.223,3.715-.271.618-.02,1.235-.02,1.852-.029l1.905.069a25.492,25.492,0,0,1,7.461,1.638,27.833,27.833,0,0,1,6.658,3.7,38.3,38.3,0,0,1,5.5,5.158,29.9,29.9,0,0,1,4.291,6.12,15.769,15.769,0,0,1,2.1,7.172.575.575,0,0,1-1.014.38Z" transform="translate(-2328.384 -11508.85)"/></g><g transform="translate(58.115 178.074)"><path class="a" d="M1409.425,11125.625l-154.891,0a15.172,15.172,0,0,1-10.9-6.717c-3.666-5.776-3.412-14.288.755-25.3,12.6-33.3,45.915-58.2,86.94-64.98a7.462,7.462,0,0,0,1.364,0c41.025,6.783,74.339,31.683,86.94,64.98,4.167,11.009,4.42,19.521.755,25.3a15.172,15.172,0,0,1-10.9,6.717Zm-77.057-3.3h76.916a11.8,11.8,0,0,0,8.346-5.229c3.01-4.787,2.637-12.508-1.079-22.327-12.186-32.2-44.524-56.3-84.395-62.894a1.374,1.374,0,0,1-.144-.031c-.048.012-.1.023-.144.031-39.869,6.592-72.208,30.691-84.394,62.894-3.716,9.819-4.088,17.54-1.079,22.327a11.8,11.8,0,0,0,8.347,5.229Z" transform="translate(-1241.063 -11028.604)"/></g><g transform="translate(67.093 66.908)"><g transform="translate(144.714 44.702)"><path class="b" d="M2603.276,10487.129h0a1.377,1.377,0,0,1-1.441-1.312l-1.867-39.655a1.378,1.378,0,0,1,1.312-1.441h0a14.458,14.458,0,0,1,15.123,13.764l.637,13.521A14.459,14.459,0,0,1,2603.276,10487.129Z" transform="translate(-2599.671 -10444.405)"/><path class="a" d="M2600.9,10485.09a1.676,1.676,0,0,1-1.671-1.595l-1.867-39.655a1.676,1.676,0,0,1,1.593-1.751,14.769,14.769,0,0,1,15.434,14.046l.637,13.521a14.754,14.754,0,0,1-14.044,15.434h-.08Zm-1.244-42.426c-.223,0-.449.006-.674.016a1.084,1.084,0,0,0-1.03,1.133l1.867,39.654a1.086,1.086,0,0,0,1.132,1.03h0a14.179,14.179,0,0,0,13.481-14.813l-.637-13.522A14.184,14.184,0,0,0,2599.66,10442.664Z" transform="translate(-2597.364 -10442.072)"/></g><g class="c" transform="translate(146.378 65.963)"><path class="a" d="M2627.456,10629.7l.3,6.342a14.467,14.467,0,0,1-13.765,15.126,1.381,1.381,0,0,1-1.441-1.314l-.5-10.542a1.382,1.382,0,0,0,1.291.759l.94-.047A14.463,14.463,0,0,0,2627.456,10629.7Z" transform="translate(-2612.05 -10629.7)"/></g><g transform="translate(143.36 43.355)"><path class="a" d="M2590.313,10475.914a3.03,3.03,0,0,1-3.022-2.885l-1.867-39.655a3.031,3.031,0,0,1,2.88-3.166,16.129,16.129,0,0,1,16.848,15.333l.637,13.521a16.127,16.127,0,0,1-15.332,16.848h0A.88.88,0,0,0,2590.313,10475.914Zm-1.584-42.426,1.841,39.11a12.826,12.826,0,0,0,11.924-13.384l-.637-13.522A12.822,12.822,0,0,0,2588.729,10433.488Z" transform="translate(-2585.42 -10430.189)"/></g><g transform="translate(1.353 50.877)"><path class="b" d="M1348.616,10499.188h0a1.377,1.377,0,0,1,1.441,1.312l1.867,39.655a1.377,1.377,0,0,1-1.312,1.441h0a14.459,14.459,0,0,1-15.123-13.764l-.637-13.522A14.46,14.46,0,0,1,1348.616,10499.188Z" transform="translate(-1334.541 -10498.89)"/><path class="a" d="M1347.616,10539.583a14.773,14.773,0,0,1-14.731-14.062l-.637-13.522a14.754,14.754,0,0,1,14.044-15.434h0a1.673,1.673,0,0,1,1.751,1.594l1.867,39.655a1.677,1.677,0,0,1-1.593,1.752C1348.083,10539.583,1347.849,10539.583,1347.616,10539.583Zm-1.3-42.426a14.179,14.179,0,0,0-13.481,14.813l.637,13.522a14.182,14.182,0,0,0,14.814,13.481,1.084,1.084,0,0,0,1.03-1.133l-1.867-39.654a1.092,1.092,0,0,0-1.132-1.03Z" transform="translate(-1332.232 -10496.563)"/></g><g class="c" transform="translate(2.035 74.132)"><path class="a" d="M1354.437,10708.807l.517,11a1.382,1.382,0,0,1-1.314,1.442,14.452,14.452,0,0,1-15.121-13.761l-.269-5.7a14.464,14.464,0,0,0,13.557,7.862l1.447-.067A1.4,1.4,0,0,0,1354.437,10708.807Z" transform="translate(-1338.25 -10701.791)"/></g><g transform="translate(0 49.533)"><path class="a" d="M1337.027,10530.428a16.129,16.129,0,0,1-16.082-15.35l-.637-13.522a16.126,16.126,0,0,1,15.332-16.848h0a3.033,3.033,0,0,1,3.165,2.88l1.867,39.656a3.031,3.031,0,0,1-2.88,3.166C1337.538,10530.416,1337.282,10530.428,1337.027,10530.428Zm-1.5-42.414a12.825,12.825,0,0,0-11.924,13.384l.637,13.521a12.83,12.83,0,0,0,13.129,12.205Z" transform="translate(-1320.29 -10484.705)"/></g><g transform="translate(13.935 1.356)"><circle class="b" cx="67.651" cy="67.651" r="67.651" transform="translate(0.296 0.299)"/><path class="a" d="M1511.236,10195.443c-.551,0-1.1-.007-1.649-.021a67.947,67.947,0,1,1,69.555-66.3h0A68.032,68.032,0,0,1,1511.236,10195.443Zm-.066-135.3a67.355,67.355,0,1,0,67.378,68.966l.3.007-.3-.007a67.355,67.355,0,0,0-65.725-68.947C1512.273,10060.144,1511.72,10060.144,1511.17,10060.144Z" transform="translate(-1443.266 -10059.549)"/></g><g class="c" transform="translate(14.228 61.544)"><path class="a" d="M1580.709,10590.7a67.654,67.654,0,1,1-134.842,6.141c.025-1.074.076-2.148.153-3.206a67.654,67.654,0,0,0,134.689-2.935Z" transform="translate(-1445.847 -10590.7)"/></g><g transform="translate(12.583)"><path class="a" d="M1500.656,10186.184c-.562,0-1.117-.006-1.682-.02a69.3,69.3,0,1,1,70.937-67.621h0A69.385,69.385,0,0,1,1500.656,10186.184Zm-.066-135.3a66.029,66.029,0,1,0,1.62.02C1501.671,10050.9,1501.129,10050.884,1500.59,10050.884Zm67.674,67.616h0Z" transform="translate(-1431.333 -10047.586)"/></g><g transform="translate(14.797 22.496)"><path class="a" d="M1585.328,10296.265a60.684,60.684,0,0,1-11.962,35.595c-5.577,7.574-28.344,20.716-56.314,20.721-25.935,0-49.407-14.03-54.85-21.7a60.687,60.687,0,0,1-11.332-35.8c.309-35.03,30.534-49.288,67.665-48.96S1585.637,10261.238,1585.328,10296.265Z" transform="translate(-1450.869 -10246.112)"/></g><g transform="translate(13.15 20.845)"><path class="a" d="M1504.159,10341.3c-26.83,0-50.479-14.356-56.182-22.4a62.262,62.262,0,0,1-11.635-36.768c.152-17.145,7.142-30.3,20.779-39.109,11.905-7.689,28.694-11.67,48.549-11.484s36.572,4.441,48.339,12.339c13.479,9.045,20.237,22.325,20.085,39.47h0a62.272,62.272,0,0,1-12.282,36.557c-5.49,7.457-28.033,21.387-57.641,21.393Zm.249-106.461c-18.67,0-34.383,3.782-45.5,10.962-12.646,8.168-19.13,20.4-19.271,36.371a58.986,58.986,0,0,0,11.028,34.831c5.2,7.331,28.158,21.008,53.494,21.008h.01c28.082,0,50-13.28,54.987-20.052a58.988,58.988,0,0,0,11.64-34.631c.382-43.236-45.439-48.309-65.157-48.483C1505.227,10234.841,1504.817,10234.841,1504.408,10234.841Zm68.036,48.5h0Z" transform="translate(-1436.339 -10231.537)"/></g><g class="d" transform="translate(116.734 54.342)"><ellipse class="b" cx="11.972" cy="8.676" rx="11.972" ry="8.676" transform="translate(0 23.522) rotate(-79.223)"/></g><g class="d" transform="translate(110.372 84.59)"><ellipse class="b" cx="5.495" cy="4.715" rx="5.495" ry="4.715" transform="translate(0 10.408) rotate(-71.282)"/></g><g class="c" transform="translate(53.286 39.855)"><path class="e" d="M1873.714,10399.3c8.15,7.915,12.909,18.725,12.787,32.794a60.713,60.713,0,0,1-11.958,35.6c-5.579,7.575-28.347,20.717-56.317,20.724a83.43,83.43,0,0,1-27.695-4.978c34.381-.742,62.115-16.874,69.031-26.27a77,77,0,0,0,15.179-45.174A68.712,68.712,0,0,0,1873.714,10399.3Z" transform="translate(-1790.53 -10399.3)"/></g><g transform="translate(18.482 13.808)"><path class="a" d="M1608.646,10199.156a1.63,1.63,0,0,1-1.041-.376l-.173-.143-.138-.191c-11.269-16.1-33.229-25.469-60.25-25.708-27.149-.253-49.276,9.04-60.644,25.458l-.083.109a1.649,1.649,0,0,1-2.6-2.026c12.007-17.306,35.117-27.093,63.356-26.838,28.081.248,51,10.119,62.9,27.081a1.651,1.651,0,0,1-1.325,2.634Z" transform="translate(-1483.39 -10169.437)"/></g><g class="d" transform="translate(26.758 31.739)"><path class="b" d="M1559.382,10388.372s-10.545-34.655,8.2-48.263,45.541-13.314,44.9-11.6c0,0-29.727,6.92-41.542,30.27C1561.832,10376.791,1559.382,10388.372,1559.382,10388.372Z" transform="translate(-1556.426 -10327.677)"/></g></g><g transform="translate(15.994 285.004)"><path class="a" d="M869.836,11973.5a120.257,120.257,0,0,1,16.567-1.191c2.761-.06,5.523-.072,8.283-.057,2.762,0,5.522.037,8.283.065q8.283.076,16.567.057h182.239l8.283,0,4.142-.041,4.142-.07c5.522-.02,11.045.03,16.567,1.24a.576.576,0,0,1,0,1.125c-5.522,1.208-11.045,1.258-16.567,1.239l-4.142-.07-4.142-.041-8.283,0H919.538q-8.283-.012-16.567.057c-2.762.027-5.522.068-8.283.064-2.762.015-5.522,0-8.283-.056a120.717,120.717,0,0,1-16.567-1.19.57.57,0,0,1,0-1.125Z" transform="translate(-869.356 -11972.244)"/></g><g transform="translate(35.774 273.211)"><path class="a" d="M1265.75,11882.977h-213.5a6.252,6.252,0,0,1-6.252-6.252v-.2a6.251,6.251,0,0,1,6.252-6.251h213.5a6.251,6.251,0,0,1,6.252,6.251v.2A6.252,6.252,0,0,1,1265.75,11882.977Z" transform="translate(-1045.763 -11870.032)"/><path class="a" d="M1263.9,11881.353H1050.4a6.5,6.5,0,0,1-6.489-6.489v-.2a6.5,6.5,0,0,1,6.489-6.488h213.5a6.5,6.5,0,0,1,6.489,6.488v.2A6.5,6.5,0,0,1,1263.9,11881.353Zm-213.5-12.7a6.02,6.02,0,0,0-6.014,6.012v.205a6.021,6.021,0,0,0,6.014,6.013h213.5a6.02,6.02,0,0,0,6.014-6.013v-.205a6.02,6.02,0,0,0-6.014-6.012Z" transform="translate(-1043.91 -11868.171)"/></g><g transform="translate(34.363 271.796)"><path class="a" d="M1252.858,11871.684h-213.5a7.908,7.908,0,0,1-7.9-7.9v-.2a7.908,7.908,0,0,1,7.9-7.9h213.5a7.908,7.908,0,0,1,7.9,7.9v.2A7.9,7.9,0,0,1,1252.858,11871.684Zm-213.5-12.7a4.608,4.608,0,0,0-4.6,4.6v.2a4.608,4.608,0,0,0,4.6,4.6h213.5a4.608,4.608,0,0,0,4.6-4.6v-.2a4.609,4.609,0,0,0-4.6-4.6Z" transform="translate(-1031.46 -11855.681)"/></g><g class="f" transform="translate(37.834 275.333)"><path class="b" d="M1280.117,11886.9h-213.7a4.407,4.407,0,0,0-4.329,4.471,4.48,4.48,0,0,0,2.542,4.066,4.549,4.549,0,0,1-.72-2.462,4.407,4.407,0,0,1,4.329-4.471h18.306c.947,1.085,4.017,1.882,7.666,1.882s6.719-.8,7.666-1.882H1281.94a4.182,4.182,0,0,1,1.787.4A4.282,4.282,0,0,0,1280.117,11886.9Z" transform="translate(-1062.09 -11886.9)"/></g><g transform="translate(78.599 262.502)"><path class="g" d="M1552.647,11784.109H1431.763a9.934,9.934,0,0,1-9.933-9.934v-.506h140.75v.506A9.937,9.937,0,0,1,1552.647,11784.109Z" transform="translate(-1421.83 -11773.67)"/></g><g class="c" transform="translate(78.599 262.494)"><path class="a" d="M1562.582,11773.6v.506a9.939,9.939,0,0,1-9.936,9.936h-120.88a9.936,9.936,0,0,1-9.936-9.936v-.506h.441a9.938,9.938,0,0,0,9.495,7h120.881a9.942,9.942,0,0,0,9.495-7Z" transform="translate(-1421.83 -11773.6)"/></g><g transform="translate(76.951 260.848)"><path class="a" d="M1539.755,11772.808H1418.871a11.6,11.6,0,0,1-11.581-11.583v-2.154h144.047v2.154A11.593,11.593,0,0,1,1539.755,11772.808Zm-129.09-10.437a8.3,8.3,0,0,0,8.206,7.144h120.884a8.3,8.3,0,0,0,8.206-7.144Z" transform="translate(-1407.29 -11759.07)"/></g><g class="h" transform="translate(80.56 264.38)"><path class="b" d="M1443.522,11791.652h132.052a8.38,8.38,0,0,0,.392-1.412H1439.14a8.136,8.136,0,0,0,5.717,6.385,8.224,8.224,0,0,1-2.455-3.221A1.253,1.253,0,0,1,1443.522,11791.652Z" transform="translate(-1439.14 -11790.24)"/></g><g transform="translate(81.981 184.036)"><path class="i" d="M1567.325,11170.013H1470.1a9.982,9.982,0,0,1-10.123-8.521l-8.23-69.632c-.671-5.676,4.052-10.64,10.123-10.64h113.692c6.07,0,10.793,4.965,10.123,10.64l-8.23,69.632A9.985,9.985,0,0,1,1567.325,11170.013Z" transform="translate(-1451.679 -11081.22)"/></g><g class="h" transform="translate(140.052 223.249)"><path class="b" d="M1979.9,11440.014l.058-.023a.658.658,0,0,1,.817.955,8.979,8.979,0,1,1-5.767-13.482.615.615,0,0,1,.121,1.166l-.018.008a6.172,6.172,0,0,0,4.789,11.377Z" transform="translate(-1964.147 -11427.262)"/></g><g transform="translate(172.808 198.873)"><g transform="translate(0 0)"><path class="a" d="M2279.625,11215.4a8.959,8.959,0,0,0-.364-2.715c-.093-.088-.18-.177-.273-.264-.273-.055-.544-.139-.823-.166a17.278,17.278,0,0,0-5.849.354,12.521,12.521,0,0,0-6.5,3.664c-.639.693-1.2,1.454-1.787,2.194a.451.451,0,0,1-.559.217,5.265,5.265,0,0,0-1.973-.142,8.289,8.289,0,0,0-4.6,2.139,17.8,17.8,0,0,0-3.5,4.393.91.91,0,0,0,.679,1.475l1.5.249c1.2.2,2.4.393,3.6.592a.329.329,0,0,1,.006.072.393.393,0,0,1-.024.075,1.2,1.2,0,0,0,.4,1.69,2.25,2.25,0,0,1,.177.171c.315.306.637.615.97.934-.336.352-.673.657-.958,1.009a1.359,1.359,0,0,0-.288.648.8.8,0,0,0,.526.841.856.856,0,0,0,.982-.181c.351-.339.682-.7,1.036-1.066.453.442.883.859,1.312,1.271a1.042,1.042,0,0,0,1.4.244c.111-.056.222-.1.355-.151.031.135.057.244.078.346.33,1.64.655,3.281.994,4.916a.9.9,0,0,0,1.487.609c.592-.4,1.18-.811,1.754-1.243a12.672,12.672,0,0,0,3.339-3.589,6.828,6.828,0,0,0,.862-5.768.33.33,0,0,1,.087-.288c.579-.51,1.18-1,1.76-1.511a11.681,11.681,0,0,0,2.981-4.176A15.683,15.683,0,0,0,2279.625,11215.4Zm-19.734,10.277-4.3-.717a11.233,11.233,0,0,1,4.546-4.231,4.446,4.446,0,0,1,2.546-.36C2261.759,11222.131,2260.834,11223.9,2259.891,11225.678Zm12.146,5.123a6.675,6.675,0,0,1-1.357,2.99,14.3,14.3,0,0,1-3.012,2.828q-.456-2.26-.9-4.426c1.76-1.009,3.48-2,5.21-2.985A3.693,3.693,0,0,1,2272.038,11230.8Zm5.369-11.208a11.181,11.181,0,0,1-1.946,4.162,14.686,14.686,0,0,1-2.579,2.5,43.734,43.734,0,0,1-8.366,4.952.263.263,0,0,1-.357-.051c-.262-.273-.546-.531-.819-.8a.41.41,0,0,1-.057-.093c.069-.075.144-.15.219-.229,1.556-1.615,3.12-3.228,4.675-4.846a.9.9,0,1,0-1.294-1.249q-1.406,1.45-2.8,2.9c-.7.721-1.387,1.438-2.111,2.189-.337-.324-.657-.619-.955-.934a.352.352,0,0,1,.012-.31c.726-1.54,1.445-3.087,2.213-4.61a26.488,26.488,0,0,1,2.7-4.275,11.773,11.773,0,0,1,3.444-3.212,11.6,11.6,0,0,1,2.835-1.175.4.4,0,0,1,.315.121c1.231,1.177,2.45,2.356,3.673,3.539.366.352.73.713,1.1,1.058A.323.323,0,0,1,2277.406,11219.593Zm.33-1.96-3.6-3.48a.967.967,0,0,1,0-.1c1.18-.036,2.363-.068,3.558-.105A16.073,16.073,0,0,1,2277.736,11217.633Z" transform="translate(-2253.214 -11212.154)"/></g><g transform="translate(7.766 2.364)"><path class="b" d="M2338.075,11237.742c-.375-.346-.739-.707-1.1-1.058-1.223-1.183-2.441-2.364-3.673-3.54a.4.4,0,0,0-.315-.12,11.636,11.636,0,0,0-2.835,1.174,11.825,11.825,0,0,0-3.444,3.212,26.489,26.489,0,0,0-2.7,4.276c-.768,1.522-1.487,3.068-2.213,4.609a.352.352,0,0,0-.012.31c.3.314.619.609.955.934.724-.75,1.414-1.469,2.111-2.189q1.4-1.455,2.8-2.9a.9.9,0,1,1,1.294,1.249q-2.334,2.427-4.676,4.847c-.075.078-.15.153-.219.228.031.051.039.078.057.093.273.268.559.526.819.8a.264.264,0,0,0,.357.051,43.683,43.683,0,0,0,8.366-4.952,14.781,14.781,0,0,0,2.579-2.5,11.166,11.166,0,0,0,1.946-4.162A.315.315,0,0,0,2338.075,11237.742Zm-2.78,2.492a3.065,3.065,0,1,1-.093-4.317A3.078,3.078,0,0,1,2335.3,11240.234Z" transform="translate(-2321.749 -11233.019)"/></g><g transform="translate(20.922 1.794)"><path class="j" d="M2441.446,11231.674c-1.219-1.179-2.409-2.327-3.6-3.48,0-.031,0-.064,0-.1,1.181-.034,2.364-.068,3.561-.105A16.122,16.122,0,0,1,2441.446,11231.674Z" transform="translate(-2437.846 -11227.99)"/></g><g transform="translate(2.375 8.156)"><path class="j" d="M2281.264,11284.19l-2.79,5.311c-1.389-.233-2.827-.473-4.3-.718a11.189,11.189,0,0,1,4.547-4.231A4.41,4.41,0,0,1,2281.264,11284.19Z" transform="translate(-2274.17 -11284.126)"/></g><g transform="translate(13.557 17.054)"><path class="j" d="M2376.758,11367.233a14.252,14.252,0,0,1-3.011,2.829q-.456-2.259-.9-4.426c1.76-1.009,3.48-1.992,5.211-2.986a3.7,3.7,0,0,1,.057,1.594A6.6,6.6,0,0,1,2376.758,11367.233Z" transform="translate(-2372.85 -11362.65)"/></g><g transform="translate(16.037 4.402)"><path class="a" d="M2399.923,11251.863a3.058,3.058,0,1,0,.093,4.317A3.063,3.063,0,0,0,2399.923,11251.863Zm-.981,3.343a1.613,1.613,0,1,1-.012-2.3A1.622,1.622,0,0,1,2398.942,11255.206Z" transform="translate(-2394.741 -11251.002)"/></g><g transform="translate(17.484 5.855)"><path class="k" d="M2410.258,11266.573a1.613,1.613,0,1,1-.013-2.3A1.623,1.623,0,0,1,2410.258,11266.573Z" transform="translate(-2407.505 -11263.822)"/></g></g><g class="c" transform="translate(92.598 186.776)"><path class="a" d="M1655.822,11183.124l8.231-69.632a6.827,6.827,0,0,0-1.656-5.289,8.2,8.2,0,0,0-5.979-2.787s0-.012,0-.016c-3.365,11.563-22.132,76.042-111.054,78.493a7.841,7.841,0,0,0,7.8,5.755h94.716A7.74,7.74,0,0,0,1655.822,11183.124Z" transform="translate(-1545.37 -11105.4)"/></g><g class="h" transform="translate(82.103 184.222)"><path class="b" d="M1465.594,11164.316l-8.23-69.633a7.223,7.223,0,0,1,1.746-5.594,8.6,8.6,0,0,1,6.567-2.936h113.692a9.006,9.006,0,0,1,2.562.377,7.624,7.624,0,0,0-.553-.736,8.6,8.6,0,0,0-6.566-2.936H1461.12a8.6,8.6,0,0,0-6.567,2.936,7.219,7.219,0,0,0-1.746,5.594l8.23,69.633a7.867,7.867,0,0,0,5.746,6.49A7.336,7.336,0,0,1,1465.594,11164.316Z" transform="translate(-1452.757 -11082.859)"/></g><g transform="translate(80.332 182.393)"><path class="a" d="M1554.424,11158.811h-97.23a11.617,11.617,0,0,1-11.759-9.977l-8.23-69.632a10.743,10.743,0,0,1,2.712-8.49,12.08,12.08,0,0,1,9.047-3.991h113.692a12.08,12.08,0,0,1,9.047,3.991,10.743,10.743,0,0,1,2.712,8.49l-8.23,69.632A11.625,11.625,0,0,1,1554.424,11158.811Zm-105.462-88.795a8.787,8.787,0,0,0-6.584,2.884,7.49,7.49,0,0,0-1.9,5.913l8.23,69.632a8.324,8.324,0,0,0,8.485,7.067h97.23a8.324,8.324,0,0,0,8.485-7.067l8.23-69.632a7.488,7.488,0,0,0-1.9-5.913,8.782,8.782,0,0,0-6.584-2.884Z" transform="translate(-1437.129 -11066.721)"/></g><g class="c" transform="translate(39.201 273.45)"><path class="a" d="M1080.522,11882.986H1290.81a6.254,6.254,0,0,0,6.151-6.353h0a6.254,6.254,0,0,0-6.151-6.353h-84.671c-3.346,1.887-28.432,13.576-131.989,10.545Z" transform="translate(-1074.15 -11870.281)"/></g><g class="l" transform="translate(100.602 199.766)"><path class="b" d="M1626.47,11249.205h-6.34a4.12,4.12,0,0,1-4.12-4.12v-20.936a4.12,4.12,0,0,1,4.12-4.12h6.34a4.12,4.12,0,0,1,4.12,4.12v20.936A4.122,4.122,0,0,1,1626.47,11249.205Z" transform="translate(-1616.01 -11220.029)"/></g><g transform="translate(141.185 222.115)"><path class="a" d="M1989.9,11430.014l.058-.023a.658.658,0,0,1,.817.955,8.979,8.979,0,1,1-5.767-13.482.615.615,0,0,1,.121,1.166l-.018.008a6.172,6.172,0,0,0,4.789,11.377Z" transform="translate(-1974.147 -11417.262)"/></g><g transform="translate(239.962 36.197)"><g transform="translate(0 0)"><g transform="translate(1.7 1.692)"><path class="i" d="M2865.608,9857.1a1.7,1.7,0,0,1-1.469-2.557l4.822-8.259a4.968,4.968,0,0,0-.581-5.855,29.307,29.307,0,0,1,21.189-48.935c.194,0,.385-.006.578-.006a29.316,29.316,0,0,1,29.31,29.789,29.441,29.441,0,0,1-29.313,28.839h-.252a29.378,29.378,0,0,1-7.352-1,4.7,4.7,0,0,0-1.224-.161,4.837,4.837,0,0,0-2.438.663l-12.412,7.246A1.61,1.61,0,0,1,2865.608,9857.1Z" transform="translate(-2860.832 -9791.49)"/></g><path class="a" d="M2876.845,9779.959a27.615,27.615,0,1,1,0,55.229h-.238a27.539,27.539,0,0,1-6.926-.941,6.435,6.435,0,0,0-1.665-.218,6.53,6.53,0,0,0-3.3.9l-12.412,7.246,4.822-8.259a6.689,6.689,0,0,0-.789-7.852,27.607,27.607,0,0,1,19.961-46.095c.182,0,.364-.006.545-.006m0-3.4q-.3,0-.61,0a31.007,31.007,0,0,0-22.419,51.772,3.272,3.272,0,0,1,.376,3.858l-4.822,8.259a3.4,3.4,0,0,0,4.649,4.65l12.412-7.247a3.153,3.153,0,0,1,1.582-.432,2.978,2.978,0,0,1,.783.1,31,31,0,0,0,7.779,1.057l.268,0a31.147,31.147,0,0,0,31.012-30.513,31.015,31.015,0,0,0-31.011-31.516Z" transform="translate(-2845.832 -9776.56)"/></g><g class="m" transform="translate(5.423 15.186)"><path class="n" d="M2946.859,9925.113c-.014-.3-.033-.605-.056-.906-.012-.153-.025-.308-.04-.461-.03-.3-.065-.606-.1-.907-.017-.13-.031-.262-.049-.392-.058-.4-.124-.8-.2-1.192-.033-.173-.07-.343-.107-.513-.049-.233-.1-.467-.153-.7-.049-.2-.1-.408-.152-.61s-.1-.378-.154-.564c-.062-.22-.125-.44-.191-.658-.041-.13-.086-.26-.128-.389q-.248-.76-.538-1.5c-.027-.07-.053-.142-.082-.211q-.165-.41-.345-.812c-.036-.082-.071-.164-.109-.244-.127-.281-.257-.56-.393-.835-.01-.021-.021-.043-.033-.063a27.747,27.747,0,0,0-2.128-3.583,27.609,27.609,0,0,1-19.438,37.29c-12.806,2.836-20.26.44-24.795-4.031-.022-.026-1.841-4.364-1.864-4.391a28.084,28.084,0,0,1-2.115-2.658h0c.1.254.212.506.323.755l-.006-.007a27.674,27.674,0,0,0,4.766,7.354,6.687,6.687,0,0,1,.788,7.852L2894.74,9961l12.411-7.247a6.5,6.5,0,0,1,4.96-.675,27.64,27.64,0,0,0,6.926.94c.434,0,.866-.006,1.3-.021.4-.016.8-.043,1.19-.075.059,0,.119-.007.179-.013.363-.031.721-.076,1.08-.121.091-.012.181-.02.272-.033.336-.046.67-.1,1-.163.11-.019.22-.035.329-.057.317-.06.631-.13.944-.2.123-.027.245-.053.367-.082.3-.072.6-.154.9-.236.13-.036.263-.07.392-.107.288-.084.571-.177.854-.271.136-.045.274-.087.409-.135.274-.095.546-.2.817-.3.14-.055.282-.106.422-.163.263-.1.522-.217.781-.33.144-.062.288-.125.43-.19.25-.114.5-.235.744-.358.146-.072.292-.144.437-.219.239-.123.476-.254.711-.384.146-.081.293-.162.438-.245.229-.133.455-.271.68-.41.146-.09.293-.181.437-.273.218-.141.433-.285.647-.431.146-.1.292-.2.436-.3.207-.147.411-.3.614-.452q.218-.163.432-.331.294-.231.583-.472c.143-.119.286-.239.426-.36.186-.16.369-.324.551-.488.141-.128.279-.257.417-.387.176-.168.349-.336.52-.508.137-.137.272-.275.406-.414q.248-.258.489-.521c.134-.146.264-.293.395-.442.155-.177.308-.354.458-.536.128-.155.254-.312.38-.47.144-.181.287-.362.427-.548.124-.164.245-.331.365-.5.134-.185.266-.37.4-.559.118-.172.232-.348.347-.523s.246-.377.364-.568.22-.366.327-.551.224-.383.332-.577.206-.384.307-.576.2-.388.3-.584.192-.4.285-.6.184-.392.27-.591.175-.418.26-.628.163-.395.238-.595c.082-.216.156-.435.233-.653.07-.2.142-.4.207-.6.073-.225.138-.452.205-.68.059-.2.121-.4.176-.6.063-.235.119-.473.177-.71.047-.2.1-.394.143-.593.054-.247.1-.5.146-.748.037-.192.078-.385.11-.578.044-.264.078-.531.115-.8.025-.184.055-.366.077-.551.035-.3.059-.6.083-.9.013-.156.032-.309.042-.464q.046-.688.058-1.386c.007-.442,0-.882-.014-1.319C2946.874,9925.385,2946.866,9925.249,2946.859,9925.113Z" transform="translate(-2893.69 -9910.571)"/></g><g class="f" transform="translate(18.493 20.738)"><path class="b" d="M3034.563,9961.81c-3.029-3.03-8.09-2.945-11.531.095a9.221,9.221,0,0,0-5.463-2.318,7.71,7.71,0,0,0-6.068,2.224,8.471,8.471,0,0,0,0,11.966l9.309,9.311a3.144,3.144,0,0,0,4.444,0l9.309-9.31A8.47,8.47,0,0,0,3034.563,9961.81Z" transform="translate(-3009.027 -9959.566)"/></g><g class="f" transform="translate(3.398 3.404)"><path class="b" d="M2877.309,9836.416a27.614,27.614,0,0,1,48.921-17.784,27.61,27.61,0,1,0-44.131,33.1A27.461,27.461,0,0,1,2877.309,9836.416Z" transform="translate(-2875.823 -9806.604)"/></g><g transform="translate(17.108 19.371)"><path class="b" d="M3008.929,9959.266h0c2.822-2.821,7.4-2.315,10.217.506l.44.439.438-.439c2.822-2.821,7.4-3.327,10.217-.506h0a7.223,7.223,0,0,1,0,10.217l-.439.439-8.871,8.871a1.906,1.906,0,0,1-2.693,0l-8.871-8.871-.439-.439A7.226,7.226,0,0,1,3008.929,9959.266Z" transform="translate(-3005.679 -9956.266)"/><path class="a" d="M3010.715,9971.72a3.03,3.03,0,0,1-2.148-.888l-9.309-9.309a8.358,8.358,0,0,1,0-11.819h0c3.011-3.011,8.055-2.9,11.458.161,3.4-3.066,8.447-3.173,11.457-.161a8.367,8.367,0,0,1,0,11.818l-9.309,9.31A3.028,3.028,0,0,1,3010.715,9971.72Zm-6.012-21.953a5.373,5.373,0,0,0-3.844,1.539h0a6.093,6.093,0,0,0,0,8.614l9.309,9.309a.773.773,0,0,0,1.091,0l9.309-9.309a6.1,6.1,0,0,0,0-8.613c-2.237-2.236-6.1-2.01-8.614.5l-.439.44a1.133,1.133,0,0,1-1.6,0l-.438-.44A6.809,6.809,0,0,0,3004.7,9949.767Zm-4.644.737h0Z" transform="translate(-2996.81 -9947.504)"/></g></g><g class="o" transform="translate(0 286.691)"><path class="a" d="M1024.533,11991.637c0,5.742-66.335,10.4-148.161,10.4s-148.161-4.659-148.161-10.4c0-1.612,5.245-3.145,14.611-4.506h267.1C1019.287,11988.5,1024.533,11990.027,1024.533,11991.637Z" transform="translate(-728.21 -11987.131)"/></g><g transform="translate(24.923 43.289)"><g transform="translate(24.764 128.714)"><path class="p" d="M1178.989,10981.18l-3.985.615a1.854,1.854,0,0,0-1.549,1.55l-.615,3.985-.615-3.985a1.854,1.854,0,0,0-1.549-1.55l-3.985-.615,3.985-.615a1.853,1.853,0,0,0,1.549-1.549l.615-3.985.615,3.985a1.853,1.853,0,0,0,1.549,1.549Z" transform="translate(-1166.69 -10975.03)"/></g><g transform="translate(9.703 155.372)"><path class="p" d="M1045.32,11216.051l-3.74.578a1.737,1.737,0,0,0-1.453,1.452l-.578,3.739-.578-3.739a1.738,1.738,0,0,0-1.453-1.452l-3.739-.578,3.739-.578a1.739,1.739,0,0,0,1.453-1.453l.578-3.739.578,3.739a1.738,1.738,0,0,0,1.453,1.453Z" transform="translate(-1033.78 -11210.28)"/></g><g transform="translate(0 111.241)"><path class="p" d="M956.755,10825.133l-2.789.431a1.3,1.3,0,0,0-1.083,1.083l-.431,2.789-.431-2.789a1.3,1.3,0,0,0-1.083-1.083l-2.789-.431,2.789-.431a1.3,1.3,0,0,0,1.083-1.083l.431-2.789.431,2.789a1.3,1.3,0,0,0,1.083,1.083Z" transform="translate(-948.15 -10820.83)"/></g><g transform="translate(244.157 118.199)"><path class="p" d="M3102.8,10888.559l4.1.633a1.9,1.9,0,0,1,1.591,1.591l.632,4.095.632-4.095a1.9,1.9,0,0,1,1.591-1.591l4.1-.633-4.1-.632a1.906,1.906,0,0,1-1.591-1.591l-.632-4.1-.632,4.1a1.906,1.906,0,0,1-1.591,1.591Z" transform="translate(-3102.8 -10882.24)"/></g><g transform="translate(219.525 144.936)"><path class="p" d="M2885.42,11124.117l3.843.594a1.787,1.787,0,0,1,1.492,1.492l.594,3.843.594-3.843a1.787,1.787,0,0,1,1.492-1.492l3.843-.594-3.843-.594a1.787,1.787,0,0,1-1.492-1.492l-.594-3.842-.594,3.842a1.787,1.787,0,0,1-1.492,1.492Z" transform="translate(-2885.42 -11118.189)"/></g><g transform="translate(228.309 97.797)"><path class="p" d="M2962.94,10706.61l2.865.441a1.332,1.332,0,0,1,1.113,1.113l.442,2.866.442-2.866a1.331,1.331,0,0,1,1.113-1.113l2.866-.441-2.866-.442a1.33,1.33,0,0,1-1.113-1.113l-.442-2.865-.442,2.865a1.33,1.33,0,0,1-1.113,1.113Z" transform="translate(-2962.94 -10702.189)"/></g><g transform="translate(42.639 19.268)"><path class="p" d="M1334.063,10014.008l-3.122.481a1.453,1.453,0,0,0-1.214,1.214l-.482,3.121-.482-3.121a1.451,1.451,0,0,0-1.213-1.214l-3.122-.481,3.122-.482a1.448,1.448,0,0,0,1.213-1.213l.482-3.122.482,3.122a1.452,1.452,0,0,0,1.212,1.213Z" transform="translate(-1324.43 -10009.19)"/></g><g transform="translate(20.026 44.207)"><path class="p" d="M1134.881,10234.271l-3.241.5a1.506,1.506,0,0,0-1.259,1.26l-.5,3.24-.5-3.24a1.506,1.506,0,0,0-1.259-1.26l-3.241-.5,3.241-.5a1.506,1.506,0,0,0,1.259-1.259l.5-3.241.5,3.241a1.506,1.506,0,0,0,1.259,1.259Z" transform="translate(-1124.88 -10229.271)"/></g><g transform="translate(176.404 0)"><path class="p" d="M2504.89,9843.968l3.122.481a1.452,1.452,0,0,1,1.214,1.213l.482,3.123.481-3.123a1.453,1.453,0,0,1,1.213-1.213l3.122-.481-3.122-.481a1.452,1.452,0,0,1-1.213-1.214l-.481-3.122-.482,3.122a1.452,1.452,0,0,1-1.214,1.214Z" transform="translate(-2504.89 -9839.15)"/></g></g></svg>