<svg xmlns="http://www.w3.org/2000/svg" width="321.546" height="355.787" viewBox="0 0 321.546 355.787"><defs><style>.a{opacity:0.35;}.b{fill:#371a45;}.c{fill:#fff;}.d{opacity:0.7;}.e{fill:#111a28;}.f{opacity:0.43;}.g{fill:#22a7f0;}.h{opacity:0.5;}.i{opacity:0.3;}.j{fill:#102770;}.k{fill:#fce5e5;}</style></defs><g transform="translate(68 0)"><g class="a" transform="translate(0 326.735)"><ellipse class="b" cx="121.657" cy="14.526" rx="121.657" ry="14.526"/></g><g transform="translate(58.443 126.223)"><path class="c" d="M1586.38,1776.224v81.853a26.31,26.31,0,0,0,3.4,12.955,26.585,26.585,0,0,0,23.127,13.571h76.218a26.576,26.576,0,0,0,22.609-12.69,26.293,26.293,0,0,0,3.922-13.834v-81.854a26.409,26.409,0,0,0-6.77-17.647,26.473,26.473,0,0,0-19.76-8.877h-76.218a26.626,26.626,0,0,0-24.893,17.372A26.325,26.325,0,0,0,1586.38,1776.224Z" transform="translate(-1586.38 -1749.7)"/></g><g transform="translate(56.465 124.241)"><path class="b" d="M1675.867,1873.294h-76.221a28.538,28.538,0,0,1-28.506-28.506v-81.853a28.537,28.537,0,0,1,28.506-28.506h76.221a28.537,28.537,0,0,1,28.506,28.506v81.853A28.538,28.538,0,0,1,1675.867,1873.294Zm-76.221-134.905a24.574,24.574,0,0,0-24.547,24.545v81.853a24.573,24.573,0,0,0,24.547,24.545h76.221a24.574,24.574,0,0,0,24.547-24.545v-81.853a24.573,24.573,0,0,0-24.547-24.545Z" transform="translate(-1571.14 -1734.43)"/></g><g transform="translate(42.498 133.982)"><path class="c" d="M1496.2,1809.39s-33.01,37.538-33.01,68.888c0,26.832,33.01,36.062,33.01,36.062l45.75-77.483Z" transform="translate(-1463.19 -1809.39)"/></g><g transform="translate(42.5 133.98)"><path class="c" d="M1463.2,1878.258c0,26.837,33.01,36.063,33.01,36.063l1.129-1.907,44.623-75.575-34.49-20.709-11.26-6.76S1463.2,1846.91,1463.2,1878.258Z" transform="translate(-1463.2 -1809.37)"/></g><g class="a" transform="translate(56.324 140.736)"><path class="b" d="M1569.81,1927.26c0,15.494,11.007,25.119,20.3,30.485l44.623-75.575-34.491-20.709C1592.476,1871.056,1569.81,1901.278,1569.81,1927.26Z" transform="translate(-1569.81 -1861.46)"/></g><g transform="translate(40.519 131.434)"><path class="b" d="M1483.852,1899.565l-1.465-.41a63.835,63.835,0,0,1-17.092-8.243c-11.36-7.794-17.365-18.073-17.365-29.726,0-31.733,32.135-68.64,33.5-70.2l1.09-1.24,48.852,29.329Zm-.509-104.7c-5.612,6.737-31.453,39.238-31.453,66.325,0,21.925,23.956,31.573,30.129,33.694l43.948-74.429Z" transform="translate(-1447.93 -1789.75)"/></g><g transform="translate(166.147 131.455)"><path class="c" d="M2424.69,1837.726s13.986,17.516,36.389,13.649c23.232-4.009,19.119-42.674,19.119-42.674l-35.3-13.591s2.193,12.077-2.92,12.075c-5.724,0-15.943-13.474-24.869-17.516Z" transform="translate(-2417.11 -1789.67)"/></g><g class="a" transform="translate(168.515 146.474)"><path class="b" d="M2435.36,1905.48l5.21,33.031s13.985,17.512,36.392,13.649c23.231-4.009,19.118-42.675,19.118-42.675l-16.237,8.711c10.958,1.956,9.581,21.885-7.041,24.754-22.4,3.87-35.822-31.456-35.822-31.456Z" transform="translate(-2435.36 -1905.48)"/></g><g transform="translate(164.167 129.477)"><path class="b" d="M2441.288,1840.656c-19.235,0-30.885-14.285-31.425-14.961a1.98,1.98,0,0,1,3.092-2.473h0c.133.166,13.566,16.548,34.508,12.936,18.949-3.27,18-32.965,17.581-39.322l-31.048-11.955c.226,3.012.122,7.136-1.734,9.357a4.5,4.5,0,0,1-3.56,1.663h0c-3.807,0-8.272-3.957-13.444-8.535-4.107-3.636-8.354-7.4-12.242-9.157a1.98,1.98,0,1,1,1.634-3.606c4.433,2.008,8.907,5.969,13.234,9.8,3.99,3.533,8.514,7.538,10.82,7.539h0a.576.576,0,0,0,.519-.24c1.215-1.452.986-6.528.45-9.5l-.624-3.464,39.712,15.289.129,1.2c.177,1.654,4.025,40.558-20.751,44.834A40.4,40.4,0,0,1,2441.288,1840.656Z" transform="translate(-2401.85 -1774.425)"/></g><g class="a" transform="translate(148.007 280.682)"><path class="b" d="M2277.393,2940.61c-.218.1-.435.189-.653.283v.005C2276.957,2940.806,2277.175,2940.708,2277.393,2940.61Z" transform="translate(-2276.74 -2940.61)"/></g><g class="a" transform="translate(119.607 220.105)"><path class="b" d="M2059.34,2473.32q-.831,1.275-1.61,2.5C2058.253,2475,2058.792,2474.164,2059.34,2473.32Z" transform="translate(-2057.73 -2473.32)"/></g><g transform="translate(53.067 132.547)"><path class="c" d="M1545.007,1993.786c.031.336.078.674.14.994,1.678,9.94,13.322,13.493,34.279,10.747,9.488-1.233,22.609-2.7,26.069-10.255,6.91-15.083-.14-45.6.679-65.16v-.031a78.545,78.545,0,0,0,17.088,0l.016.476c.7,19.569-6.19,49.745.663,64.714,3.46,7.558,16.575,9.023,26.069,10.256,20.982,2.745,32.626-.813,34.289-10.778.052-.32.1-.637.135-.963C1685.641,1981.64,1668.7,1976,1668.7,1976s3.693-25.774,6.133-49.03a221.232,221.232,0,0,0,.937-29.959q-.117-3.909-.347-7.806-.327-5.539-.834-10.991-.444-4.724-1-9.334c-1.378-11.545-3.232-22.469-5.144-32.077-1.709-8.619-3.465-16.186-4.973-22.194q-.5-1.989-.958-3.745c-1.839-7.08-3.113-11.2-3.113-11.2h-89.364s-1.285,4.154-3.129,11.27c-1.088,4.169-2.367,9.365-3.7,15.343q-.777,3.5-1.574,7.355c-2.139,10.375-4.258,22.469-5.79,35.341q-.535,4.506-.973,9.126c-.352,3.76-.642,7.568-.86,11.395q-.241,4.072-.357,8.169-.078,2.711-.1,5.428a211.853,211.853,0,0,0,1.061,23.884c2.434,23.257,6.128,49.03,6.128,49.03S1543.8,1981.64,1545.007,1993.786Z" transform="translate(-1544.946 -1799.66)"/></g><g class="a" transform="translate(128.958 253.304)"><path class="b" d="M2133.137,2805.088c3.461,7.556,16.576,9.022,26.068,10.261,20.984,2.736,32.627-.817,34.288-10.787-17.177,6.826-47.459,2.928-52.637-5.733-6.706-11.214-7.792-22.422,2.636-36.394s11.231-32.2,11.231-32.2c-4.983,3.67-15.232,7.655-22.25,10.145C2133.177,2759.944,2126.282,2790.116,2133.137,2805.088Z" transform="translate(-2130.074 -2730.23)"/></g><g class="a" transform="translate(53.301 253.304)"><path class="b" d="M1546.49,2804.6c1.678,9.94,13.32,13.488,34.278,10.752,9.491-1.239,22.612-2.706,26.073-10.262,6.906-15.083-.145-45.6.675-65.157-5.807-1.818-16.559-5.535-22.221-9.7,0,0-2.854,13.113,9.291,31.036,9.8,14.464,10.512,25.969,3.807,37.178C1593.637,2806.4,1565.373,2809.663,1546.49,2804.6Z" transform="translate(-1546.49 -2730.23)"/></g><g transform="translate(51.1 145.814)"><path class="b" d="M1650.912,1903.419c2.162,6.466,3.932,13.049,5.5,19.679.777,3.317,1.512,6.646,2.162,9.991.323,1.673.661,3.344.963,5.022l.85,5.043c.293,1.679.552,3.365.8,5.053l.75,5.062c.226,1.691.435,3.384.636,5.079.219,1.692.387,3.391.553,5.09.754,6.785,1.134,13.612,1.424,20.441.153,6.835.271,13.677-.116,20.521l-.119,2.565-.06,1.283-.106,1.281-.427,5.126c-.293,3.413-.7,6.771-1.073,10.155q-2.324,20.265-5.189,40.444l-1.334-2.159c.92.321,1.693.645,2.514,1.01s1.6.749,2.379,1.16a34.284,34.284,0,0,1,4.507,2.848,24.116,24.116,0,0,1,3.993,3.732,16.668,16.668,0,0,1,2.894,4.888,13.9,13.9,0,0,1,.818,5.752,14.684,14.684,0,0,1-1.461,5.584,13.361,13.361,0,0,1-3.709,4.514,17.875,17.875,0,0,1-4.916,2.713,36.021,36.021,0,0,1-10.425,1.982,77.2,77.2,0,0,1-10.315-.187c-1.7-.147-3.4-.308-5.086-.527l-5.012-.655a83.579,83.579,0,0,1-10.113-1.915,36.511,36.511,0,0,1-5.028-1.717,20.37,20.37,0,0,1-4.782-2.841,14.1,14.1,0,0,1-2.057-2.1,11.463,11.463,0,0,1-1.514-2.577,29.62,29.62,0,0,1-1.684-5.105,55.249,55.249,0,0,1-1.325-10.327c-.161-3.43-.112-6.835.026-10.219.278-6.771.908-13.469,1.452-20.133a171.279,171.279,0,0,0,.808-19.831l2.22,1.882c-1.507.173-2.933.279-4.4.361s-2.92.121-4.386.122-2.927-.043-4.386-.122-2.894-.188-4.4-.361l2.22-1.882a171.279,171.279,0,0,0,.808,19.831c.544,6.663,1.175,13.362,1.452,20.133.137,3.386.187,6.791.026,10.219a55.131,55.131,0,0,1-1.326,10.327,29.687,29.687,0,0,1-1.683,5.105,11.436,11.436,0,0,1-1.514,2.577,14.116,14.116,0,0,1-2.057,2.1,20.372,20.372,0,0,1-4.782,2.841,36.6,36.6,0,0,1-5.028,1.717,83.825,83.825,0,0,1-10.113,1.915l-5.012.655c-1.686.219-3.384.38-5.085.527a77.615,77.615,0,0,1-10.315.187,36.022,36.022,0,0,1-10.427-1.982,17.878,17.878,0,0,1-4.916-2.713,13.386,13.386,0,0,1-3.709-4.514,14.658,14.658,0,0,1-1.461-5.584,13.9,13.9,0,0,1,.818-5.752,16.656,16.656,0,0,1,2.894-4.888,24.106,24.106,0,0,1,3.993-3.732,34.276,34.276,0,0,1,4.507-2.848q1.172-.617,2.379-1.16c.82-.365,1.594-.688,2.514-1.01l-1.335,2.159q-2.865-20.358-5.224-40.762c-.372-3.413-.784-6.793-1.081-10.24-.139-1.722-.332-3.441-.424-5.166l-.292-5.171c-.27-6.9-.232-13.8.042-20.677s.808-13.746,1.522-20.586c.157-1.713.357-3.419.555-5.127s.4-3.415.619-5.119c.423-3.412.886-6.818,1.418-10.214,1.047-6.806,2.322-13.52,3.918-20.267q.627-2.509,1.337-4.984c.461-1.656.959-3.3,1.479-4.944a88.994,88.994,0,0,1,3.615-9.708.663.663,0,0,1,1.253.407v.009c-1.372,6.671-2.633,13.379-3.959,20.052-1.19,6.647-2.376,13.393-3.475,20.1a322.383,322.383,0,0,0-4.325,40.547c-.27,6.785-.306,13.576-.042,20.349.28,6.769,1,13.489,1.775,20.3q2.326,20.347,5.209,40.647l.227,1.616-1.562.544c-.662.231-1.438.549-2.148.867s-1.437.673-2.137,1.042a30.121,30.121,0,0,0-3.983,2.515,15.777,15.777,0,0,0-5.551,6.823,9.942,9.942,0,0,0-.583,4.123,10.74,10.74,0,0,0,1.054,4.079,11.293,11.293,0,0,0,6.481,5.293,32.179,32.179,0,0,0,9.255,1.732,73.469,73.469,0,0,0,9.771-.18c1.638-.141,3.275-.3,4.913-.51l4.956-.648a79.925,79.925,0,0,0,9.629-1.817,22.474,22.474,0,0,0,8.318-3.788,10.135,10.135,0,0,0,1.451-1.48l.3-.405.262-.422a4.378,4.378,0,0,0,.234-.435l.114-.219.109-.265a25.779,25.779,0,0,0,1.456-4.429,51.3,51.3,0,0,0,1.221-9.584c.154-3.266.108-6.569-.027-9.879-.271-6.623-.9-13.275-1.442-19.97a174.784,174.784,0,0,1-.819-20.321l.078-2.125,2.143.244c1.329.152,2.75.261,4.132.337s2.784.114,4.171.117,2.779-.04,4.171-.117,2.8-.186,4.132-.337l2.142-.244.078,2.125a174.193,174.193,0,0,1-.819,20.321c-.546,6.694-1.171,13.347-1.442,19.97-.135,3.31-.18,6.613-.027,9.879a51.3,51.3,0,0,0,1.221,9.584,25.661,25.661,0,0,0,1.455,4.429l.11.265.114.219a4.378,4.378,0,0,0,.234.435l.262.422.3.405a10.283,10.283,0,0,0,1.451,1.48,22.451,22.451,0,0,0,8.318,3.788,79.984,79.984,0,0,0,9.629,1.817l4.956.648c1.636.213,3.275.367,4.913.51a73.465,73.465,0,0,0,9.771.18,32.214,32.214,0,0,0,9.255-1.732,11.292,11.292,0,0,0,6.48-5.293,10.739,10.739,0,0,0,1.054-4.079,9.942,9.942,0,0,0-.583-4.123,15.775,15.775,0,0,0-5.551-6.823,30.182,30.182,0,0,0-3.983-2.515q-1.051-.555-2.137-1.042c-.71-.318-1.486-.636-2.148-.867l-1.562-.544.227-1.616q2.832-20.121,5.174-40.33c.366-3.361.78-6.741,1.067-10.089l.418-5.02.105-1.255.052-1.26.1-2.519c.336-6.714.217-13.456-.016-20.184-.653-13.462-2.1-26.89-4.068-40.252-2-13.361-4.429-26.657-6.745-40.043a.661.661,0,0,1,1.28-.319Z" transform="translate(-1529.785 -1901.9)"/></g><g transform="translate(63.775 283.597)"><path class="b" d="M1649.8,2973.834c-16.231,0-21.814-7.069-22.141-7.5a1.98,1.98,0,0,1,3.153-2.4c.172.215,10.8,12.843,46.873.508a1.98,1.98,0,1,1,1.282,3.747C1666.715,2972.378,1657.161,2973.834,1649.8,2973.834Z" transform="translate(-1627.258 -2963.162)"/></g><g transform="translate(128.539 285.813)"><path class="b" d="M2159.235,2990.063c-14.529,0-30.1-5.127-31.089-5.458a1.98,1.98,0,0,1,1.257-3.756c.35.117,35.09,11.554,47.133.423a1.98,1.98,0,1,1,2.687,2.908C2174.438,2988.6,2166.984,2990.063,2159.235,2990.063Z" transform="translate(-2126.794 -2980.747)"/></g><g transform="translate(26.073 0)"><g transform="translate(1.626 63.208)"><path class="c" d="M1371.809,1311.894h0a1.529,1.529,0,0,0,1.307-1.722l-5.99-43.621a1.529,1.529,0,0,0-1.722-1.307h0a16.037,16.037,0,0,0-13.706,18.069l2.042,14.875A16.036,16.036,0,0,0,1371.809,1311.894Z" transform="translate(-1351.191 -1264.872)"/><path class="b" d="M1367.206,1310A16.4,16.4,0,0,1,1351,1295.835l-2.042-14.875a16.392,16.392,0,0,1,14.01-18.471,1.885,1.885,0,0,1,2.123,1.61l5.99,43.621a1.887,1.887,0,0,1-1.61,2.123h0A16.5,16.5,0,0,1,1367.206,1310Zm-3.98-46.816a1.146,1.146,0,0,0-.162.012,15.682,15.682,0,0,0-13.4,17.669l2.042,14.875a15.681,15.681,0,0,0,17.669,13.4,1.174,1.174,0,0,0,1-1.322l-5.99-43.621a1.176,1.176,0,0,0-1.16-1.015Z" transform="translate(-1348.803 -1262.471)"/></g><g class="a" transform="translate(3.217 89.549)"><path class="b" d="M1361.07,1465.46l.956,6.976a16.044,16.044,0,0,0,18.071,13.707,1.533,1.533,0,0,0,1.307-1.726l-1.588-11.6a1.531,1.531,0,0,1-1.255,1.088l-1.034.139A16.021,16.021,0,0,1,1361.07,1465.46Z" transform="translate(-1361.07 -1465.46)"/></g><g transform="translate(0 61.585)"><path class="b" d="M1356.3,1300.739a18.024,18.024,0,0,1-17.812-15.569l-2.042-14.875a18.016,18.016,0,0,1,15.4-20.3,3.508,3.508,0,0,1,3.953,3l5.99,43.621a3.514,3.514,0,0,1-3,3.954h0A18.493,18.493,0,0,1,1356.3,1300.739Zm-4.364-46.752a14.056,14.056,0,0,0-11.568,15.769l2.043,14.875A14.056,14.056,0,0,0,1357.8,1296.7Z" transform="translate(-1336.276 -1249.961)"/></g><g transform="translate(158.145 43.301)"><path class="c" d="M2559.021,1111.958h0a1.53,1.53,0,0,0-1.307,1.722l5.99,43.621a1.529,1.529,0,0,0,1.722,1.307h0a16.037,16.037,0,0,0,13.706-18.069l-2.042-14.875A16.036,16.036,0,0,0,2559.021,1111.958Z" transform="translate(-2557.345 -1111.451)"/><path class="b" d="M2562.835,1156.591a1.887,1.887,0,0,1-1.864-1.629l-5.99-43.621a1.886,1.886,0,0,1,1.61-2.123h0a16.39,16.39,0,0,1,18.47,14.01l2.042,14.875a16.392,16.392,0,0,1-14.009,18.471A2.177,2.177,0,0,1,2562.835,1156.591Zm-6.147-46.668a1.173,1.173,0,0,0-1,1.321l5.99,43.621a1.174,1.174,0,0,0,1.321,1,15.681,15.681,0,0,0,13.4-17.669l-2.042-14.875a15.679,15.679,0,0,0-17.668-13.4Z" transform="translate(-2554.964 -1109.063)"/></g><g class="a" transform="translate(162.839 66.124)"><path class="b" d="M2591.14,1295.866l1.664,12.1a1.533,1.533,0,0,0,1.726,1.307,16.03,16.03,0,0,0,13.7-18.066l-.86-6.268a16.041,16.041,0,0,1-13.192,11.318l-1.592.218A1.543,1.543,0,0,1,2591.14,1295.866Z" transform="translate(-2591.14 -1284.94)"/></g><g transform="translate(156.52 41.675)"><path class="b" d="M2551.943,1147.31a3.513,3.513,0,0,1-3.474-3.033l-5.99-43.621a3.512,3.512,0,0,1,3-3.953h0a18.016,18.016,0,0,1,20.3,15.4l2.042,14.875a18.015,18.015,0,0,1-15.4,20.3A3.343,3.343,0,0,1,2551.943,1147.31Zm-5.479-46.737,5.867,42.713a14.056,14.056,0,0,0,11.567-15.769l-2.042-14.875a14.057,14.057,0,0,0-15.392-12.068Z" transform="translate(-2542.446 -1096.532)"/></g><g class="a" transform="translate(34.091 126.432)"><path class="b" d="M1598.99,1767.054q1.99,2.083,4.112,4a78.681,78.681,0,0,0,104.736.817q1.181-1.041,2.315-2.129a77.375,77.375,0,0,0,6.257-6.708q1.818-2.176,3.449-4.481a26.473,26.473,0,0,0-19.76-8.877h-76.218A26.627,26.627,0,0,0,1598.99,1767.054Z" transform="translate(-1598.99 -1749.68)"/></g><g transform="translate(15.612 1.623)"><ellipse class="c" cx="75.032" cy="75.032" rx="75.032" ry="75.032" transform="translate(0.38 0.365)"/><path class="b" d="M1531.841,938.7a75.5,75.5,0,1,1,15.681-1.643A76.059,76.059,0,0,1,1531.841,938.7Zm.171-150.1a74.68,74.68,0,1,0,73.057,59.3A74.77,74.77,0,0,0,1532.012,788.6Z" transform="translate(-1456.582 -787.888)"/></g><g class="a" transform="translate(16.166 58.101)"><path class="b" d="M1460.85,1247.173a75.034,75.034,0,1,0,148.283-20.6c-.245-1.167-.518-2.328-.815-3.465a75.035,75.035,0,0,1-147.468,24.063Z" transform="translate(-1460.85 -1223.11)"/></g><g transform="translate(13.987)"><path class="b" d="M1520.94,929.436a77.078,77.078,0,0,1-75.2-61.174h0a77.012,77.012,0,1,1,91.223,59.5A77.728,77.728,0,0,1,1520.94,929.436Zm.173-150.1a73.062,73.062,0,0,0-71.5,88.106h0a73.051,73.051,0,1,0,71.5-88.106Z" transform="translate(-1444.059 -775.378)"/></g><g transform="translate(17.09 23.542)"><path class="b" d="M1469.116,1027.567a67.3,67.3,0,0,0,20.247,36.393c7.615,7.131,35.1,16.854,65.6,11.2,28.281-5.245,51.037-25.3,55.419-34.767a67.3,67.3,0,0,0,5.11-41.332c-7.428-38.138-43.273-47.567-83.7-39.694S1461.688,989.43,1469.116,1027.567Z" transform="translate(-1467.973 -956.799)"/></g><g transform="translate(15.092 21.572)"><path class="b" d="M1522.712,1065.654c-23.583,0-42.131-7.873-48.1-13.462a69.211,69.211,0,0,1-20.838-37.46c-3.646-18.719,1.05-34.614,13.955-47.244,11.255-11.015,28.646-19.064,50.292-23.28s40.787-3.281,55.353,2.7c16.7,6.863,27.02,19.835,30.665,38.554a69.211,69.211,0,0,1-5.257,42.541c-4.6,9.948-27.542,30.447-56.855,35.883A105.406,105.406,0,0,1,1522.712,1065.654Zm-65.051-51.68a65.284,65.284,0,0,0,19.657,35.326c6.788,6.356,33.32,16.366,63.889,10.7,27.583-5.115,49.806-24.627,53.983-33.652a65.279,65.279,0,0,0,4.964-40.121c-3.375-17.329-12.891-29.323-28.284-35.648-13.849-5.692-32.207-6.549-53.091-2.481s-37.579,11.752-48.28,22.223C1458.606,981.957,1454.287,996.646,1457.661,1013.975Z" transform="translate(-1452.578 -941.614)"/></g><g class="d" transform="translate(27.213 68.627)"><ellipse class="c" cx="9.622" cy="13.278" rx="9.622" ry="13.278" transform="matrix(0.932, -0.363, 0.363, 0.932, 0, 6.988)"/></g><g class="d" transform="translate(50.065 100.176)"><ellipse class="c" cx="5.23" cy="6.095" rx="5.23" ry="6.095" transform="translate(0 5.108) rotate(-29.236)"/></g><g class="a" transform="translate(17.091 55.959)"><path class="e" d="M1476.43,1206.61c-7.285,10.28-10.287,23.031-7.306,38.349a67.342,67.342,0,0,0,20.245,36.4c7.616,7.131,35.106,16.853,65.607,11.2a92.556,92.556,0,0,0,29.194-11.034c-37.641,6.15-71.151-5.828-80.594-14.673a85.384,85.384,0,0,1-25.7-46.188A75.906,75.906,0,0,1,1476.43,1206.61Z" transform="translate(-1467.982 -1206.61)"/></g><g transform="translate(16.033 14.146)"><path class="b" d="M1461.81,931.863a1.981,1.981,0,0,1-1.748-2.909c9.573-20.922,32.6-36.333,63.192-42.292,30.84-6.006,58.064.016,74.694,16.521l-1.383,1.414-1.248,1.536,1.248-1.536-1.25,1.536-.156-.139c-15.684-15.566-41.614-21.2-71.147-15.445-29.369,5.72-51.38,20.351-60.389,40.143l-.088.2-.193.253A1.979,1.979,0,0,1,1461.81,931.863Z" transform="translate(-1459.831 -884.388)"/></g><g class="d" transform="translate(82.545 34.117)"><path class="c" d="M2042.428,1095.861s4.485-39.924-18.712-50.967-52.357-5.3-51.31-3.563c0,0,33.819,1.529,51.427,24.6C2037.411,1083.719,2042.428,1095.861,2042.428,1095.861Z" transform="translate(-1972.379 -1038.286)"/></g></g><g transform="translate(129.437 253.405)"><path class="b" d="M2135.2,2737.972l2.788-.716c.945-.266,1.9-.513,2.841-.8q2.844-.814,5.647-1.814c1.879-.645,3.713-1.405,5.585-2.136,1.89-.714,3.724-1.545,5.733-2.246a24.205,24.205,0,0,1-4.565,4.326,30.735,30.735,0,0,1-2.61,1.76c-.911.514-1.822,1.042-2.761,1.508a45.3,45.3,0,0,1-5.8,2.468,34.27,34.27,0,0,1-6.2,1.555,1.98,1.98,0,0,1-.781-3.875Z" transform="translate(-2133.604 -2730.26)"/></g><g transform="translate(92.083 253.404)"><path class="b" d="M1867.452,2741.866a34.346,34.346,0,0,1-6.2-1.555,45.447,45.447,0,0,1-5.8-2.468c-.939-.467-1.851-.994-2.761-1.508a31.02,31.02,0,0,1-2.61-1.76,24.15,24.15,0,0,1-4.566-4.326c2.009.7,3.844,1.532,5.733,2.246,1.873.731,3.708,1.491,5.585,2.136q2.8,1,5.647,1.814c.944.287,1.9.533,2.841.8l2.787.716.109.027a1.98,1.98,0,0,1-.771,3.877Z" transform="translate(-1845.52 -2730.25)"/></g><g transform="translate(146.812 306.152)"><path class="b" d="M2297.254,3142.165c-1.152-.139-2.429-.27-3.656-.375s-2.481-.2-3.724-.251q-3.729-.195-7.46-.044a67.748,67.748,0,0,0-7.4.846,55.674,55.674,0,0,0-7.37,1.961,21.675,21.675,0,0,1,6.7-4.248,36.637,36.637,0,0,1,7.723-2.036,51.632,51.632,0,0,1,7.94-.532c1.325.026,2.65.074,3.971.21a34.564,34.564,0,0,1,3.993.576,1.98,1.98,0,0,1-.627,3.906Z" transform="translate(-2267.64 -3137.482)"/></g><g transform="translate(66.944 306.15)"><path class="b" d="M1653.242,3138.261a34.267,34.267,0,0,1,3.993-.576c1.321-.137,2.646-.185,3.971-.21a51.622,51.622,0,0,1,7.94.532,36.823,36.823,0,0,1,7.722,2.036,21.656,21.656,0,0,1,6.7,4.249,55.87,55.87,0,0,0-7.37-1.96,67.763,67.763,0,0,0-7.4-.847q-3.728-.151-7.46.044c-1.243.049-2.486.151-3.724.252s-2.5.236-3.656.375l-.074.009a1.979,1.979,0,0,1-.635-3.9Z" transform="translate(-1651.659 -3137.472)"/></g><g class="a" transform="translate(93.003 254.07)"><path class="b" d="M1912.362,2735.37s-15.776,2.66-27.958,2.66-31.684-2.66-31.684-2.66,11.708,9.406,30.375,9C1902.229,2743.956,1912.362,2735.37,1912.362,2735.37Z" transform="translate(-1852.72 -2735.37)"/></g><g class="a" transform="translate(62.131 183.436)"><path class="b" d="M1614.8,2229.779c2.6.176,5.324.28,8.055.254.372,0,.736-.005,1.108-.015.388-.005.777-.016,1.165-.036.265-.005.523-.016.777-.026.3-.015.611-.031.916-.052.383-.021.772-.047,1.155-.078H1628c.383-.026.772-.062,1.155-.1.249-.026.5-.052.752-.083.213-.016.424-.042.632-.068.331-.036.663-.083.984-.13s.611-.088.912-.14a1.029,1.029,0,0,0,.182-.026c.352-.052.7-.114,1.041-.182s.694-.13,1.03-.2l.083-.016c.192-.047.383-.083.565-.13.213-.047.419-.094.627-.151h.005c.114-.031.223-.057.336-.094v4.221a10.641,10.641,0,0,0,10.608,10.6h57.9a10.639,10.639,0,0,0,10.6-10.6v-3.372a89.377,89.377,0,0,0,20.8.135q-.327-5.539-.834-10.991-.444-4.724-1-9.334a167.728,167.728,0,0,1-18.968-.315v-7.563a10.628,10.628,0,0,0-10.6-10.6h-57.9a10.619,10.619,0,0,0-10.607,10.6v7.085c-1.222.182-2.517.326-3.849.445a151.682,151.682,0,0,1-15.824.435q-.535,4.506-.973,9.127C1615.307,2222.143,1615.017,2225.95,1614.8,2229.779Z" transform="translate(-1614.8 -2190.69)"/></g><g transform="translate(152.425 196.356)"><path class="c" d="M2310.95,2308.291c8.2,3.321,20.9,2.627,29.557,1.579a9.3,9.3,0,0,0,8.072-10.592h0a9.293,9.293,0,0,0-9.62-7.93c-8.1.379-20.241.557-27.931-1.148" transform="translate(-2310.95 -2290.2)"/></g><g class="a" transform="translate(152.425 202.124)"><path class="b" d="M2310.95,2346.989c8.205,3.321,20.9,2.626,29.554,1.579a9.3,9.3,0,0,0,6.92-13.9,9.247,9.247,0,0,1-6.92,4.568c-8.64,1.046-21.309,1.74-29.513-1.564Z" transform="translate(-2310.95 -2334.67)"/></g><g transform="translate(146.55 194.343)"><path class="b" d="M2287.86,2299.22c-6.112,0-12.264-.652-17.05-2.589h0c-5.719-2.315-5.886-11.424-4.2-16.851,1.634-5.251,4.354-5.253,5.447-5.011,7.346,1.63,18.962,1.5,27.411,1.1a11.281,11.281,0,0,1,1.879,22.467A114.342,114.342,0,0,1,2287.86,2299.22Zm-15.563-6.26c7.711,3.122,19.8,2.511,28.576,1.448a7.32,7.32,0,0,0-1.218-14.578c-8.585.4-20.393.528-28.171-1.133-.784.786-2.143,4.586-1.775,8.883.116,1.348.6,4.574,2.589,5.38Z" transform="translate(-2265.678 -2274.692)"/></g><g transform="translate(52.032 196.35)"><path class="c" d="M1544.826,2309.825a110.111,110.111,0,0,0,13.98.86c.341,0,.678-.005,1.02-.015.357-.006.72-.016,1.077-.031.244-.005.481-.016.715-.026l.845-.047c.357-.021.715-.047,1.067-.073h.026c.352-.026.71-.057,1.062-.094.234-.021.466-.047.694-.073.2-.016.393-.042.585-.062.306-.036.611-.078.907-.119s.564-.083.84-.13a.865.865,0,0,0,.166-.026c.326-.047.647-.1.963-.166s.637-.119.947-.187l.078-.015c.177-.042.352-.078.523-.119.192-.042.383-.088.575-.14h.005c.585-.146,1.16-.31,1.719-.487.3-.094.6-.2.9-.3s.585-.218.866-.331l-.036-8.686-.042-9.407a52.779,52.779,0,0,1-6.64.968,166.462,166.462,0,0,1-21.288.182c-.146-.005-.291-.01-.44-.01a9.3,9.3,0,0,0-1.109,18.536Z" transform="translate(-1536.655 -2290.15)"/></g><g class="a" transform="translate(52.032 202.639)"><path class="b" d="M1544.827,2352.024a110.207,110.207,0,0,0,13.98.86c.341,0,.679-.005,1.02-.016.357-.005.72-.015,1.077-.031.244-.005.481-.016.715-.026l.845-.047c.357-.021.715-.047,1.067-.073h.026c.352-.026.71-.057,1.062-.093.234-.021.466-.047.694-.073.2-.016.393-.042.585-.062.3-.036.611-.078.907-.119s.565-.083.84-.13a.845.845,0,0,0,.166-.026c.326-.047.647-.1.963-.166s.637-.119.947-.187l.078-.016c.176-.042.352-.078.523-.119.192-.042.383-.088.575-.14h.005c.585-.145,1.16-.311,1.719-.486.3-.094.6-.2.9-.3s.585-.218.866-.331l-.036-8.292c-.27.109-.544.218-.829.315s-.6.208-.9.3c-.559.177-1.134.341-1.719.486h-.005c-.192.052-.383.1-.575.14-.171.042-.347.078-.523.119l-.078.015q-.467.1-.947.187c-.315.062-.637.119-.963.166a.845.845,0,0,1-.166.026c-.275.047-.554.088-.84.13s-.6.083-.907.119c-.192.021-.388.047-.585.062-.228.026-.461.052-.694.073-.352.036-.71.067-1.062.094h-.026c-.352.026-.71.052-1.067.073l-.845.047c-.234.01-.471.021-.715.026-.357.016-.72.026-1.077.031-.341.01-.679.016-1.02.016a109.982,109.982,0,0,1-13.98-.86,9.27,9.27,0,0,1-7.194-5.077,9.307,9.307,0,0,0,7.194,13.384Z" transform="translate(-1536.655 -2338.64)"/></g><g transform="translate(50.047 194.345)"><path class="b" d="M1544.764,2299.228a114.23,114.23,0,0,1-13.488-.88,11.28,11.28,0,0,1,1.879-22.465c8.449.4,20.063.526,27.41-1.1,1.094-.241,3.814-.241,5.448,5.012,1.688,5.427,1.52,14.534-4.2,16.85h0C1557.03,2298.575,1550.876,2299.228,1544.764,2299.228Zm-12.142-19.4a7.32,7.32,0,0,0-.868,14.586c8.78,1.063,20.864,1.674,28.576-1.448l.744,1.834-.744-1.834c1.991-.806,2.475-4.032,2.59-5.382.367-4.3-.991-8.095-1.775-8.881-7.78,1.66-19.586,1.535-28.171,1.133C1532.854,2279.832,1532.738,2279.829,1532.622,2279.829Z" transform="translate(-1521.36 -2274.701)"/></g><g transform="translate(86.545 180.599)"><path class="c" d="M1802.95,2178.555v28.994a9.813,9.813,0,0,0,9.783,9.783h53.4a9.811,9.811,0,0,0,9.775-9.783v-28.994a9.8,9.8,0,0,0-9.775-9.775h-53.4a9.8,9.8,0,0,0-9.783,9.775Z" transform="translate(-1802.95 -2168.78)"/></g><g class="f" transform="translate(86.545 180.602)"><path class="c" d="M1802.95,2178.574v28.995a9.812,9.812,0,0,0,9.784,9.779h53.4a9.81,9.81,0,0,0,9.774-9.779v-28.995a9.8,9.8,0,0,0-9.774-9.774h-53.4a9.8,9.8,0,0,0-9.784,9.774Z" transform="translate(-1802.95 -2168.8)"/></g><g class="a" transform="translate(86.545 197.164)"><path class="b" d="M1802.95,2303.135v15.554a9.812,9.812,0,0,0,9.784,9.779h53.4a9.81,9.81,0,0,0,9.774-9.779v-22.2c-10.458,4.159-5.513,22.518-26.158,21.306-16.75-.984-19.251-14.484-19.251-14.484h-19.931s.054,8.7-3.2,8.758C1804.824,2312.111,1803.738,2308.231,1802.95,2303.135Z" transform="translate(-1802.95 -2296.49)"/></g><g transform="translate(162.902 175.397)"><path class="c" d="M2391.6,2128.42" transform="translate(-2391.6 -2128.42)"/></g><g transform="translate(84.567 178.616)"><path class="b" d="M1852.866,2206.014h-53.4a11.771,11.771,0,0,1-11.758-11.758v-29a11.771,11.771,0,0,1,11.758-11.758h53.4a11.771,11.771,0,0,1,11.758,11.758v29A11.773,11.773,0,0,1,1852.866,2206.014Zm-53.4-48.554a7.807,7.807,0,0,0-7.8,7.8v29a7.806,7.806,0,0,0,7.8,7.8h53.4a7.807,7.807,0,0,0,7.8-7.8v-29a7.807,7.807,0,0,0-7.8-7.8Z" transform="translate(-1787.71 -2153.5)"/></g><g transform="translate(92.191 192.951)"><circle class="g" cx="8.432" cy="8.432" r="8.432" transform="translate(0 11.925) rotate(-45)"/></g><g transform="translate(95.686 196.45)"><path class="c" d="M1873.29,2299.3a8.042,8.042,0,0,0,.109,1.343,8.432,8.432,0,0,1,16.649,0,7.927,7.927,0,0,0,.109-1.343,8.433,8.433,0,0,0-16.867,0Z" transform="translate(-1873.29 -2290.87)"/></g><g class="a" transform="translate(95.69 201.822)"><path class="b" d="M1873.32,2335.371a8.431,8.431,0,1,0,16.862,0,8.235,8.235,0,0,0-.579-3.051,8.425,8.425,0,0,1-15.7,0A8.225,8.225,0,0,0,1873.32,2335.371Z" transform="translate(-1873.32 -2332.32)"/></g><g transform="translate(94.202 194.959)"><path class="b" d="M1871.768,2299.255a9.917,9.917,0,1,1,9.918-9.917A9.929,9.929,0,0,1,1871.768,2299.255Zm0-16.865a6.947,6.947,0,1,0,6.948,6.948A6.956,6.956,0,0,0,1871.768,2282.39Z" transform="translate(-1861.85 -2279.42)"/></g><g transform="translate(126.013 178.617)"><path class="b" d="M2109.15,2206.022a1.98,1.98,0,0,1-1.98-1.98v-16.833a9.731,9.731,0,0,1,3.859-7.736l4.538-3.417a5.749,5.749,0,0,0,2.281-4.572v-16a1.98,1.98,0,0,1,3.96,0v16a9.731,9.731,0,0,1-3.859,7.735l-4.538,3.417a5.749,5.749,0,0,0-2.281,4.572v16.833A1.98,1.98,0,0,1,2109.15,2206.022Z" transform="translate(-2107.17 -2153.51)"/></g><g transform="translate(190.205 80.988)"><g transform="translate(1.971 31.89)"><path class="c" d="M2618.4,1675.528c4.673,19.395,24.239,17.587,29.625,16.277,11.233-2.735,15.087-13.322,15.087-13.322l-9.06-11.975-4.028-6.481-4.812-1.447c-3.781-6.892-11.836-14.708-16.461-11.95C2628.755,1646.632,2614.375,1658.811,2618.4,1675.528Z" transform="translate(-2617.692 -1646.063)"/></g><g class="a" transform="translate(13.167 45.704)"><path class="b" d="M2739.867,1764.865c0,6.043-7.916,11.526-24.955,9.539-6-.7-10.942-4.9-10.942-10.942a10.942,10.942,0,0,1,10.942-10.942C2720.955,1752.521,2739.867,1758.823,2739.867,1764.865Z" transform="translate(-2703.97 -1752.52)"/></g><g transform="translate(19.04 1.977)"><path class="c" d="M2778.653,1452.065c-4.474,4.49-8.391,7.8-8.391,7.8l-12.556,12.848-8.474-20.693s-.049-4.176.276-9.7c.634-10.945,2.72-27.18,9.483-26.76,12.165.755,4.115,32.79,4.115,32.79s19.418-25.889,27.2-18.536C2794.854,1434.115,2786,1444.684,2778.653,1452.065Z" transform="translate(-2749.23 -1415.549)"/></g><g class="a" transform="translate(19.04 28.745)"><path class="b" d="M2778.653,1631.578c-4.474,4.49-8.391,7.8-8.391,7.8l-12.556,12.848-8.474-20.693s-.049-4.176.276-9.7c3.26,2.576,9.342,7.254,11.469,10.041C2764.642,1636.671,2773.743,1630.629,2778.653,1631.578Z" transform="translate(-2749.23 -1621.83)"/></g><g transform="translate(17.058)"><path class="b" d="M2744.417,1461.44a1.979,1.979,0,0,1-1.833-1.229l-8.472-20.7a1.994,1.994,0,0,1-.148-.728c-.033-3.022-.123-29.734,7.131-36.628a6.238,6.238,0,0,1,4.731-1.832,7.574,7.574,0,0,1,5.8,3.2c3.885,5.314,2.977,16.439,1.725,24.131,5.193-5.907,13.257-13.823,19.577-14.36a6.869,6.869,0,0,1,5.454,1.826,6.067,6.067,0,0,1,1.862,4.718c-.266,9.557-19.372,26.065-21.914,28.22l-12.492,12.786A1.988,1.988,0,0,1,2744.417,1461.44Zm-6.5-23.075,7.186,17.555,10.45-10.7c.044-.046.09-.088.138-.129,7.87-6.654,20.418-19.426,20.583-25.368a2.07,2.07,0,0,0-.623-1.731,2.9,2.9,0,0,0-2.4-.758c-6.629.563-18.026,13.937-21.858,19.043a1.98,1.98,0,0,1-3.5-1.671c1.532-6.1,4.613-23.167.528-28.752a3.585,3.585,0,0,0-2.843-1.582,2.218,2.218,0,0,0-1.757.75C2738.811,1409.79,2737.867,1430.342,2737.921,1438.365Z" transform="translate(-2733.958 -1400.315)"/></g><g transform="translate(24.962 42.815)"><path class="c" d="M2819.6,1749.51c-2.979,4.843-15.628,7.1-20.323,3.465-3.994-3.1-.005-7.05,1.131-8.054.177-.16.287-.243.287-.243s-4.86-1.49-5.71-5.583a5.576,5.576,0,0,1-.11-.833c-.3-4.722,12.312-8.8,18.039-7.878,4.281.689,5.914,2.433,6.316,4.3a7.973,7.973,0,0,1-1.181,5.246c-.3.519-.524.828-.524.828S2821.99,1745.631,2819.6,1749.51Z" transform="translate(-2794.87 -1730.253)"/></g><g class="a" transform="translate(25.078 47.242)"><path class="b" d="M2818.825,1769.616a44.69,44.69,0,0,1-17.642,4.992c.177-.16.287-.243.287-.243s-4.86-1.49-5.71-5.583c4.485.982,16.875,2.852,24.246-4.413A7.97,7.97,0,0,1,2818.825,1769.616Z" transform="translate(-2795.76 -1764.37)"/></g><g class="a" transform="translate(27.634 56.507)"><path class="b" d="M2837.516,1841.335c-2.979,4.843-15.628,7.1-20.323,3.465a3.73,3.73,0,0,1-1.39-4.733,5.985,5.985,0,0,0,.767.706c4.688,3.641,17.338,1.379,20.317-3.458a4.564,4.564,0,0,0,.607-1.544A5.854,5.854,0,0,1,2837.516,1841.335Z" transform="translate(-2815.457 -1835.77)"/></g><g transform="translate(22.986 40.839)"><path class="b" d="M2792.9,1743.5c-3.341,0-6.213-.764-8.086-2.217a5.805,5.805,0,0,1-2.506-4.662,7.711,7.711,0,0,1,1.807-4.611,8.8,8.8,0,0,1-4.466-6.876,5.829,5.829,0,0,1,2.264-4.714c4.224-3.837,13.34-6.007,18.064-5.249h0c4.012.646,6.573,2.254,7.611,4.781,1.149,2.8-.005,5.75-.907,7.412,1.419,2,3.676,6.156,1.352,9.93-1.673,2.715-5.66,4.879-10.669,5.788A25,25,0,0,1,2792.9,1743.5Zm4.916-24.527c-4.045,0-10.428,1.825-13.239,4.38-.645.585-1,1.143-.975,1.53.209,3.278,4.387,4.635,4.43,4.648a1.984,1.984,0,0,1,.632,3.451c-.781.619-2.4,2.328-2.395,3.636,0,.337.105.864.973,1.536,1.713,1.329,5.5,1.744,9.417,1.032,3.744-.68,6.96-2.275,8-3.969,1.545-2.511-1.819-6.345-1.854-6.383a1.986,1.986,0,0,1-.134-2.5c.536-.743,1.924-3.248,1.247-4.88-.6-1.446-2.817-2.087-4.573-2.368A9.747,9.747,0,0,0,2797.816,1718.976Z" transform="translate(-2779.641 -1715.024)"/></g><g transform="translate(28.808 51.34)"><path class="b" d="M2828.071,1803.871q-.841,0-1.7-.049a1.98,1.98,0,0,1,.232-3.954,31.157,31.157,0,0,0,15.71-3.65,1.98,1.98,0,0,1,2.01,3.413A34.927,34.927,0,0,1,2828.071,1803.871Z" transform="translate(-2824.504 -1795.946)"/></g><g transform="translate(8.513 31.893)"><path class="c" d="M2672.633,1646.656c6.139-3.661,18.309,11.292,18.532,18,.171,5.123-5.9,9.4-13.148,2.86C2670.669,1660.9,2662.991,1652.405,2672.633,1646.656Z" transform="translate(-2668.111 -1646.088)"/></g><g transform="translate(1.97 31.893)"><path class="c" d="M2663.112,1678.507s-3.857,10.583-15.085,13.318c-5.388,1.312-24.954,3.12-29.63-16.276-4.028-16.717,10.353-28.893,10.353-28.893,6.139-3.661,18.309,11.292,18.532,18,.171,5.123-7.443,8.029-13.82-.986,0,0,3.36,8.188-3.814,13.775l16.9,9.735,12.782-2.5Z" transform="translate(-2617.685 -1646.088)"/></g><g transform="translate(16.936 58.541)"><path class="c" d="M2733.356,1852.229l-.336-.193c.254-.2.485-.392.706-.6C2733.616,1851.7,2733.5,1851.964,2733.356,1852.229Z" transform="translate(-2733.02 -1851.44)"/></g><g class="a" transform="translate(17.953 47.179)"><path class="b" d="M2740.911,1764.666c-.9-3.31,8.607,5.117,13.554,2.951-.237,4.159-5.715,6.575-11.182,1.595A8.262,8.262,0,0,0,2740.911,1764.666Z" transform="translate(-2740.851 -1763.886)"/></g><g class="a" transform="translate(1.968 35.939)"><path class="b" d="M2657.168,1712.245l2.156-.419a21.265,21.265,0,0,1-11.309,7.139c-5.389,1.313-24.957,3.117-29.629-16.279-2.742-11.375,3.045-20.654,7.023-25.415-3.238,5.163-6.112,12.621-4.021,21.3,4.673,19.4,24.239,17.592,29.63,16.279A20.585,20.585,0,0,0,2657.168,1712.245Z" transform="translate(-2617.675 -1677.27)"/></g><g transform="translate(46.069 64.322)"><path class="c" d="M2958.844,1895.99a17.639,17.639,0,0,1-.993,2.1l-.331.066Z" transform="translate(-2957.52 -1895.99)"/></g><g transform="translate(46.069 66.38)"><path class="c" d="M2958.072,1911.85c-.176.21-.358.424-.551.635.115-.2.226-.4.331-.591Z" transform="translate(-2957.52 -1911.85)"/></g><g transform="translate(0 29.922)"><path class="b" d="M2613.041,1675.777a8.508,8.508,0,0,1-3.038-1.3,11.2,11.2,0,0,1-2.451-2.2,17.722,17.722,0,0,1-3.225-5.67,29.157,29.157,0,0,1,2.115-24.771,38.821,38.821,0,0,1,3.481-5.247q.97-1.238,2.036-2.4c.358-.385.719-.768,1.1-1.141s.739-.724,1.205-1.13a1.863,1.863,0,0,1,.229-.167l.037-.022a6.409,6.409,0,0,1,4.107-.776,10.644,10.644,0,0,1,3.431,1.129,17.963,17.963,0,0,1,2.772,1.779,25.7,25.7,0,0,1,2.4,2.076,36.939,36.939,0,0,1,4.079,4.7,33.3,33.3,0,0,1,3.226,5.371,19.122,19.122,0,0,1,1.147,3.09,10.394,10.394,0,0,1,.323,1.769l.037.477c0,.167-.011.343-.019.514a6.046,6.046,0,0,1-.108,1.031,6.308,6.308,0,0,1-2.073,3.61,6.818,6.818,0,0,1-3.682,1.656,4.5,4.5,0,0,1-.973.069,6.534,6.534,0,0,1-.961-.03,9.043,9.043,0,0,1-1.82-.381c-.289-.093-.583-.183-.865-.287l-.8-.383a9.7,9.7,0,0,1-1.5-.883,19.512,19.512,0,0,1-4.614-4.669l3.448-1.894a11.321,11.321,0,0,1,.37,1.135c.1.357.183.714.251,1.071a16.674,16.674,0,0,1,.283,2.169,17.479,17.479,0,0,1-.329,4.438,9.865,9.865,0,0,1-.711,2.165c-.178.337-.378.664-.567.994a7.956,7.956,0,0,1-.69.9,6.123,6.123,0,0,1-3.848,2.172.755.755,0,0,1-.853-.645.746.746,0,0,1,.013-.275l.029-.122a12.006,12.006,0,0,1,.7-1.849c.219-.56.495-1.029.7-1.526a21.707,21.707,0,0,0,1.207-2.863,7.925,7.925,0,0,0,.4-3.157,12.826,12.826,0,0,0-.213-1.627c-.052-.27-.113-.535-.186-.794-.065-.244-.165-.545-.217-.688l-.01-.029a1.985,1.985,0,0,1,3.459-1.867,15.645,15.645,0,0,0,3.605,3.68,6.129,6.129,0,0,0,4.145,1.248,2.852,2.852,0,0,0,1.61-.7,2.343,2.343,0,0,0,.8-1.393,2.039,2.039,0,0,0,.039-.429l.019-.22-.024-.257a6.555,6.555,0,0,0-.21-1.124,15.072,15.072,0,0,0-.906-2.421,31.934,31.934,0,0,0-6.468-8.9,18.551,18.551,0,0,0-4.225-3.178,6.769,6.769,0,0,0-2.126-.725,2.441,2.441,0,0,0-1.578.248l.266-.189c-.285.248-.653.6-.973.916s-.656.67-.976,1.015c-.639.693-1.251,1.417-1.834,2.161a34.917,34.917,0,0,0-3.127,4.71,26.842,26.842,0,0,0-3.351,10.545,22.058,22.058,0,0,0,1.684,10.8,34.579,34.579,0,0,0,2.506,4.789c.971,1.523,2,2.971,3.049,4.815l.006.012a.723.723,0,0,1-.272.986A.708.708,0,0,1,2613.041,1675.777Z" transform="translate(-2602.506 -1630.9)"/></g><g transform="translate(32.199 62.327)"><path class="b" d="M2867.692,1883.283c-.2.545-.366.951-.58,1.393s-.422.851-.655,1.261-.487.806-.731,1.208c-.262.391-.537.771-.809,1.154l-.872,1.106-.947,1.042a19.815,19.815,0,0,1-2.075,1.9,22.7,22.7,0,0,1-2.284,1.638,23.878,23.878,0,0,1-2.491,1.278,9.189,9.189,0,0,1-5.465.82.18.18,0,0,1-.148-.206.184.184,0,0,1,.06-.106l.01-.009a40.229,40.229,0,0,1,4.245-2.926,21.185,21.185,0,0,0,1.963-1.428c.589-.56,1.225-1.047,1.763-1.651.28-.288.565-.57.817-.885s.538-.594.781-.914L2861,1887l.692-.983c.431-.676.862-1.351,1.243-2.05.188-.352.385-.7.555-1.049.171-.337.361-.728.475-.993l.053-.12a1.978,1.978,0,0,1,3.669,1.475Z" transform="translate(-2850.633 -1880.619)"/></g></g><g transform="translate(184.74 147.476)"><path class="b" d="M2582.257,1960.734c-3.668,0-16.131-.978-20.134-13.915-5.759-18.616,2.69-32.335,3.053-32.91a1.484,1.484,0,0,1,2.512,1.582,39.319,39.319,0,0,0-2.729,30.45c3.973,12.842,17.49,11.853,18.062,11.8a1.485,1.485,0,0,1,.258,2.958C2583.256,1960.7,2582.886,1960.734,2582.257,1960.734Z" transform="translate(-2560.119 -1913.215)"/></g><g transform="translate(45.106 180.28)"><path class="b" d="M1502.725,2185.015a1.469,1.469,0,0,1-.392-.053c-15.089-4.123-18.9-16.362-19.052-16.882a1.485,1.485,0,0,1,2.846-.851c.143.47,3.554,11.2,16.99,14.867a1.486,1.486,0,0,1-.392,2.918Z" transform="translate(-1483.218 -2166.171)"/></g></g><g transform="translate(0 12)"><g transform="translate(0 0)"><g transform="translate(2.335 2.335)"><path class="b" d="M695.692,966.817a2.321,2.321,0,0,1-1.177-.319l-14.653-8.556a5.4,5.4,0,0,0-2.713-.738,5.205,5.205,0,0,0-1.359.179,34.951,34.951,0,0,1-8.763,1.19h-.3A35.086,35.086,0,0,1,631.79,924.2a34.937,34.937,0,0,1,34.932-35.5c.23,0,.458,0,.688.006a34.928,34.928,0,0,1,25.254,58.32,5.538,5.538,0,0,0-.647,6.527l5.692,9.749a2.337,2.337,0,0,1-2.015,3.514Z" transform="translate(-631.785 -888.7)"/></g><path class="b" d="M651.065,875.38c.214,0,.428,0,.644.006a32.592,32.592,0,0,1,23.564,54.42,7.9,7.9,0,0,0-.93,9.269l5.692,9.749-14.652-8.555a7.717,7.717,0,0,0-3.892-1.056,7.613,7.613,0,0,0-1.965.258,32.606,32.606,0,0,1-8.177,1.111h-.281a32.6,32.6,0,1,1,0-65.2m0-4.67h0A37.275,37.275,0,0,0,613.8,908.585a37.434,37.434,0,0,0,37.272,36.671h.322a37.288,37.288,0,0,0,9.347-1.271,2.891,2.891,0,0,1,.754-.1,3.063,3.063,0,0,1,1.536.419l14.653,8.555a4.67,4.67,0,0,0,6.387-6.388l-5.692-9.749a3.212,3.212,0,0,1,.363-3.785,37.263,37.263,0,0,0-26.941-62.22c-.247,0-.491-.006-.734-.006Z" transform="translate(-613.793 -870.71)"/></g><g class="h" transform="translate(4.67 4.671)"><path class="c" d="M684.735,909.275A32.6,32.6,0,0,0,651.494,942.4a32.255,32.255,0,0,0,4.628,16.142,32.538,32.538,0,0,1,26.9-51.834,32.661,32.661,0,0,1,27.315,15.9A32.6,32.6,0,0,0,684.735,909.275Z" transform="translate(-649.778 -906.702)"/></g><g class="i" transform="translate(8.817 14.508)"><path class="j" d="M705.343,1031.028a32.623,32.623,0,0,0,8.178-1.111,6.806,6.806,0,0,1,1.2-.16,16.854,16.854,0,0,0,12.162-6.793c.729-.951,1.561-1.8,2.383-2.712a32.449,32.449,0,0,0,4.2-37.743,32.5,32.5,0,0,1,1.024,44.5,7.93,7.93,0,0,0-1.046,9.307l5.725,9.8-14.653-8.554a7.732,7.732,0,0,0-5.9-.788,32.584,32.584,0,0,1-36.877-15.646A32.54,32.54,0,0,0,705.343,1031.028Z" transform="translate(-681.74 -982.51)"/></g><g transform="translate(21.503 24.156)"><path class="c" d="M807.155,1059.083h0c-3.331-3.331-8.731-2.734-12.062.6l-.518.518-.518-.518c-3.331-3.331-8.731-3.928-12.062-.6h0a8.528,8.528,0,0,0,0,12.062l.518.518,10.472,10.472a2.247,2.247,0,0,0,3.179,0l10.472-10.472.518-.518A8.528,8.528,0,0,0,807.155,1059.083Z" transform="translate(-779.498 -1056.864)"/></g><g class="h" transform="translate(44.275 29.685)"><path class="k" d="M958.781,1100.75a3.081,3.081,0,0,0-3.615-1.042c-.6.436.414,1.211,1.439,2.622s1.673,2.926,2.274,2.489S959.806,1102.161,958.781,1100.75Z" transform="translate(-954.985 -1099.47)"/></g><g class="h" transform="translate(41.697 27.512)"><path class="k" d="M935.125,1083.262a.961.961,0,0,0,1.705.663c.241-.341.026-.906-.544-1.128S935.177,1082.847,935.125,1083.262Z" transform="translate(-935.119 -1082.718)"/></g></g></svg>