<svg xmlns="http://www.w3.org/2000/svg" width="297.816" height="372.949" viewBox="0 0 297.816 372.949"><defs><style>.a{fill:#fff;}.b{fill:#e791fe;}.c{fill:#ad82ff;}.d{fill:#371a45;}.e{opacity:0.41;}.f{opacity:0.35;}.g{fill:none;stroke:#371a45;stroke-linecap:round;stroke-miterlimit:10;stroke-width:24px;}.h{fill:#32b1d1;}.i{fill:#293856;}.j{fill:#21102b;}.k{opacity:0.7;}.l{fill:#22a7f0;}.m{fill:#ffc82c;}.n{opacity:0.1;}.o{fill:#f2101c;}.p{fill:#ffa21a;}</style></defs><g transform="translate(130.175 96.251)"><g transform="translate(0)"><path class="a" d="M6359.079,10047.336c9.208,7.73,16.116,42.5,12.761,62.813s-39.563,19.846-60.186,18.041-17.968-48.512-17.005-61.01C6296.153,10047.668,6345.434,10035.879,6359.079,10047.336Z" transform="translate(-6293.99 -10042.834)"/></g></g><g transform="translate(82.865 278.034)"><g transform="translate(0)"><path class="b" d="M6085.013,11466.8a101.942,101.942,0,0,1-135.32,86.907,102.594,102.594,0,0,1-26.293-13.815c25-6.287,53.891-16.427,83.792-29.949S6063.783,11481.43,6085.013,11466.8Z" transform="translate(-5923.399 -11466.799)"/></g></g><g transform="translate(82.865 278.042)"><path class="c" d="M6007.192,11510c29.9-13.521,56.592-28.521,77.821-43.141a101.2,101.2,0,0,1-1.9,12.333c-16.338,11.868-42.44,26.522-72.836,40.269-29.114,13.168-56.253,22.828-75.8,27.512a102.209,102.209,0,0,1-11.073-7.021C5948.4,11533.668,5977.291,11523.52,6007.192,11510Z" transform="translate(-5923.4 -11466.859)"/></g><g transform="translate(41.021 166.851)"><path class="b" d="M5794.951,10667.706c-16.579,13.409-49.327,32.172-88.441,49.866s-74.842,29.891-95.859,33.486a103.622,103.622,0,0,1-5.94-11.24c-.085-.186-.164-.362-.249-.555-.77-1.728-1.49-3.459-2.151-5.215a101.932,101.932,0,0,1-3.85-12.383c-.04-.17-.079-.334-.119-.5a102.122,102.122,0,0,1,19.394-86.729h0c.979-1.246,2-2.469,3.046-3.669a101.479,101.479,0,0,1,34.789-25.814q2.863-1.291,5.764-2.4a101.65,101.65,0,0,1,77.485,2.066c.147.068.3.131.447.205q3.354,1.494,6.6,3.25a101.659,101.659,0,0,1,21.7,15.628,100.512,100.512,0,0,1,11.354,12.688c.374.492.741,1,1.115,1.5.307.414.6.832.9,1.25a101.234,101.234,0,0,1,6.754,11.07q1.147,2.159,2.186,4.383c.187.406.379.814.561,1.229A102.2,102.2,0,0,1,5794.951,10667.706Z" transform="translate(-5595.628 -10595.868)"/></g><g transform="translate(49.857 225.579)"><g transform="translate(0 0)"><path class="c" d="M5850.247,11055.9c.191.4.38.811.565,1.223a102.569,102.569,0,0,1,4.514,11.884c-16.577,13.407-49.325,32.175-88.444,49.868s-74.839,29.889-95.853,33.483a102.452,102.452,0,0,1-5.944-11.236c-.083-.185-.165-.365-.245-.55,19.926-2.2,56.292-14,96.169-32.039C5802.459,11089.781,5836.351,11069.432,5850.247,11055.9Z" transform="translate(-5664.84 -11055.9)"/></g></g><g transform="translate(41.006 193.44)"><g transform="translate(0)"><path class="c" d="M5597,10886.6q-.78,0-1.494-.037l.241-4.671c14.033.731,50.586-10.853,88.862-28.164,40.327-18.238,74.335-39.089,80.865-49.577l3.97,2.473c-7.077,11.366-41.17,32.491-82.908,51.366C5648.3,10875.287,5612.79,10886.6,5597,10886.6Z" transform="translate(-5595.51 -10804.149)"/></g></g><g transform="translate(45.19 173.861)"><g transform="translate(0)"><path class="c" d="M5628.967,10718.123l-.687-4.627c15.716-2.335,42.917-11.671,70.985-24.365,29.415-13.3,54.89-28,66.481-38.352l3.115,3.488c-11.921,10.646-37.85,25.637-67.668,39.123C5672.757,10706.25,5645.081,10715.723,5628.967,10718.123Z" transform="translate(-5628.28 -10650.779)"/></g></g><g transform="translate(43.723 207.485)"><g transform="translate(0 0)"><path class="c" d="M5616.956,11001.161h-.166l.022-4.678h.156c16.169,0,53.782-12.1,93.724-30.166,42.047-19.017,77.376-40.461,85.913-52.147l3.777,2.758c-9.107,12.469-44.377,34.029-87.763,53.65C5672.128,10988.893,5633.736,11001.161,5616.956,11001.161Z" transform="translate(-5616.79 -10914.17)"/></g></g><g transform="translate(108.785 306.224)"><g transform="translate(0)"><path class="c" d="M6126.9,11747.514l-.083-1.158-.374-1.117.139-.045.15-.012c13.846-1,40.2-9.515,67.141-21.7,27.089-12.25,50.232-25.994,60.4-35.863l1.629,1.677c-10.345,10.046-33.745,23.962-61.063,36.317C6167.244,11738.093,6141.211,11746.48,6126.9,11747.514Z" transform="translate(-6126.44 -11687.619)"/></g></g><g transform="translate(77.623 273.433)"><g transform="translate(0 0)"><path class="d" d="M5947.74,11530.275a104.425,104.425,0,0,1-61.491-19.986l-3.909-2.848,4.69-1.18c25.763-6.479,54.6-16.79,83.41-29.818s55.593-27.877,77.47-42.941l3.983-2.742-.443,4.814a104.113,104.113,0,0,1-103.711,94.7Zm-54.8-20.859a99.68,99.68,0,0,0,153.432-69.392c-21.3,14.253-46.8,28.218-74.065,40.552S5917.712,11502.828,5892.94,11509.416Z" transform="translate(-5882.34 -11430.76)"/></g></g><g class="e" transform="translate(52.505 166.848)"><g transform="translate(0 0)"><path class="a" d="M5873.417,10667.672q-2.893,2.341-6.428,4.887c-.951-2.68-2.023-5.348-3.213-7.982-.189-.41-.378-.814-.567-1.219q-1.038-2.235-2.179-4.388a102.6,102.6,0,0,0-6.757-11.071c-.295-.42-.6-.836-.9-1.25a100.571,100.571,0,0,0-12.47-14.192,101.968,101.968,0,0,0-155.325,18.368,101.909,101.909,0,0,1,172.921-12.969c.308.416.6.836.9,1.257a101.569,101.569,0,0,1,6.758,11.064q1.14,2.161,2.179,4.388c.2.4.385.81.566,1.226A102.951,102.951,0,0,1,5873.417,10667.672Z" transform="translate(-5685.58 -10595.843)"/></g></g><g transform="translate(38.74 164.612)"><path class="d" d="M5593.932,10738.244l-.8-1.308a105.432,105.432,0,0,1-6.075-11.485c-.877-1.938-1.7-3.922-2.452-5.895a104.176,104.176,0,0,1,189.5-85.7c.981,1.857,1.926,3.787,2.8,5.73h0a104.935,104.935,0,0,1,4.613,12.146l.453,1.466-1.193.964c-17.473,14.132-50.718,32.887-88.936,50.171s-74.256,29.864-96.4,33.651Zm88.011-155.387a99.551,99.551,0,0,0-93.107,135.084c.719,1.891,1.509,3.787,2.347,5.641a100.974,100.974,0,0,0,5.018,9.667c21.643-4,57.331-16.559,93.783-33.044s69.452-34.99,86.746-48.6a100.415,100.415,0,0,0-3.946-10.151h0c-.841-1.858-1.744-3.7-2.685-5.483a99.382,99.382,0,0,0-88.156-53.111Z" transform="translate(-5577.757 -10578.329)"/></g><g transform="translate(0 203.015)"><g transform="translate(2.273 2.298)"><path class="d" d="M5584.29,10907.969c6.153,13.6-14.131,37.221-49.988,61.912-21.23,14.619-47.924,29.619-77.822,43.142s-58.793,23.663-83.792,29.95c-42.223,10.619-73.347,10.254-79.5-3.352-5.588-12.354,10.622-32.959,40.489-55.133a101.63,101.63,0,0,0,3.849,12.384c-8.257,6.753-12.323,12.11-10.911,15.232,1.439,3.182,8.377,3.627,19.252,1.77,21.015-3.594,56.738-15.792,95.854-33.483s71.867-36.46,88.444-49.869c8.574-6.939,12.821-12.442,11.382-15.623-1.411-3.119-8.121-3.607-18.641-1.868a101.652,101.652,0,0,0-6.758-11.067C5552.525,10894.168,5578.7,10895.611,5584.29,10907.969Z" transform="translate(-5292.096 -10897.149)"/></g><g transform="translate(25.376 10.433)"><path class="b" d="M5489.259,11080.166c-7.74,0-13.628-1.6-15.561-5.876-2.77-6.126,3.633-15.426,19.033-27.64l2.18,2.748c-13.19,10.461-19.925,19.227-18.017,23.445,2.284,5.051,19.043,6.683,58.768-5.328a599.525,599.525,0,0,0,129.828-58.717c35.255-21.9,45.1-35.563,42.813-40.613-1.91-4.22-12.94-4.949-29.5-1.953l-.624-3.451c19.341-3.5,30.554-2.166,33.324,3.959,5.409,11.963-25.346,33.354-44.159,45.039a602.98,602.98,0,0,1-130.664,59.1C5523.056,11075,5503.17,11080.166,5489.259,11080.166Z" transform="translate(-5473.07 -10960.879)"/></g><g transform="translate(12.04 4.997)"><path class="b" d="M5392.8,11056.756c-12.6,0-20.64-2.9-23.26-8.687-5.428-12,13.748-29.928,30.791-42.852l2.119,2.795c-22,16.681-33.1,31.115-29.713,38.609,4.272,9.447,30.517,8.83,68.49-1.607,23.219-6.381,49.336-16.013,75.525-27.857s50.662-25.09,70.789-38.314c32.918-21.625,50.714-40.928,46.441-50.373-3.391-7.494-21.566-8.685-48.616-3.186l-.7-3.437c20.961-4.264,47.084-6.823,52.514,5.179,5.186,11.468-12.205,31.423-47.713,54.749-20.277,13.322-44.922,26.663-71.27,38.58s-52.648,21.615-76.041,28.042C5421.879,11053.973,5405.152,11056.756,5392.8,11056.756Z" transform="translate(-5368.604 -10918.295)"/></g><g transform="translate(0)"><path class="d" d="M5307.289,11037.021c-17.025,0-28.038-4.079-31.694-12.163-5.959-13.177,8.673-33.734,41.2-57.887l2.746-2.039.8,3.324a99.73,99.73,0,0,0,3.763,12.108l.584,1.526-1.265,1.035c-11.515,9.416-10.337,12.424-10.281,12.547s1.581,3.071,16.808.47c21.465-3.67,57.983-16.437,95.3-33.313s71.02-35.871,87.953-49.566c12.006-9.717,10.8-12.8,10.742-12.929s-1.536-2.993-16.206-.565l-1.613.267-.761-1.446a100.12,100.12,0,0,0-6.608-10.822l-1.964-2.8,3.344-.716c39.617-8.479,64.719-5.89,70.678,7.286,6.52,14.418-11.983,38.006-50.768,64.713-22.1,15.216-49.127,30.2-78.173,43.34s-58.152,23.539-84.172,30.082C5337.651,11034.506,5320.625,11037.021,5307.289,11037.021Zm9.517-64.392c-27.951,21.258-41.78,39.978-37.084,50.361,5.366,11.864,34.826,12.665,76.885,2.087,25.763-6.479,54.6-16.79,83.41-29.817s55.594-27.877,77.47-42.942c35.719-24.6,54.576-47.249,49.209-59.115-4.695-10.384-27.884-12.36-62.305-5.409,1.5,2.293,2.912,4.653,4.223,7.053,11.441-1.714,17.643-.617,19.468,3.422,1.94,4.289-1.88,10.109-12.021,18.318-17.473,14.131-50.719,32.887-88.935,50.172s-74.256,29.863-96.405,33.65c-12.866,2.2-19.759,1.223-21.7-3.067-1.826-4.04,1.447-9.423,10.29-16.882C5318.376,10977.877,5317.537,10975.26,5316.806,10972.629Z" transform="translate(-5274.293 -10879.15)"/></g></g><g class="f" transform="translate(67.495 166.945)"><g transform="translate(0)"><path class="d" d="M5930.111,10607.595c-4,5.991-10.869,13.622-20.968,16.134-17.469,4.342-.077,37.875-17.469,49.076-19.593,12.623-39.515,1.548-39.458-7.529.077-11.43,4.372-27.348-4.5-13.065-6.532,10.517-18.6,13.454-28.491,11.738-8.27-1.435-21.269-5.721-14.189-18.807,5.389-9.966,6.349-18.526,5.833-24.829.439-.337.883-.674,1.333-1.006a115.56,115.56,0,0,1,117.905-11.712Z" transform="translate(-5803.003 -10596.604)"/></g></g><g class="f" transform="translate(130.175 96.486)"><g transform="translate(0)"><path class="d" d="M6311.657,10129.806c20.622,1.806,56.829,2.271,60.188-18.042a67.681,67.681,0,0,0,.8-8.629c-5.953,4.171-13.682-.262-14.338-5.8-4.047-34.184-15.936-47.874-21.789-52.657-18.729,1.578-40.873,11.135-41.869,24.119C6293.688,10081.282,6291.035,10127.992,6311.657,10129.806Z" transform="translate(-6293.993 -10044.68)"/></g></g><g transform="translate(128.104 94.227)"><g transform="translate(0)"><path class="d" d="M6314.74,10117.212c-5.844,0-11.759-.32-17.413-.815-20.512-1.795-20.623-40.367-18.863-63.2.6-7.844,7.771-15.034,20.183-20.249,15.639-6.571,38.282-8.823,47.6-1h0c9.712,8.152,17.011,43.23,13.463,64.709C6357.036,10112.82,6336.381,10117.212,6314.74,10117.212Zm12.814-86.2a73.376,73.376,0,0,0-27.326,5.691c-10.769,4.524-17.217,10.646-17.691,16.8-1.033,13.4-2.991,57.23,15.146,58.818,20.354,1.781,54.958,2.029,57.992-16.339,3.236-19.595-3.526-53.751-12.059-60.915h0C6340.378,10032.344,6334.52,10031.016,6327.555,10031.016Z" transform="translate(-6277.771 -10026.979)"/></g></g><g transform="translate(188.804 131.584)"><g transform="translate(0)"><path class="a" d="M6755.79,10322.954l9.37-3.147a3.714,3.714,0,0,1,4.826,2.779c1.515,7.537,3.63,23.1-4.02,25.84-9.272,3.32-11.905-7.309-12.705-21.756A3.721,3.721,0,0,1,6755.79,10322.954Z" transform="translate(-6753.255 -10319.611)"/></g></g><g class="f" transform="translate(188.824 135.028)"><g transform="translate(0)"><path class="d" d="M6753.42,10350.178c.765,14.45,3.375,25.088,12.654,21.787,3.811-1.351,5.21-5.893,5.465-11.037a6.638,6.638,0,0,1-3.534,3.059c-8.307,2.952-11.274-5.266-12.344-17.4A3.678,3.678,0,0,0,6753.42,10350.178Z" transform="translate(-6753.415 -10346.59)"/></g></g><g transform="translate(186.907 129.676)"><g transform="translate(0)"><path class="d" d="M6749.811,10337.908a7.73,7.73,0,0,1-4.376-1.3c-4.226-2.816-6.327-9.666-7.027-22.9a5.637,5.637,0,0,1,3.844-5.627l9.376-3.126a5.627,5.627,0,0,1,7.3,4.235c1.81,9.11,3.528,24.864-5.316,28.007A11.15,11.15,0,0,1,6749.811,10337.908Zm3.606-29.412a1.821,1.821,0,0,0-.577.094l-9.378,3.127a1.8,1.8,0,0,0-1.229,1.791c.223,4.2.9,16.963,5.329,19.918,1.226.816,2.787.873,4.771.166,4.412-1.568,5.475-10.41,2.843-23.652a1.768,1.768,0,0,0-.856-1.2A1.734,1.734,0,0,0,6753.417,10308.5Zm-10.56,1.4h0Z" transform="translate(-6738.399 -10304.661)"/></g></g><g transform="translate(182.963 101.531)"><g transform="translate(0 0)"><path class="d" d="M6722.4,10088.269c-1.118.176-2.278.382-3.415.6s-2.282.446-3.418.689c-2.271.494-4.526,1.047-6.732,1.727l-.01,0a1.023,1.023,0,0,1-.741-1.9c2.169-1.03,4.384-1.928,6.617-2.765q1.675-.624,3.365-1.207c1.132-.389,2.25-.761,3.416-1.121a2.048,2.048,0,0,1,1.213,3.912,2.385,2.385,0,0,1-.277.064Z" transform="translate(-6707.501 -10084.196)"/></g></g><g transform="translate(114.346 195.63)"><path class="g" d="M6170,10821.3" transform="translate(-6170 -10821.3)"/></g><g transform="translate(85.082 174.617)"><path class="g" d="M5940.77,10656.7" transform="translate(-5940.77 -10656.7)"/></g><g transform="translate(102.297 98.09)"><g transform="translate(0 0)"><path class="a" d="M6078.219,10072.043l-2.6-14.8A106.543,106.543,0,0,1,6078.219,10072.043Z" transform="translate(-6075.62 -10057.24)"/></g></g><g transform="translate(60.726 93.729)"><g transform="translate(0)"><path class="a" d="M5874.644,10107.172c-7.271,8.334-21.886,10.438-25.629,16.064-3.293,4.943-2.108,11.234-1.8,17.837.271,5.643-.689,13.032-5.438,19.435-7.185,9.688-20.824,10.7-28.213,4.535-8.436-7.032,2.048-24.726,3.569-26.906,0,0-2.3-2.829-4.442-5.371a12.851,12.851,0,0,1-1.966-3.279,21.777,21.777,0,0,1-1.557-6.123c-9.631,9.289-17.617,25.2-17.617,25.2-6.644,11.663-33.095,4.938-39.636-7.527a14.088,14.088,0,0,1-1.936-6.634c.179-9.518,17.443-7.8,17.443-7.8s-4.417-17.627,11.878-27.982a40.393,40.393,0,0,1,10.019-4.469,143.56,143.56,0,0,0,4.284-22.254,147.893,147.893,0,0,0,1.036-19.741,109.978,109.978,0,0,0-3.089-24.72l64.009-4.355q3.032,3.431,5.668,6.971C5883.749,10060.27,5884.954,10095.363,5874.644,10107.172Z" transform="translate(-5749.98 -10023.08)"/></g></g><g class="f" transform="translate(60.726 135.036)"><g transform="translate(0)"><path class="d" d="M5835.738,10378.3l-25.011,33.453a21.8,21.8,0,0,1-1.557-6.123c-9.631,9.288-17.617,25.2-17.617,25.2-6.644,11.662-33.095,4.938-39.636-7.527a14.091,14.091,0,0,1-1.936-6.633c32,26.531,42.1-1.691,47.954-15.32,3.7-8.609,12.884-14.317,21.273-17.9-15.988,1.072-31.558-1.072-39.906-2.559a40.393,40.393,0,0,1,10.019-4.468,143.593,143.593,0,0,0,4.284-22.254c5.255-4.452,10.314-7.5,12.761-7.343,4,.256,11.541,11.893,17.1,22.58,1.644,3.166,3.048,5.9,4.12,8.022.107.2,29.915-30.974,30.017-30.773.378.745-2.042,26.426-12.672,30.231C5842.012,10377.117,5835.738,10378.3,5835.738,10378.3Z" transform="translate(-5749.98 -10346.652)"/></g></g><g transform="translate(58.679 96.045)"><g transform="translate(0 0)"><path class="d" d="M5764.439,10172.467c-.169,0-.34,0-.513,0-9.979-.171-23.11-5.7-27.81-14.654-2.612-4.977-2.871-9.078-.771-12.194,3.308-4.9,11.423-5.448,15.693-5.36-.67-6.752-.1-24.48,22.623-31.891,1.6-5.912,9.026-36.25,1.916-64.6a2.043,2.043,0,0,1,3.963-.993c8.162,32.545-1.826,66.377-2.256,67.8l-.315,1.05-1.048.317c-25.648,7.759-20.73,29.1-20.508,30l.688,2.806-2.873-.281c-3.174-.313-11.976-.3-14.5,3.441-1.193,1.771-.855,4.467,1,8.008,3.52,6.705,14.4,12.3,24.262,12.469,3.277.057,9.2-.514,11.765-4.961.906-1.8,15.139-29.578,29.226-32.535a2.043,2.043,0,0,1,.84,4c-10.232,2.147-22.555,22.687-26.439,30.421l-.05.094C5776.734,10169.965,5771.456,10172.467,5764.439,10172.467Zm10.893-62.49h0Z" transform="translate(-5733.943 -10041.223)"/></g></g><g transform="translate(144.619 213.885)"><path class="a" d="M6407.14,10964.3" transform="translate(-6407.14 -10964.3)"/></g><g transform="translate(148 113.276)"><g transform="translate(0 0)"><path class="h" d="M6433.63,10176.2" transform="translate(-6433.63 -10176.2)"/></g></g><g transform="translate(119.91 93.729)"><path class="a" d="M6252.954,10095.861a35.876,35.876,0,0,0-25.3,1.506,26.1,26.1,0,0,0-7.575,5.071c-8,7.937-8.227,23.87-2.793,30.328,2.142,2.547,4.446,5.374,4.446,5.374-1.521,2.182-12.006,19.873-3.569,26.907,7.389,6.159,21.025,5.149,28.21-4.538,4.749-6.4,5.712-13.789,5.442-19.436-.315-6.6-1.5-12.895,1.794-17.835,3.746-5.628,18.358-7.731,25.63-16.063,11.117-12.738,8.847-52.514-19.084-84.1l9.689,51.58Z" transform="translate(-6213.584 -10023.08)"/></g><g class="f" transform="translate(120.875 197.958)"><path class="d" d="M6223.892,10845a14.945,14.945,0,0,1-2.742-5.459c8.978,10.1,22.295,11.5,22.295,11.5-6.2,6.029-11.341,3.977-18.73,6.029a48.679,48.679,0,0,1,3.621-6.693S6226.032,10847.539,6223.892,10845Z" transform="translate(-6221.149 -10839.539)"/></g><g class="f" transform="translate(121.362 108.451)"><g transform="translate(0)"><path class="d" d="M6289.169,10207.769c-7.271,8.334-21.886,10.438-25.629,16.065-3.293,4.938-2.109,11.234-1.792,17.836.266,5.643-.695,13.031-5.443,19.43-7.185,9.691-20.824,10.7-28.213,4.54a8.88,8.88,0,0,1-3.044-5.454c.839,1.149-.409-7.6,0-6.216,4.725,15.921,25.085,9.464,29.358.9,2.763-5.541,3.823-14.247,3.553-19.895-.316-6.6-2.9-16.993.391-21.936,3.748-5.627,19.758-3.633,27.029-11.961,8.7-9.969,9.2-36.485-4.366-62.676C6298.4,10166.637,6298.611,10196.956,6289.169,10207.769Z" transform="translate(-6224.963 -10138.398)"/></g></g><g transform="translate(117.714 93.158)"><g transform="translate(0 0)"><path class="d" d="M6237.573,10092.609a49.837,49.837,0,0,0-17.815.656c-.714.16-1.409.385-2.114.574-.689.238-1.39.443-2.064.723a32.274,32.274,0,0,0-3.973,1.789,20.638,20.638,0,0,0-6.572,5.222,21.291,21.291,0,0,0-3.67,7.611,27.878,27.878,0,0,0-.858,8.617l.023.542.064.536.126,1.071c.094.711.268,1.4.4,2.1a16.433,16.433,0,0,0,1.473,3.85,11.592,11.592,0,0,0,1.064,1.623l1.49,1.8,2.992,3.617.963,1.165-.873,1.293c-.545.808-1.133,1.827-1.656,2.788q-.8,1.469-1.5,2.986a42.687,42.687,0,0,0-2.35,6.184,21.271,21.271,0,0,0-.931,6.23,8.006,8.006,0,0,0,1.708,5.175,3.138,3.138,0,0,0,.45.479,4.25,4.25,0,0,0,.518.453c.41.285.794.605,1.219.873.443.243.873.5,1.32.742l1.4.6a17.458,17.458,0,0,0,6.092,1.018,18.832,18.832,0,0,0,11.614-4.041,22.02,22.02,0,0,0,7.011-10.381,29.015,29.015,0,0,0,1.342-6.329,31.562,31.562,0,0,0,.165-3.261c0-.546-.017-1.092-.035-1.637l-.1-1.7c-.144-2.277-.36-4.617-.366-7.061a20.735,20.735,0,0,1,1.185-7.557,7.871,7.871,0,0,1,.395-.929c.153-.3.279-.616.458-.905l.525-.871a10.214,10.214,0,0,1,.671-.891,14.149,14.149,0,0,1,3.1-2.615,51.182,51.182,0,0,1,6.435-3.315c4.24-1.913,8.405-3.712,11.936-6.229a19.618,19.618,0,0,0,4.513-4.33,21.393,21.393,0,0,0,2.81-5.66,38.976,38.976,0,0,0,1.527-6.385,56.729,56.729,0,0,0,.545-6.652,73.452,73.452,0,0,0-1.065-13.436,93.965,93.965,0,0,0-8.541-25.7l-.773-1.515-.822-1.489-.83-1.485-.887-1.452-.885-1.451-.922-1.428c-.6-.961-1.205-1.919-1.832-2.865-1.211-1.918-2.5-3.787-3.7-5.734-.63-.949-1.208-1.947-1.8-2.937a34.12,34.12,0,0,1-1.707-3.064l-.012-.023a.7.7,0,0,1,1.031-.879,33.624,33.624,0,0,1,2.8,2.219c.463.376.863.808,1.29,1.217s.833.841,1.241,1.268a49.747,49.747,0,0,1,4.442,5.513c.705.948,1.332,1.95,1.96,2.952l.927,1.51.865,1.546.863,1.546.819,1.57.823,1.568.775,1.592a98.553,98.553,0,0,1,8.9,26.831,77.5,77.5,0,0,1,1.122,14.21,61.274,61.274,0,0,1-.59,7.177,42.917,42.917,0,0,1-1.7,7.1,25.352,25.352,0,0,1-3.361,6.726,23.646,23.646,0,0,1-5.446,5.26c-4.033,2.867-8.449,4.734-12.626,6.629a47.6,47.6,0,0,0-5.9,3.025,10.22,10.22,0,0,0-2.2,1.83,5.632,5.632,0,0,0-.375.492l-.369.615c-.129.2-.213.431-.324.644a4.735,4.735,0,0,0-.282.667,16.767,16.767,0,0,0-.913,6.088c.005,2.187.208,4.463.359,6.8l.1,1.768c.021.611.045,1.222.04,1.834a34.908,34.908,0,0,1-.186,3.668,33.25,33.25,0,0,1-1.534,7.227,30.082,30.082,0,0,1-3.252,6.7c-.365.508-.693,1.031-1.093,1.524l-1.215,1.468c-.416.479-.9.9-1.346,1.352a13,13,0,0,1-1.449,1.24,22.26,22.26,0,0,1-6.652,3.646,23.756,23.756,0,0,1-7.469,1.271,21.512,21.512,0,0,1-7.527-1.271l-1.786-.767c-.577-.3-1.139-.636-1.707-.957-.553-.349-1.068-.764-1.6-1.147a7.862,7.862,0,0,1-.788-.691,6.372,6.372,0,0,1-.735-.785,10.891,10.891,0,0,1-2.044-3.721,13.958,13.958,0,0,1-.628-3.987,25.236,25.236,0,0,1,1.086-7.454,46.855,46.855,0,0,1,2.574-6.785q.76-1.633,1.619-3.215c.586-1.069,1.146-2.062,1.9-3.174l.092,2.459-2.966-3.584-1.484-1.8a15.634,15.634,0,0,1-1.506-2.269,23.075,23.075,0,0,1-2.585-9.834,32.135,32.135,0,0,1,.981-9.9,25.784,25.784,0,0,1,4.3-9.154,24.144,24.144,0,0,1,7.807-6.509,33.276,33.276,0,0,1,9.327-3.364,29.916,29.916,0,0,1,19.128,2.189.691.691,0,0,1-.39,1.3Z" transform="translate(-6196.385 -10018.605)"/></g></g><g transform="translate(64.865)"><g transform="translate(2.053 2.051)"><path class="a" d="M5807.091,9393.623c43.615,64.627,135.508,7.273,100.448-59.125C5864.461,9267.283,5769.529,9326.657,5807.091,9393.623Z" transform="translate(-5798.481 -9304.938)"/></g><g transform="translate(2.053 2.051)"><path class="a" d="M5807.091,9393.623c43.615,64.627,135.508,7.273,100.448-59.125C5864.461,9267.283,5769.529,9326.657,5807.091,9393.623Z" transform="translate(-5798.481 -9304.938)"/></g><g class="f" transform="translate(37.433 93.732)"><path class="d" d="M6145.307,10030.07c-14.589,20.227-41.832,30.848-66.587,22.105a110.014,110.014,0,0,0-3.089-24.72l64.009-4.355Q6142.671,10026.527,6145.307,10030.07Z" transform="translate(-6075.63 -10023.101)"/></g><g transform="translate(2.053 2.051)"><path class="a" d="M5807.091,9393.623c43.615,64.627,135.508,7.273,100.448-59.125C5864.461,9267.283,5769.529,9326.657,5807.091,9393.623Z" transform="translate(-5798.481 -9304.938)"/></g><g transform="translate(0.587 0.595)"><path class="d" d="M5846.22,9413.438a56.013,56.013,0,0,1-10.54-.994c-15.733-3.008-29.5-12.675-39.809-27.951l-.062-.1c-8.958-15.969-11.131-32.645-6.286-48.227a60.643,60.643,0,0,1,27.038-33.764,59.422,59.422,0,0,1,42.247-7.781c15.961,3.2,29.774,13.279,39.945,29.148l.061.106c8.374,15.856,10.2,32.319,5.283,47.608a61.883,61.883,0,0,1-57.875,41.956Zm-47.9-30.531c21.822,32.288,54.635,32.931,77.484,19.241,22.326-13.375,38.243-43.13,20.464-76.866-21.437-33.4-55.56-33.983-78.207-20.392C5795.19,9318.618,5779.265,9348.88,5798.319,9382.907Z" transform="translate(-5787.004 -9293.532)"/></g><g class="f" transform="translate(2.217 47.954)"><path class="d" d="M5808.216,9707.289c36.7,56.477,119.481,20.694,106.764-42.779-2.68,20.939-9.792,22.176-20.125,33.348-31.579,36.525-85.67,14.059-94.7-27.437A58.288,58.288,0,0,0,5808.216,9707.289Z" transform="translate(-5799.771 -9664.51)"/></g><g transform="translate(0 0)"><path class="i" d="M5842.206,9409.947a56.6,56.6,0,0,1-10.649-1c-15.89-3.038-29.787-12.79-40.187-28.2l-.088-.143c-9.038-16.113-11.228-32.948-6.334-48.688a61.23,61.23,0,0,1,27.3-34.091,60.018,60.018,0,0,1,42.664-7.853c16.121,3.23,30.064,13.4,40.322,29.406l.087.148c8.449,16,10.288,32.619,5.321,48.062a62.461,62.461,0,0,1-58.434,42.362Zm-47.4-31.413c21.606,31.945,54.075,32.59,76.684,19.045,22.093-13.234,37.845-42.675,20.258-76.066-21.224-33.044-54.992-33.634-77.4-20.185C5791.719,9314.91,5775.963,9344.857,5794.8,9378.534Z" transform="translate(-5782.403 -9288.871)"/></g><g transform="translate(0 0)"><path class="d" d="M5842.206,9409.947a56.6,56.6,0,0,1-10.649-1c-15.89-3.038-29.787-12.79-40.187-28.2l-.088-.143c-9.038-16.113-11.228-32.948-6.334-48.688a61.23,61.23,0,0,1,27.3-34.091,60.018,60.018,0,0,1,42.664-7.853c16.121,3.23,30.064,13.4,40.322,29.406l.087.148c8.449,16,10.288,32.619,5.321,48.062a62.461,62.461,0,0,1-58.434,42.362Zm-47.4-31.413c21.606,31.945,54.075,32.59,76.684,19.045,22.093-13.234,37.845-42.675,20.258-76.066-21.224-33.044-54.992-33.634-77.4-20.185C5791.719,9314.91,5775.963,9344.857,5794.8,9378.534Z" transform="translate(-5782.403 -9288.871)"/></g><g transform="translate(2.403 15.201)"><path class="d" d="M5818.787,9495.172c58.958,34.787,109.006-34.01,64.289-73.914C5830.271,9379.6,5771,9444.52,5818.787,9495.172Z" transform="translate(-5801.227 -9407.948)"/></g><g transform="translate(4.203 61.88)"><path class="j" d="M5815.326,9773.6c-.258,61.869,88.225,67.023,97.744,10.5C5884.72,9817.4,5831.908,9803.535,5815.326,9773.6Z" transform="translate(-5815.326 -9773.6)"/></g><g transform="translate(0.758 7.926)"><path class="d" d="M5842.492,9462.154a48.419,48.419,0,0,1-12.287-1.57c-13.147-3.444-24.664-12.423-33.3-25.962l-.007-.011c-14.133-22.519-11.7-59.231,14.45-77.988l.232-.139c14.182-6.893,31.38-7.36,47.184-1.282,15.75,6.057,28.144,17.847,34.008,32.348,5.315,14.186,5.1,28.549-.614,41.576a55.837,55.837,0,0,1-26.219,27.4A52.531,52.531,0,0,1,5842.492,9462.154Zm-42.9-29.24c19,29.767,46.845,29.783,64.917,20.758,20.771-10.376,36.128-36.021,25.286-64.96-5.518-13.646-17.252-24.787-32.179-30.527s-31.153-5.336-44.521,1.114C5788.5,9377.033,5786.252,9411.651,5799.592,9432.914Z" transform="translate(-5788.34 -9350.957)"/></g><g transform="translate(0.361 13.154)"><path class="d" d="M5837.109,9492.731c-10.977,0-22.315-3.315-33.312-9.8l-.249-.146-.2-.21c-11.567-12.259-17.828-26.261-18.107-40.491a49.226,49.226,0,0,1,12.949-34.348,48.333,48.333,0,0,1,32.083-15.686c13.648-1.032,27.519,3.672,40.113,13.607l.1.078c10.531,9.4,16.653,20.99,17.708,33.523a48.276,48.276,0,0,1-9.354,32.434,51.118,51.118,0,0,1-31.219,20A52.9,52.9,0,0,1,5837.109,9492.731Zm-30.987-13.174c29.958,17.536,56.436,7.5,69.416-10.279,11.781-16.129,13.952-41.071-7.729-60.457-26.124-20.575-52.271-13.991-66.6,1.668C5786.479,9426.584,5782.315,9454.154,5806.122,9479.558Z" transform="translate(-5785.233 -9391.907)"/></g><g transform="translate(96.168 51.068)"><path class="a" d="M6566.146,9710.344c-3.724,27.238-31.337,25.8-30.4-.564C6538.6,9681.09,6568.114,9682.625,6566.146,9710.344Z" transform="translate(-6535.719 -9688.901)"/></g><g class="f" transform="translate(96.125 56.946)"><path class="d" d="M6548.607,9770.407c-8.28-.371-14.4-10.41-13.039-21.84,5.319,11.911,17.7-7.952,18.525-13.617C6575.4,9740.109,6563.8,9771.416,6548.607,9770.407Z" transform="translate(-6535.379 -9734.95)"/></g><g transform="translate(94.125 49.031)"><path class="d" d="M6535.617,9718.3q-.582,0-1.156-.05c-7.7-.661-15.239-7.859-14.723-22.453l.009-.13c1.578-15.858,11.168-23.406,19.812-22.669,7.82.666,15.746,8.33,14.662,23.58l-.014.131C6552.151,9711.729,6543.358,9718.3,6535.617,9718.3Zm-11.8-22.3c-.4,11.867,5.229,17.679,10.993,18.173,6.126.524,13.527-4.869,15.338-17.958.862-12.446-5.061-18.654-10.939-19.154C6532.569,9676.494,6525.152,9682.817,6523.818,9696Zm28.363.425h0Z" transform="translate(-6519.713 -9672.947)"/></g><g transform="translate(104.665 56.696)"><path class="a" d="M6625.287,9750.31c-3.041,22.07-23.746,21.341-22.994.019C6604.523,9726.807,6627.023,9727.625,6625.287,9750.31Z" transform="translate(-6602.273 -9732.99)"/></g><g transform="translate(103.07 55.099)"><path class="d" d="M6601.588,9757.271c-.277,0-.553-.012-.824-.035-5.751-.5-11.372-6.219-10.96-17.88l0-.095c1.238-13.062,8.614-19.321,15.276-18.748,5.911.507,11.842,6.669,10.9,19l-.011.1C6614.28,9751.895,6607.493,9757.271,6601.588,9757.271Zm-8.6-17.755c-.322,9.536,3.806,14.176,8.048,14.541,4.621.4,10.268-4.073,11.765-14.833.761-10.134-3.606-15.154-7.991-15.529C6599.732,9723.261,6594.044,9728.555,6592.99,9739.517Zm21.4-.121h0Z" transform="translate(-6589.782 -9720.478)"/></g><g class="k" transform="translate(75.915 49.976)"><path class="a" d="M6391.916,9690.525c-3.016,11.174-15.769,7.943-14.791-2.154C6379.079,9675.705,6394.17,9679.268,6391.916,9690.525Z" transform="translate(-6377.072 -9680.351)"/></g><g class="k" transform="translate(78.151 73.367)"><path class="a" d="M6400.629,9867.931c-1.4,4.206-7,2.9-5.907-1.81C6396.122,9861.916,6401.726,9863.221,6400.629,9867.931Z" transform="translate(-6394.581 -9863.582)"/></g><g class="k" transform="translate(9.328 21.711)"><path class="a" d="M5856.459,9503.426c-8.209-43.455,36.877-49.98,50.756-40.99C5878.286,9464.98,5865.8,9483.113,5856.459,9503.426Z" transform="translate(-5855.468 -9458.937)"/></g><g class="f" transform="translate(103.481 66.959)"><path class="d" d="M6593.188,9825.469a19.748,19.748,0,0,1,.977-9.309c4.2,14.814,19.06,7.967,22.334-2.779C6620.214,9835.338,6598.021,9846.039,6593.188,9825.469Z" transform="translate(-6593 -9813.381)"/></g><g transform="translate(93.066 47.298)"><path class="d" d="M6515.75,9668.063a3.426,3.426,0,0,1-1.47-.328c-2.562-1.2-2.839-5.107-2.862-6.276a2.042,2.042,0,0,1,4.083-.087h0a7.616,7.616,0,0,0,.471,2.479,3.64,3.64,0,0,0,.4-.285,2.042,2.042,0,1,1,2.552,3.189A5.106,5.106,0,0,1,6515.75,9668.063Zm-.051-4.082Z" transform="translate(-6511.417 -9659.373)"/></g></g><g transform="translate(125.5 168.525)"><g transform="translate(0)"><path class="d" d="M6289.757,10641.637c-.061,0-.121,0-.183-.01a1.535,1.535,0,0,1-1.342-1.7c1.827-15.432-7.192-22.535-11.154-24.873-6.047-3.568-13.154-3.988-17.281-1.028a1.531,1.531,0,1,1-1.786-2.488c5.161-3.707,13.451-3.354,20.623.878,9.33,5.5,14.054,15.924,12.641,27.873A1.534,1.534,0,0,1,6289.757,10641.637Z" transform="translate(-6257.372 -10608.979)"/></g></g><g transform="translate(124.98 205.585)"><g transform="translate(0 0)"><path class="d" d="M6255.813,10899.631c.483.346,1.1.764,1.674,1.118s1.185.718,1.8,1.027a19.5,19.5,0,0,0,3.805,1.528,14.505,14.505,0,0,0,4.059.494c.345-.023.7-.034,1.057-.039.348-.054.7-.111,1.063-.154.182-.026.367-.045.549-.077l.538-.134c.363-.088.739-.168,1.131-.242q-.41.4-.863.789l-.459.383c-.161.117-.335.2-.507.308-.342.2-.7.4-1.058.582-.374.144-.756.28-1.146.4a11.627,11.627,0,0,1-4.874.344,16.715,16.715,0,0,1-4.672-1.364,16.95,16.95,0,0,1-2.123-1.156,13.63,13.63,0,0,1-1.98-1.492,1.53,1.53,0,0,1,1.919-2.378Z" transform="translate(-6253.303 -10899.284)"/></g></g><g transform="translate(83.552 171.682)"><g transform="translate(0)"><path class="d" d="M5956.16,10668.419h-.076a1.533,1.533,0,0,1-1.455-1.605c.479-9.781-1.8-17.379-6.779-22.584-7.109-7.432-17.447-7.438-17.53-7.453h-.006a1.533,1.533,0,0,1-.015-3.065c.479,0,11.705,0,19.739,8.373,5.6,5.838,8.176,14.208,7.652,24.88A1.525,1.525,0,0,1,5956.16,10668.419Z" transform="translate(-5928.78 -10633.71)"/></g></g><g transform="translate(97.276 128.922)"><g transform="translate(0.505 11.87)"><g transform="translate(0 0)"><ellipse class="a" cx="6.423" cy="6.423" rx="6.423" ry="6.423" transform="translate(0 12.343) rotate(-73.925)"/></g></g><g class="f" transform="translate(2.043 16.698)"><path class="d" d="M6052.313,10433.216a6.423,6.423,0,1,0,12.81-.964,6.35,6.35,0,0,0-.822-2.691,6.423,6.423,0,0,1-11.577.871A6.388,6.388,0,0,0,6052.313,10433.216Z" transform="translate(-6052.294 -10429.561)"/></g><g transform="translate(0 11.416)"><path class="d" d="M6044.741,10405.115a8.467,8.467,0,0,1-8.429-7.829h0a8.464,8.464,0,1,1,9.076,7.806C6045.171,10405.1,6044.955,10405.115,6044.741,10405.115Zm.015-12.842q-.165,0-.333.012a4.379,4.379,0,0,0-4.037,4.7h0a4.379,4.379,0,1,0,4.37-4.709Z" transform="translate(-6036.288 -10388.187)"/></g><g transform="translate(8.63 2.047)"><path class="a" d="M6111.6,10348.01l33.946-.535a7.332,7.332,0,0,0,7.194-7.424l-.286-18.064a7.336,7.336,0,0,0-5.962-7.068,7.081,7.081,0,0,0-1.463-.125l-33.941.535a7.324,7.324,0,0,0-7.193,7.424l.224,14.309.057,3.758A7.334,7.334,0,0,0,6111.6,10348.01Z" transform="translate(-6103.891 -10314.792)"/></g><g class="f" transform="translate(8.853 2.173)"><path class="d" d="M6113.123,10348.871l33.946-.535a7.332,7.332,0,0,0,7.193-7.424l-.286-18.064a7.335,7.335,0,0,0-5.961-7.068c-1.908,1.311-3.119,2.148-3.119,2.148-1.425,14.525-.618,25.266-23.14,24.129a39.6,39.6,0,0,1-16.117-4.137l.058,3.758A7.336,7.336,0,0,0,6113.123,10348.871Z" transform="translate(-6105.64 -10315.779)"/></g><g transform="translate(6.585 0.001)"><path class="d" d="M6097.5,10336.076a9.376,9.376,0,0,1-9.349-9.205l-.285-18.066a9.371,9.371,0,0,1,9.206-9.5l33.942-.535c.05,0,.1,0,.149,0a9.365,9.365,0,0,1,9.351,9.206l.285,18.068a9.365,9.365,0,0,1-9.2,9.5l-33.943.533Zm34.063-2.578h0Zm-.4-30.639h-.084l-33.942.535a5.287,5.287,0,0,0-5.184,5.35l.284,18.066a5.239,5.239,0,0,0,1.609,3.7,5.353,5.353,0,0,0,3.742,1.488l33.943-.533a5.276,5.276,0,0,0,5.186-5.35l-.285-18.066A5.268,5.268,0,0,0,6131.167,10302.859Z" transform="translate(-6087.871 -10298.77)"/></g><g transform="translate(14.972 2.043)"><path class="a" d="M6153.57,10347.868a6.418,6.418,0,0,0,1.365.112l33.946-.534a7.325,7.325,0,0,0,6.583-4.4,7.2,7.2,0,0,0,.606-3.023l-.124-8.025-.041-2.648-.116-7.393a7.331,7.331,0,0,0-7.425-7.192l-7.335.117a7.328,7.328,0,0,1,6.07,7.081l.157,9.759.13,8.312a7.334,7.334,0,0,1-7.193,7.425Z" transform="translate(-6153.57 -10314.762)"/></g><g class="f" transform="translate(14.972 16.629)"><path class="d" d="M6153.57,10447.539a6.482,6.482,0,0,0,1.365.113l33.946-.535a7.325,7.325,0,0,0,7.189-7.425l-.165-10.674c-.824,1.9-2.322,4.238-4.771,4.521-1.345.156-2.685-.79-3.877-2.148l.13,8.313a7.333,7.333,0,0,1-7.193,7.424Z" transform="translate(-6153.57 -10429.019)"/></g><g transform="translate(14.601)"><path class="d" d="M6152.246,10336.066a8.9,8.9,0,0,1-1.587-.144l.338-4.051,26.624-.417a5.285,5.285,0,0,0,5.181-5.35l-.284-18.067a5.275,5.275,0,0,0-4.374-5.106l.315-4.055,7.332-.116h.146a9.376,9.376,0,0,1,9.354,9.208l.284,18.065a9.369,9.369,0,0,1-9.2,9.5l-33.945.534Zm32.733-33.2a9.3,9.3,0,0,1,1.623,5.113l.285,18.066a9.256,9.256,0,0,1-1.634,5.425l1.058-.017a5.285,5.285,0,0,0,5.181-5.35h0l-.285-18.066a5.223,5.223,0,0,0-1.607-3.693,5.343,5.343,0,0,0-3.744-1.493Z" transform="translate(-6150.659 -10298.76)"/></g><g transform="translate(35.262 12.468)"><path class="l" d="M6312.506,10402.586c.015.668,1.07,6.04,1.07,6.04l3.806-.082c2.621-.056,4.686-2.815,4.614-6.161s-2.254-6.016-4.875-5.959l-3.806.082S6312.482,10401.5,6312.506,10402.586Z" transform="translate(-6312.505 -10396.423)"/></g><g class="f" transform="translate(35.262 12.468)"><path class="d" d="M6312.506,10402.586c.015.668,1.07,6.04,1.07,6.04l3.806-.082c2.621-.056,4.686-2.815,4.614-6.161s-2.254-6.016-4.875-5.959l-3.806.082S6312.482,10401.5,6312.506,10402.586Z" transform="translate(-6312.505 -10396.423)"/></g><g transform="translate(33.73 10.945)"><path class="d" d="M6301.852,10399.792l-.249-1.265c-.4-2.055-1.082-5.606-1.1-6.3h0c-.025-1.171.687-5.506.83-6.363l.209-1.252,5.074-.109c3.443-.084,6.35,3.271,6.439,7.456s-2.651,7.651-6.114,7.728Zm1.716-7.647c.028.4.395,2.432.8,4.525l2.515-.053c1.743-.039,3.168-2.144,3.116-4.6s-1.577-4.521-3.311-4.46l-2.53.055C6303.835,10389.63,6303.563,10391.635,6303.567,10392.145Z" transform="translate(-6300.504 -10384.498)"/></g><g transform="translate(31.366 12.487)"><g transform="translate(0 0)"><ellipse class="l" cx="4.746" cy="6.061" rx="4.746" ry="6.061" transform="translate(0 0.204) rotate(-1.232)"/></g></g><g class="f" transform="translate(31.456 16.397)"><path class="d" d="M6292.182,10429.318c.073,3.344-1.993,6.105-4.612,6.162s-4.807-2.612-4.875-5.962a7.427,7.427,0,0,1,.087-1.323c.724,2.284,2.495,3.885,4.529,3.84,2.264-.049,4.116-2.113,4.527-4.836A7.544,7.544,0,0,1,6292.182,10429.318Z" transform="translate(-6282.691 -10427.199)"/></g><g transform="translate(31.456 12.553)"><path class="a" d="M6292.185,10403.057a6.44,6.44,0,0,1-.019.674c-.577-2.611-2.48-4.511-4.694-4.463-2.441.056-4.406,2.454-4.594,5.492a7.625,7.625,0,0,1-.182-1.5c-.072-3.344,1.993-6.105,4.612-6.162S6292.11,10399.7,6292.185,10403.057Z" transform="translate(-6282.694 -10397.093)"/></g><g transform="translate(29.923 11.016)"><path class="d" d="M6277.012,10400.238c-3.41,0-6.237-3.316-6.327-7.457h0a8.488,8.488,0,0,1,1.6-5.266,5.586,5.586,0,0,1,9.123-.2,8.829,8.829,0,0,1,.225,10.459,5.767,5.767,0,0,1-4.51,2.459C6277.087,10400.238,6277.049,10400.238,6277.012,10400.238Zm-3.265-7.519c.054,2.454,1.564,4.481,3.311,4.46a2.77,2.77,0,0,0,2.124-1.232,5.778,5.778,0,0,0-.144-6.682,2.54,2.54,0,0,0-4.3.092,5.431,5.431,0,0,0-.991,3.362Z" transform="translate(-6270.683 -10385.054)"/></g><g transform="translate(18.679 0.993)"><path class="d" d="M6190.815,10342.049a1.532,1.532,0,0,1-1.53-1.472l-.46-11.7-5.167-3.137a1.53,1.53,0,0,1-.737-1.28l-.313-16.357a1.532,1.532,0,0,1,3.063-.059l.3,15.515,5.15,3.126a1.536,1.536,0,0,1,.736,1.25l.494,12.525a1.534,1.534,0,0,1-1.471,1.592Z" transform="translate(-6182.608 -10306.539)"/></g><g transform="translate(52.606 4.831)"><path class="a" d="M6487.452,10336.6s3.587,2.193,3.661,6.215a8.471,8.471,0,0,1-3.193,6.921s-11.124,8.1-36.929,6.509c0,0-6.523-6.852,1.019-12.031C6452.01,10344.209,6475.592,10348.076,6487.452,10336.6Z" transform="translate(-6448.372 -10336.6)"/></g><g class="f" transform="translate(52.606 10.946)"><path class="d" d="M6491.106,10384.5h0a8.482,8.482,0,0,1-3.191,7.014s-11.123,8.094-36.929,6.508c0,0-4.984-5.238-1.2-10.014,0,.028.009.058.014.086a6.211,6.211,0,0,0,5.954,5.125c23.367.709,33.5-6.666,33.5-6.666A7.541,7.541,0,0,0,6491.106,10384.5Z" transform="translate(-6448.367 -10384.5)"/></g><g transform="translate(50.566 2.261)"><path class="d" d="M6443.637,10340.934c-2.123,0-4.361-.066-6.717-.211l-.8-.049-.553-.582c-.148-.155-3.609-3.848-3.138-8.35.275-2.643,1.783-4.922,4.479-6.773l.675-.465.811.133c.227.038,22.72,3.559,33.692-7.066l1.136-1.1,1.349.824c.187.113,4.546,2.837,4.638,7.922a10.539,10.539,0,0,1-4.07,8.637C6474.737,10334.143,6465.141,10340.934,6443.637,10340.934Zm-5.582-4.238c23.974,1.279,34.618-6.1,34.725-6.178a6.436,6.436,0,0,0,2.344-5.227,5.387,5.387,0,0,0-1.576-3.551c-11.492,9.523-30.592,7.637-34.946,7.055a5.087,5.087,0,0,0-2.11,3.354A6.966,6.966,0,0,0,6438.056,10336.7Z" transform="translate(-6432.385 -10316.471)"/></g></g><g class="f" transform="translate(76.101 158.634)"><g transform="translate(0)"><path class="d" d="M5871.7,10531.5c-.464,1.336-.892,2.6-1.278,3.768.386-1.165.809-2.432,1.271-3.768Z" transform="translate(-5870.42 -10531.5)"/></g></g><g transform="translate(73.686 105.642)"><g transform="translate(0)"><path class="m" d="M5903.242,10179.324s-2.317-9.127-5.935-22.755c-5.046-19.013-11.9-39.71-15.525-40.157s-13.7,14.42-20.409,30.588c-5.428,13.09-9.875,27.75-9.875,27.75S5878.818,10187.494,5903.242,10179.324Z" transform="translate(-5851.499 -10116.402)"/></g></g><g class="e" transform="translate(85.496 105.644)"><g transform="translate(0 0)"><path class="a" d="M5983.944,10179.334q-1.871.624-3.761,1.088c-1.022-3.963-2.7-10.41-4.813-18.4-5.05-19.014-11.9-39.708-15.526-40.16-2.876-.351-9.762,8.854-15.835,20.707,6.577-14.344,15.17-26.561,18.473-26.15,3.63.445,10.48,21.146,15.525,40.154C5981.627,10170.207,5983.944,10179.334,5983.944,10179.334Z" transform="translate(-5944.01 -10116.412)"/></g></g><g class="n" transform="translate(92.782 119.34)"><g transform="translate(0)"><ellipse class="d" cx="7.302" cy="7.302" rx="7.302" ry="7.302"/></g></g><g transform="translate(94.916 119.853)"><g transform="translate(0)"><ellipse class="o" cx="5.168" cy="5.168" rx="5.168" ry="5.168"/></g></g><g class="e" transform="translate(94.917 119.855)"><g transform="translate(0 0)"><path class="a" d="M6028.143,10232.9a5.217,5.217,0,0,1-.193,1.408,5.165,5.165,0,0,0-9.947,0,5.236,5.236,0,0,1-.192-1.408,5.166,5.166,0,0,1,10.333,0Z" transform="translate(-6017.811 -10227.73)"/></g></g><g transform="translate(93.384 118.324)"><g transform="translate(0)"><path class="d" d="M6012.5,10229.139a6.7,6.7,0,1,1,6.7-6.7A6.707,6.707,0,0,1,6012.5,10229.139Zm0-10.341a3.635,3.635,0,1,0,3.636,3.636A3.64,3.64,0,0,0,6012.5,10218.8Z" transform="translate(-6005.8 -10215.738)"/></g></g><g class="n" transform="translate(98.141 134.251)"><g transform="translate(0 0)"><ellipse class="d" cx="6.864" cy="6.864" rx="6.864" ry="6.864" transform="translate(0 13.361) rotate(-76.714)"/></g></g><g transform="translate(101.587 135.037)"><g transform="translate(0 0)"><ellipse class="o" cx="5.341" cy="5.341" rx="5.341" ry="5.341"/></g></g><g class="e" transform="translate(101.59 135.031)"><g transform="translate(0)"><path class="a" d="M6080.761,10351.867a5.344,5.344,0,0,0-9.837,2.889v.076a5.341,5.341,0,1,1,9.837-2.965Z" transform="translate(-6070.08 -10346.609)"/></g></g><g transform="translate(100.054 133.499)"><g transform="translate(0)"><path class="d" d="M6064.924,10348.357a6.874,6.874,0,1,1,6.875-6.873A6.882,6.882,0,0,1,6064.924,10348.357Zm0-10.686a3.81,3.81,0,1,0,3.81,3.81A3.814,3.814,0,0,0,6064.924,10337.672Z" transform="translate(-6058.05 -10334.609)"/></g></g><g class="n" transform="translate(84.429 141.42)"><g transform="translate(0 0)"><ellipse class="d" cx="6.567" cy="6.567" rx="6.567" ry="6.567"/></g></g><g transform="translate(85.859 140.426)"><g transform="translate(0 0)"><ellipse class="o" cx="5.136" cy="5.136" rx="5.136" ry="5.136"/></g></g><g class="e" transform="translate(85.857 140.44)"><g transform="translate(0 0)"><path class="a" d="M5957.115,10394.115a5.1,5.1,0,0,1-.547,2.309,5.14,5.14,0,0,0-9.682-1.616,4.933,4.933,0,0,1-.046-.692,5.137,5.137,0,0,1,10.275,0Z" transform="translate(-5946.84 -10388.98)"/></g></g><g transform="translate(84.328 138.903)"><g transform="translate(0 0)"><path class="d" d="M5941.527,10390.274a6.667,6.667,0,1,1,6.668-6.667A6.675,6.675,0,0,1,5941.527,10390.274Zm0-10.276a3.6,3.6,0,1,0,3.6,3.6A3.608,3.608,0,0,0,5941.527,10380Z" transform="translate(-5934.86 -10376.939)"/></g></g><g transform="translate(73.687 152.701)"><g transform="translate(0)"><path class="p" d="M5903.251,10500.894c-24.42,8.171-51.74-4.575-51.74-4.575s1.443-4.766,3.689-11.289a111.659,111.659,0,0,0,45.412,5.639C5902.282,10497.064,5903.251,10500.894,5903.251,10500.894Z" transform="translate(-5851.511 -10485.029)"/></g></g><g class="e" transform="translate(73.685 159.148)"><g transform="translate(0)"><path class="a" d="M5903.23,10544.947c-24.42,8.17-51.74-4.575-51.74-4.575s.564-1.86,1.54-4.843c5,2.116,27.8,10.886,48.984,4.677C5902.8,10543.236,5903.23,10544.947,5903.23,10544.947Z" transform="translate(-5851.49 -10535.529)"/></g></g><g transform="translate(72.311 150.658)"><g transform="translate(0 0)"><path class="d" d="M5875.921,10491.715c-13.873,0-26.261-4.126-32.03-6.4a5,5,0,0,1-2.932-6.152c.626-1.974,1.639-5.1,2.9-8.767a2.044,2.044,0,0,1,2.6-1.263,110.062,110.062,0,0,0,44.567,5.531,2.046,2.046,0,0,1,2.149,1.52c.958,3.675,1.687,6.5,2.132,8.244a4.18,4.18,0,0,1-2.908,5.082h0A59.412,59.412,0,0,1,5875.921,10491.715Zm-28.853-18.064c-.946,2.8-1.709,5.157-2.216,6.755a.9.9,0,0,0,.536,1.116c7.613,3,27.328,9.4,45.888,4.069h0a.118.118,0,0,0,.081-.142c-.375-1.469-.952-3.707-1.7-6.574A114.886,114.886,0,0,1,5847.068,10473.65Z" transform="translate(-5840.726 -10469.02)"/></g></g><g transform="translate(75.333 103.578)"><g transform="translate(0)"><path class="d" d="M5902.7,10157.418a114.447,114.447,0,0,1-36.935-6.139,2.045,2.045,0,0,1-1.259-2.6c2.153-6.223,4.248-11.8,6.229-16.574a131.417,131.417,0,0,1,11.543-21.883c7-10.445,9.909-10.086,11-9.955,1.822.227,4.157,1.549,8.9,14.442,2.612,7.106,5.578,16.774,8.35,27.222,1.278,4.8,2.392,9.054,3.3,12.539a2.044,2.044,0,0,1-1.8,2.552C5908.829,10157.3,5905.712,10157.418,5902.7,10157.418Zm-33.652-9.344a110.578,110.578,0,0,0,40.208,5.061c-.778-2.978-1.676-6.394-2.676-10.148-6.047-22.8-11.563-36.662-13.857-38.592-2.633,1.063-11.326,12.668-18.21,29.282C5872.773,10137.874,5870.939,10142.713,5869.052,10148.074Zm23.482-43.812Z" transform="translate(-5864.399 -10100.231)"/></g></g><g transform="translate(71.215 127.107)"><g transform="translate(0 0)"><path class="a" d="M5847.017,10284.979c3.354,1.222,3.706,2.4,4.015,7.434s-3.66,21.426-9.086,21.59-9.768-.421-9.808-10.292C5832.094,10292.422,5839.582,10282.272,5847.017,10284.979Z" transform="translate(-5832.139 -10284.536)"/></g></g><g class="f" transform="translate(71.216 135.858)"><g transform="translate(0 0)"><path class="d" d="M5850.2,10359.281c-1.424,6.519-4.485,14.408-8.242,14.523-5.424.164-9.77-.42-9.806-10.291a25.689,25.689,0,0,1,2.163-10.425,25.417,25.417,0,0,0-.293,3.958c.041,9.867,4.381,10.455,9.811,10.291C5846.366,10367.26,5848.58,10363.635,5850.2,10359.281Z" transform="translate(-5832.148 -10353.089)"/></g></g><g transform="translate(69.684 125.566)"><g transform="translate(0 0)"><path class="d" d="M5830.23,10305.024c-2.625,0-5.23-.339-7.185-2.229s-2.878-4.946-2.9-9.611c-.031-7.737,3.292-15.286,8.268-18.784a9.153,9.153,0,0,1,8.667-1.393c4.207,1.532,4.7,3.512,5.021,8.778.273,4.444-2.337,16.42-6.625,21.118a5.61,5.61,0,0,1-3.944,2.1C5831.1,10305.024,5830.664,10305.024,5830.23,10305.024Zm3.85-29.489a6.769,6.769,0,0,0-3.9,1.375c-4.127,2.9-6.993,9.59-6.966,16.264.014,3.733.656,6.16,1.962,7.422,1.288,1.246,3.271,1.434,6.269,1.347a2.941,2.941,0,0,0,1.771-1.1c3.517-3.854,6.066-15.018,5.83-18.865-.3-4.94-.581-5.2-3.01-6.089h0A5.9,5.9,0,0,0,5834.081,10275.535Z" transform="translate(-5820.149 -10272.467)"/></g></g><g transform="translate(76.743 195.738)"><g transform="translate(0 0)"><path class="d" d="M5877.237,10822.165a15.054,15.054,0,0,1,2.657.745,20.493,20.493,0,0,1,2.5,1.145,12.81,12.81,0,0,1,2.323,1.542,6.73,6.73,0,0,1,1.792,2.241c-.969-.2-1.811-.4-2.654-.609s-1.654-.449-2.478-.667l-2.466-.669c-.809-.236-1.65-.473-2.414-.753l-.046-.017a1.537,1.537,0,0,1,.785-2.958Z" transform="translate(-5875.444 -10822.146)"/></g></g><g transform="translate(108.358 112.893)"><g transform="translate(0)"><path class="a" d="M6175.136,10173.2s-3.152,13.383-19.521,18.475c-13.42,4.175-19.846-3.874-28.479,5.646-7.591,8.369-3.96,23.857,6.488,26.289,10.258,2.388,43.684.43,50.642-26.229" transform="translate(-6123.095 -10173.2)"/></g></g><g class="f" transform="translate(108.365 136.341)"><g transform="translate(0)"><path class="d" d="M6184.317,10357.6c-6.955,26.66-40.381,28.616-50.64,26.231-7.486-1.746-11.474-10.2-10.331-17.923,1.522,3.482,4.289,8.545,11.172,10.315,13.77,3.543,35.708-2.29,47.85-18.9a1.119,1.119,0,0,1,1.949.276Z" transform="translate(-6123.153 -10356.872)"/></g></g><g transform="translate(106.834 112.464)"><g transform="translate(0)"><path class="d" d="M6165.224,10170.383a16.992,16.992,0,0,1-3.672,9.244,25.829,25.829,0,0,1-7.426,6.721,38.557,38.557,0,0,1-9.1,4.025,30.626,30.626,0,0,1-9.9,1.166c-3.3-.092-6.471-.7-9.323-.457a10.152,10.152,0,0,0-3.971,1.135l-.9.526a8.215,8.215,0,0,0-.855.636c-.277.229-.574.424-.837.677l-.782.78c-4.194,4-5.22,10.654-3.286,16.122a13.238,13.238,0,0,0,5,6.743,10.321,10.321,0,0,0,3.847,1.571,31.937,31.937,0,0,0,4.5.542,57.9,57.9,0,0,0,18.365-2.076,41.1,41.1,0,0,0,16.167-8.416c.589-.482,1.1-1.047,1.65-1.563.535-.536,1.019-1.118,1.53-1.676.475-.589.917-1.2,1.366-1.808l1.193-1.922c1.553-2.6,2.729-5.3,4.588-8.037l0-.008a.539.539,0,0,1,.983.266,16.091,16.091,0,0,1-2.783,9.48c-.457.7-.958,1.372-1.435,2.057l-1.572,1.946c-.564.611-1.1,1.255-1.685,1.844-.605.569-1.17,1.186-1.811,1.713a44.127,44.127,0,0,1-17.364,9.069,60.923,60.923,0,0,1-19.369,2.188,34.955,34.955,0,0,1-4.954-.6,14.542,14.542,0,0,1-2.549-.757,13.772,13.772,0,0,1-2.367-1.261,16.3,16.3,0,0,1-6.194-8.282,19.9,19.9,0,0,1-.775-10.19,17.536,17.536,0,0,1,1.676-4.915,16,16,0,0,1,3.1-4.186l.909-.9c.309-.295.676-.548,1.012-.822a10.477,10.477,0,0,1,1.059-.779l1.155-.674a13.292,13.292,0,0,1,5.123-1.475,29.244,29.244,0,0,1,5.023.105c1.6.134,3.153.3,4.68.342a27.516,27.516,0,0,0,8.946-1.048,31.136,31.136,0,0,0,8.238-3.745,31.618,31.618,0,0,0,6.636-6.025,58.028,58.028,0,0,0,5.179-7.512l.031-.051a.516.516,0,0,1,.96.289Z" transform="translate(-6111.161 -10169.839)"/></g></g><g transform="translate(142.722 128.592)"><g transform="translate(0 0)"><path class="d" d="M6400.88,10327.783a1.534,1.534,0,0,1-1.405-2.142c6.081-14.069-6.6-26.719-6.733-26.844a1.532,1.532,0,0,1,2.144-2.19c.587.575,14.308,14.27,7.4,30.25A1.528,1.528,0,0,1,6400.88,10327.783Z" transform="translate(-6392.282 -10296.17)"/></g></g></svg>