<svg xmlns="http://www.w3.org/2000/svg" width="360.366" height="327.751" viewBox="0 0 360.366 327.751"><defs><style>.a{fill:#fff;}.b{fill:#371a45;}.c{opacity:0.25;}.d{fill:none;stroke:#371a45;stroke-linecap:round;stroke-miterlimit:10;stroke-width:25.984px;}.e{opacity:0.6;}.f{opacity:0.3;}.g{fill:#4089ff;}.h{opacity:0.5;}.i{fill:#ffd39f;}.j{opacity:0.7;}.k{fill:#ffc41d;}.l{fill:#32b1d1;}.m{fill:#293856;}.n{fill:#21102b;}.o{opacity:0.35;}.p{fill:#22a7f0;}</style></defs><g transform="translate(0 0)"><g transform="translate(6581.455 9657.311)"><g transform="translate(-3014.2 -14864.88)"><g transform="translate(-3499.845 5293.478)"><g transform="translate(0 0)"><path class="a" d="M-2965.75,5906.526l-9.468,17.274-4.067,7.425s-1.353.092-3.706.066c-11.42-.138-46.434-3.181-64.535-33.95-14.981-25.467-5.815-37.5,8.62-37.188,3.489.079,6.788,1.643,10.454,4.264,9.028,6.439,20.284,19.245,42.045,31.841A186.572,186.572,0,0,0-2965.75,5906.526Z" transform="translate(3055.198 -5860.146)"/></g></g><g transform="translate(-3473.313 5315.083)"><g transform="translate(0 0)"><path class="b" d="M-2851.952,6062.969a1.71,1.71,0,0,1-1.578-1.049,1.711,1.711,0,0,1,.914-2.238h0c.811-.344,19.892-8.706,21.774-33.833a1.717,1.717,0,0,1,1.834-1.577,1.71,1.71,0,0,1,1.577,1.834c-2.043,27.277-22.969,36.357-23.859,36.73A1.7,1.7,0,0,1-2851.952,6062.969Z" transform="translate(2853.664 -6024.267)"/></g></g><g class="c" transform="translate(-3499.845 5303.917)"><g transform="translate(0 0)"><path class="b" d="M-2965.751,5975.38l-9.468,17.274-4.067,7.425s-1.353.092-3.706.066c-11.42-.138-46.434-3.181-64.535-33.95-6.906-11.735-8.679-20.618-7.175-26.755.92,4.881,3.2,10.7,7.175,17.451,18.1,30.77,53.116,33.812,64.535,33.95,2.353.026,3.706-.066,3.706-.066l4.067-7.425,5.355-9.771Q-2967.854,5974.486-2965.751,5975.38Z" transform="translate(3055.199 -5939.44)"/></g></g><g transform="translate(-3502.139 5291.195)"><g transform="translate(0 0)"><path class="b" d="M-2997.308,5918.523a93.832,93.832,0,0,1-23.633-3.179c-19.342-5.172-34.448-16.207-43.683-31.907-10.309-17.526-8.786-27.493-5.692-32.769,3.063-5.224,8.883-8.017,16.329-7.853,7.062.151,13.138,5.443,21.548,12.768,10.9,9.489,25.816,22.485,52.449,33.79a2.28,2.28,0,0,1,1.208,2.99,2.281,2.281,0,0,1-2.99,1.208c-27.3-11.587-42.537-24.858-53.663-34.548-7.974-6.944-13.241-11.532-18.65-11.648-5.748-.127-10.109,1.865-12.3,5.6-3.5,5.967-1.478,15.964,5.69,28.149,8.715,14.815,22.436,24.834,40.786,29.776a86.43,86.43,0,0,0,25.331,2.994,2.277,2.277,0,0,1,2.43,2.118,2.28,2.28,0,0,1-2.116,2.431C-2994.4,5918.453-2995.486,5918.523-2997.308,5918.523Z" transform="translate(3072.623 -5842.808)"/></g></g><g transform="translate(-3496.056 5321.44)"><g transform="translate(0 0)"><path class="a" d="M-2860.842,6174.906c-8.851,10.138-26.637,12.7-31.2,19.553-4,6.012-2.568,13.673-2.181,21.7.329,6.874-.848,15.869-6.623,23.661-8.745,11.788-25.343,13.016-34.337,5.52-10.27-8.561,2.491-30.093,4.343-32.748,0,0-2.805-3.442-5.415-6.544a20.129,20.129,0,0,1-3.93-9.134c-20.816-1.149-37.426,15.592-48.444,18.575-12.234,3.311-25.513-5.46-34.416-22.583-7.32-14.081-1.99-26.532,8.851-27.839,8.286-.993,22.6,10.309,22.6,10.309s6.5-28.372,31.2-25.047c0,0,2.693-14,2.392-34.6-.046-3.22-.165-6.61-.382-10.125a203.847,203.847,0,0,0-3.036-24.909c-.184-.947-.368-1.892-.558-2.845l77.906-5.3q2.06,2.326,3.956,4.692,1.8,2.247,3.469,4.514a126.9,126.9,0,0,1,13.391,22.865C-2849.764,6134.471-2850.92,6163.532-2860.842,6174.906Z" transform="translate(3026.418 -6072.551)"/></g></g><g transform="translate(-3496.053 5326.741)"><g transform="translate(0 0)"><path class="a" d="M-2926.671,6235.2c-27.162-12-48.628,11.663-61.934,15.263-12.234,3.311-25.513-5.46-34.416-22.583a26.364,26.364,0,0,1-3.279-14.593c.7-7.228,5.335-12.425,12.13-13.246,8.286-.993,22.6,10.309,22.6,10.309s6.5-28.373,31.2-25.047c0,0,6.38-33.142-1.583-72.48l25.277,87.664Z" transform="translate(3026.395 -6112.82)"/></g></g><g class="c" transform="translate(-3496.053 5410.596)"><g transform="translate(0 0)"><path class="b" d="M-2926.671,6788.316c-27.162-12-48.628,11.663-61.934,15.263-12.234,3.311-25.513-5.46-34.416-22.583a26.364,26.364,0,0,1-3.279-14.593c11.873,20.205,51.361,3.246,59.924-3.831,7.97-6.59,30.265-13.192,45.785-12.758Z" transform="translate(3026.395 -6749.795)"/></g></g><g transform="translate(-3452.485 5403.991)"><g transform="translate(0 0)"><path class="b" d="M-2673.169,6747.225a1.59,1.59,0,0,1-.249-.018,1.713,1.713,0,0,1-1.446-1.94c4.388-30.033-19.4-42.279-19.639-42.4a1.712,1.712,0,0,1-.766-2.295,1.713,1.713,0,0,1,2.295-.766,42.155,42.155,0,0,1,12.583,10.695c5.432,6.738,11.387,18.325,8.914,35.261A1.712,1.712,0,0,1-2673.169,6747.225Z" transform="translate(2695.449 -6699.625)"/></g></g><g transform="translate(-3452.567 5419.886)"><path class="a" d="M-2696.07,6820.36" transform="translate(2696.07 -6820.36)"/></g><g transform="translate(-3498.348 5324.462)"><g transform="translate(0 0)"><path class="b" d="M-3009,6238.415c-11.52,0-23.067-8.911-31.183-24.518-4.277-8.227-4.817-16.568-1.48-22.889a15.356,15.356,0,0,1,12.077-8.262c6.989-.845,16.877,5.424,21.646,8.815,2.63-7.463,10.962-25.076,30.526-23.772a209.978,209.978,0,0,0-1.919-69.543,2.28,2.28,0,0,1,1.782-2.688,2.285,2.285,0,0,1,2.688,1.782c7.966,39.323,1.652,73.028,1.588,73.364l-.408,2.115-2.135-.287c-22.312-3-28.422,22.222-28.671,23.3l-.811,3.5-2.824-2.224c-3.78-2.98-14.918-10.54-20.917-9.834a10.921,10.921,0,0,0-8.588,5.865c-2.629,4.978-2.084,11.777,1.493,18.656,8.448,16.246,20.633,24.458,31.794,21.437,3.436-.931,7.642-3.42,12.511-6.3,12.8-7.576,30.33-17.953,50.946-8.844a2.28,2.28,0,0,1,1.164,3.008,2.28,2.28,0,0,1-3.008,1.164c-18.469-8.162-34.166,1.13-46.779,8.6-5.156,3.052-9.609,5.688-13.644,6.78A22.259,22.259,0,0,1-3009,6238.415Z" transform="translate(3043.831 -6095.511)"/></g></g><g transform="translate(-3452.567 5419.886)"><path class="d" d="M-2696.07,6820.36" transform="translate(2696.07 -6820.36)"/></g><g transform="translate(-3567.255 5397.322)"><g transform="translate(2.276 52.323)"><path class="b" d="M-3492.839,7046.41l-26.2,5.713a39.285,39.285,0,0,0-30.014,46.752h0a39.285,39.285,0,0,0,46.753,30.014l26.2-5.713Z" transform="translate(3549.963 -7046.41)"/></g><g class="e" transform="translate(2.279 50.774)"><path class="a" d="M-3476.086,7111.422l-.67.145-14.363-65.87-26.2,5.709a39.286,39.286,0,0,0-30.921,38.779c-.309-1.006-.571-2.023-.8-3.068a39.286,39.286,0,0,1,30.014-46.75l26.2-5.716Z" transform="translate(3549.947 -7034.65)"/></g><g transform="translate(4.869 98.036)"><g class="f"><path class="b" d="M-3530.27,7393.66c.088.5.184.99.293,1.486a39.169,39.169,0,0,0,17.16,24.691,39.168,39.168,0,0,0,29.594,5.322l23.217-5.063-3.579-16.415-26.2,5.713a39.3,39.3,0,0,1-40.486-15.736Z" transform="translate(3530.27 -7393.66)"/></g></g><g transform="translate(0 50.042)"><path class="b" d="M-3525.767,7117.044a41.287,41.287,0,0,1-22.372-6.6,41.3,41.3,0,0,1-18.156-26.123,41.613,41.613,0,0,1,31.755-49.467l26.2-5.713a2.282,2.282,0,0,1,1.718.308,2.28,2.28,0,0,1,1,1.434l16.74,76.767a2.281,2.281,0,0,1-1.742,2.714l-26.2,5.713A41.959,41.959,0,0,1-3525.767,7117.044Zm16.171-82.962-23.971,5.228a37.05,37.05,0,0,0-28.272,44.04,36.761,36.761,0,0,0,16.165,23.256,36.755,36.755,0,0,0,27.875,5.015l23.971-5.228Z" transform="translate(3567.255 -7029.087)"/></g><g transform="translate(66.254 2.253)"><rect class="g" width="227.699" height="78.616" transform="translate(0 48.523) rotate(-12.304)"/></g><g class="h" transform="translate(67.22 2.093)"><path class="a" d="M-2833.59,6672.744l15.146,69.145,1.648-.358-16.794-76.67-223.05,48.423,1.648,7.527Z" transform="translate(3056.64 -6664.86)"/></g><g class="f" transform="translate(77.845 55.712)"><path class="b" d="M-2753.456,7072.16l-222.474,48.513,4.327,19.842-.413-1.9,221.684-48.341-3.912-17.942.789-.173,5.1,23.38-222.474,48.513h0l222.474-48.513Z" transform="translate(2975.93 -7072.16)"/></g><g transform="translate(63.917 0)"><path class="b" d="M-3062.7,6778.846a2.282,2.282,0,0,1-1.232-.362,2.277,2.277,0,0,1-1-1.432l-16.749-76.811a2.281,2.281,0,0,1,1.742-2.715l222.472-48.513a2.281,2.281,0,0,1,1.193.06l.087.027a2.281,2.281,0,0,1,1.547,1.815,2.277,2.277,0,0,1-.919,2.2,12.135,12.135,0,0,0-4.756,12.434,12.076,12.076,0,0,0,3.319,6.039,5,5,0,0,1,1.489,3.673,4.862,4.862,0,0,1-1.651,3.537,14.26,14.26,0,0,0-4.46,13.681,14.267,14.267,0,0,0,9.752,10.587,4.856,4.856,0,0,1,2.974,2.529,5,5,0,0,1,.175,3.958,12.08,12.08,0,0,0-.5,6.873,12.161,12.161,0,0,0,9.5,9.333,2.28,2.28,0,0,1,1.768,1.693,2.282,2.282,0,0,1-.785,2.319l-.01.008a2.455,2.455,0,0,1-1,.5l-222.472,48.513A2.179,2.179,0,0,1-3062.7,6778.846Zm-14.036-77.35,15.778,72.355,213.65-46.589a16.709,16.709,0,0,1-6.368-9.862,16.634,16.634,0,0,1,.7-9.462.417.417,0,0,0-.005-.334.329.329,0,0,0-.215-.175,18.832,18.832,0,0,1-12.872-13.977,18.825,18.825,0,0,1,5.887-18.063.329.329,0,0,0,.121-.248.41.41,0,0,0-.134-.306,16.636,16.636,0,0,1-4.571-8.312,16.692,16.692,0,0,1,1.687-11.618Z" transform="translate(3081.732 -6648.96)"/></g><g transform="translate(281.419 2.308)"><g transform="translate(0)"><path class="i" d="M-1355.185,6698.2l-10.854,9.717-22.238,19.9-17.211,15.408a14.435,14.435,0,0,1-11.281-11.085,14.326,14.326,0,0,1,.6-8.167,2.669,2.669,0,0,0-.508-2.761,2.6,2.6,0,0,0-1.177-.739,16.5,16.5,0,0,1-11.312-12.281,16.492,16.492,0,0,1,5.174-15.87,2.645,2.645,0,0,0,.075-3.883,14.333,14.333,0,0,1-3.945-7.176,14.415,14.415,0,0,1,5.649-14.769l22.056,6.837,28.5,8.843,13.92,4.315a6.777,6.777,0,0,1,4.173,3.6A6.873,6.873,0,0,1-1355.185,6698.2Z" transform="translate(1429.549 -6666.49)"/></g></g><g class="j" transform="translate(282.776 2.312)"><path class="a" d="M-1345.158,6697a.406.406,0,0,0-.033-.079,6.76,6.76,0,0,0-4.172-3.594l-13.916-4.316-28.5-8.837-22.057-6.84a14.433,14.433,0,0,0-5.23,7.1,14.4,14.4,0,0,1,5.8-13.916l22.057,6.833,28.5,8.844,13.923,4.316a6.776,6.776,0,0,1,4.172,3.594A6.884,6.884,0,0,1-1345.158,6697Z" transform="translate(1419.246 -6666.521)"/></g><g transform="translate(293.865 28.04)"><g class="f"><path class="b" d="M-1332.577,6906.814a14.467,14.467,0,0,0,5.235,2.194l17.211-15.408,23.616-19.413,9.474-10.205a6.917,6.917,0,0,0,1.511-1.933l.165-.091-40.3,22.161a63.857,63.857,0,0,1-17.176,6.443l-1.747.38a2.672,2.672,0,0,1,.508,2.761,14.34,14.34,0,0,0-.6,8.167,14.351,14.351,0,0,0,2.865,5.977C-1332.078,6907.518-1332.338,6907.174-1332.577,6906.814Z" transform="translate(1335.007 -6861.96)"/></g></g><g transform="translate(337.802 17.989)"><path class="b" d="M-983.278,6801.635l-10.854,9.717a23.2,23.2,0,0,1-6.513-12.07,23.214,23.214,0,0,1,.893-13.671l13.92,4.315A6.886,6.886,0,0,1-983.278,6801.635Z" transform="translate(1001.259 -6785.61)"/></g><g transform="translate(279.145 0.028)"><path class="b" d="M-1420.493,6730.46a2.222,2.222,0,0,1-.446-.044A16.72,16.72,0,0,1-1434,6717.582a16.633,16.633,0,0,1,.7-9.462.416.416,0,0,0-.005-.334.33.33,0,0,0-.215-.175,18.832,18.832,0,0,1-12.872-13.977,18.825,18.825,0,0,1,5.887-18.063.329.329,0,0,0,.121-.248.41.41,0,0,0-.134-.306,16.636,16.636,0,0,1-4.571-8.312,16.7,16.7,0,0,1,6.543-17.1,2.286,2.286,0,0,1,2.01-.329l64.475,20a9.057,9.057,0,0,1,6.241,6.8,9.067,9.067,0,0,1-2.842,8.79h0l-50.3,45.024A2.274,2.274,0,0,1-1420.493,6730.46Zm-16.254-76.476a12.14,12.14,0,0,0-3.893,11.75,12.075,12.075,0,0,0,3.319,6.039,4.994,4.994,0,0,1,1.489,3.673,4.863,4.863,0,0,1-1.651,3.538,14.26,14.26,0,0,0-4.46,13.681,14.268,14.268,0,0,0,9.752,10.587,4.854,4.854,0,0,1,2.974,2.529,5,5,0,0,1,.175,3.958,12.081,12.081,0,0,0-.5,6.873,12.159,12.159,0,0,0,8.428,9.069l49.406-44.223h0a4.559,4.559,0,0,0,1.428-4.419,4.548,4.548,0,0,0-3.134-3.412Zm66.557,29.171h0Z" transform="translate(1446.828 -6649.169)"/></g><g transform="translate(45.433 45.83)"><path class="k" d="M-3189.866,7086.243c-8.4,1.831-16.473-2.224-18.195-9.139-2.179-8.754-5.105-20.816-7.484-31.728s-4.742-23.1-6.4-31.963c-1.314-7,4.342-14.052,12.738-15.883h0c8.69-1.894,16.968,2.511,18.329,9.758,1.656,8.81,3.963,20.682,6.288,31.341s5.17,22.415,7.331,31.113c1.78,7.155-3.913,14.606-12.6,16.5Z" transform="translate(3222.139 -6997.09)"/></g><g class="e" transform="translate(45.435 45.83)"><path class="a" d="M-3190.175,7010.928c-2.7-3.732-7.563-6.019-12.99-6.019a19.8,19.8,0,0,0-4.244.459c-7.464,1.63-12.866,7.181-13.523,13.305-.355-1.854-.69-3.614-1-5.263-1.314-7,4.336-14.048,12.734-15.88a19.153,19.153,0,0,1,4.048-.439c7.076,0,13.141,4.093,14.285,10.2Q-3190.542,7009.031-3190.175,7010.928Z" transform="translate(3222.12 -6997.09)"/></g><g transform="translate(49.994 84.502)"><g class="f" transform="translate(1.509 6.432)"><path class="b" d="M-3176.03,7339.71c.035.153.072.3.108.456C-3175.958,7340.014-3175.993,7339.863-3176.03,7339.71Z" transform="translate(3176.03 -7339.71)"/></g><g class="f" transform="translate(1.039 4.444)"><path class="b" d="M-3179.6,7324.61a.01.01,0,0,0,0,.005A.01.01,0,0,1-3179.6,7324.61Z" transform="translate(3179.6 -7324.61)"/></g><g class="f" transform="translate(0.471 2.027)"><path class="b" d="M-3183.91,7306.25c.033.14.066.278.1.417C-3183.844,7306.528-3183.877,7306.39-3183.91,7306.25Z" transform="translate(3183.91 -7306.25)"/></g><g class="f" transform="translate(2.546 10.769)"><path class="b" d="M-3168.15,7372.65c.031.133.064.264.1.4C-3168.087,7372.915-3168.118,7372.782-3168.15,7372.65Z" transform="translate(3168.15 -7372.65)"/></g><g class="f" transform="translate(36.438 17.992)"><path class="b" d="M-2908.2,7437.924c-.8-3.27-1.648-6.79-2.5-10.4h0C-2909.848,7431.134-2909,7434.654-2908.2,7437.924Z" transform="translate(2910.7 -7427.52)"/></g><g class="f" transform="translate(9.374 40.76)"><path class="b" d="M-3116.135,7601.05c-.047-.189-.1-.387-.145-.581.047.192.1.391.145.581a11.391,11.391,0,0,0,3.244,5.505A11.391,11.391,0,0,1-3116.135,7601.05Z" transform="translate(3116.28 -7600.47)"/></g><g class="f" transform="translate(3.574 15.012)"><path class="b" d="M-3160.34,7404.88c.014.061.029.121.045.183C-3160.31,7405-3160.326,7404.94-3160.34,7404.88Z" transform="translate(3160.34 -7404.88)"/></g><g class="f"><path class="b" d="M-3179.227,7327.12c1.822,6.793,9.817,10.757,18.132,8.944,8.686-1.895,14.385-9.344,12.6-16.5-.787-3.171-1.668-6.755-2.578-10.538,0-.015,0-.03,0-.045-.375,5.993-5.573,11.552-12.9,13.149-8.4,1.831-16.477-2.224-18.193-9.14-.4-1.586-.815-3.282-1.252-5.059-.02-.07-.047-.137-.064-.207-1.019-4.087-2.2-8.9-3.411-13.977q-.3-1.446-.6-2.9h0c.671,3.236,1.352,6.477,2.035,9.61,1.958,8.976,4.278,18.727,6.257,26.775C-3179.207,7327.2-3179.216,7327.16-3179.227,7327.12Z" transform="translate(3187.49 -7290.85)"/></g><g class="f" transform="translate(20.583 48.499)"><path class="b" d="M-3031.14,7661.4a18.448,18.448,0,0,0,7.13-.16,18.726,18.726,0,0,0,5.225-1.98,18.74,18.74,0,0,1-5.225,1.98A18.448,18.448,0,0,1-3031.14,7661.4Z" transform="translate(3031.14 -7659.26)"/></g><g class="f" transform="translate(16.111 49.189)"><path class="b" d="M-3063.421,7665.211a15.544,15.544,0,0,1-1.689-.711A15.137,15.137,0,0,0-3063.421,7665.211Z" transform="translate(3065.11 -7664.5)"/></g><g class="f" transform="translate(32.936 47.694)"><path class="b" d="M-2936,7653.141q-.624.426-1.3.807C-2936.853,7653.694-2936.419,7653.425-2936,7653.141Z" transform="translate(2937.3 -7653.141)"/></g><g class="f" transform="translate(8.612 37.681)"><path class="b" d="M-3121.9,7577.784c-.058-.234-.116-.467-.174-.7C-3122.012,7577.318-3121.954,7577.55-3121.9,7577.784Z" transform="translate(3122.07 -7577.08)"/></g><g class="f" transform="translate(34.233 46.795)"><path class="b" d="M-2926.255,7646.31q-.573.472-1.2.9Q-2926.828,7646.781-2926.255,7646.31Z" transform="translate(2927.45 -7646.31)"/></g><g class="f" transform="translate(9.005 39.268)"><path class="b" d="M-3118.923,7589.816c-.055-.224-.112-.45-.167-.677C-3119.035,7589.366-3118.978,7589.593-3118.923,7589.816Z" transform="translate(3119.09 -7589.14)"/></g><g class="f" transform="translate(12.808 46.893)"><path class="b" d="M-3090.2,7647.06a13.307,13.307,0,0,0,1.493,1.2A13.418,13.418,0,0,1-3090.2,7647.06Z" transform="translate(3090.2 -7647.06)"/></g></g><g class="c" transform="translate(75.632 52.965)"><path class="b" d="M-2991.746,7054.027c.024.109.039.213.063.322,1.169,6.222,2.661,13.96,4.259,21.721-.749-3.219-1.474-6.451-2.157-9.584-1.08-4.95-2.154-10.155-3.158-15.2A10.867,10.867,0,0,1-2991.746,7054.027Z" transform="translate(2992.74 -7051.291)"/></g><g class="c" transform="translate(80.948 77.745)"><path class="b" d="M-2947.187,7261.049a10.894,10.894,0,0,1,.312,3.22c-1.185-5-2.375-10.182-3.454-15.131-.685-3.14-1.37-6.379-2.03-9.618C-2950.58,7247.249-2948.713,7254.912-2947.187,7261.049Z" transform="translate(2952.36 -7239.52)"/></g><g transform="translate(43.454 43.854)"><path class="b" d="M-3207.021,7075.634c-7.712,0-14.333-4.357-16.008-11.083-2.084-8.371-5.076-20.681-7.5-31.784s-4.827-23.549-6.416-32.021c-1.523-8.117,4.74-16.1,14.257-18.176a19.157,19.157,0,0,1,14.611,2.44,13.72,13.72,0,0,1,6.079,8.882c1.555,8.272,3.906,20.416,6.277,31.284s5.287,22.885,7.318,31.058a13.722,13.722,0,0,1-1.83,10.606,19.168,19.168,0,0,1-12.27,8.3h0A21.348,21.348,0,0,1-3207.021,7075.634Zm4.1-2.422h0Zm-15.288-87.181a17.073,17.073,0,0,0-3.636.4c-7.293,1.59-12.326,7.687-11.218,13.591,1.585,8.447,3.978,20.838,6.393,31.907s5.394,23.326,7.471,31.672c1.452,5.828,8.564,9.275,15.858,7.686h0a15.2,15.2,0,0,0,9.756-6.528,9.684,9.684,0,0,0,1.351-7.568c-2.038-8.2-4.966-20.261-7.344-31.169s-4.739-23.1-6.3-31.4a9.683,9.683,0,0,0-4.38-6.319A14.364,14.364,0,0,0-3218.207,6986.03Z" transform="translate(3237.171 -6982.083)"/></g></g><g transform="translate(-3380.197 5319.861)"><g transform="translate(0 0)"><path class="a" d="M-2077.331,6064.5c10.49,7.862,20.1,45.3,17.673,67.613s-41.875,23.987-64.434,23.263-22.481-51.73-22.185-65.394C-2145.816,6068.652-2092.876,6052.855-2077.331,6064.5Z" transform="translate(2146.337 -6060.555)"/></g></g><g class="c" transform="translate(-3380.198 5320.517)"><g transform="translate(0)"><path class="b" d="M-2124.1,6159.71c22.559.724,62-.951,64.437-23.265a73.67,73.67,0,0,0,.357-9.441c-6.229,4.9-14.91.538-15.957-5.45-6.462-36.97-20.23-51.158-26.89-56.014-20.294,2.845-43.826,14.581-44.129,28.778C-2146.58,6107.979-2146.656,6158.986-2124.1,6159.71Z" transform="translate(2146.342 -6065.54)"/></g></g><g transform="translate(-3382.482 5317.596)"><g transform="translate(0 0)"><path class="b" d="M-2131.3,6142.855c-2.68,0-5.334-.048-7.945-.131-22.482-.721-24.932-42.74-24.391-67.722.186-8.6,7.567-16.873,20.783-23.307,16.643-8.1,41.183-11.917,51.812-3.951h0c12,8.992,20.92,48.123,18.573,69.686C-2074.706,6138-2104.09,6142.855-2131.3,6142.855Zm22.883-94.98c-9.706,0-21.843,2.765-32.44,7.922-11.433,5.566-18.073,12.6-18.218,19.3-.317,14.634.188,62.43,19.979,63.065,22.253.713,59.9-1.1,62.093-21.23,2.342-21.512-7.064-58.265-16.774-65.541h0C-2096.949,6049.016-2102.181,6047.875-2108.414,6047.875Z" transform="translate(2163.697 -6043.355)"/></g></g><g transform="translate(-3315.96 5356.972)"><g transform="translate(0 0)"><path class="a" d="M-1655.826,6346.739l10.012-3.992a4.05,4.05,0,0,1,5.421,2.737c2.1,8.113,5.342,24.93-2.821,28.373-9.895,4.172-13.4-7.241-15.139-22.922A4.041,4.041,0,0,1-1655.826,6346.739Z" transform="translate(1658.379 -6342.457)"/></g></g><g class="c" transform="translate(-3315.941 5361.384)"><g transform="translate(0 0)"><path class="b" d="M-1658.213,6380.01c1.7,15.684,5.184,27.108,15.087,22.957,4.068-1.7,5.317-6.728,5.284-12.345a7.237,7.237,0,0,1-3.664,3.544c-8.866,3.714-12.589-5.054-14.485-18.2A4.007,4.007,0,0,0-1658.213,6380.01Z" transform="translate(1658.238 -6375.97)"/></g></g><g transform="translate(-3318.223 5354.7)"><g transform="translate(0 0)"><path class="b" d="M-1661.992,6362.02a8.55,8.55,0,0,1-4.415-1.2c-4.828-2.848-7.557-10.221-9.124-24.653a6.341,6.341,0,0,1,3.966-6.557l10.021-3.968a6.339,6.339,0,0,1,5.211.245,6.322,6.322,0,0,1,3.253,4.058c3.1,12.056,4.88,27.227-4.214,31.037A12.164,12.164,0,0,1-1661.992,6362.02Zm2.78-32.264a1.743,1.743,0,0,0-.653.128l-10.021,3.969a1.765,1.765,0,0,0-1.111,1.823c.492,4.53,1.989,18.316,6.906,21.216,1.328.783,2.975.745,5.033-.117,5.43-2.276,4.365-14.766,1.559-25.695a1.743,1.743,0,0,0-.906-1.128A1.794,1.794,0,0,0-1659.211,6329.756Zm-11.514,1.976h0Z" transform="translate(1675.568 -6325.197)"/></g></g><g transform="translate(-3324.188 5323.736)"><g transform="translate(0 0)"><path class="b" d="M-1704.717,6094.474c-2.445.736-4.908,1.516-7.349,2.314s-4.875,1.632-7.276,2.523h0a1.142,1.142,0,0,1-1.469-.674,1.143,1.143,0,0,1,.521-1.4c2.288-1.257,4.6-2.45,6.926-3.615s4.656-2.3,7.026-3.412a2.287,2.287,0,0,1,3.042,1.1,2.288,2.288,0,0,1-1.1,3.044,2.47,2.47,0,0,1-.3.117Z" transform="translate(1720.886 -6089.995)"/></g></g><g transform="translate(-3416.949 5445.47)"><path class="d" d="M-2425.51,7014.7" transform="translate(2425.51 -7014.7)"/></g><g transform="translate(-3431.614 5326.74)"><g transform="translate(0 0)"><path class="a" d="M-2533.746,6130.828l-3.164-18.018A130.374,130.374,0,0,1-2533.746,6130.828Z" transform="translate(2536.91 -6112.81)"/></g></g><g transform="translate(-3380.102 5467.694)"><path class="a" d="M-2145.61,7183.52" transform="translate(2145.61 -7183.52)"/></g><g transform="translate(-3375.986 5345.231)"><path class="l" d="M-2114.35,6253.27" transform="translate(2114.35 -6253.27)"/></g><g transform="translate(-3410.397 5321.437)"><g transform="translate(0 0)"><path class="a" d="M-2373.8,6126.4c-10.147-3.083,24.81,32.142,15.185,36.542a31.8,31.8,0,0,0-9.22,6.174c-9.739,9.659-10.013,29.054-3.4,36.915,2.608,3.1,5.412,6.542,5.412,6.542-1.852,2.655-14.614,24.188-4.345,32.75,8.993,7.5,25.591,6.266,34.336-5.524,5.779-7.793,6.952-16.784,6.625-23.655-.385-8.034-1.822-15.695,2.183-21.708,4.562-6.851,22.345-9.41,31.2-19.551,13.531-15.5,10.767-63.917-23.228-102.357" transform="translate(2375.743 -6072.53)"/></g></g><g transform="translate(-3410.397 5321.438)"><g transform="translate(0 0)"><path class="a" d="M-2327.824,6161.125a43.678,43.678,0,0,0-30.789,1.832,31.8,31.8,0,0,0-9.221,6.174c-9.739,9.659-10.013,29.054-3.4,36.915,2.608,3.1,5.412,6.542,5.412,6.542-1.852,2.655-14.614,24.188-4.345,32.75,8.993,7.5,25.59,6.266,34.336-5.524,5.779-7.793,6.952-16.784,6.624-23.656-.384-8.034-1.822-15.694,2.183-21.708,4.562-6.851,22.345-9.41,31.2-19.551,13.531-15.5,10.767-63.918-23.228-102.357Z" transform="translate(2375.744 -6072.541)"/></g></g><g class="c" transform="translate(-3408.099 5321.438)"><g transform="translate(0 0)"><path class="b" d="M-2280.662,6174.9c-8.851,10.138-26.637,12.7-31.2,19.553-4,6.012-2.568,13.673-2.181,21.7.329,6.874-.848,15.869-6.623,23.661-8.745,11.788-25.343,13.016-34.337,5.52a10.368,10.368,0,0,1-3.279-4.908c10.052,5.388,26.578,6.307,34.212-4,5.775-7.792,3.115-17.878,2.786-24.75-.388-8.036-3.318-19.552,2.289-26.093,8.973-10.469,22.238-5.025,31.088-15.169,12.556-14.384,11.085-57.124-16.374-93.927l.387-3.949C-2269.9,6110.979-2267.133,6159.391-2280.662,6174.9Z" transform="translate(2358.28 -6072.541)"/></g></g><g transform="translate(-3412.661 5320.786)"><g transform="translate(0 0)"><path class="b" d="M-2342.976,6157.544c-1.882-.215-3.724-.438-5.564-.561-1.843-.095-3.667-.183-5.484-.121s-3.62.164-5.407.391a42.451,42.451,0,0,0-5.3.946c-.874.195-1.726.469-2.589.7-.845.291-1.7.541-2.528.882a39.416,39.416,0,0,0-4.864,2.191,30.758,30.758,0,0,0-4.414,2.841,24.364,24.364,0,0,0-1.955,1.693c-.291.3-.591.6-.875.911s-.563.632-.821.972a26.052,26.052,0,0,0-4.513,9.339,33.766,33.766,0,0,0-1.043,10.559,24.175,24.175,0,0,0,2.553,9.964,13.672,13.672,0,0,0,1.337,1.989l1.815,2.2,3.641,4.4,1.083,1.309-.981,1.436c-.324.474-.69,1.073-1.028,1.643s-.677,1.172-1,1.771q-.974,1.793-1.835,3.647a52.243,52.243,0,0,0-2.871,7.556,26.09,26.09,0,0,0-1.14,7.645,9.95,9.95,0,0,0,2.127,6.424l.262.316c.092.1.2.188.3.285a5.424,5.424,0,0,0,.642.562c.506.353.979.748,1.5,1.078.545.3,1.075.623,1.627.914l1.729.744a21.473,21.473,0,0,0,7.488,1.251,24.107,24.107,0,0,0,7.557-1.284,22.31,22.31,0,0,0,6.706-3.678,27.025,27.025,0,0,0,8.6-12.731,35.572,35.572,0,0,0,1.643-7.75,38.416,38.416,0,0,0,.2-3.99c.007-.667-.02-1.335-.042-2l-.12-2.071c-.175-2.775-.437-5.62-.446-8.582a32.4,32.4,0,0,1,.278-4.527,19.639,19.639,0,0,1,1.152-4.6,9.681,9.681,0,0,1,.474-1.118c.184-.363.337-.741.55-1.089l.631-1.049a12.166,12.166,0,0,1,.8-1.063,17.157,17.157,0,0,1,3.727-3.145,62.076,62.076,0,0,1,7.807-4.021c5.157-2.328,10.24-4.52,14.561-7.6a24.088,24.088,0,0,0,5.541-5.318,26.234,26.234,0,0,0,3.448-6.942,47.589,47.589,0,0,0,1.867-7.807,69.786,69.786,0,0,0,.666-8.125,89.605,89.605,0,0,0-1.3-16.393,114.747,114.747,0,0,0-10.41-31.335,149.079,149.079,0,0,0-8.466-14.251c-3.005-4.648-6.141-9.181-8.9-14.208l0-.005a.778.778,0,0,1,.308-1.056.78.78,0,0,1,.834.054,53.011,53.011,0,0,1,11.765,12.511,112.425,112.425,0,0,1,8.554,14.924,119.623,119.623,0,0,1,10.817,32.6,94.109,94.109,0,0,1,1.363,17.257,73.994,73.994,0,0,1-.716,8.708,52.055,52.055,0,0,1-2.063,8.607,30.7,30.7,0,0,1-4.064,8.132,28.538,28.538,0,0,1-6.581,6.354c-4.883,3.473-10.246,5.741-15.334,8.05a58.426,58.426,0,0,0-7.213,3.7,12.765,12.765,0,0,0-2.726,2.267,7.156,7.156,0,0,0-.47.62l-.457.762c-.159.25-.263.533-.4.8a6.168,6.168,0,0,0-.35.825,20.6,20.6,0,0,0-1.125,7.481c.005,2.675.254,5.448.437,8.294l.124,2.148c.026.74.054,1.479.047,2.221a42.924,42.924,0,0,1-.224,4.446,40.172,40.172,0,0,1-1.859,8.749,36.424,36.424,0,0,1-3.935,8.108c-.441.615-.839,1.248-1.322,1.845l-1.468,1.774c-.5.579-1.085,1.089-1.626,1.632a15.951,15.951,0,0,1-1.75,1.5,26.892,26.892,0,0,1-8.037,4.406,28.674,28.674,0,0,1-9.026,1.535,26.039,26.039,0,0,1-9.09-1.533l-2.154-.925c-.7-.362-1.373-.766-2.058-1.153-.666-.42-1.287-.92-1.928-1.383a9.485,9.485,0,0,1-.945-.828c-.154-.149-.316-.29-.462-.448l-.419-.492a13.027,13.027,0,0,1-2.449-4.459,16.844,16.844,0,0,1-.754-4.794,30.522,30.522,0,0,1,1.314-9.011,56.926,56.926,0,0,1,3.121-8.228q.922-1.982,1.964-3.9c.345-.641.708-1.275,1.078-1.909s.747-1.247,1.217-1.937l.1,2.745-3.611-4.364-1.809-2.189a18,18,0,0,1-1.836-2.721,28.569,28.569,0,0,1-3.107-11.889,38.5,38.5,0,0,1,1.181-11.989,31.054,31.054,0,0,1,5.21-11.062,29.4,29.4,0,0,1,9.444-7.855,40.007,40.007,0,0,1,5.505-2.461,38.491,38.491,0,0,1,5.788-1.619,36.874,36.874,0,0,1,23.219,2.521.768.768,0,0,1,.361,1.026.769.769,0,0,1-.779.432Z" transform="translate(2392.938 -6067.58)"/></g></g><g transform="translate(-3403.218 5412.614)"><g transform="translate(0 0)"><path class="b" d="M-2282.058,6803.862a1.662,1.662,0,0,1-.23-.016,1.71,1.71,0,0,1-1.467-1.923c2.462-18.21-8.192-26.741-12.888-29.563-7.487-4.5-16.678-5.068-21.856-1.351a1.71,1.71,0,0,1-2.387-.391,1.711,1.711,0,0,1,.391-2.387c6.337-4.551,16.87-4.059,25.613,1.2,5.275,3.171,17.25,12.73,14.515,32.954A1.711,1.711,0,0,1-2282.058,6803.862Z" transform="translate(2321.207 -6765.125)"/></g></g><g transform="translate(-3404.381 5457.199)"><g transform="translate(0 0)"><path class="b" d="M-2326.336,7104.29l.954.646,1.039.669c.708.426,1.414.859,2.148,1.233a22.984,22.984,0,0,0,4.519,1.88,15.947,15.947,0,0,0,2.375.517,17.569,17.569,0,0,0,2.456.2,24.008,24.008,0,0,0,5.319-.549,10.42,10.42,0,0,1-4.863,3.271,13.972,13.972,0,0,1-6.048.52,19.79,19.79,0,0,1-5.807-1.642,21.88,21.88,0,0,1-2.629-1.427c-.419-.271-.835-.546-1.232-.856a13.935,13.935,0,0,1-1.216-1.018,2.279,2.279,0,0,1-.1-3.221,2.277,2.277,0,0,1,2.939-.329Z" transform="translate(2330.041 -7103.797)"/></g></g><g transform="translate(-3356.309 5287.924)"><g transform="translate(0 0)"><path class="a" d="M-1964.88,5859.088c47.477-20.152,52.754-40.812,67.189-41.122s21.259,13.353,12.818,31.931c-13.887,30.563-66.47,33.887-66.47,33.887" transform="translate(1964.88 -5817.96)"/></g></g><g class="c" transform="translate(-3343.259 5290.631)"><g transform="translate(0 0)"><path class="b" d="M-1798.788,5867.752c-13.89,30.559-66.474,33.884-66.474,33.884h0a3.907,3.907,0,0,1,2.628-5.709c15.732-3.252,43.5-11.7,55.095-32.044a44.988,44.988,0,0,0,5.92-25.363C-1794.584,5843.355-1792.664,5854.255-1798.788,5867.752Z" transform="translate(1865.748 -5838.52)"/></g></g><g transform="translate(-3356.896 5285.652)"><g transform="translate(0 0)"><path class="b" d="M-1969.044,5843.4a64.9,64.9,0,0,1,10.59-6.628c3.606-1.978,7.273-3.818,10.859-5.813a122.571,122.571,0,0,0,10.408-6.547q5.045-3.511,9.806-7.425c3.184-2.6,6.261-5.339,9.459-8.079,1.6-1.366,3.25-2.73,5.049-4.006a24.344,24.344,0,0,1,6.04-3.241,16.8,16.8,0,0,1,3.5-.831c.595-.073,1.2-.1,1.794-.13.575.012,1.148-.009,1.726.034a19.348,19.348,0,0,1,6.848,1.581,16.258,16.258,0,0,1,5.788,4.277,17.707,17.707,0,0,1,3.39,6.255,22.781,22.781,0,0,1,1,6.818,32.176,32.176,0,0,1-.7,6.671,43.125,43.125,0,0,1-1.852,6.321l-.6,1.522-.646,1.5c-.474.99-.99,1.974-1.486,2.958a43.392,43.392,0,0,1-8.082,10.34,59.029,59.029,0,0,1-10.359,7.79,96.333,96.333,0,0,1-23.554,9.775c-2.04.567-4.091,1.1-6.154,1.564s-4.113.994-6.185,1.428a40.58,40.58,0,0,1-6.3.785,19.1,19.1,0,0,1-6.456-.761.817.817,0,0,1-.531-1.024.81.81,0,0,1,.4-.478l.03-.016a27.522,27.522,0,0,1,5.952-2.113c2-.469,4-.865,6.025-1.182s4.047-.624,6.04-1.09c2-.442,3.976-.96,5.944-1.506a91.769,91.769,0,0,0,22.435-9.292,54.464,54.464,0,0,0,9.56-7.181,38.862,38.862,0,0,0,7.24-9.252c.436-.875.89-1.734,1.315-2.619l.591-1.368.542-1.382a38.454,38.454,0,0,0,1.656-5.644,27.676,27.676,0,0,0,.609-5.719,18.243,18.243,0,0,0-.8-5.484,13.148,13.148,0,0,0-2.5-4.65,11.706,11.706,0,0,0-4.169-3.072,14.813,14.813,0,0,0-5.247-1.2c-.459-.038-.929-.016-1.394-.029-.444.03-.881.045-1.316.1a12.3,12.3,0,0,0-2.559.611c-3.369,1.169-6.512,3.777-9.634,6.414-3.121,2.674-6.264,5.47-9.525,8.134s-6.627,5.229-10.093,7.641-7.043,4.659-10.636,6.874a99.2,99.2,0,0,1-11.135,5.988c-.966.421-1.922.861-2.9,1.26s-1.972.747-2.976,1.076a30.055,30.055,0,0,1-3.059.862,27.142,27.142,0,0,1-3.163.586.792.792,0,0,1-.879-.692A.8.8,0,0,1-1969.044,5843.4Z" transform="translate(1969.335 -5800.699)"/></g></g><g transform="translate(-3476.969 5207.569)"><g transform="translate(2.293 2.285)"><path class="a" d="M-2853.538,5332.869c53.086,78.663,164.936,8.854,122.262-71.964C-2783.708,5179.092-2899.256,5251.36-2853.538,5332.869Z" transform="translate(2864.017 -5224.925)"/></g><g transform="translate(2.293 2.285)"><path class="a" d="M-2853.538,5332.869c53.086,78.663,164.936,8.854,122.262-71.964C-2783.708,5179.092-2899.256,5251.36-2853.538,5332.869Z" transform="translate(2864.017 -5224.925)"/></g><g class="c" transform="translate(3.869 90.179)"><path class="b" d="M-2719.025,5916.1a69.921,69.921,0,0,1-6.2,9.376,70.857,70.857,0,0,1-5.637,6.419c-17.288,17.484-43.227,26.295-67.946,20.067a65.5,65.5,0,0,1-8.154-2.634c-12.976-5.138-25.3-14.758-35.461-29.816a80.873,80.873,0,0,1-9.619-26.932c9.028,6.438,20.284,19.245,42.045,31.841-.184-.946-.369-1.892-.558-2.845l77.906-5.3c1.373,1.551,2.687,3.115,3.956,4.692C-2725.268,5919.359-2722.054,5917.737-2719.025,5916.1Z" transform="translate(2852.04 -5892.58)"/></g><g transform="translate(2.293 2.285)"><path class="a" d="M-2853.538,5332.869c53.086,78.663,164.936,8.854,122.262-71.964C-2783.708,5179.092-2899.256,5251.36-2853.538,5332.869Z" transform="translate(2864.017 -5224.925)"/></g><g transform="translate(0.656 0.654)"><path class="b" d="M-2804.521,5358.189a68.1,68.1,0,0,1-12.8-1.207c-19.111-3.654-35.834-15.4-48.36-33.959l-.071-.114c-10.882-19.4-13.523-39.658-7.638-58.585,5.251-16.886,16.917-31.452,32.847-41.013,15.9-9.542,34.125-12.9,51.315-9.452,19.389,3.886,36.167,16.133,48.523,35.414l.069.119c10.174,19.265,12.393,39.263,6.419,57.833a73.533,73.533,0,0,1-32.551,40.292A73.565,73.565,0,0,1-2804.521,5358.189Zm-58.428-36.93c26.614,39.379,66.64,40.166,94.512,23.468,27.233-16.315,46.65-52.608,24.957-93.759-26.144-40.731-67.77-41.45-95.392-24.871C-2866.767,5242.84-2886.19,5279.756-2862.95,5321.259Z" transform="translate(2876.45 -5212.54)"/></g><g class="c" transform="translate(2.493 58.156)"><path class="b" d="M-2852.216,5701.4c44.669,68.741,145.429,25.188,129.948-52.07-3.262,25.488-11.92,26.993-24.494,40.589-38.438,44.458-104.274,17.113-115.262-33.395A70.947,70.947,0,0,0-2852.216,5701.4Z" transform="translate(2862.494 -5649.33)"/></g><g transform="translate(0 0)"><path class="m" d="M-2808.849,5354.527a68.847,68.847,0,0,1-12.924-1.218c-19.286-3.688-36.154-15.526-48.781-34.235l-.1-.161c-10.971-19.562-13.632-40-7.692-59.1,5.3-17.04,17.065-31.735,33.134-41.38,16.039-9.626,34.427-13.011,51.781-9.532,19.565,3.921,36.491,16.267,48.946,35.7l.1.166c10.257,19.424,12.492,39.6,6.464,58.34a74.187,74.187,0,0,1-32.836,40.653A74.231,74.231,0,0,1-2808.849,5354.527Zm-57.87-37.928c26.374,39,66.015,39.787,93.617,23.25,26.972-16.158,46.2-52.1,24.728-92.867-25.908-40.342-67.134-41.059-94.489-24.64C-2870.49,5238.924-2889.726,5275.487-2866.719,5316.6Z" transform="translate(2881.433 -5207.569)"/></g><g transform="translate(0 0)"><path class="b" d="M-2808.849,5354.527a68.847,68.847,0,0,1-12.924-1.218c-19.286-3.688-36.154-15.526-48.781-34.235l-.1-.161c-10.971-19.562-13.632-40-7.692-59.1,5.3-17.04,17.065-31.735,33.134-41.38,16.039-9.626,34.427-13.011,51.781-9.532,19.565,3.921,36.491,16.267,48.946,35.7l.1.166c10.257,19.424,12.492,39.6,6.464,58.34a74.187,74.187,0,0,1-32.836,40.653A74.231,74.231,0,0,1-2808.849,5354.527Zm-57.87-37.928c26.374,39,66.015,39.787,93.617,23.25,26.972-16.158,46.2-52.1,24.728-92.867-25.908-40.342-67.134-41.059-94.489-24.64C-2870.49,5238.924-2889.726,5275.487-2866.719,5316.6Z" transform="translate(2881.433 -5207.569)"/></g><g transform="translate(2.719 18.288)"><path class="b" d="M-2839.406,5452.647c71.76,42.341,132.679-41.395,78.249-89.965C-2825.428,5311.983-2897.574,5391-2839.406,5452.647Z" transform="translate(2860.779 -5346.485)"/></g><g transform="translate(4.909 75.107)"><path class="n" d="M-2844.144,5778.09c-.313,75.307,107.383,81.58,118.969,12.777C-2759.681,5831.4-2823.96,5814.529-2844.144,5778.09Z" transform="translate(2844.145 -5778.09)"/></g><g transform="translate(0.684 9.408)"><path class="b" d="M-2810.295,5414.445a58.965,58.965,0,0,1-14.964-1.912c-16.011-4.2-30.035-15.127-40.559-31.615l-.008-.013c-17.21-27.423-14.245-72.127,17.6-94.968l.288-.171c17.272-8.393,38.213-8.962,57.458-1.562,19.177,7.375,34.27,21.732,41.409,39.39,6.473,17.275,6.208,34.766-.748,50.629a68,68,0,0,1-31.927,33.363A63.972,63.972,0,0,1-2810.295,5414.445Zm-52.188-35.643c23.116,36.211,56.988,36.235,78.971,25.253,25.27-12.622,43.95-43.821,30.759-79.027-6.711-16.6-20.987-30.153-39.147-37.137s-37.9-6.493-54.163,1.354C-2875.971,5310.82-2878.712,5352.937-2862.483,5378.8Z" transform="translate(2876.24 -5279.037)"/></g><g transform="translate(0.439 16.007)"><path class="b" d="M-2815.163,5451.472c-13.324,0-27.089-4.024-40.442-11.9l-.278-.165-.221-.234c-14.043-14.882-21.645-31.878-21.984-49.147a59.716,59.716,0,0,1,15.707-41.664,58.633,58.633,0,0,1,38.914-19.027c16.56-1.253,33.393,4.456,48.683,16.518l.107.089c12.779,11.4,20.208,25.466,21.486,40.667a58.543,58.543,0,0,1-11.347,39.337,62.028,62.028,0,0,1-37.873,24.262A64.261,64.261,0,0,1-2815.163,5451.472Zm-37.845-15.668c36.583,21.429,68.927,9.163,84.786-12.552,14.394-19.708,17.048-50.184-9.442-73.865-31.9-25.131-63.843-17.082-81.353,2.05C-2877.009,5371.1-2882.1,5404.777-2853.009,5435.8Z" transform="translate(2878.099 -5329.162)"/></g><g transform="translate(116.846 61.946)"><path class="a" d="M-1956.82,5704.219c-4.533,33.154-38.142,31.4-37.006-.686C-1990.35,5668.61-1954.423,5670.479-1956.82,5704.219Z" transform="translate(1993.854 -5678.119)"/></g><g class="o" transform="translate(116.793 69.105)"><path class="b" d="M-1978.155,5775.657c-10.079-.452-17.522-12.671-15.871-26.583,6.474,14.5,21.542-9.679,22.55-16.574C-1945.546,5738.774-1959.661,5776.884-1978.155,5775.657Z" transform="translate(1994.256 -5732.5)"/></g><g transform="translate(114.565 59.665)"><path class="b" d="M-1992.028,5715.583q-.7,0-1.39-.06c-9.276-.8-18.357-9.49-17.733-27.118l.01-.145c1.907-19.17,13.466-28.305,23.89-27.409,9.423.8,18.968,10.059,17.659,28.481l-.016.147C-1972.09,5707.646-1982.7,5715.583-1992.028,5715.583Zm-14.567-26.943c-.494,14.584,6.453,21.728,13.567,22.339,7.542.654,16.67-5.975,18.893-22.041,1.062-15.292-6.249-22.922-13.5-23.54C-1995.818,5664.692-2004.961,5672.459-2006.594,5688.641Zm34.728.533h0Z" transform="translate(2011.181 -5660.793)"/></g><g transform="translate(127.188 68.796)"><path class="a" d="M-1887.284,5751.236c-3.7,26.864-28.9,25.977-27.987.022C-1912.556,5722.63-1885.169,5723.624-1887.284,5751.236Z" transform="translate(1915.295 -5730.156)"/></g><g transform="translate(125.213 66.821)"><path class="b" d="M-1915.894,5760q-.507,0-1.007-.043c-7.017-.606-13.871-7.58-13.37-21.8l.008-.117c1.509-15.918,10.5-23.544,18.628-22.848,7.21.617,14.446,8.129,13.294,23.163l-.013.118C-1900.417,5753.443-1908.691,5760-1915.894,5760Zm-10.432-21.642c-.391,11.586,4.618,17.219,9.764,17.663,5.607.494,12.467-4.951,14.286-18.025.924-12.313-4.375-18.411-9.7-18.866C-1918.11,5718.592-1925.045,5725.034-1926.326,5738.356Zm26.014-.151h0Z" transform="translate(1930.297 -5715.148)"/></g><g class="j" transform="translate(92.195 60.617)"><path class="a" d="M-2163.035,5680.41c-3.669,13.6-19.193,9.671-18-2.623C-2178.662,5662.37-2160.291,5666.708-2163.035,5680.41Z" transform="translate(2181.103 -5668.025)"/></g><g class="j" transform="translate(94.915 89.088)"><path class="a" d="M-2153.084,5889.59c-1.7,5.121-8.525,3.532-7.19-2.2C-2158.571,5882.269-2151.749,5883.856-2153.084,5889.59Z" transform="translate(2160.446 -5884.296)"/></g><g class="j" transform="translate(11.148 26.213)"><path class="a" d="M-2795.546,5460.836c-9.992-52.891,44.886-60.836,61.777-49.892C-2768.98,5414.042-2784.173,5436.112-2795.546,5460.836Z" transform="translate(2796.752 -5406.684)"/></g><g class="c" transform="translate(125.746 81.287)"><path class="b" d="M-1926.015,5839.753a24.041,24.041,0,0,1,1.189-11.331c5.117,18.033,23.2,9.7,27.183-3.382C-1893.121,5851.767-1920.132,5864.8-1926.015,5839.753Z" transform="translate(1926.243 -5825.04)"/></g><g transform="translate(113.274 57.565)"><path class="b" d="M-2015.915,5655a3.965,3.965,0,0,1-1.7-.379c-3.012-1.41-3.337-6.065-3.366-7.458a2.279,2.279,0,0,1,2.234-2.326h.047a2.281,2.281,0,0,1,2.279,2.23,8.6,8.6,0,0,0,.69,3.294,3.935,3.935,0,0,0,.711-.469,2.278,2.278,0,0,1,3.206.356,2.279,2.279,0,0,1-.357,3.206A6.022,6.022,0,0,1-2015.915,5655Zm-.024-4.562Z" transform="translate(2020.984 -5644.84)"/></g></g><g transform="translate(-3437.064 5359.408)"><g transform="translate(0 12.497)"><circle class="a" cx="7.722" cy="7.722" r="7.722" transform="translate(0 10.921) rotate(-45)"/></g><g class="o" transform="translate(3.203 19.608)"><path class="b" d="M-2553.949,6514.307a7.723,7.723,0,0,0,8.279,7.125,7.729,7.729,0,0,0,7.125-8.284,7.628,7.628,0,0,0-.989-3.237,7.734,7.734,0,0,1-6.632,4.93,7.719,7.719,0,0,1-7.289-3.882A7.6,7.6,0,0,0-2553.949,6514.307Z" transform="translate(2553.972 -6509.91)"/></g><g transform="translate(1.227 13.73)"><path class="b" d="M-2559.293,6484.651a9.708,9.708,0,0,1-9.663-8.969,9.63,9.63,0,0,1,2.317-7.051,9.629,9.629,0,0,1,6.624-3.346,9.632,9.632,0,0,1,7.051,2.317,9.628,9.628,0,0,1,3.346,6.625,9.708,9.708,0,0,1-8.941,10.4C-2558.8,6484.642-2559.049,6484.651-2559.293,6484.651Zm.01-15.446c-.143,0-.29.005-.436.016a5.713,5.713,0,0,0-3.927,1.984,5.7,5.7,0,0,0-1.373,4.18h0a5.758,5.758,0,0,0,6.164,5.3,5.755,5.755,0,0,0,5.3-6.164A5.754,5.754,0,0,0-2559.282,6469.206Z" transform="translate(2568.983 -6465.257)"/></g><g transform="translate(11.124 1.977)"><path class="a" d="M-2484.542,6415.93l40.822-.644a8.818,8.818,0,0,0,8.652-8.93l-.344-21.724a8.822,8.822,0,0,0-7.169-8.5,8.537,8.537,0,0,0-1.759-.15l-40.817.644a8.81,8.81,0,0,0-8.652,8.93l.269,17.206.07,4.518A8.816,8.816,0,0,0-2484.542,6415.93Z" transform="translate(2493.809 -6375.981)"/></g><g class="c" transform="translate(11.392 2.128)"><path class="b" d="M-2482.771,6416.928l40.822-.644a8.818,8.818,0,0,0,8.652-8.93l-.344-21.724a8.823,8.823,0,0,0-7.169-8.5c-2.293,1.576-3.751,2.584-3.751,2.584-1.713,17.469-.742,30.384-27.827,29.017a47.64,47.64,0,0,1-19.382-4.974l.07,4.518A8.818,8.818,0,0,0-2482.771,6416.928Z" transform="translate(2491.77 -6377.13)"/></g><g transform="translate(9.146 0.002)"><path class="b" d="M-2497.723,6404.881a10.779,10.779,0,0,1-10.763-10.6l-.342-21.727a10.78,10.78,0,0,1,10.595-10.935l40.821-.642a10.8,10.8,0,0,1,10.934,10.595l.342,21.727a10.689,10.689,0,0,1-3.041,7.654,10.69,10.69,0,0,1-7.555,3.28l-40.819.643Zm40.479-39.953h-.109l-40.819.643a6.764,6.764,0,0,0-4.78,2.08,6.766,6.766,0,0,0-1.927,4.843l.343,21.728a6.765,6.765,0,0,0,2.08,4.78,6.787,6.787,0,0,0,4.843,1.927l40.819-.643a6.765,6.765,0,0,0,4.78-2.08,6.765,6.765,0,0,0,1.927-4.843l-.342-21.727A6.825,6.825,0,0,0-2457.244,6364.928Z" transform="translate(2508.83 -6360.979)"/></g><g transform="translate(18.751 1.976)"><path class="a" d="M-2435.87,6415.788a7.829,7.829,0,0,0,1.642.134l40.822-.644a8.811,8.811,0,0,0,7.916-5.292,8.642,8.642,0,0,0,.729-3.637l-.149-9.651-.049-3.185-.139-8.889a8.819,8.819,0,0,0-8.929-8.652l-8.82.141a8.815,8.815,0,0,1,7.3,8.517l.188,11.735.156,9.995a8.821,8.821,0,0,1-8.652,8.929Z" transform="translate(2435.87 -6375.972)"/></g><g class="c" transform="translate(18.751 19.518)"><path class="b" d="M-2435.87,6531.5a7.829,7.829,0,0,0,1.642.134l40.822-.644a8.808,8.808,0,0,0,8.645-8.928l-.2-12.835c-.991,2.284-2.792,5.1-5.738,5.436-1.617.189-3.229-.951-4.663-2.584l.155,9.994a8.821,8.821,0,0,1-8.652,8.93Z" transform="translate(2435.87 -6509.23)"/></g><g transform="translate(18.392 0)"><path class="b" d="M-2436.78,6404.867a10.028,10.028,0,0,1-1.821-.167l.326-3.917,32.018-.5a6.754,6.754,0,0,0,4.776-2.078,6.763,6.763,0,0,0,1.927-4.844l-.342-21.727a6.823,6.823,0,0,0-5.659-6.606l.305-3.92,8.818-.141a10.746,10.746,0,0,1,7.655,3.042,10.684,10.684,0,0,1,3.279,7.555l.342,21.723a10.68,10.68,0,0,1-3.04,7.657,10.683,10.683,0,0,1-7.553,3.279l-40.822.643C-2436.639,6404.867-2436.708,6404.867-2436.78,6404.867Zm38.413-39.92a10.729,10.729,0,0,1,2.421,6.625l.342,21.726a10.656,10.656,0,0,1-2.464,7.013l2.259-.036a6.758,6.758,0,0,0,4.778-2.079,6.762,6.762,0,0,0,1.926-4.843h0l-.342-21.725a6.758,6.758,0,0,0-2.079-4.78,6.774,6.774,0,0,0-4.74-1.931h-.105Z" transform="translate(2438.6 -6360.965)"/></g><g transform="translate(43.15 14.517)"><path class="p" d="M-2250.534,6478.654c.017.8,1.286,7.263,1.286,7.263l4.576-.1c3.151-.067,5.636-3.386,5.549-7.41s-2.711-7.232-5.862-7.166l-4.576.1S-2250.561,6477.346-2250.534,6478.654Z" transform="translate(2250.534 -6471.242)"/></g><g class="o" transform="translate(43.15 14.517)"><path class="b" d="M-2250.534,6478.654c.017.8,1.286,7.263,1.286,7.263l4.576-.1c3.151-.067,5.636-3.386,5.549-7.41s-2.711-7.232-5.862-7.166l-4.576.1S-2250.561,6477.346-2250.534,6478.654Z" transform="translate(2250.534 -6471.242)"/></g><g transform="translate(41.834 13.202)"><path class="b" d="M-2259,6478.581l-.213-1.086c-.3-1.542-1.291-6.639-1.31-7.489-.029-1.365.82-6.534.99-7.557l.179-1.076,5.666-.123h.125c3.816,0,6.982,3.761,7.084,8.454.1,4.745-2.966,8.672-6.838,8.754Zm1.108-8.635c.022.456.521,3.211,1.051,5.955l3.468-.075c2.42-.051,4.333-2.772,4.261-6.065s-2.1-5.933-4.518-5.876l-3.482.075C-2257.475,6466.225-2257.908,6469.2-2257.893,6469.946Z" transform="translate(2260.526 -6461.25)"/></g><g transform="translate(38.418 14.525)"><ellipse class="p" cx="5.707" cy="7.289" rx="5.707" ry="7.289" transform="translate(0 0.245) rotate(-1.232)"/></g><g class="o" transform="translate(38.572 19.235)"><path class="b" d="M-2273.9,6509.628c.088,4.023-2.4,7.342-5.547,7.41s-5.779-3.141-5.864-7.168a8.9,8.9,0,0,1,.1-1.59c.87,2.748,3,4.672,5.447,4.615,2.721-.058,4.949-2.541,5.444-5.816A9.122,9.122,0,0,1-2273.9,6509.628Z" transform="translate(2285.31 -6507.08)"/></g><g transform="translate(38.573 14.615)"><path class="a" d="M-2273.885,6479.152a7.914,7.914,0,0,1-.021.811c-.694-3.14-2.983-5.424-5.645-5.365-2.936.066-5.3,2.952-5.525,6.6a9.237,9.237,0,0,1-.219-1.809c-.088-4.023,2.4-7.342,5.548-7.411S-2273.973,6475.125-2273.885,6479.152Z" transform="translate(2285.297 -6471.982)"/></g><g transform="translate(37.255 13.3)"><path class="b" d="M-2288.229,6479.2a6.437,6.437,0,0,1-5-2.531,9.69,9.69,0,0,1-2.08-5.923c-.1-4.745,2.965-8.671,6.838-8.756a6.442,6.442,0,0,1,5.128,2.53,9.692,9.692,0,0,1,2.08,5.923,9.678,9.678,0,0,1-1.823,6.007,6.421,6.421,0,0,1-5.014,2.749Zm-.115-14.578h-.068c-2.421.053-4.333,2.774-4.261,6.066h0a7.051,7.051,0,0,0,1.484,4.312,3.8,3.8,0,0,0,3.033,1.564,3.847,3.847,0,0,0,2.963-1.694,7.046,7.046,0,0,0,1.3-4.372,7.051,7.051,0,0,0-1.484-4.312A3.877,3.877,0,0,0-2288.344,6464.625Z" transform="translate(2295.309 -6461.992)"/></g><g transform="translate(23.731 1.235)"><path class="b" d="M-2388.694,6412a1.317,1.317,0,0,1-1.315-1.264l-.566-14.354-6.456-3.918a1.32,1.32,0,0,1-.633-1.1l-.378-19.672a1.318,1.318,0,0,1,1.292-1.342h.026a1.318,1.318,0,0,1,1.316,1.292l.363,18.948,6.441,3.909a1.313,1.313,0,0,1,.632,1.073l.594,15.062a1.317,1.317,0,0,1-1.262,1.368C-2388.659,6412-2388.677,6412-2388.694,6412Z" transform="translate(2398.042 -6370.35)"/></g><g transform="translate(64.009 5.326)"><path class="a" d="M-2045.084,6401.42s4.314,2.637,4.4,7.474a10.189,10.189,0,0,1-3.839,8.324s-13.378,9.735-44.409,7.827c0,0-7.845-8.24,1.224-14.468C-2087.706,6410.577-2059.346,6415.229-2045.084,6401.42Z" transform="translate(2092.08 -6401.42)"/></g><g class="c" transform="translate(64.008 12.691)"><path class="b" d="M-2040.7,6457.37h0a10.2,10.2,0,0,1-3.838,8.435s-13.375,9.734-44.408,7.826c0,0-5.994-6.3-1.447-12.043.005.034.011.068.017.1a7.471,7.471,0,0,0,7.16,6.164c28.1.853,40.291-8.018,40.291-8.018A9.134,9.134,0,0,0-2040.7,6457.37Z" transform="translate(2092.092 -6457.37)"/></g><g transform="translate(62.034 2.844)"><path class="b" d="M-2094.015,6410.9q-3.821,0-8.064-.254l-.774-.047-.534-.562c-.171-.18-4.187-4.464-3.644-9.659.317-3.032,2.06-5.654,5.182-7.8l.654-.449.783.128c.272.044,27.556,4.319,40.929-8.627l1.1-1.063,1.3.8c.215.13,5.241,3.269,5.348,9.122a12.161,12.161,0,0,1-4.688,9.983C-2056.908,6402.826-2068.328,6410.9-2094.015,6410.9Zm-6.977-4.147c29.2,1.607,42.158-7.414,42.287-7.5a8.2,8.2,0,0,0,3.021-6.688,7.142,7.142,0,0,0-2.347-4.916c-13.813,11.812-37.391,9.294-42.194,8.635a6.686,6.686,0,0,0-2.878,4.49C-2103.375,6403.3-2101.807,6405.7-2100.992,6406.754Z" transform="translate(2107.082 -6382.57)"/></g></g><g transform="translate(-3321.034 5306.335)"><g transform="translate(0 0)"><path class="b" d="M-1670.919,5992.824a1.859,1.859,0,0,1-.195-.011c-11.206-1.274-20-12.272-25.434-31.8-.1-.353-.167-.611-.215-.761a1.709,1.709,0,0,1,.241-1.821,1.709,1.709,0,0,1,2.409-.21c.441.37.521.66.86,1.875,4.956,17.821,12.957,28.234,22.526,29.321a1.711,1.711,0,0,1,1.506,1.893A1.711,1.711,0,0,1-1670.919,5992.824Zm-25.4-31.989h0Zm0,0Z" transform="translate(1696.921 -5957.816)"/></g></g><g transform="translate(-3463.643 5421.875)"><g transform="translate(0 0)"><path class="b" d="M-2776.275,6836.159c.582.6,1.027,1.119,1.5,1.69s.911,1.135,1.345,1.713a41.945,41.945,0,0,1,2.4,3.6,35.564,35.564,0,0,1,2,3.83,32.086,32.086,0,0,1,1.507,4.047,1.14,1.14,0,0,1-.748,1.43,1.143,1.143,0,0,1-1.372-.6l-.025-.053a29.783,29.783,0,0,0-1.881-3.487,32.444,32.444,0,0,0-2.3-3.224,38.49,38.49,0,0,0-2.625-2.956c-.463-.466-.933-.924-1.415-1.362s-1-.886-1.43-1.22a2.286,2.286,0,0,1-.421-3.206,2.287,2.287,0,0,1,3.206-.421A2.006,2.006,0,0,1-2776.275,6836.159Z" transform="translate(2780.203 -6835.469)"/></g></g></g></g></g></svg>