<svg xmlns="http://www.w3.org/2000/svg" width="374.678" height="346.768" viewBox="0 0 374.678 346.768"><defs><style>.a{fill:#fff;}.b{fill:#390075;}.c{opacity:0.3;}.d{opacity:0.35;}.e{fill:#33aef1;}</style></defs><g transform="translate(3489.412 -9761.432)"><g transform="translate(-3487.173 9853.199)"><g transform="translate(0.354 0.4)"><path class="a" d="M-3459.573,10466.588s-23.778,41.8,15.3,60.147c23.544,11.052,56.108-1.486,56.108-1.486s-1.114,40.708,33.58,45.693c35.493,5.1,48.882-29.542,48.882-29.542s20.828,44.206,61.653,8.927c0,0,39.64,48.164,81.808,16.152,29.116-22.1,20.022-63.173,20.022-63.173s31.975-1.827,36.725-21.074c9.352-37.89-30.6-48.8-30.6-48.8s-.212-28.9-11.76-43.072c-15.345-18.827-38.834-25.5-66.877-14.312,0,0-14.452-51.249-61.4-50.582-41.672.594-57.478,27.842-57.478,27.842s-25.962-12.858-42.221-4.463c-17.23,8.9-16.365,23.8-16.365,23.8s-53.16-15.894-74.351,22.953C-3485.644,10430.605-3459.573,10466.588-3459.573,10466.588Z" transform="translate(3473.542 -10325.461)"/></g><g transform="translate(0 0)"><path class="b" d="M-3194.566,10575.771c-10.13,0-19.223-3.248-26.4-7.046a93.112,93.112,0,0,1-24.945-19.864c-12.728,10.9-24.833,15.229-35.976,12.866-15.037-3.189-23.69-17.838-25.6-21.41-2.336,5.223-16.633,33.633-48.974,28.986s-33.88-40.435-33.932-45.514c-4.418,1.574-34.126,11.482-55.873,1.271-10.913-5.122-17.983-12.561-21.014-22.106-5.482-17.273,4.178-36.1,5.406-38.382-2.1-3.044-25.093-37.779-6.858-71.206,11.036-20.232,30.812-25.445,45.458-26.258a97.258,97.258,0,0,1,28.842,2.959c.062-2.831,1.216-15.689,16.588-23.626,15.251-7.876,39.148,2.839,42.254,4.3,1.972-3.082,18.655-27.169,57.625-27.724.3,0,.6-.007.9-.007,23.91,0,39.141,13.665,47.742,25.213a89.863,89.863,0,0,1,13.03,25.241c26.873-10.577,50.633-5.4,66.931,14.6,10.867,13.334,11.777,39.879,11.847,43.023a56.324,56.324,0,0,1,18.669,10.186c8.136,6.883,16.81,19.241,11.929,39.018-4.449,18.03-32.636,21.016-36.63,21.348.876,4.608,7.063,42.382-20.266,63.128C-3174.478,10572.863-3184.985,10575.771-3194.566,10575.771Zm-51.245-28.073.266.323a91.808,91.808,0,0,0,24.987,19.99c13.739,7.27,34.654,12.493,56.257-3.9,28.569-21.687,19.961-62.354,19.871-62.76l-.1-.47.479-.027c.317-.02,31.728-2.033,36.351-20.765,3.835-15.54-.082-28.386-11.643-38.181a55.056,55.056,0,0,0-18.673-10.124l-.3-.083,0-.309c0-.288-.345-28.925-11.669-42.82-16.138-19.8-39.723-24.841-66.409-14.188l-.422.169-.123-.437a88.007,88.007,0,0,0-13.045-25.43c-8.487-11.387-23.515-24.863-47.073-24.863q-.441,0-.884.007c-40.942.582-56.973,27.368-57.13,27.64l-.193.33-.342-.171c-.258-.129-25.966-12.671-41.853-4.466-16.777,8.662-16.153,23.271-16.145,23.418l.032.58-.557-.167a95.555,95.555,0,0,0-29.113-3.071c-14.431.8-33.911,5.938-44.765,25.83-18.746,34.362,6.692,70.192,6.952,70.551l.154.212-.131.229c-.113.2-11.172,19.978-5.459,37.962,2.959,9.319,9.885,16.591,20.581,21.612,23.114,10.849,55.465-1.374,55.788-1.5l.572-.22-.016.613c-.012.4-.7,40.4,33.229,45.278,34.767,4.985,48.311-28.942,48.445-29.284l.343-.889.407.862c.085.181,8.764,18.213,25.436,21.747,10.972,2.32,22.945-2.036,35.579-12.955Z" transform="translate(3475.709 -10323.012)"/></g></g><g class="c" transform="translate(-3486.818 9918.438)"><path class="b" d="M-3105.487,10814.166c-4.752,19.244-36.728,21.074-36.728,21.074s9.1,41.074-20.021,63.173c-42.166,32.01-81.8-16.151-81.8-16.151-40.826,35.284-61.657-8.927-61.657-8.927s-13.386,34.642-48.879,29.544c-34.695-4.987-33.584-45.7-33.584-45.7s-32.564,12.543-56.108,1.49c-39.081-18.348-15.3-60.147-15.3-60.147s-26.067-35.99-6.981-70.986a50.077,50.077,0,0,1,3.327-5.3c-8.7,22.479,3.776,50.538,11.581,64.68a15.979,15.979,0,0,1-.651,16.5c-6.283,9.553-11.934,26.3,13.511,38.248,14.132,6.636,31.654,4.416,42.805,1.82a10.066,10.066,0,0,1,12.194,7.865c2.315,11.947,9.422,29.653,31.15,32.776,19.989,2.874,32.677-7.375,39.754-16.348a10.069,10.069,0,0,1,15.192-.8c8.366,8.732,23.265,17.127,44.542,2.527a10.087,10.087,0,0,1,12.607.954c12.234,11.443,41.74,32.845,72.655,9.374,19.532-14.826,21.165-38.542,20.374-51.5a10.078,10.078,0,0,1,7.893-10.512c9.442-2.014,23.294-6.973,26.24-18.911a38.732,38.732,0,0,0,.274-19.309C-3106.291,10787.2-3101.579,10798.316-3105.487,10814.166Z" transform="translate(3473.537 -10722.238)"/></g><g transform="translate(-3489.412 9850.993)"><path class="b" d="M-3206.078,10566.718c-8.949,0-18.139-2.44-27.378-7.333a94.387,94.387,0,0,1-24.137-18.749c-12.679,10.345-24.852,14.367-36.208,11.959-12.826-2.719-21.1-12.907-24.975-18.921a59.863,59.863,0,0,1-9.455,12.9c-7.525,7.758-20.578,16.421-40,13.626-15.187-2.182-26.211-11.307-31.876-26.384a64.98,64.98,0,0,1-3.842-18.266c-9.2,2.947-34.739,9.6-54.711.222-11.493-5.394-18.954-13.28-22.18-23.437-5.246-16.526,2.379-33.818,4.941-38.907a89.2,89.2,0,0,1-10.1-21.766c-5.618-18.186-4.28-35.7,3.873-50.641,9.121-16.719,25.467-26.194,47.272-27.4a99.351,99.351,0,0,1,26.976,2.387c.763-5.383,4.031-15.825,17.565-22.813,14.632-7.553,35.752.526,42.477,3.475,4.662-6.544,21.913-26.624,58.385-27.143,20.088-.3,37.512,8.739,50.441,26.095a92.184,92.184,0,0,1,12.631,23.683c26.6-9.666,51-3.879,67.27,16.08,10.375,12.73,12.033,35.99,12.3,42.815,8.1,2.873,39.212,16.354,30.579,51.334-4.309,17.463-27.8,21.789-36.186,22.781,1.546,10.042,4.367,43.271-21.518,62.922C-3184.013,10562.877-3194.855,10566.718-3206.078,10566.718Zm-50.929-33.451,1.7,2.07a89.657,89.657,0,0,0,24.427,19.5c19.121,10.076,37.214,8.807,53.781-3.769,27.409-20.808,19.137-60.134,19.05-60.529l-.657-2.994,3.061-.181c.3-.018,30.106-1.952,34.335-19.088,8.62-34.924-27.227-45.229-28.757-45.65l-1.9-.524-.018-1.977c0-.278-.348-28.159-11.172-41.441-15.479-18.994-38.166-23.8-63.881-13.533l-2.7,1.075-.788-2.8a85.841,85.841,0,0,0-12.772-24.817c-12.042-16.095-27.516-24.115-46.076-23.859-39.576.561-54.634,25.483-55.255,26.544l-1.23,2.1-2.186-1.073c-.249-.123-24.981-12.171-39.862-4.484-15.4,7.952-14.98,20.8-14.954,21.343l.173,3.681-3.532-1.04a93.749,93.749,0,0,0-28.48-2.977c-20.114,1.151-34.523,9.454-42.83,24.679-18.055,33.1,6.551,67.855,6.8,68.2l.984,1.36-.829,1.461h0c-.108.191-10.7,19.192-5.27,36.229,2.77,8.7,9.3,15.515,19.408,20.26,22.237,10.439,53.744-1.441,54.059-1.562l3.659-1.405-.106,3.916a59.712,59.712,0,0,0,3.667,20.129c5.038,13.285,14.349,20.991,27.672,22.906,32.956,4.723,45.554-26.565,46.073-27.9l2.209-5.669,2.595,5.5c.08.169,8.344,17.252,23.925,20.534,10.252,2.152,21.577-2.036,33.652-12.472Z" transform="translate(3489.412 -10309.512)"/></g><g transform="translate(-3286.069 9918.097)"><g transform="translate(0.175 0.399)"><path class="a" d="M-2210.173,10722.6s27.446,5.449,33.049,12.08-3.356,64.669-30.819,74.915c-10.368,3.867-36.017-8.113-36.017-8.113" transform="translate(2243.96 -10722.6)"/></g><g transform="translate(0 0)"><path class="b" d="M-2213.971,10808.733c-11.8,0-30.157-8.5-31.06-8.924l.345-.74c.255.119,25.609,11.866,35.7,8.1,17.542-6.543,25.9-31.907,28.672-42.51,4.079-15.568,4.315-28.989,1.977-31.757-5.447-6.447-32.544-11.89-32.818-11.944l.159-.8c1.126.225,27.652,5.555,33.282,12.22,2.82,3.335,2.007,17.912-1.811,32.49-2.809,10.725-11.277,36.391-29.177,43.07A15.069,15.069,0,0,1-2213.971,10808.733Z" transform="translate(2245.03 -10720.158)"/></g></g><g class="c" transform="translate(-3285.897 9928.404)"><path class="b" d="M-2207.958,10860.33c-10.373,3.87-36.022-8.112-36.022-8.112l9.988-23.313c8.085,2.791,18.217,5.358,23.851,3.261,16.563-6.184,26.394-29.741,30.355-48.925a11.417,11.417,0,0,1,2.647,2.177C-2171.537,10792.058-2180.5,10850.084-2207.958,10860.33Z" transform="translate(2243.98 -10783.24)"/></g><g transform="translate(-3288.51 9915.879)"><path class="b" d="M-2226.439,10799.571c-12.1,0-29.721-8.04-32.022-9.115a2.612,2.612,0,0,1-1.261-3.474,2.614,2.614,0,0,1,3.476-1.264c6.86,3.2,26.345,10.891,34,8.033,16.375-6.107,24.438-30.271,27.144-40.376,4.389-16.388,4.015-28.68,2.592-30.4-3.647-4.318-21.294-9.164-31.561-11.2a2.614,2.614,0,0,1-2.056-3.072,2.609,2.609,0,0,1,3.074-2.057c2.9.577,28.518,5.832,34.536,12.959,3.842,4.549,2.222,20.786-1.363,34.474-2.9,11.058-11.67,37.538-30.539,44.577A17.459,17.459,0,0,1-2226.439,10799.571Z" transform="translate(2259.969 -10706.59)"/></g><g transform="translate(-3165.422 10002.186)"><path class="b" d="M-1499.352,11264.53c-.654-2.4-1.247-4.908-1.851-7.367l-1.783-7.42-1.876-7.407c-.623-2.485-1.257-4.959-1.858-7.587a28.844,28.844,0,0,1,4.778,6.406,55.8,55.8,0,0,1,3.352,7.177c.975,2.449,1.812,4.938,2.564,7.452a66.1,66.1,0,0,1,1.8,7.69,2.616,2.616,0,0,1-2.168,3,2.617,2.617,0,0,1-2.937-1.885Z" transform="translate(1506.72 -11234.749)"/></g><g transform="translate(-3449.517 9931.021)"><g transform="translate(0.405 0.413)"><path class="a" d="M-3149.752,10806.259c-47.65-18.8-64.782,27.648-64.782,27.648s-22.01,6.629-26.92,19.047c-6.447,16.3,12.13,21.113,18.694,22.521,17.027,3.647,31.456-2.23,37.529-10.5,10.992-14.967,22.348-26.072,42.991-25.583" transform="translate(3242.793 -10801.778)"/></g><g transform="translate(0 0)"><path class="b" d="M-3214.644,10874.866a49.117,49.117,0,0,1-10.273-1.111c-9.862-2.113-16.232-5.741-18.931-10.782-1.876-3.5-1.9-7.639-.057-12.289,4.737-11.983,24.667-18.5,26.99-19.229.829-2.092,8.615-20.676,26.3-28.59,11.4-5.1,24.5-4.8,38.944.895l-.3.76c-14.227-5.61-27.115-5.918-38.31-.91-18.344,8.21-25.865,28.117-25.938,28.318l-.07.192-.194.059c-.219.066-21.877,6.717-26.657,18.806-1.747,4.417-1.74,8.321.016,11.6,2.582,4.819,8.765,8.309,18.382,10.368,17.527,3.756,31.523-2.729,37.113-10.341,11.934-16.249,23.348-26.191,43.33-25.75l-.019.815c-19.629-.461-30.875,9.383-42.654,25.417C-3191.567,10869.345-3201.648,10874.866-3214.644,10874.866Z" transform="translate(3245.27 -10799.25)"/></g></g><g class="c" transform="translate(-3449.108 9954.728)"><path class="b" d="M-3142.221,10958.635c-20.642-.49-32,10.622-42.989,25.584-6.073,8.268-20.5,14.15-37.525,10.5-6.1-1.314-22.563-5.557-19.7-19.217,4.5,2.9,10.092,4.268,13.119,4.915,17.027,3.647,31.459-2.229,37.532-10.5,10.988-14.967,22.348-26.073,42.989-25.583Z" transform="translate(3242.768 -10944.324)"/></g><g transform="translate(-3451.731 9928.817)"><path class="b" d="M-3226.024,10865.793a50.944,50.944,0,0,1-10.692-1.157c-10.525-2.253-17.393-6.256-20.413-11.9-2.2-4.1-2.252-8.859-.163-14.141,4.672-11.816,22.5-18.549,27.384-20.2,1.979-4.648,10.028-21.2,27.054-28.824,11.963-5.354,25.642-5.065,40.655.856a2.613,2.613,0,0,1,1.472,3.392,2.612,2.612,0,0,1-3.391,1.472c-13.635-5.379-25.935-5.7-36.558-.967-17.475,7.8-24.742,26.9-24.814,27.091l-.453,1.216-1.245.379c-.208.063-20.861,6.419-25.243,17.5-1.518,3.839-1.548,7.029-.09,9.749,1.554,2.9,5.747,6.863,16.9,9.252,16.565,3.549,29.69-2.432,34.874-9.489,9.682-13.182,21.959-27.214,45.16-26.65a2.614,2.614,0,0,1,2.552,2.677,2.6,2.6,0,0,1-2.675,2.553c-18.677-.458-29.464,9.053-40.823,24.518C-3201.465,10859.844-3212.229,10865.793-3226.024,10865.793Z" transform="translate(3258.818 -10785.766)"/></g><g transform="translate(-3392.281 9851.522)"><path class="a" d="M-2843.561,10368.909s-14.236-32.85-51.449-28.87c0,0,3.9-16,16.063-22.938,23.358-13.32,51.54,7.133,60.218,19.009,11.476,15.706,11.476,29.591,11.476,29.591Z" transform="translate(2895.01 -10312.754)"/></g><g class="c" transform="translate(-3392.283 9868.292)"><path class="b" d="M-2807.263,10451.559l-36.3,3.209s-14.237-32.852-51.455-28.871a45.685,45.685,0,0,1,4.157-10.156,47.813,47.813,0,0,1,35.109,9.348,57.829,57.829,0,0,0,44.642,10.4h0C-2807.263,10444.857-2807.263,10451.559-2807.263,10451.559Z" transform="translate(2895.02 -10415.376)"/></g><g transform="translate(-3395.702 9848.967)"><path class="b" d="M-2862.719,10358.6l-.748-1.729c-.565-1.292-13.991-31.02-48.773-27.311l-3.7.4.881-3.615c.17-.7,4.319-17.186,17.309-24.593,24.24-13.821,53.863,6.38,63.623,19.738,11.844,16.206,11.981,30.531,11.981,31.132v2.4Zm-43.7-34.594a50.687,50.687,0,0,1,35.373,13.982,58.536,58.536,0,0,1,11.537,15.072l31.935-2.827c-.564-4.455-2.7-14.622-10.772-25.67-8.831-12.083-35.4-30.488-56.812-18.281-7.715,4.4-11.862,12.955-13.674,17.774C-2908.021,10324.021-2907.215,10324-2906.423,10324Z" transform="translate(2915.94 -10297.109)"/></g><g transform="translate(-3418.822 9968.462)"><path class="a" d="M-2983.268,11038.047s-10.118-13.755-27.6-8.469c-15.169,4.583-15.627,22.646-15.627,22.646a25.584,25.584,0,0,0-16.673,1.484c-13.922,6.172-14.153,18.825-14.257,22.061l3.783,8.967,74.812-39.395Z" transform="translate(3057.43 -11028.369)"/></g><g transform="translate(-3420.883 9965.88)"><path class="b" d="M-3068.85,11062.535a9.6,9.6,0,0,1-1.1-6.09,16.642,16.642,0,0,1,1.85-5.963,26.878,26.878,0,0,1,3.551-5.2,25.761,25.761,0,0,1,4.6-4.24c.858-.572,1.735-1.123,2.618-1.65.915-.457,1.819-.934,2.75-1.359a28.844,28.844,0,0,1,5.893-1.83,28.9,28.9,0,0,1,6.137-.539,27.8,27.8,0,0,1,3.087.219c.515.064,1.029.148,1.547.244l.786.17c.28.066.5.117.869.229l-3.4,2.428c.033-.816.1-1.428.183-2.125.082-.674.191-1.342.312-2.006a36.125,36.125,0,0,1,.964-3.936,29.745,29.745,0,0,1,3.417-7.453,25.283,25.283,0,0,1,2.566-3.322,24.814,24.814,0,0,1,3.162-2.832,22.352,22.352,0,0,1,7.6-3.586,28.584,28.584,0,0,1,4.009-.83l2.046-.25,2.074-.027,1.037-.006,1.034.1c.69.074,1.383.131,2.067.23a28.7,28.7,0,0,1,4.028,1.02l.987.322c.325.119.638.266.956.4.626.287,1.286.512,1.881.859.6.328,1.219.641,1.813.98.583.359,1.195.68,1.788,1.029a17.807,17.807,0,0,1,1.7,1.174,10.618,10.618,0,0,1,1.444,1.479,10.306,10.306,0,0,1,.6.854,8.213,8.213,0,0,1,.469.969,5.7,5.7,0,0,1,.414,2.33,1.1,1.1,0,0,1-1.136,1.061l-.092-.006-.176-.021a8.725,8.725,0,0,1-3.644-1.312,20.45,20.45,0,0,1-2.7-2.047q-.662-.527-1.364-1.006c-.472-.311-.986-.547-1.476-.822a16.392,16.392,0,0,0-1.531-.7c-.258-.109-.511-.232-.774-.328l-.8-.256a24.013,24.013,0,0,0-3.237-.824c-.551-.078-1.108-.115-1.662-.18l-.832-.086-.84.012-1.678.016-1.677.213a23.533,23.533,0,0,0-3.33.688,17.1,17.1,0,0,0-10.333,7.545,24.522,24.522,0,0,0-2.807,6.148,30.823,30.823,0,0,0-.822,3.348c-.1.566-.2,1.137-.265,1.7-.069.543-.128,1.178-.145,1.611l-.133,3.395-3.265-.967c-.08-.023-.314-.084-.49-.125l-.589-.125c-.4-.074-.812-.141-1.227-.2a22.881,22.881,0,0,0-2.514-.18,23.882,23.882,0,0,0-5.031.445,23.781,23.781,0,0,0-4.817,1.492c-.768.355-1.522.76-2.285,1.131-.719.436-1.431.885-2.131,1.346a17.2,17.2,0,0,0-6.157,7.563c-.644,1.51-1.185,3.059-1.716,4.664a24.3,24.3,0,0,1-.915,2.449,14.656,14.656,0,0,1-1.405,2.611l0,0a1.029,1.029,0,0,1-1.433.268A.85.85,0,0,1-3068.85,11062.535Z" transform="translate(3070.038 -11012.578)"/></g><g transform="translate(-3383.313 9874.878)"><path class="a" d="M-2700.832,10517.992c-2.634,36.187-20.695,70.736-72.423,72.3-57.324,1.732-72.031-42.826-65.4-65.2,2.948-9.928,13.981-21.831,26.551-27.871a78.765,78.765,0,0,0,20.25-13.647,61.461,61.461,0,0,0,6.321-6.942c8.772-11.248,9.752-20.955,9.752-20.955l71.142,25.891,1.974.72c.177,1.045.34,2.1.5,3.163.719,4.9,1.236,9.954,1.5,15.079A137.857,137.857,0,0,1-2700.832,10517.992Z" transform="translate(2840.126 -10455.681)"/></g><g class="c" transform="translate(-3383.306 9901.442)"><path class="b" d="M-2700.8,10653.987c-2.634,36.185-20.694,70.736-72.423,72.306-51.761,1.563-68.776-34.616-66.7-58.122,6.216,20.14,25.049,43.91,62.96,45.229,47.534,1.653,71.375-42.084,74.01-78.27a136.213,136.213,0,0,0,.19-16.891l.13.046c.177,1.046.34,2.105.5,3.165.719,4.9,1.235,9.954,1.5,15.078A137.855,137.855,0,0,1-2700.8,10653.987Z" transform="translate(2840.083 -10618.239)"/></g><g transform="translate(-3385.903 9871.293)"><path class="b" d="M-2789.781,10574.607c-30.095,0-46.309-12.679-54.673-23.537-11.636-15.107-13.39-33.521-9.965-45.068,3.221-10.86,14.965-23.26,27.923-29.485,31.9-15.325,34.752-38.483,34.859-39.46l.358-3.317,3.136,1.133,74.546,27.136.25,1.5c2.783,16.7,6.8,58.533-15.936,86.214-12.912,15.72-32.144,24.074-57.157,24.831Q-2788.137,10574.608-2789.781,10574.607Zm2.73-133.767c-1.889,7.641-9.291,27-37.18,40.4-11.56,5.551-22.382,16.843-25.175,26.259-3.047,10.271-1.417,26.745,9.094,40.391,7.925,10.287,23.68,22.328,53.714,21.45,23.438-.711,41.362-8.425,53.274-22.925,20.737-25.245,17.7-63.652,15.062-80.533Z" transform="translate(2855.978 -10433.739)"/></g><g transform="translate(-3416.449 9972.815)"><path class="a" d="M-2953.863,11058.248c-48.856-15.4-62.61,29.213-62.61,29.213s-21.489,8.163-25.511,20.895c-5.281,16.718,13.587,20.208,20.233,21.149,17.243,2.439,31.221-4.442,36.7-13.115,9.911-15.7,20.456-27.582,41.083-28.548" transform="translate(3042.905 -11055.016)"/></g><g class="c" transform="translate(-3416.447 9998.267)"><path class="b" d="M-2943.961,11218.141c-20.629.967-31.172,12.844-41.088,28.543-5.471,8.675-19.452,15.558-36.7,13.12-6.641-.941-25.511-4.433-20.23-21.146a16.83,16.83,0,0,1,1.34-3.078c4.308,3.235,9.844,5.006,12.837,5.869,16.733,4.812,31.531-.059,38.159-7.889,11.765-13.911,23.629-24.088,43.486-22.663Z" transform="translate(3042.895 -11210.765)"/></g><g transform="translate(-3419.058 9970.492)"><path class="b" d="M-2967.419,11047.535c-6.573-.211-12.556-1.234-18.689-1.105a52.921,52.921,0,0,0-9.042.777,37.588,37.588,0,0,0-8.615,2.68,42.039,42.039,0,0,0-14.357,10.881,51.31,51.31,0,0,0-5.34,7.439c-.778,1.318-1.505,2.668-2.162,4.047-.328.686-.644,1.381-.935,2.08-.284.678-.582,1.439-.778,2.031l-.4,1.191-1.169.461c-1.422.561-2.957,1.248-4.408,1.955s-2.911,1.467-4.323,2.271a54.117,54.117,0,0,0-7.953,5.432,26.318,26.318,0,0,0-6.039,6.844,14.918,14.918,0,0,0-1.578,4.014,13.812,13.812,0,0,0-.414,4.205,9.473,9.473,0,0,0,3.685,6.836,22.967,22.967,0,0,0,8.075,3.963,44.7,44.7,0,0,0,4.646,1.1c1.585.289,3.2.516,4.776.66a44.688,44.688,0,0,0,9.534-.107,35.21,35.21,0,0,0,17.313-6.734,23.976,23.976,0,0,0,3.3-3.115,18.321,18.321,0,0,0,1.353-1.76l.306-.457.344-.537.689-1.08c1.858-2.875,3.812-5.717,5.951-8.457a64.789,64.789,0,0,1,7.082-7.783,48.732,48.732,0,0,1,8.6-6.361,32.791,32.791,0,0,1,9.955-4.09,20.451,20.451,0,0,1,10.635.275.928.928,0,0,1,.6,1.168.922.922,0,0,1-.5.563l-.021.01a85.966,85.966,0,0,1-9.327,3.25,55.784,55.784,0,0,0-8.749,3.441c-5.536,3.023-10.146,7.623-14.159,12.746-2.009,2.572-3.879,5.289-5.679,8.076l-.672,1.047-.337.529-.4.594a23.58,23.58,0,0,1-1.726,2.248,29.259,29.259,0,0,1-4.036,3.816,40.421,40.421,0,0,1-19.905,7.8,49.888,49.888,0,0,1-10.646.125c-1.776-.164-3.5-.408-5.234-.725a50,50,0,0,1-5.189-1.225,28.087,28.087,0,0,1-9.926-4.951,15.9,15.9,0,0,1-3.865-4.6,14.4,14.4,0,0,1-1.7-5.883,18.963,18.963,0,0,1,.549-5.82,20.255,20.255,0,0,1,2.116-5.361,31.435,31.435,0,0,1,7.23-8.27,59.468,59.468,0,0,1,8.721-5.961c1.518-.865,3.061-1.67,4.626-2.432,1.582-.766,3.12-1.463,4.834-2.139l-1.564,1.656c.311-.934.607-1.668.94-2.473q.492-1.175,1.041-2.314c.727-1.523,1.525-3.006,2.379-4.453a56.245,56.245,0,0,1,5.891-8.2,47.252,47.252,0,0,1,16.148-12.217,47.756,47.756,0,0,1,9.695-3.229,44.449,44.449,0,0,1,10.115-1.1,43.878,43.878,0,0,1,5.048.322,38.59,38.59,0,0,1,4.959.871,30.227,30.227,0,0,1,9.211,3.879.905.905,0,0,1,.265,1.252A.977.977,0,0,1-2967.419,11047.535Z" transform="translate(3058.873 -11040.802)"/></g><g transform="translate(-3371.99 9989.634)"><path class="a" d="M-2641.06,11183.066s-.813-18.212-23.488-23.917c-25.84-6.5-35.486,15.327-35.486,15.327s-12.927-12.82-30.435-9.536-21.3,21.159-21.3,21.159a14.123,14.123,0,0,0-12.818,3.4c-11.515,11.065-3.588,26.716-3.588,26.716l7.424,12.13,121.569-34Z" transform="translate(2770.837 -11157.94)"/></g><g transform="translate(-3374.739 9987.03)"><path class="b" d="M-2783.024,11203.263a12.659,12.659,0,0,1-1.793-2.313,18.032,18.032,0,0,1-1.311-2.562,19.937,19.937,0,0,1-1.4-5.629,22.224,22.224,0,0,1,.148-5.946,20.6,20.6,0,0,1,1.866-5.764,23.094,23.094,0,0,1,3.365-5.012,14.548,14.548,0,0,1,1.012-1.1,13.765,13.765,0,0,1,1.1-1.053,15.349,15.349,0,0,1,2.564-1.88,16.377,16.377,0,0,1,5.973-2.062,19.177,19.177,0,0,1,3.119-.149c.52.026,1.039.064,1.561.131.261.034.524.077.789.122.284.055.5.091.887.194l-3.261,1.975c.2-.852.4-1.5.632-2.218.228-.7.484-1.382.757-2.057s.582-1.334.873-2c.318-.654.661-1.3.993-1.945a31.853,31.853,0,0,1,5.242-7.046,26.49,26.49,0,0,1,7.161-5.264l.993-.518c.328-.176.69-.28,1.032-.423l2.089-.793c.706-.224,1.431-.375,2.147-.562a15.992,15.992,0,0,1,2.16-.456,31.727,31.727,0,0,1,4.36-.426c.73-.009,1.463-.08,2.191-.029l2.186.143a36.2,36.2,0,0,1,8.5,1.848,42.9,42.9,0,0,1,7.818,3.622c1.227.738,2.431,1.517,3.589,2.37.58.422,1.152.86,1.712,1.321s1.088.908,1.706,1.5l-4.232.8c.24-.524.427-.871.65-1.281s.44-.777.668-1.154c.456-.76.95-1.483,1.458-2.2a35.244,35.244,0,0,1,3.386-4.016,31.529,31.529,0,0,1,8.507-6.235,30.534,30.534,0,0,1,10.152-2.994,37.365,37.365,0,0,1,10.432.389,36.994,36.994,0,0,1,5.013,1.209l2.468.748,2.405.989,1.2.5c.4.171.775.4,1.162.6l2.306,1.252a36.352,36.352,0,0,1,4.253,3.141l1.008.863c.324.3.62.637.935.949.6.65,1.277,1.243,1.819,1.953a22.472,22.472,0,0,1,3.085,4.381c1.615,3.174,2.6,6.823,1.329,10.506a.928.928,0,0,1-1.181.573.928.928,0,0,1-.466-.355l-.093-.139c-1.884-2.784-3.067-5.384-4.515-7.91a34.671,34.671,0,0,0-2.319-3.686,13.292,13.292,0,0,0-1.419-1.671c-.251-.267-.489-.547-.76-.793l-.842-.717a31.3,31.3,0,0,0-3.561-2.634l-1.972-1.064c-.332-.172-.647-.374-.994-.52l-1.046-.429-2.09-.867-2.188-.658a31.622,31.622,0,0,0-4.434-1.072,32.136,32.136,0,0,0-8.942-.347,25.323,25.323,0,0,0-8.412,2.479,26.346,26.346,0,0,0-7.106,5.215,30.338,30.338,0,0,0-2.878,3.412c-.431.606-.853,1.224-1.232,1.855-.191.315-.377.632-.549.949-.167.3-.358.674-.455.885l-1.534,3.351-2.7-2.553c-.36-.339-.868-.785-1.339-1.166-.482-.4-.98-.779-1.492-1.15-1.015-.75-2.08-1.437-3.164-2.09a37.611,37.611,0,0,0-6.847-3.172,30.975,30.975,0,0,0-7.283-1.587l-1.853-.121c-.618-.047-1.236.025-1.853.029a26.3,26.3,0,0,0-3.688.359,12.21,12.21,0,0,0-1.794.382c-.588.156-1.189.273-1.768.457l-1.695.648a7.58,7.58,0,0,0-.84.339l-.8.422a21.3,21.3,0,0,0-5.817,4.277,26.637,26.637,0,0,0-4.389,5.9l-.848,1.66c-.245.571-.528,1.128-.745,1.708-.233.577-.451,1.157-.64,1.742-.191.564-.374,1.212-.485,1.671l-.642,2.664-2.618-.691c-.041-.011-.262-.059-.415-.084-.172-.027-.348-.059-.528-.08-.359-.048-.727-.072-1.095-.092a13.876,13.876,0,0,0-2.2.1,11.084,11.084,0,0,0-4.038,1.393,10.216,10.216,0,0,0-1.724,1.267,8.933,8.933,0,0,0-.814.8,10.422,10.422,0,0,0-.779.87,16.243,16.243,0,0,0-2.4,3.915,22.654,22.654,0,0,0-1.66,9.065c.059,3.187.453,6.489.722,10.046l.005.068a.919.919,0,0,1-.845.984A.917.917,0,0,1-2783.024,11203.263Z" transform="translate(2787.655 -11142.001)"/></g><g transform="translate(-3258.921 9893.087)"><path class="a" d="M-1996.6,10623.11c-14.06-8.954-31.368-27.824-67.4-11.9q-3.883,1.708-8.073,3.987l-3.516-17.857-2.66-13.51-.654-3.335a71.5,71.5,0,0,1,11.1-5.706,98.051,98.051,0,0,1,13.537-4.588,95.8,95.8,0,0,1,21.982-3.073,92.511,92.511,0,0,1,31.492,4.832c17.975,6.02,26.982,24.412,29.57,38.648C-1969.35,10620.922-1977.933,10635.023-1996.6,10623.11Z" transform="translate(2078.9 -10567.112)"/></g><g class="c" transform="translate(-3252.091 9917.522)"><path class="b" d="M-1961.631,10748.2c-15.073-9.6-33.878-30.591-75.469-7.91h0a21.065,21.065,0,0,1,13.95-19.834c32.076-11.489,48.245,5.8,61.519,14.26,13.295,8.471,21.478,3.758,24.407-3.38.392,1.484.719,2.948.974,4.366C-1934.381,10746.013-1942.963,10760.115-1961.631,10748.2Z" transform="translate(2037.1 -10716.639)"/></g><g transform="translate(-3259.6 9890.5)"><path class="b" d="M-2075.961,10601.2a42.717,42.717,0,0,1,13.855-8.279,55.236,55.236,0,0,1,15.985-3.6,52.655,52.655,0,0,1,16.511,1.3,57.3,57.3,0,0,1,15.153,6.4c4.683,2.753,8.965,5.986,13.2,8.922a46.015,46.015,0,0,0,6.383,3.831,19.644,19.644,0,0,0,6.626,1.963,9.787,9.787,0,0,0,6.019-1.215,10.129,10.129,0,0,0,4-4.687,14.037,14.037,0,0,0,1.146-6.459,15.092,15.092,0,0,0-.2-1.642l-.381-1.842c-.113-.615-.284-1.223-.438-1.831s-.294-1.224-.484-1.82a57.148,57.148,0,0,0-5.992-13.766,44.38,44.38,0,0,0-9.612-11.235,36.537,36.537,0,0,0-6.141-3.985l-1.634-.823c-.561-.237-1.136-.444-1.7-.668s-1.114-.461-1.724-.65l-1.83-.567a90.455,90.455,0,0,0-14.937-3.275,90.47,90.47,0,0,0-30.455,1.194,75.177,75.177,0,0,0-14.632,4.483c-4.759,1.875-9.349,3.922-14.635,5.04l-.055.012a.919.919,0,0,1-1.088-.71.929.929,0,0,1,.17-.749,22.154,22.154,0,0,1,6.273-5.364,43.459,43.459,0,0,1,7.337-3.439c2.543-.916,5.133-1.676,7.721-2.427,1.289-.395,2.6-.715,3.9-1.069,1.314-.3,2.618-.645,3.943-.9a95.751,95.751,0,0,1,32.2-1.258,95.662,95.662,0,0,1,15.8,3.463l1.931.6c.644.2,1.309.491,1.961.735s1.314.5,1.961.777l1.886.943a41.824,41.824,0,0,1,7.045,4.578,49.62,49.62,0,0,1,10.783,12.575,62.469,62.469,0,0,1,6.549,15.035c.206.652.351,1.324.528,1.983s.351,1.324.477,2l.415,2.015a19.829,19.829,0,0,1,.279,2.266,19.213,19.213,0,0,1-1.587,8.9,15.367,15.367,0,0,1-6.106,7.062,14.305,14.305,0,0,1-4.487,1.712,16.262,16.262,0,0,1-4.656.217c-6.1-.588-11.148-3.691-15.521-6.7-4.392-3.049-8.51-6.152-12.891-8.725a52.217,52.217,0,0,0-13.759-5.832,43.385,43.385,0,0,0-7.324-1.147,44.124,44.124,0,0,0-7.437.16,80.567,80.567,0,0,0-14.664,3.341c-4.835,1.562-9.6,3.384-14.824,4.686h-.006a.9.9,0,0,1-1.09-.655A.887.887,0,0,1-2075.961,10601.2Z" transform="translate(2083.05 -10551.278)"/></g><g transform="translate(-3369.594 9761.432)"><g transform="translate(2.204 48.624)"><g transform="translate(0.412 0.401)"><path class="a" d="M-2739.5,10084.856c-2.415,14.2,2,26.794,9.869,28.133l12.057,2.05a9.421,9.421,0,0,1-5.623-3.441,22.328,22.328,0,0,1-4.391-10.619,42.508,42.508,0,0,1,.144-14.07,42.473,42.473,0,0,1,4.515-13.328,22.332,22.332,0,0,1,7.656-8.578,9.437,9.437,0,0,1,6.445-1.389l-12.057-2.052C-2728.753,10060.23-2737.086,10070.655-2739.5,10084.856Z" transform="translate(2740.162 -10061.447)"/></g><path class="b" d="M-2719.754,10113.393l-12.057-2.051c-3.958-.674-7.191-4.051-9.107-9.51-1.886-5.377-2.276-12.156-1.1-19.094s3.789-13.209,7.347-17.658c3.613-4.523,7.78-6.635,11.739-5.967l12.057,2.049-.137.8h-.008a8.958,8.958,0,0,0-6.159,1.34,21.833,21.833,0,0,0-7.507,8.422,42.184,42.184,0,0,0-4.469,13.2,42.181,42.181,0,0,0-.144,13.934,21.844,21.844,0,0,0,4.3,10.424,8.969,8.969,0,0,0,5.378,3.3h0Zm-21.454-30.525c-1.157,6.8-.78,13.438,1.06,18.688,1.812,5.168,4.822,8.354,8.473,8.975l8.407,1.43a11.489,11.489,0,0,1-2.353-2.156,22.632,22.632,0,0,1-4.481-10.811,43.039,43.039,0,0,1,.144-14.209,43.011,43.011,0,0,1,4.561-13.457,22.648,22.648,0,0,1,7.806-8.73,11.573,11.573,0,0,1,2.933-1.256l-8.407-1.43c-3.652-.623-7.545,1.395-10.963,5.67-3.474,4.346-6.023,10.49-7.18,17.287Z" transform="translate(2742.683 -10058.992)"/></g><g class="c" transform="translate(2.62 77.32)"><path class="b" d="M-2740.049,10234.6c-.771,12.1,3.49,22.059,10.437,23.239l12.056,2.052a9.432,9.432,0,0,1-5.623-3.443,22.308,22.308,0,0,1-4.391-10.619,39.822,39.822,0,0,1-.462-8.587l-.314.143a9.845,9.845,0,0,1-11.394-2.506A1.446,1.446,0,0,0-2740.049,10234.6Z" transform="translate(2740.139 -10234.6)"/></g><g transform="translate(0 46.41)"><path class="b" d="M-2731.409,10104.229h0l-12.057-2.05c-4.783-.815-8.626-4.7-10.819-10.955-2.008-5.724-2.43-12.9-1.19-20.193h0c1.242-7.3,4.01-13.928,7.8-18.668,4.136-5.175,9.05-7.587,13.833-6.765l12.046,2.048h.01l-.876,5.156a6.838,6.838,0,0,0-4.671,1.062,19.97,19.97,0,0,0-6.7,7.59,39.986,39.986,0,0,0-4.226,12.5,39.957,39.957,0,0,0-.144,13.2,19.983,19.983,0,0,0,3.812,9.371,6.85,6.85,0,0,0,4.053,2.548l.01,0Zm-18.91-32.323c-1.095,6.439-.751,12.688.969,17.588,1.513,4.312,3.977,7.056,6.76,7.528l2.249.383a27.735,27.735,0,0,1-3.221-9.378,45.265,45.265,0,0,1,.144-14.944,45.234,45.234,0,0,1,4.8-14.154,27.8,27.8,0,0,1,6.143-7.793l-2.249-.382c-2.79-.476-6.017,1.3-8.871,4.874-3.242,4.056-5.633,9.841-6.728,16.278Z" transform="translate(2756.172 -10045.44)"/></g><g class="d" transform="translate(14.044 2.298)"><g transform="translate(0.412 0.371)"><path class="a" d="M-2639.516,9795.529c26.621-24.086,62.181-16.691,62.181-16.691s36.006,4.775,53.173,36.309c13.511,24.828,10.686,50.863,5.584,68.949-5.047,17.92-17.562,32.719-34.27,40a87.331,87.331,0,0,1-50.163,5.9l-.029-.006a87.366,87.366,0,0,1-45.412-22.16,61.6,61.6,0,0,1-19.129-49.088C-2666.414,9839.984-2660.475,9814.49-2639.516,9795.529Z" transform="translate(2667.707 -9777.768)"/></g><path class="b" d="M-2589.551,9929.836a93.285,93.285,0,0,1-15.638-1.342,87.569,87.569,0,0,1-45.652-22.267c-13.423-12.456-20.441-30.467-19.258-49.415,1.144-18.363,6.966-44.283,28.2-63.5l.274.3-.274-.3c26.471-23.948,62.18-16.858,62.538-16.784.332.043,36.378,5.159,53.448,36.512,13.692,25.161,10.614,51.55,5.618,69.257-5.149,18.277-17.723,32.953-34.5,40.268A86.146,86.146,0,0,1-2589.551,9929.836Zm-51.8-135.9c-21.029,19.025-26.8,44.729-27.933,62.938-1.167,18.7,5.757,36.479,19,48.764a86.738,86.738,0,0,0,45.2,22.056,86.674,86.674,0,0,0,49.961-5.865c16.552-7.216,28.958-21.7,34.04-39.74,4.953-17.561,8.012-43.724-5.549-68.645-16.867-30.979-52.51-36.051-52.868-36.1-.381-.079-35.7-7.076-61.851,16.589Z" transform="translate(2670.227 -9775.496)"/></g><g transform="translate(19.254 21.621)"><path class="b" d="M-2566.989,10018.141a86.346,86.346,0,0,1-14.452-1.242l-.141-.027a79.806,79.806,0,0,1-39.3-18.236,49.575,49.575,0,0,1-17.39-40.387c.794-14.689,5.553-35.389,23.708-50.59,22.315-18.674,51.7-13.3,53.865-12.875,2.186.311,31.693,4.955,46.58,29.955,12.125,20.375,9.763,41.479,5.649,55.594a49.585,49.585,0,0,1-29.745,32.363A77.656,77.656,0,0,1-2566.989,10018.141Zm-13.467-6.373a74.545,74.545,0,0,0,40.316-3.932,44.379,44.379,0,0,0,26.644-28.959h0c3.825-13.121,6.042-32.7-5.122-51.455-13.821-23.213-42.589-27.424-42.878-27.463l-.17-.029c-.284-.057-28.827-5.592-49.546,11.744-16.715,14-21.1,33.211-21.843,46.865a44.38,44.38,0,0,0,15.587,36.146,74.664,74.664,0,0,0,36.872,17.059Z" transform="translate(2638.346 -9893.745)"/></g><g transform="translate(21.869 24.28)"><path class="b" d="M-2497.6,9993.22a47.2,47.2,0,0,1-28.195,30.66,77.256,77.256,0,0,1-41.826,4.06l-.028-.006a77.386,77.386,0,0,1-38.143-17.656,47.211,47.211,0,0,1-16.488-38.266c.786-14.534,5.474-34.241,22.776-48.729,21.982-18.395,51.749-12.3,51.749-12.3s30.106,4.086,44.771,28.712C-2491.439,9959.084-2493.524,9979.249-2497.6,9993.22Z" transform="translate(2622.344 -9910.015)"/></g><g class="d" transform="translate(29.816 34.746)"><path class="a" d="M-2561.1,10025.2c-1.007-8.274,4.368-22.238,15.37-29.778,15.661-10.735,28.443-9.812,31.381-7.564,4.879,3.733,2.548,13.806-12.014,20.2-11.7,5.134-17.934,16.137-21.24,19.767S-2560.095,10033.465-2561.1,10025.2Z" transform="translate(2563.262 -9984.403)"/><path class="b" d="M-2565.421,10022.682a9.167,9.167,0,0,1-2.785-.416c-1.75-.558-4.775-2.229-5.375-7.165-1.111-9.135,4.783-23.856,16.243-31.71,16.246-11.135,30.015-10.381,33.777-7.5a8.232,8.232,0,0,1,3.038,7.751c-.729,6.048-6.512,12.006-15.471,15.937-8.747,3.839-14.271,11.142-17.926,15.976-1,1.321-1.865,2.463-2.623,3.3A12.7,12.7,0,0,1-2565.421,10022.682Zm34.11-44.537c-5.2,0-13.694,1.74-23.717,8.611-9.875,6.768-15.468,19.862-14.5,27.847.252,2.064,1.088,3.3,2.561,3.767,2.363.747,5.856-.579,7.4-2.273.634-.7,1.446-1.77,2.387-3.014,3.673-4.856,9.821-12.984,19.542-17.251,8.974-3.939,12.63-9.136,13.058-12.687a4.19,4.19,0,0,0-1.464-4.017C-2526.667,9978.642-2528.515,9978.145-2531.311,9978.145Z" transform="translate(2573.713 -9974.061)"/></g><g class="d" transform="translate(86.367 32.162)"><path class="a" d="M-2213.018,9973.891c3.757-3.451,11.236-3.931,17.89-1.855,10.733,3.348,12.008,10.731,11.393,12.813-.912,3.079-5.76,5.891-13.624,2.809-6.216-2.437-10.93-3.691-13.5-3.666C-2216.116,9984.05-2216.225,9976.844-2213.018,9973.891Z" transform="translate(2217.207 -9968.748)"/><path class="b" d="M-2201.423,9980.531a19.686,19.686,0,0,1-7.113-1.471c-8.074-3.163-11.526-3.524-12.676-3.524h-.133a5.9,5.9,0,0,1-5.754-3.854,9.421,9.421,0,0,1,2.267-9.792h0c4.133-3.8,12.124-4.723,19.88-2.3,11.184,3.486,13.818,11.712,12.743,15.341a7.566,7.566,0,0,1-4.057,4.5A11.555,11.555,0,0,1-2201.423,9980.531Zm-19.786-9.086c3.673,0,9.719,2.066,14.163,3.808,4.834,1.9,7.7,1.126,8.986.5a3.521,3.521,0,0,0,1.935-1.987c.255-.858-.294-7.242-10.041-10.28-6.213-1.94-12.9-1.346-15.9,1.409h0a5.309,5.309,0,0,0-1.232,5.28,1.859,1.859,0,0,0,1.953,1.271Z" transform="translate(2227.639 -9958.251)"/></g><g transform="translate(19.254 21.621)"><path class="b" d="M-2566.989,10018.141a86.346,86.346,0,0,1-14.452-1.242l-.141-.027a79.806,79.806,0,0,1-39.3-18.236,49.575,49.575,0,0,1-17.39-40.387c.794-14.689,5.553-35.389,23.708-50.59,22.315-18.674,51.7-13.3,53.865-12.875,2.186.311,31.693,4.955,46.58,29.955,12.125,20.375,9.763,41.479,5.649,55.594a49.585,49.585,0,0,1-29.745,32.363A77.65,77.65,0,0,1-2566.989,10018.141Zm-13.465-6.373a74.545,74.545,0,0,0,40.316-3.932,44.379,44.379,0,0,0,26.644-28.959h0c3.825-13.121,6.043-32.7-5.121-51.455-13.821-23.213-42.589-27.424-42.879-27.463l-.17-.029c-.283-.057-28.827-5.592-49.546,11.744-16.715,14-21.1,33.211-21.843,46.865a44.381,44.381,0,0,0,15.587,36.146,74.667,74.667,0,0,0,36.872,17.059Z" transform="translate(2638.346 -9893.745)"/></g><g class="c" transform="translate(34.557 131.686)"><path class="b" d="M-2443.948,10570.372a47.34,47.34,0,0,1-11.066,8.472,46.89,46.89,0,0,1-5.817,2.758,73.809,73.809,0,0,1-7.1,2.4,78.128,78.128,0,0,1-34.728,1.659l-.026-.006a77.8,77.8,0,0,1-35.7-15.628,61.648,61.648,0,0,1-6.321,6.941,87.4,87.4,0,0,0,44.565,21.388l.033.012a88.461,88.461,0,0,0,34.832-.856,86.8,86.8,0,0,0,11.752-3.588q1.844-.706,3.575-1.465a60.328,60.328,0,0,0,27.976-25.157A95.534,95.534,0,0,0-2443.948,10570.372Z" transform="translate(2544.7 -10567.301)"/></g><g transform="translate(14.043 2.299)"><g transform="translate(0.41 0.366)"><path class="a" d="M-2524.175,9815.123c-17.173-31.535-53.177-36.311-53.177-36.311s-35.553-7.395-62.176,16.693c-20.958,18.963-26.9,44.457-28.071,63.215-1.155,18.58,5.767,36.693,19.134,49.09a87.379,87.379,0,0,0,45.407,22.16l.034.006a87.341,87.341,0,0,0,50.164-5.9c16.707-7.285,29.219-22.086,34.269-40C-2513.486,9865.992-2510.664,9839.961-2524.175,9815.123Zm-11.383,67.439a47.2,47.2,0,0,1-28.195,30.66,77.266,77.266,0,0,1-41.826,4.059l-.028-.006a77.393,77.393,0,0,1-38.143-17.656,47.206,47.206,0,0,1-16.488-38.266c.786-14.533,5.474-34.24,22.776-48.729,21.982-18.395,51.749-12.3,51.749-12.3s30.106,4.088,44.771,28.713C-2529.4,9848.428-2531.486,9868.59-2535.558,9882.563Z" transform="translate(2667.722 -9777.742)"/></g><path class="b" d="M-2589.565,9929.84a93.164,93.164,0,0,1-15.627-1.338,87.591,87.591,0,0,1-45.65-22.27c-13.421-12.447-20.443-30.458-19.263-49.416,1.144-18.358,6.964-44.274,28.2-63.492,26.469-23.947,62.176-16.862,62.534-16.79.333.043,36.378,5.16,53.451,36.519h0c13.7,25.163,10.614,51.549,5.618,69.252-5.15,18.276-17.725,32.953-34.5,40.265A86.16,86.16,0,0,1-2589.565,9929.84Zm-2.7-153.52c-12.733,0-32.7,2.795-49.086,17.616-21.036,19.033-26.8,44.731-27.937,62.938-1.164,18.712,5.763,36.488,19,48.767a86.738,86.738,0,0,0,45.2,22.058,86.728,86.728,0,0,0,49.966-5.867c16.547-7.217,28.955-21.7,34.038-39.739,4.955-17.557,8.015-43.718-5.548-68.64h0c-16.87-30.984-52.513-36.056-52.871-36.1A70.37,70.37,0,0,0-2592.267,9776.32Zm-1.4,140.692a84.008,84.008,0,0,1-14.076-1.21,77.669,77.669,0,0,1-38.368-17.758,47.383,47.383,0,0,1-16.63-38.6c.77-14.253,5.373-34.325,22.922-49.02,21.88-18.31,51.792-12.45,52.092-12.387.276.036,30.445,4.392,45.041,28.9,11.72,19.691,9.419,40.151,5.425,53.849h0a47.389,47.389,0,0,1-28.437,30.927A75.534,75.534,0,0,1-2593.67,9917.013Zm-5.827-119.093c-10.647,0-26.695,2.17-39.8,13.14-17.323,14.5-21.867,34.346-22.629,48.437a46.57,46.57,0,0,0,16.347,37.935,76.848,76.848,0,0,0,37.946,17.563,76.727,76.727,0,0,0,41.635-4.028,46.572,46.572,0,0,0,27.951-30.4h0c3.948-13.542,6.226-33.762-5.344-53.2-14.392-24.167-44.176-28.477-44.475-28.518A65.2,65.2,0,0,0-2599.5,9797.92Z" transform="translate(2670.233 -9775.501)"/></g><g class="c" transform="translate(14.455 68.202)"><path class="b" d="M-2515.1,10178.8a113.313,113.313,0,0,1-3.491,17.282,62.652,62.652,0,0,1-21.335,32.237,47.521,47.521,0,0,1-23.825,20.42,77.2,77.2,0,0,1-41.826,4.059l-.026-.007a77.339,77.339,0,0,1-38.146-17.654,47.453,47.453,0,0,1-16.184-29.988,62.188,62.188,0,0,1-6.831-19.374c-.4,2.936-.66,5.771-.83,8.471-1.157,18.582,5.765,36.694,19.132,49.1a87.391,87.391,0,0,0,45.408,22.158l.033,0a87.363,87.363,0,0,0,50.16-5.9,61.6,61.6,0,0,0,34.27-40C-2515.409,10208.345-2513.115,10194-2515.1,10178.8Z" transform="translate(2667.714 -10178.8)"/></g><g transform="translate(11.837 0)"><path class="b" d="M-2600.856,9920.277a95.708,95.708,0,0,1-16-1.371l-.1-.021a89.624,89.624,0,0,1-46.683-22.807c-13.908-12.9-21.184-31.551-19.966-51.172,1.168-18.766,7.136-45.275,28.927-64.99,26.876-24.314,61.864-17.838,64.368-17.332,2.533.354,37.7,5.807,55.035,37.641h0c14.05,25.818,10.911,52.809,5.8,70.906-5.331,18.914-18.357,34.111-35.739,41.689A88.4,88.4,0,0,1-2600.856,9920.277Zm-2.713-153.523c-12.337,0-31.738,2.7-47.6,17.051-20.485,18.535-26.106,43.643-27.216,61.438-1.123,18.049,5.549,35.184,18.3,47.012a84.547,84.547,0,0,0,44.068,21.5l.1.018a84.494,84.494,0,0,0,48.617-5.734c15.939-6.949,27.893-20.914,32.8-38.316,4.844-17.162,7.845-42.717-5.363-66.986-16.307-29.947-50.879-34.926-51.226-34.971l-.186-.033A69.04,69.04,0,0,0-2603.569,9766.754Zm-1.394,140.7a86.548,86.548,0,0,1-14.452-1.24l-.142-.029a79.8,79.8,0,0,1-39.3-18.236,49.578,49.578,0,0,1-17.39-40.387c.794-14.689,5.553-35.389,23.708-50.59,22.315-18.674,51.7-13.3,53.865-12.875,2.19.311,31.7,4.959,46.58,29.957,12.125,20.373,9.763,41.477,5.649,55.592h0A49.577,49.577,0,0,1-2576.191,9902,77.693,77.693,0,0,1-2604.963,9907.449Zm-13.465-6.373a74.545,74.545,0,0,0,40.316-3.932,44.375,44.375,0,0,0,26.644-28.959h0c3.825-13.121,6.043-32.7-5.121-51.457-13.859-23.273-42.588-27.42-42.877-27.459l-.173-.031c-.282-.057-28.827-5.592-49.546,11.746-16.715,13.994-21.1,33.209-21.843,46.863a44.38,44.38,0,0,0,15.587,36.146,74.683,74.683,0,0,0,36.872,17.059Z" transform="translate(2683.737 -9761.432)"/></g><g transform="translate(19.254 21.621)"><path class="b" d="M-2566.989,10018.141a86.346,86.346,0,0,1-14.452-1.242l-.141-.027a79.806,79.806,0,0,1-39.3-18.236,49.575,49.575,0,0,1-17.39-40.387c.794-14.689,5.553-35.389,23.708-50.59,22.315-18.674,51.7-13.3,53.865-12.875,2.186.311,31.693,4.955,46.58,29.955,12.125,20.375,9.763,41.479,5.649,55.594a49.585,49.585,0,0,1-29.745,32.363A77.65,77.65,0,0,1-2566.989,10018.141Zm-13.465-6.373a74.545,74.545,0,0,0,40.316-3.932,44.379,44.379,0,0,0,26.644-28.959h0c3.825-13.121,6.043-32.7-5.121-51.455-13.821-23.213-42.589-27.424-42.879-27.463l-.17-.029c-.283-.057-28.827-5.592-49.546,11.744-16.715,14-21.1,33.211-21.843,46.865a44.381,44.381,0,0,0,15.587,36.146,74.667,74.667,0,0,0,36.872,17.059Z" transform="translate(2638.346 -9893.745)"/></g><g transform="translate(156.408 74.83)"><g transform="translate(0.407 0.425)"><path class="a" d="M-1795.866,10245.37a42.512,42.512,0,0,0-.144,14.072,22.35,22.35,0,0,0,4.391,10.619,9.433,9.433,0,0,0,5.623,3.443c7.862,1.337,16.194-9.088,18.609-23.288s-2-26.8-9.863-28.137a9.43,9.43,0,0,0-6.445,1.392,22.319,22.319,0,0,0-7.656,8.575A42.3,42.3,0,0,0-1795.866,10245.37Z" transform="translate(1796.527 -10221.965)"/></g><path class="b" d="M-1786.7,10271.838a8.637,8.637,0,0,1-1.451-.123,9.757,9.757,0,0,1-5.866-3.582,22.631,22.631,0,0,1-4.481-10.812,43.034,43.034,0,0,1,.144-14.207,43,43,0,0,1,4.561-13.457,22.652,22.652,0,0,1,7.806-8.73,9.746,9.746,0,0,1,6.719-1.441c8.073,1.373,12.646,14.209,10.2,28.609-1.178,6.936-3.788,13.207-7.345,17.658C-1779.584,10269.73-1783.186,10271.838-1786.7,10271.838Zm5.978-51.654a9.46,9.46,0,0,0-4.85,1.453,21.827,21.827,0,0,0-7.507,8.42,42.212,42.212,0,0,0-4.469,13.2,42.192,42.192,0,0,0-.144,13.936,21.836,21.836,0,0,0,4.3,10.422,8.963,8.963,0,0,0,5.38,3.3c3.647.627,7.541-1.393,10.96-5.668,3.472-4.348,6.021-10.484,7.178-17.287,2.375-13.955-1.9-26.367-9.528-27.664A7.338,7.338,0,0,0-1780.718,10220.184Z" transform="translate(1799.016 -10219.36)"/></g><g class="c" transform="translate(156.817 94.259)"><path class="b" d="M-1795.856,10342.663a42.525,42.525,0,0,0-.144,14.072,22.349,22.349,0,0,0,4.391,10.618,9.442,9.442,0,0,0,5.623,3.443c7.862,1.336,16.194-9.088,18.609-23.29.26-1.528.438-3.03.544-4.506-2.6,8.31-9.538,13.779-16.566,12.586a11.9,11.9,0,0,1-5.744-2.725,16.3,16.3,0,0,1-4.876-7.765,21.248,21.248,0,0,1-.869-6.837A44.981,44.981,0,0,0-1795.856,10342.663Z" transform="translate(1796.518 -10338.261)"/></g><g transform="translate(144.349 72.789)"><g transform="translate(0.41 0.403)"><path class="a" d="M-1869.641,10232.75c-2.415,14.2,2,26.793,9.868,28.133l12.056,2.051a9.428,9.428,0,0,1-5.623-3.443,22.308,22.308,0,0,1-4.391-10.621,42.507,42.507,0,0,1,.144-14.07,42.479,42.479,0,0,1,4.515-13.328,22.331,22.331,0,0,1,7.656-8.575,9.434,9.434,0,0,1,6.445-1.391l-12.056-2.05C-1858.892,10208.124-1867.226,10218.551-1869.641,10232.75Z" transform="translate(1870.301 -10209.341)"/></g><path class="b" d="M-1849.885,10261.274l-12.056-2.051c-3.958-.673-7.192-4.051-9.107-9.509-1.885-5.378-2.276-12.157-1.1-19.094s3.789-13.209,7.347-17.662c3.613-4.521,7.781-6.64,11.739-5.967l12.056,2.05-.137.807a8.976,8.976,0,0,0-6.167,1.338,21.844,21.844,0,0,0-7.507,8.422,42.225,42.225,0,0,0-4.469,13.2,42.187,42.187,0,0,0-.144,13.934,21.843,21.843,0,0,0,4.3,10.425,8.978,8.978,0,0,0,5.373,3.3h.006Zm-4.621-53.582c-3.26,0-6.641,2.011-9.652,5.783-3.472,4.347-6.023,10.486-7.179,17.286h0c-1.157,6.8-.78,13.438,1.061,18.687,1.812,5.167,4.822,8.354,8.473,8.974l8.407,1.432a11.614,11.614,0,0,1-2.353-2.156,22.639,22.639,0,0,1-4.481-10.813,43.046,43.046,0,0,1,.144-14.208,43.02,43.02,0,0,1,4.561-13.456,22.631,22.631,0,0,1,7.806-8.729,11.535,11.535,0,0,1,2.933-1.257l-8.407-1.43A7.326,7.326,0,0,0-1854.506,10207.692Z" transform="translate(1872.813 -10206.87)"/></g><g class="c" transform="translate(144.763 97.55)"><path class="b" d="M-1869.774,10358.4c-2.064,13.811,2.329,25.877,10.02,27.187l12.057,2.05a9.422,9.422,0,0,1-5.623-3.443,22.3,22.3,0,0,1-4.391-10.618c-.41-2.416.222-12.254.314-15.009l-1.726,1.684a6.656,6.656,0,0,1-10.594-1.738C-1869.738,10358.481-1869.755,10358.433-1869.774,10358.4Z" transform="translate(1870.282 -10358.4)"/></g><g transform="translate(154.203 72.626)"><path class="b" d="M-1797.972,10262.762a10.75,10.75,0,0,1-1.835-.156,12.067,12.067,0,0,1-7.187-4.338,24.809,24.809,0,0,1-4.966-11.863,45.27,45.27,0,0,1,.144-14.946,45.255,45.255,0,0,1,4.8-14.154,24.809,24.809,0,0,1,8.617-9.563,12.058,12.058,0,0,1,8.21-1.716c9.429,1.6,14.7,15.287,12,31.151-1.242,7.3-4.01,13.926-7.8,18.667C-1789.588,10260.358-1793.786,10262.762-1797.972,10262.762Zm5.974-51.655a7.312,7.312,0,0,0-3.735,1.142,19.974,19.974,0,0,0-6.7,7.59,39.97,39.97,0,0,0-4.226,12.5,39.964,39.964,0,0,0-.144,13.2,19.951,19.951,0,0,0,3.813,9.37,6.851,6.851,0,0,0,4.062,2.554c2.783.472,6.015-1.3,8.867-4.871,3.244-4.059,5.633-9.839,6.726-16.278,2.353-13.84-2.093-24.162-7.724-25.12A6.117,6.117,0,0,0-1792,10211.106Z" transform="translate(1812.513 -10205.873)"/></g><g transform="translate(142.145 70.58)"><path class="b" d="M-1861.539,10252.137h0l-12.056-2.049c-4.783-.815-8.626-4.7-10.819-10.955-2.008-5.724-2.43-12.9-1.189-20.191s4.01-13.928,7.8-18.668c4.136-5.176,9.048-7.587,13.833-6.765l12.056,2.05-.876,5.154h-.008a6.814,6.814,0,0,0-4.664,1.063,19.975,19.975,0,0,0-6.7,7.589,39.976,39.976,0,0,0-4.226,12.5,39.95,39.95,0,0,0-.144,13.2,19.967,19.967,0,0,0,3.812,9.369,6.85,6.85,0,0,0,4.062,2.553h0Zm-4.214-53.549c-2.565,0-5.419,1.759-7.968,4.95-3.244,4.06-5.633,9.84-6.728,16.279h0c-1.094,6.438-.752,12.685.969,17.586,1.513,4.312,3.977,7.056,6.76,7.53l2.249.383a27.764,27.764,0,0,1-3.221-9.379,45.264,45.264,0,0,1,.144-14.945,45.255,45.255,0,0,1,4.8-14.155,27.818,27.818,0,0,1,6.142-7.791l-2.248-.382A4.5,4.5,0,0,0-1865.753,10198.588Zm-17.274,20.785h0Z" transform="translate(1886.302 -10193.351)"/></g></g><g transform="translate(-3316.21 9943.728)"><g transform="translate(0.577 0.554)"><path class="a" d="M-2419.278,10880.4l-6.672,7.626s11.031,9.545,11.461,9.268,7.157-7.491,6.924-7.656S-2419.278,10880.4-2419.278,10880.4Z" transform="translate(2425.95 -10880.4)"/></g><g transform="translate(0)"><path class="b" d="M-2417.391,10894.866c-.475,0-2.153-1.03-11.778-9.36l-.311-.269,7.2-8.23.306.241c3.94,3.113,11.454,9.05,11.7,9.228l.171.126.005.229c-.015.738-7.046,7.932-7.117,7.975A.3.3,0,0,1-2417.391,10894.866Zm-10.933-9.706c3.784,3.27,9.623,8.183,10.793,8.849.948-.887,5.561-5.866,6.486-7.086-1.6-1.256-9.262-7.307-11.135-8.785Z" transform="translate(2429.48 -10877.007)"/></g></g><g transform="translate(-3370.493 9898.387)"><g transform="translate(0.406 0.408)"><path class="a" d="M-2758.907,10631.3a8.237,8.237,0,0,0,2.141,7.957c10.007,9.968,31.292,24.8,42.259,32.218a8.28,8.28,0,0,0,11.408-2.1c.621-.879,1.247-1.753,1.871-2.613,2.784-3.844,5.569-7.5,8.187-10.843,3.2-4.073,6.164-7.661,8.579-10.528a8.28,8.28,0,0,0-1.84-12.3l-46.039-29.729a8.273,8.273,0,0,0-10.366,1.11C-2753.312,10615.251-2757.372,10625.563-2758.907,10631.3Z" transform="translate(2759.188 -10602.036)"/></g><g transform="translate(0 0)"><path class="b" d="M-2711.983,10671.187a8.61,8.61,0,0,1-4.833-1.474c-11.55-7.811-32.4-22.391-42.318-32.267a8.66,8.66,0,0,1-2.247-8.352c1.433-5.356,5.459-15.986,16.3-27a8.713,8.713,0,0,1,10.88-1.167l46.039,29.729a8.7,8.7,0,0,1,3.883,6.019,8.683,8.683,0,0,1-1.953,6.883c-3.046,3.616-5.848,7.056-8.571,10.52-2.915,3.72-5.667,7.363-8.177,10.828-.623.862-1.249,1.734-1.87,2.613A8.7,8.7,0,0,1-2711.983,10671.187Zm-26.941-70.839a7.818,7.818,0,0,0-5.574,2.312c-10.713,10.883-14.682,21.362-16.1,26.64h0a7.84,7.84,0,0,0,2.036,7.562c9.866,9.828,30.674,24.373,42.2,32.17a7.917,7.917,0,0,0,10.844-1.993c.623-.881,1.25-1.756,1.875-2.619,2.516-3.476,5.275-7.128,8.2-10.854,2.729-3.472,5.538-6.918,8.589-10.541a7.869,7.869,0,0,0,1.769-6.237,7.867,7.867,0,0,0-3.519-5.45l-46.039-29.729A7.983,7.983,0,0,0-2738.925,10600.348Z" transform="translate(2761.675 -10599.538)"/></g></g><g class="c" transform="translate(-3370.087 9921.797)"><path class="b" d="M-2756.75,10742.8a48.615,48.615,0,0,0-2.157,6.25,8.236,8.236,0,0,0,2.141,7.956c10.007,9.968,31.292,24.8,42.259,32.218a8.281,8.281,0,0,0,11.408-2.095c.621-.879,1.247-1.754,1.871-2.614l.034-.05q.5-.7,1.01-1.388c.3-.411.6-.817.9-1.222.212-.289.425-.57.634-.855.425-.57.843-1.131,1.267-1.687q.941-1.254,1.876-2.466,1.25-1.63,2.466-3.177c3.2-4.073,6.164-7.661,8.579-10.529a8.281,8.281,0,0,0-.722-11.432c-3.759,4.509-8.5,10.4-13.336,16.944-2.522-2.272-6.688-1.493-8.888,1.73l-.257.383a6.545,6.545,0,0,0-.635,6.57,8.267,8.267,0,0,1-5.388-1.388c-10.968-7.419-32.257-22.252-42.259-32.218A6.79,6.79,0,0,1-2756.75,10742.8Z" transform="translate(2759.188 -10742.799)"/></g><g transform="translate(-3372.702 9896.187)"><path class="b" d="M-2723.3,10662.132a10.78,10.78,0,0,1-6.059-1.848c-11.608-7.849-32.587-22.514-42.64-32.53a10.874,10.874,0,0,1-2.825-10.486c1.489-5.565,5.66-16.6,16.865-27.978a10.914,10.914,0,0,1,13.643-1.475l46.042,29.731a10.908,10.908,0,0,1,4.868,7.544,10.9,10.9,0,0,1-2.446,8.632h0c-4.709,5.584-11.742,14.248-18.5,23.813A10.958,10.958,0,0,1-2723.3,10662.132Zm-26.933-70.838a5.608,5.608,0,0,0-4,1.658c-10.362,10.521-14.184,20.595-15.54,25.662a5.633,5.633,0,0,0,1.464,5.43c9.748,9.712,30.422,24.157,41.878,31.9a5.7,5.7,0,0,0,7.806-1.435c6.866-9.715,14-18.5,18.776-24.167a5.664,5.664,0,0,0,1.273-4.487,5.667,5.667,0,0,0-2.533-3.923l-46.042-29.732A5.643,5.643,0,0,0-2750.233,10591.294Zm52.384,40.738h0Z" transform="translate(2775.19 -10586.078)"/></g><g transform="translate(-3315.015 9943.763)"><g transform="translate(0.407 0.411)"><path class="a" d="M-2361.78,10912.429c-9.969-4.751-32.123-16.26-47.335-31.23-2.507-2.467-6.816-1.723-9.063,1.573l-.26.382a6.255,6.255,0,0,0,.273,7.844c15.472,15.924,38.483,29.839,48.449,35.5,2.668,1.517,6.283.277,8.014-2.746l1.86-3.25C-2358.086,10917.445-2358.966,10913.769-2361.78,10912.429Z" transform="translate(2419.679 -10879.737)"/></g><g transform="translate(0)"><path class="b" d="M-2369.3,10925.458a5.437,5.437,0,0,1-2.7-.706c-9.385-5.334-32.9-19.475-48.541-35.575a6.659,6.659,0,0,1-.317-8.356l.26-.382a7.154,7.154,0,0,1,5.167-3.186,5.563,5.563,0,0,1,4.518,1.55c15.374,15.13,38.146,26.826,47.224,31.154h0a5.331,5.331,0,0,1,2.8,3.274,6.8,6.8,0,0,1-.678,5.371l-1.859,3.248A6.924,6.924,0,0,1-2369.3,10925.458Zm-45.529-47.421c-.173,0-.348.008-.526.025a6.344,6.344,0,0,0-4.572,2.831l-.26.382a5.846,5.846,0,0,0,.227,7.328c15.57,16.023,39.006,30.119,48.36,35.435,2.485,1.414,5.831.248,7.458-2.595l1.859-3.248a5.984,5.984,0,0,0,.608-4.724,4.533,4.533,0,0,0-2.37-2.782c-9.113-4.343-31.982-16.089-47.444-31.31A4.718,4.718,0,0,0-2414.825,10878.037Z" transform="translate(2422.17 -10877.224)"/></g></g><g transform="translate(-3317.217 9941.56)"><path class="b" d="M-2380.578,10916.387a7.626,7.626,0,0,1-3.783-.99c-9.466-5.379-33.193-19.653-49.034-35.957a8.866,8.866,0,0,1-.559-11.135l.261-.384a9.357,9.357,0,0,1,6.775-4.138,7.806,7.806,0,0,1,6.282,2.175c15.135,14.9,37.648,26.455,46.625,30.733h0a7.512,7.512,0,0,1,3.953,4.607,9.009,9.009,0,0,1-.869,7.126l-1.86,3.249A9.122,9.122,0,0,1-2380.578,10916.387Zm-45.521-47.422a3.039,3.039,0,0,0-.309.017,4.194,4.194,0,0,0-2.965,1.878l-.261.383a3.7,3.7,0,0,0-.013,4.547c15.372,15.821,38.6,29.784,47.866,35.053,1.407.8,3.446-.011,4.453-1.773l1.86-3.249a3.771,3.771,0,0,0,.417-2.966,2.328,2.328,0,0,0-1.213-1.45c-9.215-4.393-32.342-16.273-48.042-31.729A2.493,2.493,0,0,0-2426.1,10868.965Z" transform="translate(2435.644 -10863.742)"/></g><g class="c" transform="translate(-3314.604 9944.844)"><path class="b" d="M-2418.154,10886.2l-.261.384a6.26,6.26,0,0,0,.269,7.843c15.477,15.92,38.488,29.842,48.451,35.507,2.672,1.515,6.281.276,8.01-2.749l1.865-3.253c.051-.085.1-.175.137-.258a5.6,5.6,0,0,1-5.9.447c-9.963-5.666-32.979-19.579-48.451-35.507a5.689,5.689,0,0,1-1.451-4.775A7.048,7.048,0,0,0-2418.154,10886.2Z" transform="translate(2419.657 -10883.84)"/></g><g transform="translate(-3337.807 9932.984)"><path class="b" d="M-2531.9,10813.5c-1.815,2.629-3.64,5.3-5.51,7.93s-3.776,5.248-5.759,7.825-4.033,5.112-6.3,7.559a36.323,36.323,0,0,1-3.737,3.557,13.217,13.217,0,0,1-2.481,1.62,6.348,6.348,0,0,1-1.9.594,4.006,4.006,0,0,1-.654.04,3.725,3.725,0,0,1-.742-.072,4.127,4.127,0,0,1-1.555-.639,2.613,2.613,0,0,1-.626-3.644,2.613,2.613,0,0,1,3.644-.626.882.882,0,0,0-.649-.181.977.977,0,0,0,.393-.1,8.415,8.415,0,0,0,1.6-.924,31.734,31.734,0,0,0,3.422-2.883c2.242-2.131,4.386-4.474,6.479-6.859s4.131-4.849,6.139-7.336,3.976-5.008,5.974-7.548a1.413,1.413,0,0,1,1.986-.237,1.413,1.413,0,0,1,.292,1.91Z" transform="translate(2561.647 -10811.273)"/></g><g transform="translate(-3365.091 9905.742)"><g transform="translate(0 0)"><path class="b" d="M-2726.888,10677.053a1.714,1.714,0,0,1-.952-.289,1.731,1.731,0,0,1-.49-2.4l9.5-14.381a5.14,5.14,0,0,1,6.942-1.337,1.7,1.7,0,0,0,2.3-.267l8.5-13.034a1.733,1.733,0,0,1,2.4-.506,1.735,1.735,0,0,1,.505,2.4l-8.5,13.035a5.134,5.134,0,0,1-6.956,1.36,1.7,1.7,0,0,0-2.3.259l-9.5,14.382A1.749,1.749,0,0,1-2726.888,10677.053Z" transform="translate(2728.617 -10644.56)"/></g></g><g transform="translate(-3342.893 9924.238)"><g transform="translate(4.638 2.932)"><path class="e" d="M-2561.483,10780.9c-.42.64-2.907,6.4-2.907,6.4s1.637,1.074,3.647,2.39c2.511,1.648,6.25.381,8.353-2.825s1.773-7.142-.738-8.788l-3.647-2.391S-2560.8,10779.85-2561.483,10780.9Z" transform="translate(2564.39 -10775.679)"/></g><g transform="translate(3.254 1.545)"><path class="b" d="M-2565.356,10784.682a5.823,5.823,0,0,1-3.23-.94l-3.646-2.39a1.385,1.385,0,0,1-.511-1.707c.763-1.765,2.583-5.937,3.021-6.606h0c.719-1.1,4.182-4.706,4.868-5.419a1.384,1.384,0,0,1,1.755-.2l3.647,2.392a6.233,6.233,0,0,1,2.719,4.85,9.356,9.356,0,0,1-1.584,5.854A8.716,8.716,0,0,1-2565.356,10784.682Zm-4.384-5,2.672,1.751c1.869,1.226,4.755.136,6.437-2.427a6.579,6.579,0,0,0,1.139-4.1,3.535,3.535,0,0,0-1.479-2.767l-2.683-1.76c-1.49,1.566-3.368,3.6-3.75,4.182C-2567.636,10774.926-2568.7,10777.3-2569.741,10779.682Zm1.173-5.883h0Z" transform="translate(2572.858 -10767.195)"/></g><g transform="translate(0 0)"><ellipse class="e" cx="6.943" cy="5.437" rx="6.943" ry="5.437" transform="matrix(0.548, -0.836, 0.836, 0.548, 0, 11.612)"/></g><g transform="translate(1.141 0.837)"><path class="b" d="M-2579.823,10778.671a5.823,5.823,0,0,1-3.23-.94c-3.146-2.062-3.656-6.863-1.138-10.7h0c2.52-3.841,7.128-5.284,10.272-3.224s3.656,6.864,1.138,10.7A8.715,8.715,0,0,1-2579.823,10778.671Zm-2.052-10.132c-1.682,2.563-1.528,5.646.34,6.871s4.755.136,6.437-2.426,1.528-5.646-.34-6.871-4.755-.139-6.437,2.426Z" transform="translate(2585.792 -10762.863)"/></g></g></g></svg>