<svg xmlns="http://www.w3.org/2000/svg" width="325.242" height="324.818" viewBox="0 0 325.242 324.818"><defs><style>.a{fill:#371a45;}.b{fill:#fff;}.c{opacity:0.35;}.d{opacity:0.7;}.e{fill:#111a28;}.f{opacity:0.5;}.g{fill:#c5d3e2;}.h{opacity:0.6;}.i{fill:#ad82ff;}.j{fill:#db2c2c;}.k{fill:#22a7f0;}.l{opacity:0.15;}.m{opacity:0.2;}.n{fill:#102770;}.o{opacity:0.3;}.p{fill:#fff2bd;}</style></defs><g transform="translate(2.621)"><path class="a" d="M987.258,9760.911c46.755-28.3,78.158-80.732,78.158-140.747,0-90.042-70.678-163.035-157.863-163.035S749.69,9530.122,749.69,9620.164c0,60.015,31.4,112.444,78.159,140.747,24.1-.448,51.138-.7,79.7-.7S963.158,9760.472,987.258,9760.911Z" transform="translate(-749.69 -9457.129)"/></g><g transform="translate(60.153 69.624)"><path class="b" d="M1418.139,10218.932a98.907,98.907,0,0,0-14.6-25.783v-10.162a19.369,19.369,0,0,0-5.919-13.746l.127-1.075a13.981,13.981,0,0,0-3.52-11.052,15.453,15.453,0,0,0-11.568-5.117h-.443q.562-.719,1.1-1.449c.458-.516.835-.977,1.151-1.4a70.33,70.33,0,0,0,10.594-20.9,19.786,19.786,0,0,0,16.919-20.512l-.686-14.564a19.793,19.793,0,0,0-19.025-18.844,77.249,77.249,0,0,0-69.032-46.678c-.646-.016-1.3-.024-1.947-.024a77.178,77.178,0,0,0-73.309,53.5,19.792,19.792,0,0,0-17.194,20.553l.686,14.564a19.757,19.757,0,0,0,19.091,18.847,76.992,76.992,0,0,0,10.012,16.917h-.367a15.45,15.45,0,0,0-11.568,5.116,13.981,13.981,0,0,0-3.577,10.465,22.107,22.107,0,0,0-3.821,3.952,18.979,18.979,0,0,0-3.921,11.457v12.975a98.306,98.306,0,0,0-12.486,22.971c-4.761,12.576-4.972,22.454-.628,29.357h-1.455a158.357,158.357,0,0,0,18.975,13.5c24.1-.448,51.138-.7,79.7-.7s55.6.252,79.705.7a158.36,158.36,0,0,0,18.975-13.5h-1.345C1423.111,10241.388,1422.9,10231.5,1418.139,10218.932Z" transform="translate(-1221.1 -10027.622)"/></g><g transform="translate(255.997 44.743)"><path class="b" d="M2825.832,9851.678a35.77,35.77,0,0,0,9.229,23.714,1.083,1.083,0,0,1,.108,1.291l-5.193,8.893a6.1,6.1,0,0,0,8.345,8.347l13.367-7.8a.934.934,0,0,1,.472-.132.831.831,0,0,1,.21.027,35.9,35.9,0,0,0,8.988,1.221l.3,0a35.479,35.479,0,0,0,16-3.814,163.688,163.688,0,0,0-38.714-59.673A35.834,35.834,0,0,0,2825.832,9851.678Z" transform="translate(-2825.831 -9823.748)"/></g><g transform="translate(78.815 206.453)"><path class="b" d="M1546.351,11180.075v52.765a14.411,14.411,0,0,1-1.777,6.906c-3.125,5.8-10.051,9.848-18.045,9.848H1408.392a21.057,21.057,0,0,1-16.274-7.219,14.929,14.929,0,0,1-3.548-9.535v-52.765a14.778,14.778,0,0,1,3.078-8.926c3.514-4.7,9.717-7.827,16.744-7.827h118.137a22.513,22.513,0,0,1,2.806.172C1538.921,11164.662,1546.351,11171.666,1546.351,11180.075Z" transform="translate(-1386.793 -11161.549)"/><path class="a" d="M1513.745,11238.614H1395.608a22.9,22.9,0,0,1-17.645-7.864,16.659,16.659,0,0,1-3.953-10.666v-52.765a16.561,16.561,0,0,1,3.434-9.993c4-5.344,10.788-8.536,18.163-8.536h118.137a24.408,24.408,0,0,1,3.025.187c10.585,1.277,18.572,9.164,18.572,18.343v52.765a16.077,16.077,0,0,1-1.993,7.754C1529.822,11234.379,1522.124,11238.614,1513.745,11238.614Zm-118.136-86.271c-6.262,0-11.989,2.66-15.322,7.115a13.044,13.044,0,0,0-2.724,7.863v52.764a13.147,13.147,0,0,0,3.143,8.408,19.326,19.326,0,0,0,14.9,6.572h118.137c7.092,0,13.562-3.5,16.483-8.916a12.583,12.583,0,0,0,1.564-6.064v-52.764c0-7.385-6.644-13.757-15.454-14.818a20.76,20.76,0,0,0-2.593-.16Z" transform="translate(-1374.01 -11148.79)"/></g><g transform="translate(64.37 193.566)"><path class="b" d="M1352.271,11043.2c40.363,6.674,78.009,31.194,92.263,68.859,11.52,30.441-9.4,32.082-9.4,32.082h-166.61s-20.923-1.641-9.4-32.082c14.254-37.665,51.9-62.185,92.263-68.859" transform="translate(-1255.656 -11043.199)"/></g><g class="c" transform="translate(64.374 274.766)"><path class="a" d="M1435.153,11728.281H1268.544s-14.638-1.149-12.68-19.338q.042.331.092.648c1.408,8.9,13.531,10.646,17.578,2.592l1.831-3.644h152.849l1.961,3.836c4.09,8,16.085,6.214,17.55-2.647.043-.256.081-.518.113-.783C1449.794,11727.122,1435.153,11728.281,1435.153,11728.281Z" transform="translate(-1255.684 -11708.54)"/></g><g transform="translate(70.417 252.172)"><path class="b" d="M1305.2,11547.51s7.971-24.033,29.434-24.1c19.8-.063,27.367,9.815,22.727,23.381-2.309,6.752-26.978,13.133-38.524-.793" transform="translate(-1305.2 -11523.408)"/></g><g class="c" transform="translate(84.055 265.023)"><path class="a" d="M1455.475,11639.241c-2.313,6.751-26.981,13.128-38.525-.794h0a3.054,3.054,0,0,1,4.745-2.535c12.484,8.139,31.749,2.5,33.78-3.429a25.837,25.837,0,0,0,.995-3.772A19.935,19.935,0,0,1,1455.475,11639.241Z" transform="translate(-1416.95 -11628.711)"/></g><g transform="translate(69.854 250.4)"><path class="a" d="M1300.59,11534.581a17,17,0,0,1,2.258-7.724,32.306,32.306,0,0,1,4.623-6.592,41.132,41.132,0,0,1,5.926-5.555,29.948,29.948,0,0,1,7.171-3.982,27.468,27.468,0,0,1,8.035-1.764l2.053-.074c.665.012,1.329.01,1.994.031,1.332.053,2.665.133,4,.292a33.842,33.842,0,0,1,7.938,1.8,20.157,20.157,0,0,1,7.192,4.372,14.945,14.945,0,0,1,4.21,7.531,19.623,19.623,0,0,1-.094,8.432c-.13.684-.325,1.342-.5,2.007l-.31.979-.078.243c-.027.083-.084.208-.126.309l-.287.636a10.313,10.313,0,0,1-3.273,3.326,25.4,25.4,0,0,1-7.623,3.273,35.6,35.6,0,0,1-16.147.477c-.67-.143-1.338-.3-2-.5-.665-.17-1.312-.412-1.965-.637s-1.286-.506-1.937-.746c-.626-.3-1.281-.549-1.888-.9a11.957,11.957,0,0,1-1.767-1.13,11.235,11.235,0,0,1-1.575-1.391,8.237,8.237,0,0,1-2.087-3.672.653.653,0,0,1,.475-.793.641.641,0,0,1,.37.016l.066.023a12.728,12.728,0,0,1,1.8.855c.574.279,1.056.631,1.585.921.256.153.5.319.746.485s.514.3.758.459.487.328.746.472.506.3.755.458a19.382,19.382,0,0,0,6.65,2.6,32.122,32.122,0,0,0,14.5-.437,22.049,22.049,0,0,0,6.535-2.779,7.044,7.044,0,0,0,2.15-2.09c.032-.086.067-.168.106-.248a1.337,1.337,0,0,0,.062-.137l.068-.217.273-.864c.153-.579.327-1.157.437-1.743a16.093,16.093,0,0,0,.1-6.912,11.356,11.356,0,0,0-3.229-5.775,16.662,16.662,0,0,0-5.94-3.58,30.463,30.463,0,0,0-7.111-1.606c-1.225-.147-2.468-.22-3.711-.269l-1.872-.029-1.812.065a23.922,23.922,0,0,0-7.017,1.54,27.836,27.836,0,0,0-11.561,8.59c-.763.964-1.494,1.953-2.182,2.977s-1.38,2.046-2.049,3.09a55,55,0,0,1-4.326,6.25l-.029.035a.621.621,0,0,1-.873.078A.653.653,0,0,1,1300.59,11534.581Z" transform="translate(-1300.59 -11508.891)"/></g><g transform="translate(197.056 252.172)"><path class="b" d="M2396.353,11547.51s-7.97-24.033-29.434-24.1c-19.8-.063-27.366,9.815-22.727,23.381,2.309,6.752,26.979,13.133,38.524-.793" transform="translate(-2342.869 -11523.408)"/></g><g transform="translate(197.056 252.172)"><path class="b" d="M2396.353,11547.51s-7.97-24.033-29.434-24.1c-19.8-.063-27.366,9.815-22.727,23.381,2.309,6.752,26.979,13.133,38.524-.793Z" transform="translate(-2342.869 -11523.408)"/></g><g class="c" transform="translate(197.054 265.023)"><path class="a" d="M2382.708,11638.447c-11.544,13.922-36.212,7.544-38.525.794a19.948,19.948,0,0,1-.995-10.532,25.789,25.789,0,0,0,.995,3.772c2.031,5.928,21.3,11.567,33.78,3.43a3.053,3.053,0,0,1,4.745,2.536Z" transform="translate(-2342.862 -11628.709)"/></g><g transform="translate(195.287 250.395)"><path class="a" d="M2383.074,11534.911a55.008,55.008,0,0,1-4.326-6.249c-.669-1.045-1.346-2.077-2.049-3.09s-1.419-2.014-2.182-2.979a27.85,27.85,0,0,0-11.561-8.59,23.984,23.984,0,0,0-7.017-1.539l-1.812-.066-1.872.029c-1.244.051-2.486.123-3.711.27a30.454,30.454,0,0,0-7.112,1.606,16.646,16.646,0,0,0-5.939,3.579,11.355,11.355,0,0,0-3.229,5.776,16.094,16.094,0,0,0,.1,6.911c.11.585.283,1.164.437,1.744l.273.864.068.216a1.127,1.127,0,0,0,.063.137c.039.082.074.164.106.249a7.051,7.051,0,0,0,2.15,2.089,22,22,0,0,0,6.535,2.78,32.1,32.1,0,0,0,14.5.437,19.4,19.4,0,0,0,6.65-2.6c.249-.158.5-.314.755-.459s.491-.323.746-.471c.244-.164.506-.3.758-.459s.489-.332.746-.486c.53-.29,1.012-.643,1.585-.922a12.853,12.853,0,0,1,1.8-.855l.067-.023a.655.655,0,0,1,.829.41.637.637,0,0,1,.015.369,8.233,8.233,0,0,1-2.087,3.672,11.168,11.168,0,0,1-1.576,1.391,12.042,12.042,0,0,1-1.767,1.131c-.606.348-1.26.6-1.888.9-.65.241-1.285.523-1.937.746s-1.3.465-1.964.637c-.659.2-1.325.355-2,.5a35.627,35.627,0,0,1-16.147-.477,25.429,25.429,0,0,1-7.623-3.274,10.313,10.313,0,0,1-3.273-3.326l-.287-.635c-.043-.1-.1-.227-.126-.309l-.078-.244-.31-.979c-.178-.666-.374-1.324-.5-2.008a19.619,19.619,0,0,1-.094-8.432,14.942,14.942,0,0,1,4.21-7.532,20.167,20.167,0,0,1,7.192-4.371,33.991,33.991,0,0,1,7.938-1.8c1.334-.159,2.668-.239,4-.291.665-.021,1.33-.021,1.994-.032l2.052.074a27.492,27.492,0,0,1,8.035,1.764,29.986,29.986,0,0,1,7.171,3.982,41.241,41.241,0,0,1,5.926,5.555,32.2,32.2,0,0,1,4.622,6.592,16.99,16.99,0,0,1,2.258,7.725.619.619,0,0,1-1.092.408Z" transform="translate(-2328.384 -11508.85)"/></g><g transform="translate(62.589 191.785)"><path class="a" d="M1422.388,11133.1l-166.817,0a16.336,16.336,0,0,1-11.738-7.233c-3.948-6.223-3.675-15.389.813-27.246,13.571-35.861,49.45-62.676,93.634-69.982a8.652,8.652,0,0,0,1.469,0c44.184,7.3,80.063,34.121,93.634,69.982,4.488,11.857,4.761,21.023.813,27.246a16.343,16.343,0,0,1-11.738,7.233Zm-82.991-3.551h82.838a12.715,12.715,0,0,0,8.988-5.633c3.241-5.156,2.84-13.471-1.162-24.046-13.124-34.682-47.953-60.636-90.893-67.737-.052-.008-.1-.02-.155-.032-.051.013-.1.024-.155.032-42.939,7.1-77.767,33.056-90.892,67.737-4,10.575-4.4,18.89-1.162,24.046a12.709,12.709,0,0,0,8.99,5.633Z" transform="translate(-1241.063 -11028.604)"/></g><g transform="translate(72.258 72.06)"><g transform="translate(155.856 48.144)"><path class="b" d="M2603.531,10490.4h0a1.484,1.484,0,0,1-1.552-1.414l-2.011-42.708a1.484,1.484,0,0,1,1.413-1.553h0a15.572,15.572,0,0,1,16.288,14.823l.686,14.563A15.575,15.575,0,0,1,2603.531,10490.4Z" transform="translate(-2599.648 -10444.384)"/><path class="a" d="M2601.177,10488.4a1.805,1.805,0,0,1-1.8-1.718l-2.011-42.709a1.8,1.8,0,0,1,1.716-1.886,15.906,15.906,0,0,1,16.622,15.128l.686,14.563a15.89,15.89,0,0,1-15.126,16.622h-.086Zm-1.34-45.692c-.24,0-.483.006-.726.017a1.167,1.167,0,0,0-1.109,1.22l2.011,42.709a1.171,1.171,0,0,0,1.219,1.109h0a15.273,15.273,0,0,0,14.52-15.955l-.686-14.563A15.276,15.276,0,0,0,2599.837,10442.711Z" transform="translate(-2597.364 -10442.073)"/></g><g class="c" transform="translate(157.648 71.042)"><path class="a" d="M2628.641,10629.7l.323,6.831a15.581,15.581,0,0,1-14.824,16.29,1.487,1.487,0,0,1-1.552-1.416l-.538-11.354a1.488,1.488,0,0,0,1.39.816l1.013-.051A15.574,15.574,0,0,0,2628.641,10629.7Z" transform="translate(-2612.05 -10629.7)"/></g><g transform="translate(154.398 46.694)"><path class="a" d="M2590.69,10479.435a3.264,3.264,0,0,1-3.255-3.106l-2.011-42.709a3.265,3.265,0,0,1,3.1-3.41,17.372,17.372,0,0,1,18.145,16.514l.686,14.563a17.37,17.37,0,0,1-16.512,18.146h0A.821.821,0,0,0,2590.69,10479.435Zm-1.706-45.692,1.983,42.121a13.812,13.812,0,0,0,12.842-14.414l-.686-14.563A13.81,13.81,0,0,0,2588.984,10433.742Z" transform="translate(-2585.42 -10430.189)"/></g><g transform="translate(1.457 54.794)"><path class="b" d="M1349.677,10499.188h0a1.483,1.483,0,0,1,1.552,1.413l2.011,42.709a1.482,1.482,0,0,1-1.413,1.551h0a15.57,15.57,0,0,1-16.288-14.822l-.686-14.564A15.574,15.574,0,0,1,1349.677,10499.188Z" transform="translate(-1334.519 -10498.866)"/><path class="a" d="M1348.8,10542.895a15.91,15.91,0,0,1-15.865-15.144l-.686-14.563a15.892,15.892,0,0,1,15.126-16.622h0a1.8,1.8,0,0,1,1.885,1.717l2.011,42.709a1.8,1.8,0,0,1-1.716,1.886C1349.3,10542.895,1349.051,10542.895,1348.8,10542.895Zm-1.4-45.691a15.271,15.271,0,0,0-14.519,15.954l.686,14.563a15.273,15.273,0,0,0,15.955,14.519,1.167,1.167,0,0,0,1.109-1.219l-2.011-42.709a1.176,1.176,0,0,0-1.219-1.108Z" transform="translate(-1332.232 -10496.563)"/></g><g class="c" transform="translate(2.192 79.84)"><path class="a" d="M1355.684,10709.347l.557,11.849a1.489,1.489,0,0,1-1.416,1.553,15.565,15.565,0,0,1-16.285-14.82l-.289-6.137a15.577,15.577,0,0,0,14.6,8.469l1.558-.073A1.51,1.51,0,0,0,1355.684,10709.347Z" transform="translate(-1338.25 -10701.791)"/></g><g transform="translate(0 53.347)"><path class="a" d="M1338.316,10533.947a17.37,17.37,0,0,1-17.32-16.531l-.686-14.562a17.367,17.367,0,0,1,16.512-18.145h0a3.265,3.265,0,0,1,3.409,3.1l2.011,42.709a3.265,3.265,0,0,1-3.1,3.41C1338.866,10533.936,1338.59,10533.947,1338.316,10533.947Zm-1.616-45.68a13.813,13.813,0,0,0-12.842,14.414l.686,14.564a13.815,13.815,0,0,0,14.14,13.143Z" transform="translate(-1320.29 -10484.706)"/></g><g transform="translate(15.008 1.46)"><ellipse class="b" cx="72.86" cy="72.86" rx="72.86" ry="72.86" transform="translate(0.319 0.322)"/><path class="a" d="M1516.469,10205.907c-.593,0-1.18-.008-1.776-.022a73.178,73.178,0,1,1,74.91-71.405h0A73.269,73.269,0,0,1,1516.469,10205.907Zm-.071-145.717a72.541,72.541,0,1,0,72.566,74.275l.319.007-.319-.007a72.539,72.539,0,0,0-70.785-74.256C1517.586,10060.19,1516.99,10060.19,1516.4,10060.19Z" transform="translate(-1443.266 -10059.549)"/></g><g class="c" transform="translate(15.323 66.283)"><path class="a" d="M1591.093,10590.7a72.863,72.863,0,1,1-145.224,6.614c.027-1.158.082-2.314.165-3.453a72.863,72.863,0,0,0,145.06-3.161Z" transform="translate(-1445.847 -10590.7)"/></g><g transform="translate(13.552)"><path class="a" d="M1505.994,10196.855c-.605,0-1.2-.007-1.811-.021a74.635,74.635,0,1,1,76.4-72.827h0A74.728,74.728,0,0,1,1505.994,10196.855Zm-.071-145.717a71.052,71.052,0,1,0,1.745.02C1507.087,10051.15,1506.5,10051.139,1505.923,10051.139Zm72.884,72.822h0Z" transform="translate(-1431.333 -10047.585)"/></g><g transform="translate(15.936 24.229)"><path class="a" d="M1595.681,10300.126a65.353,65.353,0,0,1-12.883,38.335c-6.007,8.158-30.526,22.312-60.65,22.316-27.932,0-53.211-15.109-59.073-23.373a65.359,65.359,0,0,1-12.2-38.556c.333-37.728,32.885-53.083,72.875-52.73S1596.014,10262.4,1595.681,10300.126Z" transform="translate(-1450.869 -10246.112)"/></g><g transform="translate(14.163 22.45)"><path class="a" d="M1509.381,10349.754c-28.9,0-54.366-15.463-60.508-24.123a67.055,67.055,0,0,1-12.531-39.6c.164-18.465,7.692-32.637,22.379-42.121,12.822-8.281,30.9-12.568,52.287-12.369s39.388,4.783,52.061,13.289c14.517,9.741,21.8,24.044,21.632,42.51h0a67.066,67.066,0,0,1-13.228,39.37c-5.913,8.031-30.192,23.034-62.079,23.04A.027.027,0,0,1,1509.381,10349.754Zm.268-114.658c-20.108,0-37.03,4.074-49,11.807-13.62,8.795-20.6,21.973-20.754,39.17a63.523,63.523,0,0,0,11.877,37.513c5.6,7.9,30.326,22.625,57.613,22.625h.011c30.244,0,53.852-14.3,59.221-21.595a63.529,63.529,0,0,0,12.536-37.3c.411-46.566-48.937-52.029-70.174-52.217C1510.531,10235.1,1510.09,10235.1,1509.649,10235.1Zm73.275,52.233h0Z" transform="translate(-1436.339 -10231.536)"/></g><g class="d" transform="translate(125.722 58.526)"><ellipse class="b" cx="12.894" cy="9.343" rx="12.894" ry="9.343" transform="translate(0 25.334) rotate(-79.223)"/></g><g class="d" transform="translate(118.87 91.103)"><ellipse class="b" cx="5.918" cy="5.078" rx="5.918" ry="5.078" transform="translate(0 11.209) rotate(-71.282)"/></g><g class="c" transform="translate(57.389 42.924)"><path class="e" d="M1880.118,10399.3c8.777,8.525,13.9,20.166,13.771,35.319a65.394,65.394,0,0,1-12.879,38.337c-6.008,8.158-30.53,22.312-60.653,22.318a89.849,89.849,0,0,1-29.827-5.361c37.029-.8,66.9-18.173,74.346-28.292a82.926,82.926,0,0,0,16.348-48.651A74.023,74.023,0,0,0,1880.118,10399.3Z" transform="translate(-1790.53 -10399.3)"/></g><g transform="translate(19.905 14.871)"><path class="a" d="M1618.291,10201.443a1.753,1.753,0,0,1-1.122-.4l-.187-.154-.149-.206c-12.137-17.339-35.787-27.431-64.889-27.687-29.24-.272-53.07,9.736-65.313,27.418l-.089.118a1.776,1.776,0,0,1-2.8-2.183c12.932-18.638,37.821-29.179,68.235-28.9,30.243.267,54.932,10.9,67.742,29.165a1.777,1.777,0,0,1-1.427,2.836Z" transform="translate(-1483.39 -10169.438)"/></g><g class="d" transform="translate(28.818 34.183)"><path class="b" d="M1559.609,10393.045s-11.357-37.322,8.832-51.978,49.047-14.34,48.357-12.5c0,0-32.016,7.452-44.74,32.6C1562.248,10380.572,1559.609,10393.045,1559.609,10393.045Z" transform="translate(-1556.426 -10327.677)"/></g></g><g transform="translate(17.225 306.948)"><path class="a" d="M869.873,11973.594a129.75,129.75,0,0,1,17.842-1.283c2.974-.062,5.948-.076,8.921-.06,2.974,0,5.947.039,8.921.069q8.921.082,17.842.062h196.271l8.921,0,4.461-.044,4.461-.076c5.947-.021,11.9.033,17.842,1.336a.62.62,0,0,1,0,1.212c-5.947,1.3-11.9,1.356-17.842,1.335l-4.461-.076-4.461-.043-8.921,0H923.4q-8.921-.013-17.842.061c-2.974.031-5.947.074-8.921.07-2.974.015-5.947,0-8.921-.061a129.747,129.747,0,0,1-17.842-1.282.614.614,0,0,1,0-1.212Z" transform="translate(-869.356 -11972.244)"/></g><g transform="translate(38.528 294.247)"><path class="a" d="M1282.67,11883.955H1052.733a6.733,6.733,0,0,1-6.733-6.732V11877a6.733,6.733,0,0,1,6.733-6.733H1282.67a6.733,6.733,0,0,1,6.733,6.733v.219A6.733,6.733,0,0,1,1282.67,11883.955Z" transform="translate(-1045.745 -11870.015)"/><path class="a" d="M1280.835,11882.369H1050.9a7,7,0,0,1-6.988-6.99v-.219a7,7,0,0,1,6.988-6.988h229.937a7,7,0,0,1,6.988,6.988v.219A7,7,0,0,1,1280.835,11882.369Zm-229.937-13.682a6.483,6.483,0,0,0-6.477,6.476v.22a6.484,6.484,0,0,0,6.477,6.477h229.937a6.483,6.483,0,0,0,6.477-6.477v-.22a6.483,6.483,0,0,0-6.477-6.476Z" transform="translate(-1043.91 -11868.172)"/></g><g transform="translate(37.009 292.723)"><path class="a" d="M1269.9,11872.916H1039.968a8.517,8.517,0,0,1-8.507-8.508v-.22a8.516,8.516,0,0,1,8.507-8.507H1269.9a8.516,8.516,0,0,1,8.507,8.507v.22A8.512,8.512,0,0,1,1269.9,11872.916Zm-229.937-13.682a4.963,4.963,0,0,0-4.957,4.957v.221a4.963,4.963,0,0,0,4.957,4.957H1269.9a4.963,4.963,0,0,0,4.957-4.957v-.221a4.963,4.963,0,0,0-4.957-4.957Z" transform="translate(-1031.46 -11855.682)"/></g><g class="f" transform="translate(40.747 296.533)"><path class="b" d="M1296.9,11886.9H1066.752a4.746,4.746,0,0,0-4.662,4.814,4.828,4.828,0,0,0,2.737,4.381,4.9,4.9,0,0,1-.775-2.652,4.746,4.746,0,0,1,4.662-4.814h19.716c1.02,1.169,4.326,2.027,8.256,2.027s7.236-.858,8.256-2.027h193.925a4.507,4.507,0,0,1,1.925.434A4.613,4.613,0,0,0,1296.9,11886.9Z" transform="translate(-1062.09 -11886.9)"/></g><g transform="translate(84.651 282.714)"><path class="g" d="M1562.72,11784.913H1432.528a10.7,10.7,0,0,1-10.7-10.7v-.545h151.588v.545A10.7,10.7,0,0,1,1562.72,11784.913Z" transform="translate(-1421.83 -11773.67)"/></g><g class="c" transform="translate(84.651 282.706)"><path class="a" d="M1573.419,11773.6v.545a10.7,10.7,0,0,1-10.7,10.7H1432.531a10.7,10.7,0,0,1-10.7-10.7v-.545h.475a10.7,10.7,0,0,0,10.226,7.545H1562.72a10.708,10.708,0,0,0,10.226-7.545Z" transform="translate(-1421.83 -11773.6)"/></g><g transform="translate(82.876 280.932)"><path class="a" d="M1549.954,11773.865H1419.763a12.487,12.487,0,0,1-12.473-12.475v-2.32h155.138v2.32A12.485,12.485,0,0,1,1549.954,11773.865Zm-139.03-11.24a8.935,8.935,0,0,0,8.838,7.693h130.191a8.936,8.936,0,0,0,8.838-7.693Z" transform="translate(-1407.29 -11759.07)"/></g><g class="h" transform="translate(86.763 284.736)"><path class="b" d="M1443.859,11791.762h142.22a9.013,9.013,0,0,0,.422-1.521H1439.14a8.765,8.765,0,0,0,6.157,6.877,8.871,8.871,0,0,1-2.643-3.468A1.35,1.35,0,0,1,1443.859,11791.762Z" transform="translate(-1439.14 -11790.24)"/></g><g transform="translate(88.293 198.206)"><path class="i" d="M1576.23,11176.85H1471.513a10.75,10.75,0,0,1-10.9-9.178l-8.864-74.993c-.722-6.112,4.364-11.458,10.9-11.458h122.445c6.538,0,11.625,5.347,10.9,11.458l-8.864,74.993A10.753,10.753,0,0,1,1576.23,11176.85Z" transform="translate(-1451.679 -11081.221)"/></g><g class="h" transform="translate(150.836 240.438)"><path class="b" d="M1981.114,11441l.062-.025a.708.708,0,0,1,.88,1.028,9.67,9.67,0,1,1-6.211-14.521.663.663,0,0,1,.131,1.256l-.02.009a6.648,6.648,0,0,0,5.157,12.253Z" transform="translate(-1964.147 -11427.262)"/></g><g transform="translate(186.114 214.186)"><g transform="translate(0)"><path class="a" d="M2281.659,11215.65a9.639,9.639,0,0,0-.392-2.924c-.1-.094-.194-.191-.294-.285-.294-.059-.586-.148-.886-.178a18.622,18.622,0,0,0-6.3.382,13.491,13.491,0,0,0-7,3.946c-.688.746-1.3,1.565-1.925,2.363a.486.486,0,0,1-.6.233,5.663,5.663,0,0,0-2.125-.153,8.948,8.948,0,0,0-4.951,2.3,19.2,19.2,0,0,0-3.771,4.731.98.98,0,0,0,.731,1.588l1.621.268c1.294.215,2.584.424,3.875.638a.346.346,0,0,1,.006.078.412.412,0,0,1-.026.081,1.291,1.291,0,0,0,.43,1.82,2.509,2.509,0,0,1,.19.184c.339.33.686.664,1.044,1.006-.362.379-.725.708-1.031,1.087a1.464,1.464,0,0,0-.31.7.86.86,0,0,0,.566.9.919.919,0,0,0,1.058-.193c.378-.364.735-.753,1.115-1.148.488.477.951.926,1.413,1.368a1.121,1.121,0,0,0,1.511.263c.12-.059.239-.1.382-.162.033.145.061.262.084.371.355,1.767.706,3.535,1.07,5.295a.971.971,0,0,0,1.6.656c.637-.427,1.271-.872,1.889-1.338a13.679,13.679,0,0,0,3.6-3.865,7.357,7.357,0,0,0,.929-6.213.35.35,0,0,1,.094-.309c.624-.55,1.27-1.074,1.9-1.628a12.574,12.574,0,0,0,3.211-4.5A16.882,16.882,0,0,0,2281.659,11215.65Zm-21.254,11.068c-1.494-.248-3.043-.508-4.634-.771a12.087,12.087,0,0,1,4.9-4.557,4.784,4.784,0,0,1,2.742-.389C2262.417,11222.9,2261.421,11224.8,2260.405,11226.719Zm13.082,5.518a7.194,7.194,0,0,1-1.462,3.221,15.349,15.349,0,0,1-3.244,3.045q-.49-2.435-.967-4.766c1.9-1.087,3.748-2.148,5.611-3.215A3.978,3.978,0,0,1,2273.487,11232.236Zm5.782-12.07a12.042,12.042,0,0,1-2.1,4.482,15.834,15.834,0,0,1-2.778,2.693,47.157,47.157,0,0,1-9.01,5.334.283.283,0,0,1-.384-.056c-.282-.294-.588-.571-.882-.86a.428.428,0,0,1-.061-.1c.074-.08.155-.162.236-.246q2.513-2.61,5.035-5.219a.97.97,0,1,0-1.394-1.346q-1.514,1.563-3.021,3.127c-.75.776-1.494,1.549-2.274,2.358-.362-.35-.708-.667-1.029-1.006a.38.38,0,0,1,.014-.333c.782-1.659,1.556-3.324,2.383-4.965a28.441,28.441,0,0,1,2.907-4.6,12.679,12.679,0,0,1,3.708-3.46,12.493,12.493,0,0,1,3.054-1.265.428.428,0,0,1,.339.13c1.325,1.268,2.638,2.538,3.955,3.813.394.378.786.766,1.19,1.139A.348.348,0,0,1,2279.269,11220.166Zm.355-2.111-3.877-3.748c0-.033,0-.07,0-.107,1.271-.039,2.545-.074,3.832-.113A17.282,17.282,0,0,1,2279.625,11218.055Z" transform="translate(-2253.214 -11212.154)"/></g><g transform="translate(8.364 2.546)"><path class="b" d="M2339.333,11238.105c-.4-.371-.8-.76-1.19-1.139-1.317-1.273-2.629-2.545-3.955-3.812a.429.429,0,0,0-.339-.13,12.487,12.487,0,0,0-3.053,1.265,12.707,12.707,0,0,0-3.709,3.46,28.533,28.533,0,0,0-2.907,4.6c-.828,1.641-1.6,3.306-2.384,4.965a.379.379,0,0,0-.013.334c.32.34.666.656,1.029,1.006.78-.809,1.523-1.582,2.273-2.357q1.509-1.567,3.021-3.127a.97.97,0,1,1,1.394,1.344c-1.676,1.744-3.36,3.48-5.036,5.221-.081.084-.161.164-.236.244a.462.462,0,0,0,.061.1c.294.288.6.566.882.86a.283.283,0,0,0,.384.055,47.038,47.038,0,0,0,9.01-5.332,15.941,15.941,0,0,0,2.778-2.693,12.027,12.027,0,0,0,2.1-4.483A.341.341,0,0,0,2339.333,11238.105Zm-2.994,2.686a3.3,3.3,0,1,1-.1-4.65A3.316,3.316,0,0,1,2336.339,11240.791Z" transform="translate(-2321.748 -11233.02)"/></g><g transform="translate(22.533 1.933)"><path class="j" d="M2441.724,11231.958l-3.877-3.747c0-.035,0-.07,0-.107,1.271-.036,2.546-.072,3.834-.113A17.381,17.381,0,0,1,2441.724,11231.958Z" transform="translate(-2437.846 -11227.99)"/></g><g transform="translate(2.558 8.784)"><path class="j" d="M2281.81,11284.2c-.994,1.893-1.99,3.79-3,5.72-1.5-.252-3.045-.51-4.635-.775a12.071,12.071,0,0,1,4.9-4.557A4.753,4.753,0,0,1,2281.81,11284.2Z" transform="translate(-2274.17 -11284.126)"/></g><g transform="translate(14.601 18.367)"><path class="j" d="M2377.059,11367.587a15.292,15.292,0,0,1-3.243,3.046q-.491-2.432-.967-4.767c1.9-1.087,3.748-2.146,5.613-3.216a3.989,3.989,0,0,1,.061,1.717A7.1,7.1,0,0,1,2377.059,11367.587Z" transform="translate(-2372.85 -11362.65)"/></g><g transform="translate(17.272 4.741)"><path class="a" d="M2400.322,11251.93a3.294,3.294,0,1,0,.1,4.65A3.3,3.3,0,0,0,2400.322,11251.93Zm-1.057,3.6a1.737,1.737,0,1,1-.013-2.478A1.749,1.749,0,0,1,2399.265,11255.529Z" transform="translate(-2394.741 -11251.002)"/></g><g transform="translate(18.83 6.306)"><path class="k" d="M2410.47,11266.785a1.737,1.737,0,1,1-.015-2.479A1.749,1.749,0,0,1,2410.47,11266.785Z" transform="translate(-2407.505 -11263.822)"/></g></g><g class="c" transform="translate(99.728 201.157)"><path class="a" d="M1664.326,11189.108l8.865-74.993a7.35,7.35,0,0,0-1.783-5.7,8.821,8.821,0,0,0-6.439-3c0-.006,0-.013,0-.018-3.623,12.453-23.836,81.9-119.6,84.537a8.447,8.447,0,0,0,8.4,6.2h102.008C1660.177,11196.138,1663.853,11193.123,1664.326,11189.108Z" transform="translate(-1545.37 -11105.4)"/></g><g class="h" transform="translate(88.425 198.407)"><path class="b" d="M1466.583,11170.588l-8.864-74.993a7.781,7.781,0,0,1,1.881-6.025,9.263,9.263,0,0,1,7.072-3.161h122.446a9.736,9.736,0,0,1,2.759.405,8.276,8.276,0,0,0-.6-.793,9.263,9.263,0,0,0-7.071-3.161H1461.764a9.267,9.267,0,0,0-7.072,3.161,7.775,7.775,0,0,0-1.881,6.025l8.864,74.993a8.47,8.47,0,0,0,6.189,6.99A7.9,7.9,0,0,1,1466.583,11170.588Z" transform="translate(-1452.757 -11082.859)"/></g><g transform="translate(86.518 196.437)"><path class="a" d="M1563.455,11165.9H1458.739a12.511,12.511,0,0,1-12.664-10.744l-8.864-74.993a11.573,11.573,0,0,1,2.921-9.145,13.01,13.01,0,0,1,9.744-4.3H1572.32a13.009,13.009,0,0,1,9.744,4.3,11.571,11.571,0,0,1,2.92,9.145l-8.864,74.993A12.52,12.52,0,0,1,1563.455,11165.9Zm-113.582-95.632a9.462,9.462,0,0,0-7.091,3.106,8.066,8.066,0,0,0-2.048,6.368l8.864,74.993a8.966,8.966,0,0,0,9.139,7.612h104.716a8.965,8.965,0,0,0,9.138-7.612l8.864-74.993a8.065,8.065,0,0,0-2.048-6.368,9.457,9.457,0,0,0-7.091-3.106Z" transform="translate(-1437.129 -11066.721)"/></g><g class="c" transform="translate(42.219 294.505)"><path class="a" d="M1081.012,11883.965h226.48a6.736,6.736,0,0,0,6.624-6.842h0a6.735,6.735,0,0,0-6.624-6.842H1216.3c-3.6,2.032-30.621,14.622-142.151,11.357Z" transform="translate(-1074.15 -11870.281)"/></g><g class="l" transform="translate(108.349 215.147)"><path class="b" d="M1627.276,11251.451h-6.828a4.437,4.437,0,0,1-4.437-4.437v-22.547a4.438,4.438,0,0,1,4.438-4.437h6.828a4.438,4.438,0,0,1,4.438,4.438v22.547A4.439,4.439,0,0,1,1627.276,11251.451Z" transform="translate(-1616.01 -11220.029)"/></g><g transform="translate(152.056 239.218)"><path class="a" d="M1991.114,11431l.062-.025a.708.708,0,0,1,.88,1.028,9.67,9.67,0,1,1-6.21-14.521.663.663,0,0,1,.13,1.256l-.019.009a6.648,6.648,0,0,0,5.157,12.253Z" transform="translate(-1974.147 -11417.262)"/></g><g transform="translate(258.438 38.984)"><g transform="translate(0)"><g transform="translate(1.831 1.822)"><path class="i" d="M2865.976,9862.154a1.832,1.832,0,0,1-1.582-2.755l5.193-8.9a5.348,5.348,0,0,0-.626-6.3,31.565,31.565,0,0,1,22.821-52.7c.209,0,.415-.006.622-.006a31.573,31.573,0,0,1,31.567,32.082,31.707,31.707,0,0,1-31.57,31.06h-.272a31.676,31.676,0,0,1-7.918-1.074,5.081,5.081,0,0,0-1.318-.174,5.21,5.21,0,0,0-2.626.714l-13.367,7.8A1.737,1.737,0,0,1,2865.976,9862.154Z" transform="translate(-2860.832 -9791.49)"/></g><path class="a" d="M2879.233,9780.221a29.741,29.741,0,1,1,0,59.481h-.256a29.667,29.667,0,0,1-7.459-1.013,6.917,6.917,0,0,0-1.793-.235,7.037,7.037,0,0,0-3.549.964l-13.367,7.8,5.193-8.894a7.205,7.205,0,0,0-.849-8.457,29.733,29.733,0,0,1,21.5-49.645c.2,0,.392-.006.587-.006m0-3.661c-.219,0-.437,0-.656.006a33.4,33.4,0,0,0-24.145,55.759,3.523,3.523,0,0,1,.405,4.155l-5.193,8.895a3.661,3.661,0,0,0,5.007,5.008l13.367-7.8a3.378,3.378,0,0,1,1.7-.465,3.229,3.229,0,0,1,.843.11,33.422,33.422,0,0,0,8.378,1.139l.288,0a33.546,33.546,0,0,0,33.4-32.862,33.4,33.4,0,0,0-33.4-33.942Z" transform="translate(-2845.832 -9776.56)"/></g><g class="m" transform="translate(5.841 16.355)"><path class="n" d="M2950.953,9926.232c-.015-.325-.035-.651-.06-.976-.013-.165-.027-.331-.042-.5-.032-.327-.07-.652-.111-.978-.018-.141-.033-.282-.052-.423q-.093-.646-.214-1.283c-.035-.186-.076-.369-.115-.552-.053-.251-.106-.5-.165-.753-.052-.22-.107-.439-.164-.657s-.108-.406-.166-.608c-.067-.236-.134-.475-.206-.709-.044-.141-.093-.279-.138-.418q-.267-.819-.58-1.618c-.029-.074-.057-.151-.088-.227-.118-.294-.243-.586-.371-.875-.039-.088-.077-.176-.117-.263-.137-.3-.277-.6-.424-.9-.011-.022-.023-.046-.035-.068a29.912,29.912,0,0,0-2.292-3.858,29.735,29.735,0,0,1-20.935,40.161c-13.792,3.055-21.82.476-26.7-4.342-.024-.028-1.983-4.7-2.007-4.729a30.237,30.237,0,0,1-2.277-2.862h0c.111.273.228.544.348.813l-.006-.007a29.786,29.786,0,0,0,5.133,7.92,7.2,7.2,0,0,1,.848,8.456l-5.193,8.9,13.367-7.8a7,7,0,0,1,5.342-.729,29.686,29.686,0,0,0,7.459,1.014c.468,0,.933-.006,1.4-.023.43-.016.857-.046,1.281-.081.064,0,.128-.007.193-.013.391-.034.776-.082,1.163-.131.1-.013.2-.021.293-.035.363-.051.721-.112,1.08-.176.119-.021.237-.038.354-.062.342-.064.68-.141,1.017-.216.132-.029.264-.056.4-.088.325-.078.646-.166.965-.255.14-.039.283-.076.422-.116.31-.09.615-.19.92-.29.146-.049.3-.095.441-.146.3-.1.588-.214.88-.324.151-.059.3-.115.454-.175.283-.113.563-.234.841-.356.155-.067.31-.134.464-.205.27-.123.537-.254.8-.386.157-.078.315-.154.47-.235.257-.133.512-.273.766-.414.157-.088.316-.174.471-.265.247-.143.49-.29.732-.44.157-.1.316-.2.471-.3.234-.15.466-.306.7-.463.157-.107.315-.216.47-.327.223-.159.443-.322.661-.487.156-.117.311-.235.465-.356.211-.166.421-.335.628-.508.154-.128.308-.257.459-.388.2-.174.4-.349.593-.526.151-.137.3-.276.449-.417.189-.179.376-.361.561-.546.147-.146.293-.3.437-.446.178-.186.354-.372.526-.561.144-.158.284-.317.425-.478.167-.19.332-.382.493-.577.138-.168.273-.336.409-.506.155-.194.309-.391.46-.591.133-.177.264-.356.393-.535.144-.2.287-.4.426-.6.127-.186.25-.375.374-.564s.265-.406.392-.612.237-.395.353-.593.242-.413.358-.622.222-.413.331-.62.22-.418.323-.629.206-.433.306-.649.2-.421.29-.636.188-.45.28-.677.176-.425.256-.64c.088-.232.168-.469.251-.7.076-.214.152-.427.223-.644.078-.242.149-.487.221-.732.063-.215.13-.429.189-.645.068-.253.128-.509.19-.766.051-.212.107-.423.154-.638.059-.267.106-.537.157-.806.039-.207.084-.414.118-.622.048-.284.084-.572.123-.859.027-.2.06-.394.083-.593.038-.322.063-.648.09-.974.013-.166.034-.331.045-.5q.049-.741.062-1.492c.007-.476,0-.949-.015-1.42C2950.969,9926.525,2950.96,9926.379,2950.953,9926.232Z" transform="translate(-2893.69 -9910.571)"/></g><g class="f" transform="translate(19.917 22.334)"><path class="b" d="M3036.53,9961.982c-3.262-3.264-8.712-3.172-12.419.1a9.935,9.935,0,0,0-5.884-2.5,8.3,8.3,0,0,0-6.535,2.395,9.124,9.124,0,0,0,0,12.888l10.026,10.026a3.385,3.385,0,0,0,4.787,0l10.026-10.025A9.123,9.123,0,0,0,3036.53,9961.982Z" transform="translate(-3009.027 -9959.566)"/></g><g class="f" transform="translate(3.66 3.667)"><path class="b" d="M2877.424,9838.713a29.741,29.741,0,0,1,52.688-19.154,29.736,29.736,0,1,0-47.529,35.652A29.583,29.583,0,0,1,2877.424,9838.713Z" transform="translate(-2875.823 -9806.604)"/></g><g transform="translate(18.426 20.862)"><path class="b" d="M3009.092,9959.412h0c3.039-3.04,7.964-2.5,11,.543l.474.474.472-.474c3.039-3.039,7.964-3.583,11-.543h0a7.78,7.78,0,0,1,0,11l-.474.473-9.553,9.554a2.052,2.052,0,0,1-2.9,0l-9.553-9.554-.473-.473A7.782,7.782,0,0,1,3009.092,9959.412Z" transform="translate(-3005.592 -9956.18)"/><path class="a" d="M3011.786,9973.584a3.266,3.266,0,0,1-2.314-.956l-10.026-10.025a9,9,0,0,1,0-12.729h0c3.243-3.242,8.675-3.127,12.34.174,3.665-3.3,9.1-3.417,12.34-.174a9.013,9.013,0,0,1,0,12.729l-10.026,10.025A3.264,3.264,0,0,1,3011.786,9973.584Zm-6.474-23.644a5.788,5.788,0,0,0-4.14,1.657h0a6.562,6.562,0,0,0,0,9.278L3011.2,9970.9a.833.833,0,0,0,1.175,0l10.026-10.025a6.57,6.57,0,0,0,0-9.277c-2.409-2.407-6.571-2.163-9.278.545l-.472.474a1.22,1.22,0,0,1-1.726,0l-.472-.474A7.329,7.329,0,0,0,3005.312,9949.94Zm-5,.795h0Z" transform="translate(-2996.81 -9947.504)"/></g></g><g class="o" transform="translate(0 308.765)"><path class="a" d="M1047.348,11991.984c0,6.184-71.443,11.2-159.569,11.2s-159.569-5.018-159.569-11.2c0-1.737,5.649-3.387,15.736-4.854h287.665C1041.7,11988.6,1047.348,11990.251,1047.348,11991.984Z" transform="translate(-728.21 -11987.131)"/></g><g transform="translate(26.842 46.622)"><g transform="translate(26.671 138.624)"><path class="p" d="M1179.936,10981.653l-4.292.663a2,2,0,0,0-1.668,1.668l-.663,4.293-.663-4.293a2,2,0,0,0-1.668-1.668l-4.292-.663,4.292-.662a2,2,0,0,0,1.668-1.669l.663-4.292.663,4.292a2,2,0,0,0,1.668,1.669Z" transform="translate(-1166.69 -10975.03)"/></g><g transform="translate(10.45 167.335)"><path class="p" d="M1046.209,11216.494l-4.027.623a1.873,1.873,0,0,0-1.565,1.564l-.622,4.027-.622-4.027a1.873,1.873,0,0,0-1.565-1.564l-4.027-.623,4.027-.621a1.874,1.874,0,0,0,1.565-1.564l.622-4.027.622,4.027a1.874,1.874,0,0,0,1.565,1.564Z" transform="translate(-1033.78 -11210.281)"/></g><g transform="translate(0 119.806)"><path class="p" d="M957.418,10825.464l-3,.464a1.4,1.4,0,0,0-1.167,1.167l-.464,3-.464-3a1.4,1.4,0,0,0-1.167-1.167l-3-.464,3-.464a1.394,1.394,0,0,0,1.167-1.166l.464-3,.464,3a1.394,1.394,0,0,0,1.167,1.166Z" transform="translate(-948.15 -10820.83)"/></g><g transform="translate(262.957 127.3)"><path class="p" d="M3102.8,10889.045l4.41.682a2.051,2.051,0,0,1,1.714,1.713l.681,4.411.681-4.411a2.051,2.051,0,0,1,1.713-1.713l4.411-.682-4.411-.681a2.051,2.051,0,0,1-1.713-1.714l-.681-4.41-.681,4.41a2.051,2.051,0,0,1-1.714,1.714Z" transform="translate(-3102.8 -10882.24)"/></g><g transform="translate(236.427 156.096)"><path class="p" d="M2885.42,11124.573l4.139.64a1.925,1.925,0,0,1,1.607,1.607l.64,4.139.64-4.139a1.925,1.925,0,0,1,1.607-1.607l4.138-.64-4.138-.64a1.921,1.921,0,0,1-1.607-1.606l-.64-4.138-.64,4.138a1.921,1.921,0,0,1-1.607,1.606Z" transform="translate(-2885.42 -11118.189)"/></g><g transform="translate(245.888 105.327)"><path class="p" d="M2962.94,10706.95l3.085.477a1.433,1.433,0,0,1,1.2,1.2l.476,3.087.476-3.087a1.433,1.433,0,0,1,1.2-1.2l3.086-.477-3.086-.476a1.434,1.434,0,0,1-1.2-1.2l-.476-3.086-.476,3.086a1.435,1.435,0,0,1-1.2,1.2Z" transform="translate(-2962.94 -10702.189)"/></g><g transform="translate(45.922 20.752)"><path class="p" d="M1334.8,10014.379l-3.362.519a1.563,1.563,0,0,0-1.307,1.307l-.519,3.362-.519-3.362a1.563,1.563,0,0,0-1.306-1.307l-3.362-.519,3.362-.519a1.563,1.563,0,0,0,1.306-1.308l.519-3.362.519,3.362a1.565,1.565,0,0,0,1.306,1.308Z" transform="translate(-1324.43 -10009.19)"/></g><g transform="translate(21.568 47.611)"><path class="p" d="M1135.651,10234.656l-3.49.539a1.622,1.622,0,0,0-1.356,1.356l-.539,3.491-.539-3.491a1.622,1.622,0,0,0-1.356-1.356l-3.49-.539,3.49-.539a1.621,1.621,0,0,0,1.356-1.356l.539-3.49.539,3.49a1.621,1.621,0,0,0,1.356,1.356Z" transform="translate(-1124.88 -10229.271)"/></g><g transform="translate(189.987 0)"><path class="p" d="M2504.89,9844.338l3.362.519a1.566,1.566,0,0,1,1.307,1.308l.519,3.362.519-3.362a1.565,1.565,0,0,1,1.306-1.308l3.362-.519-3.362-.518a1.563,1.563,0,0,1-1.306-1.308l-.519-3.362-.519,3.362a1.565,1.565,0,0,1-1.307,1.308Z" transform="translate(-2504.89 -9839.15)"/></g></g></svg>