<svg xmlns="http://www.w3.org/2000/svg" xmlns:xlink="http://www.w3.org/1999/xlink" width="369.512" height="443.67" viewBox="0 0 369.512 443.67"><defs><style>.a{clip-path:url(#a);}.b{fill:#ec1c24;}.c{fill:#ec1d24;}.d{fill:#ec1e24;}.e{fill:#ec1f24;}.f{fill:#ec2024;}.g{fill:#ed2124;}.h{fill:#ed2224;}.i{fill:#ed2324;}.j{fill:#ed2424;}.k{fill:#ed2524;}.l{fill:#ed2624;}.m{fill:#ed2724;}.n{fill:#ed2824;}.o{fill:#ed2924;}.p{fill:#ed2a24;}.q{fill:#ee2a24;}.r{fill:#ee2b24;}.s{fill:#ee2c24;}.t{fill:#ee2d24;}.u{fill:#ee2e24;}.v{fill:#ee2f24;}.w{fill:#ee3024;}.x{fill:#ee3124;}.y{fill:#ee3224;}.z{fill:#ee3225;}.aa{fill:#ef3325;}.ab{fill:#ef3425;}.ac{fill:#ef3525;}.ad{fill:#ef3625;}.ae{fill:#ef3725;}.af{fill:#ef3825;}.ag{fill:#ef3925;}.ah{fill:#ef3a25;}.ai{fill:#ef3b25;}.aj{fill:#ef3c25;}.ak{fill:#f03d25;}.al{fill:#f03e25;}.am{fill:#f03f25;}.an{fill:#f04025;}.ao{fill:#f04125;}.ap{fill:#f04225;}.aq{fill:#f04325;}.ar{fill:#f04425;}.as{fill:#f04525;}.at{fill:#f14625;}.au{fill:#f14725;}.av{fill:#f14825;}.aw{fill:#f14925;}.ax{fill:#f14a25;}.ay{fill:#f14b25;}.az{fill:#f14c25;}.ba{fill:#f14d25;}.bb{fill:#f14e25;}.bc{fill:#f24f25;}.bd{fill:#f25025;}.be{fill:#f25125;}.bf{fill:#f25225;}.bg{fill:#f25325;}.bh{clip-path:url(#cl);}.bi{fill:#f25425;}.bj{fill:#f25525;}.bk{fill:#f25625;}.bl{fill:#f25725;}.bm{fill:#f35825;}.bn{fill:#f35925;}.bo{fill:#f35a25;}.bp{fill:#f35c25;}.bq{fill:#f35d25;}.br{fill:#f35e26;}.bs{fill:#f35f26;}.bt{fill:#f36026;}.bu{fill:#f46126;}.bv{fill:#f46226;}.bw{fill:#f46426;}.bx{fill:#f46526;}.by{fill:#f46626;}.bz{fill:#f46726;}.ca{fill:#f46826;}.cb{fill:#f46a26;}.cc{fill:#f56b26;}.cd{fill:#f56c26;}.ce{fill:#f56d26;}.cf{fill:#f56f26;}.cg{fill:#f57026;}.ch{fill:#f57126;}.ci{fill:#f57226;}.cj{fill:#f67426;}.ck{fill:#f67526;}.cl{fill:#f67626;}.cm{fill:#f67726;}.cn{fill:#f67926;}.co{fill:#f67a26;}.cp{fill:#f67b26;}.cq{fill:#f77d26;}.cr{fill:#f77e26;}.cs{fill:#f77f26;}.ct{fill:#f78126;}.cu{fill:#f78226;}.cv{fill:#f78426;}.cw{fill:#f78526;}.cx{fill:#f88626;}.cy{fill:#f88826;}.cz{fill:#f88927;}.da{fill:#f88a27;}.db{fill:#f88c27;}.dc{fill:#f88d27;}.dd{fill:#f98f27;}.de{fill:#f99027;}.df{fill:#f99227;}.dg{fill:#f99327;}.dh{fill:#f99427;}.di{fill:#f99627;}.dj{fill:#f99727;}.dk{fill:#fa9927;}.dl{fill:#fa9a27;}.dm{fill:#fa9c27;}.dn{fill:#fa9d27;}.do{fill:#fa9f27;}.dp{fill:#faa027;}.dq{fill:#fba227;}.dr{fill:#fba327;}.ds{fill:#fba527;}.dt{fill:#fba627;}.du{fill:#fba827;}.dv{fill:#fbaa27;}.dw{fill:#fcab27;}.dx{fill:#fcad27;}.dy{fill:#fcae27;}.dz{fill:#fcb027;}.ea{fill:#fcb127;}.eb{fill:#fcb327;}.ec{fill:#fdb528;}.ed{fill:#fdb628;}.ee{fill:#fdb828;}.ef{fill:#fdb928;}.eg{fill:#fdbb28;}.eh{fill:#febd28;}.ei{fill:#febe28;}.ej{fill:#fec028;}.ek{fill:#fec228;}.el{fill:#fec328;}.em{fill:#fec528;}.en{fill:#ffc728;}.eo{fill:#ffc828;}.ep{fill:#ffca28;}.eq{opacity:0.5;}.er{fill:#fff;}.es{opacity:0.3;}.et{fill:#371a45;}.eu{fill:#ffd553;}.ev{opacity:0.25;}.ew{opacity:0.35;}.ex{fill:#0af;}.ey{opacity:0.6;}.ez{fill:#ad82ff;}.fa{fill:#d25658;}.fb{fill:#6bd6f0;}.fc{opacity:0.2;}.fd{opacity:0.7;}.fe{fill:#111a28;}.ff{fill:#22a7f0;}</style><clipPath id="a"><path d="M5058.7,7352.9c42.515-18.451,56.143,10.978,83.1-.723s20.032-42.948,20.032-42.948-18.09-26.4-45.052-14.7S5101.216,7334.451,5058.7,7352.9Z" transform="translate(-5058.7 -7291.537)"/></clipPath><clipPath id="cl"><path d="M0,61.366c42.514-18.451,56.143,10.978,83.1-.722s20.032-42.949,20.032-42.949S85.044-8.71,58.083,2.991,42.516,42.914,0,61.366Z" transform="translate(0 0)"/></clipPath></defs><g transform="translate(0 324.737)"><g transform="translate(0)"><g class="a" transform="translate(12.994 18.964)"><path class="b" d="M5058.7,7730.681l5.838,10.978H5058.7Z" transform="translate(-5058.7 -7669.315)"/></g><g class="a" transform="translate(12.994 18.964)"><path class="b" d="M5058.7,7720.91l6.563,12.343h-.725l-5.838-10.978Z" transform="translate(-5058.7 -7660.91)"/></g><g class="a" transform="translate(12.994 18.964)"><path class="b" d="M5058.7,7711.141l7.291,13.708h-.727l-6.563-12.343Z" transform="translate(-5058.7 -7652.505)"/></g><g class="a" transform="translate(12.994 18.964)"><path class="b" d="M5058.7,7701.36l8.017,15.075h-.726l-7.291-13.709Z" transform="translate(-5058.7 -7644.092)"/></g><g class="a" transform="translate(12.994 18.964)"><path class="b" d="M5058.7,7691.59l8.744,16.44h-.727l-8.017-15.075Z" transform="translate(-5058.7 -7635.687)"/></g><g class="a" transform="translate(12.994 18.964)"><path class="b" d="M5058.7,7681.82l9.469,17.806h-.725l-8.744-16.44Z" transform="translate(-5058.7 -7627.282)"/></g><g class="a" transform="translate(12.994 18.964)"><path class="b" d="M5058.7,7672.04l10.2,19.173h-.727l-9.469-17.807Z" transform="translate(-5058.7 -7618.869)"/></g><g class="a" transform="translate(12.994 18.964)"><path class="c" d="M5058.7,7662.27l10.922,20.538h-.727l-10.2-19.172Z" transform="translate(-5058.7 -7610.464)"/></g><g class="a" transform="translate(12.994 18.964)"><path class="c" d="M5058.7,7652.5l11.647,21.9h-.725l-10.922-20.537Z" transform="translate(-5058.7 -7602.06)"/></g><g class="a" transform="translate(12.994 18.964)"><path class="c" d="M5058.7,7642.73,5071.074,7666h-.727l-11.647-21.9Z" transform="translate(-5058.7 -7593.655)"/></g><g class="a" transform="translate(12.994 18.964)"><path class="c" d="M5058.7,7632.95l13.1,24.635h-.727l-12.374-23.269Z" transform="translate(-5058.7 -7585.241)"/></g><g class="a" transform="translate(12.994 18.964)"><path class="c" d="M5058.7,7623.18l13.826,26h-.726l-13.1-24.634Z" transform="translate(-5058.7 -7576.836)"/></g><g class="a" transform="translate(12.994 18.964)"><path class="d" d="M5058.7,7613.41l14.553,27.365h-.727l-13.826-26Z" transform="translate(-5058.7 -7568.432)"/></g><g class="a" transform="translate(12.994 18.964)"><path class="d" d="M5058.7,7603.641l15.279,28.73h-.726l-14.553-27.365Z" transform="translate(-5058.7 -7560.027)"/></g><g class="a" transform="translate(12.994 18.964)"><path class="d" d="M5058.7,7593.86l16,30.1h-.726l-15.279-28.731Z" transform="translate(-5058.7 -7551.614)"/></g><g class="a" transform="translate(12.994 18.964)"><path class="e" d="M5058.7,7584.09l16.731,31.463h-.727l-16-30.1Z" transform="translate(-5058.7 -7543.208)"/></g><g class="a" transform="translate(12.994 18.964)"><path class="e" d="M5058.7,7574.32l17.458,32.828h-.727l-16.731-31.462Z" transform="translate(-5058.7 -7534.804)"/></g><g class="a" transform="translate(12.994 18.964)"><path class="e" d="M5058.7,7564.54l18.183,34.194h-.725l-17.458-32.828Z" transform="translate(-5058.7 -7526.391)"/></g><g class="a" transform="translate(12.994 18.964)"><path class="f" d="M5058.7,7554.771l18.91,35.56h-.727l-18.183-34.194Z" transform="translate(-5058.7 -7517.986)"/></g><g class="a" transform="translate(12.994 18.964)"><path class="f" d="M5058.7,7545l19.636,36.925h-.727l-18.91-35.56Z" transform="translate(-5058.7 -7509.581)"/></g><g class="a" transform="translate(12.994 18.964)"><path class="f" d="M5058.7,7535.23l20.362,38.29h-.726L5058.7,7536.6Z" transform="translate(-5058.7 -7501.177)"/></g><g class="a" transform="translate(12.994 18.964)"><path class="g" d="M5058.7,7525.45l21.088,39.656h-.727l-20.362-38.29Z" transform="translate(-5058.7 -7492.763)"/></g><g class="a" transform="translate(12.994 18.964)"><path class="g" d="M5058.7,7515.681l21.815,41.022h-.727l-21.088-39.657Z" transform="translate(-5058.7 -7484.359)"/></g><g class="a" transform="translate(12.994 18.964)"><path class="g" d="M5058.7,7505.91l22.54,42.387h-.725l-21.815-41.022Z" transform="translate(-5058.7 -7475.954)"/></g><g class="a" transform="translate(12.994 18.964)"><path class="h" d="M5058.7,7502.335l.443-.234,22.824,42.919h-.727l-22.54-42.387Z" transform="translate(-5058.7 -7472.677)"/></g><g class="a" transform="translate(12.994 18.964)"><path class="h" d="M5061.87,7500.242l.566-.3,22.984,43.222h-.726Z" transform="translate(-5061.427 -7470.817)"/></g><g class="a" transform="translate(12.994 18.964)"><path class="i" d="M5065.92,7498.091l.566-.3,23.144,43.522h-.725Z" transform="translate(-5064.911 -7468.968)"/></g><g class="a" transform="translate(12.994 18.964)"><path class="i" d="M5069.97,7495.932l.567-.3,23.3,43.824h-.727Z" transform="translate(-5068.395 -7467.11)"/></g><g class="a" transform="translate(12.994 18.964)"><path class="j" d="M5074.03,7493.78l.566-.3,23.463,44.125h-.726Z" transform="translate(-5071.888 -7465.26)"/></g><g class="a" transform="translate(12.994 18.964)"><path class="j" d="M5078.08,7491.621l.566-.3,23.623,44.426h-.725Z" transform="translate(-5075.372 -7463.402)"/></g><g class="a" transform="translate(12.994 18.964)"><path class="k" d="M5082.13,7489.471l.566-.3,23.783,44.727h-.727Z" transform="translate(-5078.856 -7461.553)"/></g><g class="a" transform="translate(12.994 18.964)"><path class="k" d="M5086.18,7487.32l.566-.3,23.944,45.027h-.727Z" transform="translate(-5082.339 -7459.703)"/></g><g class="a" transform="translate(12.994 18.964)"><path class="l" d="M5090.229,7485.162l.566-.3,24.1,45.328h-.726Z" transform="translate(-5085.824 -7457.846)"/></g><g class="a" transform="translate(12.994 18.964)"><path class="l" d="M5094.28,7483.011l.566-.3,24.265,45.63h-.727Z" transform="translate(-5089.308 -7455.996)"/></g><g class="a" transform="translate(12.994 18.964)"><path class="m" d="M5098.33,7480.852l.566-.3,24.425,45.932h-.727Z" transform="translate(-5092.792 -7454.137)"/></g><g class="a" transform="translate(12.994 18.964)"><path class="m" d="M5102.38,7478.7l.567-.3,24.583,46.231h-.726Z" transform="translate(-5096.276 -7452.288)"/></g><g class="a" transform="translate(12.994 18.964)"><path class="n" d="M5106.44,7476.551l.566-.3,24.744,46.532h-.727Z" transform="translate(-5099.769 -7450.438)"/></g><g class="a" transform="translate(12.994 18.964)"><path class="n" d="M5110.49,7474.392l.566-.3,24.9,46.834h-.727Z" transform="translate(-5103.253 -7448.58)"/></g><g class="a" transform="translate(12.994 18.964)"><path class="o" d="M5114.54,7472.24l.566-.3,25.063,47.134h-.726Z" transform="translate(-5106.737 -7446.731)"/></g><g class="a" transform="translate(12.994 18.964)"><path class="p" d="M5118.59,7470.082l.566-.3,25.224,47.437h-.727Z" transform="translate(-5110.221 -7444.872)"/></g><g class="a" transform="translate(12.994 18.964)"><path class="q" d="M5122.641,7467.931l.565-.3,25.385,47.736h-.727Z" transform="translate(-5113.706 -7443.023)"/></g><g class="a" transform="translate(12.994 18.964)"><path class="r" d="M5126.69,7465.771l.566-.3,25.544,48.038h-.725Z" transform="translate(-5117.189 -7441.165)"/></g><g class="a" transform="translate(12.994 18.964)"><path class="r" d="M5130.74,7463.62l.566-.3,25.7,48.339h-.727Z" transform="translate(-5120.673 -7439.315)"/></g><g class="a" transform="translate(12.994 18.964)"><path class="s" d="M5134.79,7461.471l.566-.3,25.866,48.64h-.727Z" transform="translate(-5124.157 -7437.465)"/></g><g class="a" transform="translate(12.994 18.964)"><path class="t" d="M5138.84,7459.312l.567-.3,26.024,48.941h-.725Z" transform="translate(-5127.641 -7435.607)"/></g><g class="a" transform="translate(12.994 18.964)"><path class="t" d="M5142.9,7457.161l.566-.3,26.184,49.242h-.727Z" transform="translate(-5131.134 -7433.758)"/></g><g class="a" transform="translate(12.994 18.964)"><path class="u" d="M5146.95,7455l.566-.3,26.345,49.543h-.727Z" transform="translate(-5134.618 -7431.9)"/></g><g class="a" transform="translate(12.994 18.964)"><path class="v" d="M5151,7452.851l.566-.3,26.505,49.844h-.727Z" transform="translate(-5138.102 -7430.05)"/></g><g class="a" transform="translate(12.994 18.964)"><path class="v" d="M5155.05,7450.691l.566-.3,26.666,50.146h-.726Z" transform="translate(-5141.586 -7428.192)"/></g><g class="a" transform="translate(12.994 18.964)"><path class="w" d="M5159.1,7448.54l.565-.3,26.826,50.446h-.727Z" transform="translate(-5145.071 -7426.343)"/></g><g class="a" transform="translate(12.994 18.964)"><path class="x" d="M5163.15,7446.391l.566-.3,26.986,50.747h-.727Z" transform="translate(-5148.554 -7424.493)"/></g><g class="a" transform="translate(12.994 18.964)"><path class="y" d="M5167.2,7444.232l.566-.3,27.146,51.048h-.725Z" transform="translate(-5152.039 -7422.636)"/></g><g class="a" transform="translate(12.994 18.964)"><path class="z" d="M5171.25,7442.08l.567-.3,27.305,51.349h-.727Z" transform="translate(-5155.522 -7420.785)"/></g><g class="a" transform="translate(12.994 18.964)"><path class="aa" d="M5175.31,7439.922l.566-.3,27.466,51.65h-.727Z" transform="translate(-5159.015 -7418.927)"/></g><g class="a" transform="translate(12.994 18.964)"><path class="ab" d="M5179.359,7437.771l.566-.3,27.625,51.95h-.726Z" transform="translate(-5162.499 -7417.078)"/></g><g class="a" transform="translate(12.994 18.964)"><path class="ac" d="M5183.41,7435.611l.566-.3,27.786,52.253h-.727Z" transform="translate(-5165.983 -7415.219)"/></g><g class="a" transform="translate(12.994 18.964)"><path class="ac" d="M5187.46,7433.46l.566-.3,27.946,52.553h-.727Z" transform="translate(-5169.467 -7413.37)"/></g><g class="a" transform="translate(12.994 18.964)"><path class="ad" d="M5191.51,7431.311l.566-.3,28.105,52.854h-.725Z" transform="translate(-5172.951 -7411.52)"/></g><g class="a" transform="translate(12.994 18.964)"><path class="ae" d="M5195.56,7429.152l.566-.3,28.267,53.156h-.727Z" transform="translate(-5176.436 -7409.662)"/></g><g class="a" transform="translate(12.994 18.964)"><path class="af" d="M5199.61,7427l.566-.3,28.427,53.456h-.727Z" transform="translate(-5179.919 -7407.813)"/></g><g class="a" transform="translate(12.994 18.964)"><path class="ag" d="M5203.66,7424.842l.566-.3,28.586,53.758h-.725Z" transform="translate(-5183.403 -7405.955)"/></g><g class="a" transform="translate(12.994 18.964)"><path class="ag" d="M5207.71,7422.69l.567-.3,28.746,54.058h-.727Z" transform="translate(-5186.887 -7404.105)"/></g><g class="a" transform="translate(12.994 18.964)"><path class="ah" d="M5211.77,7420.531l.566-.3,28.906,54.36h-.726Z" transform="translate(-5190.38 -7402.246)"/></g><g class="a" transform="translate(12.994 18.964)"><path class="ai" d="M5215.82,7418.381l.565-.3,29.066,54.661h-.725Z" transform="translate(-5193.865 -7400.397)"/></g><g class="a" transform="translate(12.994 18.964)"><path class="aj" d="M5219.87,7416.23l.566-.3,29.226,54.961h-.726Z" transform="translate(-5197.348 -7398.547)"/></g><g class="a" transform="translate(12.994 18.964)"><path class="ak" d="M5223.92,7414.072l.566-.3,29.387,55.263h-.727Z" transform="translate(-5200.832 -7396.69)"/></g><g class="a" transform="translate(12.994 18.964)"><path class="al" d="M5227.97,7411.921l.566-.3,29.547,55.563h-.726Z" transform="translate(-5204.316 -7394.84)"/></g><g class="a" transform="translate(12.994 18.964)"><path class="al" d="M5232.02,7409.762l.566-.3,29.708,55.865h-.727Z" transform="translate(-5207.801 -7392.981)"/></g><g class="a" transform="translate(12.994 18.964)"><path class="am" d="M5236.07,7407.61l.566-.3,29.868,56.166h-.727Z" transform="translate(-5211.285 -7391.131)"/></g><g class="a" transform="translate(12.994 18.964)"><path class="an" d="M5240.12,7405.452l.567-.3,30.025,56.467h-.725Z" transform="translate(-5214.769 -7389.274)"/></g><g class="a" transform="translate(12.994 18.964)"><path class="ao" d="M5244.18,7403.3l.566-.3,30.187,56.768h-.727Z" transform="translate(-5218.261 -7387.424)"/></g><g class="a" transform="translate(12.994 18.964)"><path class="ap" d="M5248.23,7401.15l.565-.3,30.347,57.068h-.727Z" transform="translate(-5221.746 -7385.574)"/></g><g class="a" transform="translate(12.994 18.964)"><path class="aq" d="M5252.28,7398.992l.566-.3,30.507,57.37h-.726Z" transform="translate(-5225.229 -7383.717)"/></g><g class="a" transform="translate(12.994 18.964)"><path class="ar" d="M5256.33,7396.841l.566-.3,30.667,57.671h-.727Z" transform="translate(-5228.713 -7381.867)"/></g><g class="a" transform="translate(12.994 18.964)"><path class="as" d="M5260.38,7394.682l.566-.3,30.828,57.973h-.727Z" transform="translate(-5232.197 -7380.009)"/></g><g class="a" transform="translate(12.994 18.964)"><path class="at" d="M5264.43,7392.531l.566-.3,30.987,58.272h-.726Z" transform="translate(-5235.682 -7378.159)"/></g><g class="a" transform="translate(12.994 18.964)"><path class="au" d="M5268.48,7390.372l.565-.3,31.148,58.574h-.726Z" transform="translate(-5239.166 -7376.302)"/></g><g class="a" transform="translate(12.994 18.964)"><path class="av" d="M5272.53,7388.221l.567-.3,31.307,58.875h-.727Z" transform="translate(-5242.65 -7374.452)"/></g><g class="a" transform="translate(12.994 18.964)"><path class="aw" d="M5276.59,7386.07l.566-.3,31.466,59.175h-.725Z" transform="translate(-5246.142 -7372.603)"/></g><g class="a" transform="translate(12.994 18.964)"><path class="ax" d="M5280.64,7383.911l.566-.3,31.627,59.477h-.727Z" transform="translate(-5249.626 -7370.744)"/></g><g class="a" transform="translate(12.994 18.964)"><path class="ay" d="M5284.69,7381.761l.566-.3,31.788,59.778h-.727Z" transform="translate(-5253.11 -7368.894)"/></g><g class="a" transform="translate(12.994 18.964)"><path class="az" d="M5288.74,7379.6l.566-.3,31.947,60.08h-.725Z" transform="translate(-5256.595 -7367.036)"/></g><g class="a" transform="translate(12.994 18.964)"><path class="ba" d="M5292.79,7377.45l.566-.3,32.107,60.381h-.727Z" transform="translate(-5260.079 -7365.186)"/></g><g class="a" transform="translate(12.994 18.964)"><path class="bb" d="M5296.84,7375.292l.566-.3,32.269,60.682h-.727Z" transform="translate(-5263.563 -7363.329)"/></g><g class="a" transform="translate(12.994 18.964)"><path class="bc" d="M5300.89,7373.141l.566-.3,32.428,60.982h-.725Z" transform="translate(-5267.046 -7361.479)"/></g><g class="a" transform="translate(12.994 18.964)"><path class="bd" d="M5304.939,7370.991l.566-.3,32.588,61.283h-.727Z" transform="translate(-5270.53 -7359.629)"/></g><g class="a" transform="translate(12.994 18.964)"><path class="be" d="M5308.99,7368.832l.567-.3,32.748,61.585h-.727Z" transform="translate(-5274.015 -7357.771)"/></g><g class="a" transform="translate(12.994 18.964)"><path class="bf" d="M5313.05,7366.681l.566-.3,32.908,61.886h-.727Z" transform="translate(-5277.507 -7355.921)"/></g><g class="a" transform="translate(12.994 18.964)"><path class="bg" d="M5317.1,7364.521l.565-.3,32.912,61.894-.553.294h-.016Z" transform="translate(-5280.992 -7354.063)"/></g><g class="bh" transform="matrix(0.883, -0.47, 0.47, 0.883, 0, 48.797)"><rect class="bi" width="0.641" height="70.099" transform="translate(53.093 5.903)"/></g><g class="bh" transform="matrix(0.883, -0.47, 0.47, 0.883, 0.196, 49.05)"><rect class="bj" width="0.641" height="70.099" transform="translate(53.659 5.603)"/></g><g class="bh" transform="matrix(0.883, -0.47, 0.47, 0.883, 0.415, 49.258)"><rect class="bk" width="0.641" height="70.099" transform="translate(54.225 5.301)"/></g><g class="bh" transform="matrix(0.883, -0.47, 0.47, 0.883, 0.613, 49.508)"><rect class="bl" width="0.641" height="70.099" transform="translate(54.792 5)"/></g><g class="bh" transform="matrix(0.883, -0.47, 0.47, 0.883, 0.818, 49.744)"><rect class="bm" width="0.641" height="70.099" transform="translate(55.358 4.7)"/></g><g class="bh" transform="matrix(0.883, -0.47, 0.47, 0.883, 1.032, 49.961)"><rect class="bn" width="0.641" height="70.099" transform="translate(55.924 4.398)"/></g><g class="bh" transform="matrix(0.883, -0.47, 0.47, 0.883, 1.235, 50.202)"><rect class="bo" width="0.641" height="70.099" transform="translate(56.49 4.098)"/></g><g class="bh" transform="matrix(0.883, -0.47, 0.47, 0.883, 1.453, 50.41)"><rect class="bp" width="0.641" height="70.099" transform="translate(57.056 3.796)"/></g><g class="bh" transform="matrix(0.883, -0.47, 0.47, 0.883, 1.65, 50.664)"><rect class="bq" width="0.641" height="70.099" transform="translate(57.622 3.495)"/></g><g class="bh" transform="matrix(0.883, -0.47, 0.47, 0.883, 1.857, 50.894)"><rect class="br" width="0.641" height="70.099" transform="translate(58.188 3.193)"/></g><g class="bh" transform="matrix(0.883, -0.47, 0.47, 0.883, 2.076, 51.102)"><rect class="bs" width="0.641" height="70.099" transform="translate(58.753 2.893)"/></g><g class="bh" transform="matrix(0.883, -0.47, 0.47, 0.883, 2.273, 51.355)"><rect class="bt" width="0.641" height="70.099" transform="translate(59.321 2.593)"/></g><g class="bh" transform="matrix(0.883, -0.47, 0.47, 0.883, 2.493, 51.56)"><rect class="bu" width="0.641" height="70.099" transform="translate(59.887 2.291)"/></g><g class="bh" transform="matrix(0.883, -0.47, 0.47, 0.883, 2.688, 51.816)"><rect class="bv" width="0.641" height="70.099" transform="translate(60.453 1.99)"/></g><g class="bh" transform="matrix(0.883, -0.47, 0.47, 0.883, 2.896, 52.047)"><rect class="bw" width="0.641" height="70.099" transform="translate(61.019 1.688)"/></g><g class="bh" transform="matrix(0.883, -0.47, 0.47, 0.883, 3.114, 52.255)"><rect class="bx" width="0.641" height="70.099" transform="translate(61.585 1.388)"/></g><g class="bh" transform="matrix(0.883, -0.47, 0.47, 0.883, 3.311, 52.508)"><rect class="by" width="0.641" height="70.099" transform="translate(62.151 1.086)"/></g><g class="bh" transform="matrix(0.883, -0.47, 0.47, 0.883, 3.529, 52.716)"><rect class="bz" width="0.641" height="70.099" transform="translate(62.716 0.786)"/></g><g class="bh" transform="matrix(0.883, -0.47, 0.47, 0.883, 3.726, 52.969)"><rect class="ca" width="0.641" height="70.099" transform="translate(63.282 0.485)"/></g><g class="bh" transform="matrix(0.883, -0.47, 0.47, 0.883, 3.934, 53.2)"><rect class="cb" width="0.641" height="70.099" transform="translate(63.848 0.183)"/></g><g class="bh" transform="matrix(0.883, -0.47, 0.47, 0.883, 4.152, 53.408)"><rect class="cc" width="0.641" height="70.099" transform="translate(64.416 -0.117)"/></g><g class="bh" transform="matrix(0.883, -0.47, 0.47, 0.883, 4.349, 53.661)"><rect class="cd" width="0.641" height="70.099" transform="translate(64.982 -0.419)"/></g><g class="bh" transform="matrix(0.883, -0.47, 0.47, 0.883, 4.567, 53.869)"><rect class="ce" width="0.641" height="70.099" transform="translate(65.548 -0.719)"/></g><g class="bh" transform="matrix(0.883, -0.47, 0.47, 0.883, 4.764, 54.122)"><rect class="cf" width="0.641" height="70.099" transform="translate(66.114 -1.021)"/></g><g class="bh" transform="matrix(0.883, -0.47, 0.47, 0.883, 4.972, 54.352)"><rect class="cg" width="0.641" height="70.099" transform="translate(66.68 -1.322)"/></g><g class="bh" transform="matrix(0.883, -0.47, 0.47, 0.883, 5.19, 54.56)"><rect class="ch" width="0.641" height="70.099" transform="translate(67.245 -1.622)"/></g><g class="bh" transform="matrix(0.883, -0.47, 0.47, 0.883, 5.387, 54.813)"><rect class="ci" width="0.641" height="70.099" transform="translate(67.811 -1.924)"/></g><g class="bh" transform="matrix(0.883, -0.47, 0.47, 0.883, 5.605, 55.021)"><rect class="cj" width="0.641" height="70.099" transform="translate(68.377 -2.224)"/></g><g class="bh" transform="matrix(0.883, -0.47, 0.47, 0.883, 5.802, 55.275)"><rect class="ck" width="0.641" height="70.099" transform="translate(68.945 -2.526)"/></g><g class="bh" transform="matrix(0.883, -0.47, 0.47, 0.883, 6.01, 55.505)"><rect class="cl" width="0.641" height="70.099" transform="translate(69.511 -2.827)"/></g><g class="bh" transform="matrix(0.883, -0.47, 0.47, 0.883, 6.228, 55.713)"><rect class="cm" width="0.641" height="70.099" transform="translate(70.077 -3.128)"/></g><g class="bh" transform="matrix(0.883, -0.47, 0.47, 0.883, 6.425, 55.966)"><rect class="cn" width="0.641" height="70.099" transform="translate(70.643 -3.429)"/></g><g class="bh" transform="matrix(0.883, -0.47, 0.47, 0.883, 6.643, 56.174)"><rect class="co" width="0.641" height="70.099" transform="translate(71.208 -3.729)"/></g><g class="bh" transform="matrix(0.883, -0.47, 0.47, 0.883, 6.84, 56.427)"><rect class="cp" width="0.641" height="70.099" transform="translate(71.774 -4.031)"/></g><g class="bh" transform="matrix(0.883, -0.47, 0.47, 0.883, 7.048, 56.658)"><rect class="cq" width="0.641" height="70.099" transform="translate(72.34 -4.332)"/></g><g class="bh" transform="matrix(0.883, -0.47, 0.47, 0.883, 7.266, 56.866)"><rect class="cr" width="0.641" height="70.099" transform="translate(72.906 -4.633)"/></g><g class="bh" transform="matrix(0.883, -0.47, 0.47, 0.883, 7.463, 57.119)"><rect class="cs" width="0.641" height="70.099" transform="translate(73.474 -4.934)"/></g><g class="bh" transform="matrix(0.883, -0.47, 0.47, 0.883, 7.681, 57.327)"><rect class="ct" width="0.641" height="70.099" transform="translate(74.04 -5.234)"/></g><g class="bh" transform="matrix(0.883, -0.47, 0.47, 0.883, 7.878, 57.58)"><rect class="cu" width="0.641" height="70.099" transform="translate(74.605 -5.536)"/></g><g class="bh" transform="matrix(0.883, -0.47, 0.47, 0.883, 8.086, 57.811)"><rect class="cv" width="0.641" height="70.099" transform="translate(75.171 -5.837)"/></g><g class="bh" transform="matrix(0.883, -0.47, 0.47, 0.883, 8.304, 58.018)"><rect class="cw" width="0.641" height="70.099" transform="translate(75.737 -6.138)"/></g><g class="bh" transform="matrix(0.883, -0.47, 0.47, 0.883, 8.501, 58.272)"><rect class="cx" width="0.641" height="70.099" transform="translate(76.303 -6.439)"/></g><g class="bh" transform="matrix(0.883, -0.47, 0.47, 0.883, 8.719, 58.48)"><rect class="cy" width="0.641" height="70.099" transform="translate(76.869 -6.741)"/></g><g class="bh" transform="matrix(0.883, -0.47, 0.47, 0.883, 8.916, 58.733)"><rect class="cz" width="0.641" height="70.099" transform="translate(77.435 -7.041)"/></g><g class="bh" transform="matrix(0.883, -0.47, 0.47, 0.883, 9.124, 58.963)"><rect class="da" width="0.641" height="70.099" transform="translate(78.001 -7.342)"/></g><g class="bh" transform="matrix(0.883, -0.47, 0.47, 0.883, 9.342, 59.171)"><rect class="db" width="0.641" height="70.099" transform="translate(78.569 -7.643)"/></g><g class="bh" transform="matrix(0.883, -0.47, 0.47, 0.883, 9.539, 59.425)"><rect class="dc" width="0.641" height="70.099" transform="translate(79.134 -7.944)"/></g><g class="bh" transform="matrix(0.883, -0.47, 0.47, 0.883, 9.758, 59.632)"><rect class="dd" width="0.641" height="70.099" transform="translate(79.7 -8.246)"/></g><g class="bh" transform="matrix(0.883, -0.47, 0.47, 0.883, 9.954, 59.886)"><rect class="de" width="0.641" height="70.099" transform="translate(80.266 -8.546)"/></g><g class="bh" transform="matrix(0.883, -0.47, 0.47, 0.883, 10.162, 60.116)"><rect class="df" width="0.641" height="70.099" transform="translate(80.832 -8.848)"/></g><g class="bh" transform="matrix(0.883, -0.47, 0.47, 0.883, 10.38, 60.324)"><rect class="dg" width="0.641" height="70.099" transform="translate(81.398 -9.148)"/></g><g class="bh" transform="matrix(0.883, -0.47, 0.47, 0.883, 10.577, 60.577)"><rect class="dh" width="0.641" height="70.099" transform="translate(81.964 -9.449)"/></g><g class="bh" transform="matrix(0.883, -0.47, 0.47, 0.883, 10.795, 60.785)"><rect class="di" width="0.641" height="70.099" transform="translate(82.53 -9.751)"/></g><g class="bh" transform="matrix(0.883, -0.47, 0.47, 0.883, 10.993, 61.038)"><rect class="dj" width="0.641" height="70.099" transform="translate(83.097 -10.051)"/></g><g class="bh" transform="matrix(0.883, -0.47, 0.47, 0.883, 11.211, 61.246)"><rect class="dk" width="0.641" height="70.099" transform="translate(83.663 -10.353)"/></g><g class="bh" transform="matrix(0.883, -0.47, 0.47, 0.883, 11.408, 61.499)"><rect class="dl" width="0.641" height="70.099" transform="translate(84.229 -10.653)"/></g><g class="bh" transform="matrix(0.883, -0.47, 0.47, 0.883, 11.615, 61.73)"><rect class="dm" width="0.641" height="70.099" transform="translate(84.795 -10.955)"/></g><g class="bh" transform="matrix(0.883, -0.47, 0.47, 0.883, 11.834, 61.938)"><rect class="dn" width="0.641" height="70.099" transform="translate(85.361 -11.256)"/></g><g class="bh" transform="matrix(0.883, -0.47, 0.47, 0.883, 12.031, 62.191)"><rect class="do" width="0.641" height="70.099" transform="translate(85.927 -11.556)"/></g><g class="bh" transform="matrix(0.883, -0.47, 0.47, 0.883, 12.249, 62.399)"><rect class="dp" width="0.641" height="70.099" transform="translate(86.493 -11.858)"/></g><g class="bh" transform="matrix(0.883, -0.47, 0.47, 0.883, 12.446, 62.652)"><rect class="dq" width="0.641" height="70.099" transform="translate(87.059 -12.158)"/></g><g class="bh" transform="matrix(0.883, -0.47, 0.47, 0.883, 12.653, 62.883)"><rect class="dr" width="0.641" height="70.099" transform="translate(87.626 -12.46)"/></g><g class="a" transform="translate(12.994 18.964)"><path class="ds" d="M5572.32,7229.413l.38-.2h.239L5605.8,7291l-.565.3Z" transform="translate(-5500.547 -7237.919)"/></g><g class="a" transform="translate(12.994 18.964)"><path class="dt" d="M5577.477,7229.21l32.7,61.494-.566.3-32.86-61.794Z" transform="translate(-5504.358 -7237.919)"/></g><g class="a" transform="translate(12.994 18.964)"><path class="du" d="M5582.675,7229.21l32.54,61.192-.566.3-32.7-61.494Z" transform="translate(-5508.832 -7237.919)"/></g><g class="a" transform="translate(12.994 18.964)"><path class="dv" d="M5587.867,7229.21l32.379,60.892-.565.3-32.54-61.192Z" transform="translate(-5513.297 -7237.919)"/></g><g class="a" transform="translate(12.994 18.964)"><path class="dw" d="M5593.066,7229.21l32.219,60.59-.566.3-32.379-60.892Z" transform="translate(-5517.77 -7237.919)"/></g><g class="a" transform="translate(12.994 18.964)"><path class="dx" d="M5598.265,7229.21l32.059,60.289-.566.3-32.218-60.59Z" transform="translate(-5522.243 -7237.919)"/></g><g class="a" transform="translate(12.994 18.964)"><path class="dy" d="M5603.457,7229.21l31.9,59.989-.567.3-32.06-60.289Z" transform="translate(-5526.707 -7237.919)"/></g><g class="a" transform="translate(12.994 18.964)"><path class="dz" d="M5608.657,7229.21,5640.4,7288.9l-.565.3-31.9-59.989Z" transform="translate(-5531.181 -7237.919)"/></g><g class="a" transform="translate(12.994 18.964)"><path class="ea" d="M5613.855,7229.21l31.58,59.387-.566.3-31.739-59.687Z" transform="translate(-5535.654 -7237.919)"/></g><g class="a" transform="translate(12.994 18.964)"><path class="eb" d="M5619.046,7229.21l31.137,58.554v.682l-.284.151-31.58-59.387Z" transform="translate(-5540.119 -7237.919)"/></g><g class="a" transform="translate(12.994 18.964)"><path class="ec" d="M5624.247,7229.21l30.41,57.188v1.366l-31.137-58.554Z" transform="translate(-5544.593 -7237.919)"/></g><g class="a" transform="translate(12.994 18.964)"><path class="ed" d="M5629.446,7229.21l29.685,55.823v1.365l-30.41-57.188Z" transform="translate(-5549.066 -7237.919)"/></g><g class="a" transform="translate(12.994 18.964)"><path class="ee" d="M5634.637,7229.21l28.958,54.458v1.365l-29.685-55.823Z" transform="translate(-5553.531 -7237.919)"/></g><g class="a" transform="translate(12.994 18.964)"><path class="ef" d="M5639.837,7229.21l28.231,53.091v1.367l-28.958-54.458Z" transform="translate(-5558.004 -7237.919)"/></g><g class="a" transform="translate(12.994 18.964)"><path class="eg" d="M5645.036,7229.21l27.506,51.726v1.366l-28.231-53.091Z" transform="translate(-5562.478 -7237.919)"/></g><g class="a" transform="translate(12.994 18.964)"><path class="eh" d="M5650.227,7229.21l26.78,50.36v1.365L5649.5,7229.21Z" transform="translate(-5566.942 -7237.919)"/></g><g class="a" transform="translate(12.994 18.964)"><path class="ei" d="M5655.427,7229.21l26.053,48.994v1.366l-26.779-50.36Z" transform="translate(-5571.416 -7237.919)"/></g><g class="a" transform="translate(12.994 18.964)"><path class="ej" d="M5660.625,7229.21l25.328,47.629v1.365L5659.9,7229.21Z" transform="translate(-5575.889 -7237.919)"/></g><g class="a" transform="translate(12.994 18.964)"><path class="ek" d="M5665.817,7229.21l24.6,46.263v1.366l-25.328-47.629Z" transform="translate(-5580.354 -7237.919)"/></g><g class="a" transform="translate(12.994 18.964)"><path class="el" d="M5671.017,7229.21l23.874,44.9v1.365l-24.6-46.263Z" transform="translate(-5584.827 -7237.919)"/></g><g class="a" transform="translate(12.994 18.964)"><path class="em" d="M5676.217,7229.21l23.148,43.532v1.366l-23.875-44.9Z" transform="translate(-5589.3 -7237.919)"/></g><g class="a" transform="translate(12.994 18.964)"><path class="en" d="M5681.416,7229.21l22.422,42.167v1.365l-23.148-43.532Z" transform="translate(-5593.773 -7237.919)"/></g><g class="a" transform="translate(12.994 18.964)"><path class="eo" d="M5686.607,7229.21l21.7,40.8v1.365l-22.423-42.167Z" transform="translate(-5598.238 -7237.919)"/></g><g class="a" transform="translate(12.994 18.964)"><path class="ep" d="M5691.807,7229.21l20.97,39.436v1.366l-21.7-40.8Z" transform="translate(-5602.712 -7237.919)"/></g><g class="a" transform="translate(12.994 18.964)"><path class="ep" d="M5717.249,7268.646l-20.97-39.436h20.97Z" transform="translate(-5607.184 -7237.919)"/></g></g><g class="eq" transform="translate(12.996 18.964)"><path class="er" d="M5078.358,7347.172c19.638-17.033,16.7-36.933,38.24-46.282,26.959-11.7,45.052,14.7,45.052,14.7a43.03,43.03,0,0,1,.771,7.148,48.011,48.011,0,0,0-.577-13.511s-18.091-26.4-45.052-14.7-15.568,39.924-58.083,58.375A74.238,74.238,0,0,1,5078.358,7347.172Z" transform="translate(-5058.71 -7291.537)"/></g><g class="es" transform="translate(12.994 56.546)"><path class="et" d="M5161.335,7560.48a32.868,32.868,0,0,1-15.2,12.71c-22.3,9.677-35.477-8.779-63.422-5.012-5.4,5.718-12.845,11.238-24.012,16.085,42.516-18.451,56.143,10.979,83.1-.723A32.72,32.72,0,0,0,5161.335,7560.48Z" transform="translate(-5058.7 -7560.48)"/></g><g transform="translate(46.657 23.358)"><path class="eu" d="M5299.6,7365.99c24.752-10.742,41.5,6.384,57.2-.429s10.023-28.779,10.023-28.779-12.169-19.147-27.867-12.334S5324.353,7355.249,5299.6,7365.99Z" transform="translate(-5299.601 -7322.981)"/></g><g transform="translate(9.466 16.686)"><path class="et" d="M5106.519,7343.342c-6.641,0-12.844-1.793-19.259-3.647-12.98-3.752-27.692-8-50.6,1.941a2.294,2.294,0,1,1-1.825-4.209c22.942-9.956,30.1-23.123,36.421-34.739,5.256-9.663,10.221-18.791,22.9-24.292,11.764-5.106,23.8-4.018,34.8,3.146a50.548,50.548,0,0,1,13.057,12.365,2.266,2.266,0,0,1,.347.8,50.5,50.5,0,0,1,.115,17.981c-2.284,12.929-9.708,22.462-21.471,27.567A35.661,35.661,0,0,1,5106.519,7343.342Zm-42.865-12.481c9.56,0,17.484,2.29,24.879,4.427,10.432,3.015,19.442,5.618,30.637.761,23.275-10.1,19.453-36.243,18.788-39.918-2.316-3.174-18.5-23.72-41.981-13.525-11.227,4.872-15.615,12.937-20.693,22.275-4.719,8.677-9.882,18.17-21.131,26.731A60.989,60.989,0,0,1,5063.654,7330.86Z" transform="translate(-5033.45 -7275.23)"/></g></g><g transform="translate(255.021 223.703)"><path class="er" d="M6790.69,6432.81s29.8,12.523,34.854,20.267-13.47,7.932-13.47,7.932" transform="translate(-6790.69 -6432.81)"/></g><g transform="translate(252.375 221.058)"><path class="et" d="M6795.785,6447.369a2.65,2.65,0,0,1-2.109-1.047l-21.384-28.2a2.646,2.646,0,0,1,3.133-4.039c3.127,1.313,30.7,13.074,36.044,21.26,1.875,2.875,1.393,5.115.659,6.488-2.679,5.008-13.167,5.5-16.318,5.535A.126.126,0,0,0,6795.785,6447.369Zm-13.016-24.188,14.3,18.858c4.953-.235,9.719-1.44,10.394-2.7.064-.12-.063-.546-.425-1.1C6804.511,6434.363,6793.065,6428.07,6782.769,6423.181Z" transform="translate(-6771.754 -6413.88)"/></g><g transform="translate(107.367 151.059)"><g transform="translate(2.627 2.623)"><path class="er" d="M5772.771,5936.083c-11.577,8.676-22.185,49.989-19.5,74.617s46.213,26.472,71.109,25.673,24.81-57.089,24.482-72.168C5848.351,5940.66,5789.926,5923.228,5772.771,5936.083Z" transform="translate(-5752.849 -5931.724)"/></g><g class="ev" transform="translate(2.627 3.348)"><path class="et" d="M5824.375,6040.836c-24.9.8-68.426-1.048-71.112-25.675a81.646,81.646,0,0,1-.394-10.42c6.875,5.4,16.455.6,17.61-6.015,7.133-40.8,22.326-56.457,29.676-61.816,22.4,3.139,48.366,16.093,48.7,31.759C5849.185,5983.745,5849.271,6040.036,5824.375,6040.836Z" transform="translate(-5752.845 -5936.91)"/></g><path class="et" d="M5799.524,6023.015c-30.083,0-62.58-5.376-65.063-28.176-2.594-23.825,7.278-67.075,20.547-77.02,11.766-8.819,38.909-4.611,57.311,4.347,14.632,7.123,22.8,16.3,23.01,25.835.6,27.618-2.121,74.07-27.044,74.87C5805.41,6022.963,5802.478,6023.015,5799.524,6023.015Zm-25.265-104.825c-6.848,0-12.59,1.252-16.077,3.863h0c-10.69,8.012-21.042,48.505-18.459,72.213,2.407,22.118,43.885,24.1,68.394,23.315,21.722-.7,22.271-53.347,21.922-69.466-.159-7.347-7.462-15.071-20.036-21.191C5798.324,5921.238,5784.946,5918.189,5774.259,5918.189Zm-17.663,1.747h0Z" transform="translate(-5734.046 -5912.954)"/><g transform="translate(5.269 43.579)"><path class="er" d="M5791.478,6229.534l-11.049-4.4a4.468,4.468,0,0,0-5.982,3.021c-2.321,8.953-5.9,27.512,3.113,31.312,10.919,4.6,14.789-7.992,16.709-25.3A4.464,4.464,0,0,0,5791.478,6229.534Z" transform="translate(-5771.753 -6224.81)"/></g><g class="ev" transform="translate(5.282 48.447)"><path class="et" d="M5794.327,6264.108c-1.878,17.31-5.721,29.917-16.648,25.334-4.49-1.876-5.868-7.425-5.833-13.624a7.99,7.99,0,0,0,4.044,3.912c9.785,4.1,13.894-5.579,15.985-20.081A4.423,4.423,0,0,1,5794.327,6264.108Z" transform="translate(-5771.845 -6259.649)"/></g><g transform="translate(2.793 41.145)"><path class="et" d="M5766.563,6247.888a13.367,13.367,0,0,1-5.155-1.14c-9.987-4.184-8.019-20.889-4.609-34.167a6.914,6.914,0,0,1,9.244-4.7l11.059,4.379a6.925,6.925,0,0,1,4.332,7.162c-1.727,15.9-4.728,24.022-10.033,27.152A9.355,9.355,0,0,1,5766.563,6247.888Zm-3.072-35.605a2.031,2.031,0,0,0-.919.224,2,2,0,0,0-1.035,1.29c-3.1,12.09-4.273,25.912,1.761,28.439,2.294.962,4.132,1,5.619.126,5.457-3.218,7.113-18.46,7.657-23.468a2.019,2.019,0,0,0-1.271-2.087l-11.059-4.379A2.028,2.028,0,0,0,5763.492,6212.282Z" transform="translate(-5754.03 -6207.395)"/></g><g transform="translate(17.171 6.793)"><path class="et" d="M5860.685,5961.809l13.019,6.013c4.331,2.036,8.651,4.047,12.955,6.237a1.324,1.324,0,0,1-1.083,2.413l-.023-.009c-4.385-1.741-8.886-3.352-13.361-4.97l-13.477-4.772-.023-.008a2.649,2.649,0,1,1,1.769-4.995C5860.534,5961.745,5860.614,5961.776,5860.685,5961.809Z" transform="translate(-5856.925 -5961.565)"/></g></g><g transform="translate(223.166 117.041)"><path class="er" d="M6667.866,5702.607c-4.293,14.645-36.9,41.764-83.666,43.12a126,126,0,0,1-13.956-.358l-4.174-17.827-3.34-14.267s7.262-1.324,17.19-3.962a210.6,210.6,0,0,0,26.26-8.678c8.4-3.492,16.278-7.705,21.716-12.634,0,0,.3-14.671,4.458-16.165,5.079-1.825,8.844,8.493,8.844,8.493s11.549-11.886,18.289-10.735C6669.506,5671.3,6672.582,5686.547,6667.866,5702.607Z" transform="translate(-6562.73 -5669.517)"/></g><g class="ew" transform="translate(223.166 138.159)"><path class="et" d="M6669.969,5820.64a52.839,52.839,0,0,1-2.1,11.973c-4.71,16.06-43.464,47.128-97.622,42.762l-7.514-32.093s2.255-.411,5.967-1.229l8.781,17.01C6622.212,5872.539,6662.62,5837.163,6669.969,5820.64Z" transform="translate(-6562.73 -5820.64)"/></g><g transform="translate(220.521 114.4)"><path class="et" d="M6564.232,5732.175q-5.146,0-10.483-.423a2.646,2.646,0,1,1,.425-5.274c53.414,4.3,90.709-26.7,94.869-40.875,2.97-10.118,2.679-20.193-.74-25.667a8.059,8.059,0,0,0-5.544-3.991c-3.695-.631-11.551,5.454-15.948,9.975l-2.939,3.021-1.444-3.958c-1.164-3.168-3.838-7.409-5.421-6.926-1.312.936-2.621,7.452-2.751,13.742l-.024,1.141-.845.766c-18.846,17.067-64.528,25.564-66.463,25.918a2.646,2.646,0,0,1-.952-5.205c.453-.083,44.745-8.321,63.027-23.9.207-5.427,1.258-15.655,6.175-17.424,4.992-1.8,8.624,2.894,10.588,6.5,4.233-3.841,11.968-9.867,17.887-8.859a13.311,13.311,0,0,1,9.145,6.4c4.248,6.8,4.756,18.279,1.329,29.958C6649.318,5703.452,6613.931,5732.172,6564.232,5732.175Zm52.8-74.134" transform="translate(-6543.8 -5650.62)"/></g><g transform="translate(142.168 144.748)"><path class="er" d="M6120.669,5979.343s-65.491,25.326-88.468,23.514-47.717-5.45-49.072-49.033c-.84-27.093,12.561-53.749,22.826-70.033a161.412,161.412,0,0,1,11.337-16l63.234,3.228s.245,3.334.754,8.864c.317,3.453.741,7.758,1.277,12.641.767,7.011,1.759,15.207,3,23.772a363.348,363.348,0,0,0,7.541,39C6094.455,5960.438,6116.045,5961.847,6120.669,5979.343Z" transform="translate(-5983.091 -5867.79)"/></g><g transform="translate(139.54 144.005)"><path class="et" d="M6067.958,5894.075a191.854,191.854,0,0,1,5.092,23.3c1.389,7.785,2.632,15.584,4.24,23.295.41,1.926.846,3.843,1.3,5.756l.7,2.858.179.714.011.043,0-.008v-.018a.069.069,0,0,0-.01-.032.086.086,0,0,0-.024-.022.068.068,0,0,1,.02.011c.013.01.007.018.02.041a.9.9,0,0,1,.1.1c.032.065.2.17.289.263a12.993,12.993,0,0,0,2.087,1.255c.813.417,1.69.819,2.586,1.227,1.79.812,3.652,1.643,5.5,2.575a39.062,39.062,0,0,1,10.451,7.261,26,26,0,0,1,4.025,5.256,25.491,25.491,0,0,1,2.53,6.142l.616,2.3-2.22.845c-10.414,3.964-20.866,7.641-31.436,11.1-10.569,3.435-21.228,6.637-32.117,9.208a144.837,144.837,0,0,1-16.625,3.046,50.627,50.627,0,0,1-8.727.366c-.772-.021-1.435-.094-2.137-.146l-2.088-.182c-1.393-.128-2.792-.263-4.193-.431a72.787,72.787,0,0,1-16.788-3.675,41.326,41.326,0,0,1-7.942-3.9,35.351,35.351,0,0,1-6.881-5.722,37.061,37.061,0,0,1-5.194-7.24,44.747,44.747,0,0,1-3.494-8.059l-.349-1.034-.293-1.045-.578-2.092-.474-2.107-.233-1.054-.186-1.059-.37-2.118c-.11-.708-.189-1.416-.284-2.123-.206-1.416-.324-2.831-.443-4.248a90.421,90.421,0,0,1,.148-17.061,106.249,106.249,0,0,1,3.169-16.706,151.279,151.279,0,0,1,12.68-31.247,145.067,145.067,0,0,1,8.446-14.558,51.782,51.782,0,0,1,11.373-12.493.906.906,0,0,1,1.366,1.1l-.016.034a124.856,124.856,0,0,1-8.041,14.416c-2.832,4.658-5.89,9.184-8.449,14a144.766,144.766,0,0,0-12.253,30.135,100.886,100.886,0,0,0-3.013,15.871,84.916,84.916,0,0,0-.138,16.081c.113,1.341.224,2.682.417,4,.09.662.162,1.33.266,1.99l.345,1.969.172.985.216.971.436,1.941.527,1.907.265.953.316.931a39.4,39.4,0,0,0,3.093,7.146,31.77,31.77,0,0,0,4.452,6.218,32.39,32.39,0,0,0,12.777,8.256,67.621,67.621,0,0,0,15.565,3.381c1.345.161,2.7.293,4.062.417l2.045.178c.676.052,1.392.127,2,.137.639.011,1.253.081,1.91.05l1.952-.046c1.32-.1,2.637-.171,3.972-.345a139.89,139.89,0,0,0,16.006-2.94c10.652-2.516,21.209-5.682,31.685-9.087s20.9-7.089,31.164-11l-1.6,3.144a20.061,20.061,0,0,0-5.205-9.033,33.84,33.84,0,0,0-9.069-6.255c-1.7-.864-3.474-1.655-5.3-2.485-.913-.415-1.844-.841-2.8-1.329a17.474,17.474,0,0,1-3-1.844,7.546,7.546,0,0,1-.81-.74l-.4-.45c-.136-.176-.27-.382-.4-.578a5.4,5.4,0,0,1-.6-1.382l-.19-.73-.76-2.922c-.486-1.951-.957-3.9-1.4-5.861-.894-3.911-1.75-7.828-2.5-11.76s-1.387-7.881-1.945-11.838a120.829,120.829,0,0,1-1.35-23.957.9.9,0,0,1,1.755-.21Z" transform="translate(-5964.286 -5862.474)"/></g><g transform="translate(107.014 323.896)"><path class="ex" d="M5773.061,7215.368l-11.333,1.764a14.1,14.1,0,0,1-13.411-5.42h0a84.667,84.667,0,0,1-16.719-42.32h0a14.106,14.106,0,0,1,6.085-13.123l9.479-6.459" transform="translate(-5731.521 -7149.81)"/></g><g class="ey" transform="translate(107.01 325.292)"><path class="er" d="M5749.154,7164.9l-9.386,6.4a15.583,15.583,0,0,0-6.727,14.51q.344,3.3.924,6.563a84.452,84.452,0,0,1-2.391-12.99,14.115,14.115,0,0,1,6.086-13.123l9.48-6.457Z" transform="translate(-5731.497 -7159.801)"/></g><g transform="translate(114.23 323.896)"><g class="ew"><path class="et" d="M5783.16,7192.973h0a84.747,84.747,0,0,0,8.181,13.15,14.1,14.1,0,0,0,13.411,5.418l10.569-1.645-23.736-60.087-2.023,1.379,17.6,44.544-11.337,1.765A14.091,14.091,0,0,1,5783.16,7192.973Zm21.838-2.711-15.438-39.073.639-.436,15.563,39.39Z" transform="translate(-5783.16 -7149.81)"/></g></g><g transform="translate(84.451 291.225)"><path class="ez" d="M5636.165,6931.266c-5.892-11.542-26.08-26.816-65.791-1.618a.68.68,0,0,0,.243,1.242c6.608,1.178,37.694,6.475,43.386,22.641" transform="translate(-5570.059 -6916.007)"/></g><g class="ey" transform="translate(84.452 290.526)"><path class="er" d="M5577.062,6927.133c-2.85-.609-5.133-1.006-6.442-1.24a.679.679,0,0,1-.244-1.241c39.712-25.2,59.9-9.926,65.791,1.618l-2.4,2.41C5626.149,6918.845,5608.245,6909.875,5577.062,6927.133Z" transform="translate(-5570.061 -6911.01)"/></g><g transform="translate(81.804 288.553)"><path class="et" d="M5597.7,6939.727a2.647,2.647,0,0,1-2.5-1.768c-1.9-5.4-9.764-15.3-41.042-20.859l-.313-.055a3.326,3.326,0,0,1-1.2-6.082c19.305-12.25,36.137-16.537,50.025-12.742a30.755,30.755,0,0,1,19.54,15.39,2.646,2.646,0,1,1-4.713,2.4,25.436,25.436,0,0,0-16.221-12.691c-11.216-3.065-25.476.21-41.461,9.472,28.494,5.893,37.723,15.876,40.372,23.4a2.647,2.647,0,0,1-1.617,3.375A2.613,2.613,0,0,1,5597.7,6939.727Z" transform="translate(-5551.111 -6896.884)"/></g><g transform="translate(132.86 380.686)"><path class="fa" d="M5963.942,7557.36c3.588,12.453-.446,38.072-46.656,46.816a.681.681,0,0,1-.672-1.073c4.019-5.376,22.811-31.2,15.917-46.894" transform="translate(-5916.478 -7556.209)"/></g><g transform="translate(132.862 380.688)"><path class="ez" d="M5917.3,7604.188a.682.682,0,0,1-.67-1.076,121.688,121.688,0,0,0,12.363-20.25c4.134-8.858,6.87-18.842,3.622-26.474-.022-.056-.05-.113-.071-.169l.19.006,31.221,1.141a27.9,27.9,0,0,1,.452,12.937C5961.958,7582.874,5950.544,7597.893,5917.3,7604.188Z" transform="translate(-5916.494 -7556.22)"/></g><g class="ew" transform="translate(145.361 380.693)"><path class="et" d="M6005.939,7582.9c4.135-8.858,6.87-18.843,3.622-26.474.041-.053.078-.11.119-.164l31.221,1.142a27.872,27.872,0,0,1,.453,12.936C6033.9,7576.659,6022.611,7581.623,6005.939,7582.9Z" transform="translate(-6005.939 -7556.26)"/></g><g transform="translate(130.211 378.041)"><path class="et" d="M5900.843,7590.55a3.327,3.327,0,0,1-2.652-5.317c5.179-6.929,21.611-30.595,15.613-44.244a2.646,2.646,0,0,1,4.845-2.128c6.1,13.89-5.456,34.143-13.239,45.4,17.758-4.124,30.29-11.479,36.407-21.422a26.666,26.666,0,0,0,3.28-21.029,2.646,2.646,0,1,1,5.085-1.466,31.6,31.6,0,0,1-3.858,25.268c-7.575,12.313-22.666,20.684-44.85,24.882A3.376,3.376,0,0,1,5900.843,7590.55Zm-.354-5.259h0Z" transform="translate(-5897.524 -7537.278)"/></g><g transform="translate(121.885 242.341)"><path class="er" d="M6083.065,6588.8s-10.384,66.06-95.942,106.862c-72.891,34.76-123.286,17.634-123.286,17.634a101.509,101.509,0,0,1-25.9-65.562s11.192-20.954,41.578-42.146c1.045-.729,2.117-1.462,3.208-2.189a218.3,218.3,0,0,1,44.179-22.5q6.27-2.382,13.077-4.545c.179-.06.358-.111.535-.165a211.393,211.393,0,0,1,50.137-9.638c.483-.033.958-.061,1.436-.086C6050.271,6563.217,6083.065,6588.8,6083.065,6588.8Z" transform="translate(-5837.939 -6566.185)"/></g><g transform="translate(285.809 242.35)"><path class="ez" d="M7048.586,6661.373a244.731,244.731,0,0,0-37.576-95.117c52.543-.352,81.967,22.6,81.967,22.6S7087.184,6625.719,7048.586,6661.373Z" transform="translate(-7011.01 -6566.252)"/></g><g class="ey" transform="translate(285.809 241.652)"><path class="er" d="M7091.887,6588.657c.816-3.067,1.09-4.8,1.09-4.8s-29.422-22.954-81.967-22.6q1.849,2.779,3.617,5.606C7059.166,6567.473,7086.282,6584.728,7091.887,6588.657Z" transform="translate(-7011.01 -6561.252)"/></g><g transform="translate(280.894 239.706)"><path class="et" d="M7016.53,6650.362l-.808-4.83a240.5,240.5,0,0,0-37.171-94.089l-2.71-4.078,4.9-.031c41.649-.288,69.155,13.954,79.053,20.086a9.787,9.787,0,0,1,4.321,10.938c-3.035,11.239-13.4,40.429-43.984,68.685Zm-30.875-97.7a245.489,245.489,0,0,1,34.421,87.129c26.841-26.229,36.128-52.46,38.924-62.812a4.532,4.532,0,0,0-2-5.061C7047.886,6566.267,7023.174,6553.464,6985.656,6552.659Z" transform="translate(-6975.841 -6547.33)"/></g><g transform="translate(119.993 239.699)"><path class="et" d="M5886.791,6703.9c-21.6,0-34.158-4.183-34.685-4.361l-.656-.223-.462-.516a104.073,104.073,0,0,1-26.573-67.266l-.016-.693.327-.611c.264-.494,6.664-12.295,22.693-27.214,14.7-13.679,40.66-32.666,80.883-45.437a209.5,209.5,0,0,1,61.9-10.289l1.43-.01.791,1.19a245.791,245.791,0,0,1,37.942,95.9l.526,1.426-1.3,1.205a209.466,209.466,0,0,1-52.216,34.791c-38.091,18.166-70.022,22.049-90.1,22.105C5887.112,6703.9,5886.95,6703.9,5886.791,6703.9Zm-32.349-9.176c2.8.827,14.667,3.988,33.1,3.882,19.479-.089,50.481-3.908,87.555-21.588a205.053,205.053,0,0,0,49.848-32.934A240.414,240.414,0,0,0,5988.8,6552.6a204.976,204.976,0,0,0-58.9,10.025c-70.482,22.381-97,64.133-100.181,69.527a98.808,98.808,0,0,0,24.718,62.575Z" transform="translate(-5824.4 -6547.28)"/></g><g transform="translate(104.366 321.252)"><path class="et" d="M5743.249,7203.668a16.724,16.724,0,0,1-13.341-6.638,87.323,87.323,0,0,1-17.241-43.642,16.729,16.729,0,0,1,7.228-15.584l9.479-6.458a2.646,2.646,0,1,1,2.979,4.374l-9.479,6.459a11.44,11.44,0,0,0-4.944,10.661,82.038,82.038,0,0,0,16.2,41,11.446,11.446,0,0,0,10.9,4.4l11.333-1.763a2.646,2.646,0,1,1,.813,5.229l-11.333,1.764A17.178,17.178,0,0,1,5743.249,7203.668Z" transform="translate(-5712.576 -7130.887)"/></g><g class="ew" transform="translate(209.008 260.051)"><circle class="et" cx="36.394" cy="36.394" r="36.394" transform="translate(0 51.468) rotate(-45)"/></g><g transform="translate(228.567 274.294)"><ellipse class="et" cx="32.727" cy="32.727" rx="32.727" ry="32.727"/></g><g class="ey" transform="translate(228.559 274.984)"><path class="er" d="M6666.245,6826.579c-.224-.709-.473-1.412-.748-2.113a32.729,32.729,0,0,0-62.618,18A32.728,32.728,0,0,1,6664.5,6820.5,33.127,33.127,0,0,1,6666.245,6826.579Z" transform="translate(-6601.321 -6799.783)"/></g><g class="ew" transform="translate(228.562 302.111)"><path class="et" d="M6646.094,7029.259a32.725,32.725,0,0,1-44.5-34.474,32.728,32.728,0,0,0,64.839-.875A32.741,32.741,0,0,1,6646.094,7029.259Z" transform="translate(-6601.34 -6993.91)"/></g><g transform="translate(225.902 271.629)"><path class="et" d="M6617.692,6846.563a35.464,35.464,0,1,1,13.005-2.494h0A35.333,35.333,0,0,1,6617.692,6846.563Zm.015-65.49a30.09,30.09,0,1,0,11.046,58.076h0a30.1,30.1,0,0,0-11.046-58.076Z" transform="translate(-6582.309 -6775.778)"/></g><g transform="translate(232.055 277.071)"><circle class="fb" cx="20.821" cy="20.821" r="20.821" transform="translate(0 29.445) rotate(-45)"/></g><g class="es" transform="translate(240.7 299.526)"><path class="er" d="M6716.664,7001.767a20.819,20.819,0,0,1-27.013-11.717A20.591,20.591,0,0,1,6688.2,6983c.075.218.158.433.243.655a20.823,20.823,0,0,0,40.181-8.242A20.821,20.821,0,0,1,6716.664,7001.767Z" transform="translate(-6688.2 -6975.41)"/></g><g class="ew" transform="translate(240.915 286.362)"><path class="et" d="M6731.389,6902.435c-.119-.337-.238-.674-.372-1.011a20.821,20.821,0,0,0-40.183,7.244,20.822,20.822,0,1,1,40.554-6.233Z" transform="translate(-6689.745 -6881.205)"/></g><g transform="translate(238.046 283.05)"><path class="et" d="M6692.672,6904.452a23.5,23.5,0,1,1,8.626-1.655A23.432,23.432,0,0,1,6692.672,6904.452Zm-.017-41.655a18.175,18.175,0,1,0,6.7,35.079h0a18.175,18.175,0,0,0-6.7-35.079Z" transform="translate(-6669.209 -6857.505)"/></g><g class="fc" transform="translate(303.416 253.056)"><path class="er" d="M7163.056,6651.688c-.158-4.97-10.484-8.867-16.327-8.82-6.052.047-9.692,1.09-9.719,4.019-.036,4.09,4.677,5.532,10.279,5.745C7151.25,6652.781,7163.25,6657.821,7163.056,6651.688Z" transform="translate(-7137.01 -6642.867)"/></g><g class="fc" transform="translate(331.734 259.428)"><path class="er" d="M7352.553,6697.19c-.324-4.308-5.534-8.321-8.368-8.647-2.936-.337-4.652.337-4.519,2.869.186,3.535,2.548,5.077,5.278,5.61C7346.875,6697.4,7352.954,6702.507,7352.553,6697.19Z" transform="translate(-7339.659 -6688.462)"/></g><g transform="translate(122.655 260.722)"><g class="ew"><path class="et" d="M5867.95,6821.562s50.395,17.125,123.281-17.63c74.02-35.3,91.771-89.494,95.215-103.474.35.233.657.444.922.629-1.074-.746-2.855-1.927-5.33-3.366-10.05,22.839-33.974,59.586-89.076,85.865-34.416,16.411-63.817,21.256-85.265,21.8a60.582,60.582,0,0,1-59.781-43.168c-.043-.146-.085-.291-.127-.435-.3-1.042-.584-2.094-.854-3.148-.14-.436-.286-.868-.416-1.308-.043-.146-.085-.291-.127-.435s-.083-.313-.128-.469l.1-.143h0c-2,2.915-2.91,4.617-2.91,4.617a88.322,88.322,0,0,0,24.5,60.665Z" transform="translate(-5843.451 -6697.721)"/></g></g><g transform="translate(109.108 340.532)"><path class="ez" d="M5780.981,7294.922c-15.005,5.924-34.471-.117-34.471-.117s.038-.068.112-.187c1.13-1.92,10.88-17.886,24.967-23.459,13.52-5.345,28.247.141,30.869,1.21.27.11.411.173.411.173S5795.886,7289.042,5780.981,7294.922Z" transform="translate(-5746.51 -7268.855)"/></g><g class="ey" transform="translate(109.804 341.229)"><path class="er" d="M5807.851,7277.533s-.426,1-1.287,2.6c-5.018-1.737-17.436-5.068-28.98-.5-11.329,4.48-19.852,15.683-23.347,20.891-1.735-.411-2.748-.724-2.748-.724s.042-.068.114-.19c1.133-1.917,10.883-17.884,24.97-23.457,13.518-5.346,28.241.14,30.864,1.209C5807.711,7277.473,5807.851,7277.533,5807.851,7277.533Z" transform="translate(-5751.489 -7273.848)"/></g><g class="ew" transform="translate(109.108 344.045)"><path class="ez" d="M5780.981,7316.554c-15.005,5.924-34.471-.117-34.471-.117s.038-.068.112-.187L5802.456,7294c.27.11.411.174.411.174S5795.886,7310.674,5780.981,7316.554Z" transform="translate(-5746.51 -7294)"/></g><g transform="translate(105.179 337.878)"><path class="et" d="M5741.339,7283.849a73.645,73.645,0,0,1-19.807-2.85l-3.143-.976,1.628-2.86c.431-.756,10.724-18.6,26.409-24.8,15.754-6.229,32.611,1.109,33.321,1.425l2.374,1.056-1.012,2.394c-.3.715-7.592,17.593-23.352,23.813A45.055,45.055,0,0,1,5741.339,7283.849Zm-14.826-7.038c6.041,1.353,18.956,3.4,29.3-.682s16.676-13.856,19.181-18.465c-4.986-1.648-16.308-4.458-26.624-.379C5738,7261.387,5729.992,7271.7,5726.513,7276.811Zm-4.194,1.66h0Z" transform="translate(-5718.39 -7249.868)"/></g><g class="ev" transform="translate(163.463 257.06)"><path class="et" d="M6190.156,6727.082c2.083,2.99,16.477,27.271,4.895,36.922-10.139,8.453-28.852,7.063-38.714-6.225-6.515-8.79-7.839-18.923-7.468-26.676.438-9.055,2.057-17.693-2.46-24.474-2.408-3.625-6.376-6.847-10.928-10.425,1.045-.729,2.117-1.462,3.208-2.189a218.337,218.337,0,0,1,44.178-22.5,35.293,35.293,0,0,1,9.558,6.563c10.979,10.894,11.284,32.761,3.83,41.624C6193.318,6723.2,6190.156,6727.082,6190.156,6727.082Z" transform="translate(-6135.48 -6671.521)"/></g><g transform="translate(137.284 148.106)"><path class="er" d="M6035.609,6049.722c2.083,2.99,16.477,27.271,4.9,36.922-10.14,8.453-28.852,7.063-38.715-6.224-6.515-8.792-7.838-18.924-7.468-26.676.436-9.056,2.057-17.694-2.461-24.475-5.139-7.726-25.193-10.608-35.168-22.046-5.88-6.734-9.029-18.964-8.493-33.946a105.4,105.4,0,0,1,1.542-14.347c3.7-21.179,14.062-45.54,33.138-67.11,0,0,7.581,30.321,15.523,57.261,5.536,18.778,11.25,35.916,14.684,39.971a2.277,2.277,0,0,0,1.244.9,47.348,47.348,0,0,1,13.15,3.809,36,36,0,0,1,10.4,6.958c10.979,10.894,11.284,32.762,3.831,41.624C6038.771,6045.839,6035.609,6049.722,6035.609,6049.722Z" transform="translate(-5948.141 -5891.82)"/></g><g class="ev" transform="translate(137.284 203.714)"><path class="et" d="M6044.2,6423.439a11.67,11.67,0,0,1-3.7,5.537c-10.139,8.453-28.852,7.064-38.714-6.224-6.515-8.785-7.838-18.924-7.468-26.677.436-9.055,2.05-17.694-2.461-24.467-5.14-7.727-25.193-10.616-35.176-22.046-5.873-6.734-9.021-18.977-8.486-33.953,0-.066.007-.139.007-.206.02-.5.046-1.006.073-1.515.027-.463.053-.932.085-1.409.012-.211.026-.43.046-.648.085-1.118.186-2.248.31-3.393.061-.542.126-1.091.191-1.648.046-.384.1-.774.153-1.164.039-.325.086-.649.132-.973.073-.51.152-1.019.232-1.534.092-.583.192-1.17.292-1.759.007-.034.012-.065.019-.1a13.434,13.434,0,0,1,1.006-1.031,42.96,42.96,0,0,0,6.265,2.011c6.779,1.76,19.288,4.035,38.608,4.008l-.305-10.021a5.063,5.063,0,0,1,3.09-4.816,4.892,4.892,0,0,1,1.435-.37l12-1.283,17.357,42.021-16.113-.4-12.118-.3a5.068,5.068,0,0,1-4.743-4.9l-.152-5.034c-10.6,2.374-28.15,3-39.509-.748.847,10.463,3.764,18.918,8.289,24.1,9.974,11.437,24.929,5.3,35.049,17.1,6.323,7.382,3.016,20.366,2.58,29.421-.371,7.752-3.367,19.122,3.141,27.906C6014.238,6430.551,6032.864,6429.52,6044.2,6423.439Z" transform="translate(-5948.14 -6289.761)"/></g><g class="ev" transform="translate(138.884 144.747)"><path class="et" d="M6087.321,5871.2a70.406,70.406,0,0,1-24.983,21.319,70.221,70.221,0,0,1-61.423.962,17.617,17.617,0,0,0-23.475,8.72,127.235,127.235,0,0,0-10.581,37.037,42.765,42.765,0,0,1-6.264-2.011,13.8,13.8,0,0,0-1.007,1.032c3.705-21.179,14.063-45.54,33.138-67.11l.2,2.03c2.534-3.46,4.148-5.391,4.148-5.391l63.233,3.228s.245,3.334.755,8.863A210.507,210.507,0,0,0,6087.321,5871.2Z" transform="translate(-5959.589 -5867.789)"/></g><g transform="translate(134.651 147.352)"><path class="et" d="M5999.389,5984.617a33.809,33.809,0,0,1,10.215,1.521,36.113,36.113,0,0,1,9.547,4.425,33.6,33.6,0,0,1,4.247,3.349,28.361,28.361,0,0,1,3.6,4.183,33.536,33.536,0,0,1,4.6,9.766,43.136,43.136,0,0,1,1.648,10.489,40.132,40.132,0,0,1-.928,10.6,25.187,25.187,0,0,1-4.512,10.1l-6.357,7.7.119-3.186c.532.782.944,1.465,1.375,2.188s.827,1.431,1.217,2.155q1.178,2.167,2.216,4.4a64.087,64.087,0,0,1,3.523,9.289,34.5,34.5,0,0,1,1.484,10.183,19.028,19.028,0,0,1-.855,5.426,14.737,14.737,0,0,1-2.775,5.053l-.475.557c-.165.18-.348.338-.522.508a10.473,10.473,0,0,1-1.07.938c-.726.524-1.429,1.088-2.182,1.565-.774.437-1.54.9-2.327,1.3l-2.436,1.047a29.4,29.4,0,0,1-10.275,1.732,32.372,32.372,0,0,1-10.2-1.733,30.434,30.434,0,0,1-9.084-4.981,17.925,17.925,0,0,1-1.977-1.694c-.612-.615-1.269-1.19-1.837-1.844l-1.661-2.005c-.544-.672-.993-1.39-1.492-2.084a41.128,41.128,0,0,1-4.445-9.158,45.32,45.32,0,0,1-2.1-9.881,48.355,48.355,0,0,1-.253-5.02c-.007-.837.024-1.672.053-2.508l.14-2.423c.206-3.21.486-6.334.492-9.346a23.166,23.166,0,0,0-1.263-8.409,6.684,6.684,0,0,0-.393-.926c-.154-.295-.271-.612-.45-.893l-.511-.855a7.949,7.949,0,0,0-.525-.691,14.263,14.263,0,0,0-3.058-2.541,65.832,65.832,0,0,0-8.123-4.163c-5.736-2.6-11.787-5.16-17.3-9.083a32.247,32.247,0,0,1-7.437-7.182,34.651,34.651,0,0,1-4.592-9.188,58.747,58.747,0,0,1-2.329-9.717,83.716,83.716,0,0,1-.808-9.83,106.026,106.026,0,0,1,1.537-19.471,134.775,134.775,0,0,1,12.206-36.775,141.644,141.644,0,0,1,9.624-16.85c3.724-5.287,7.945-10.284,13.33-14.067a.907.907,0,0,1,1.326,1.161l0,.007c-3.009,5.754-6.584,10.818-9.97,16.061a145.662,145.662,0,0,0-9.566,16.043,129.478,129.478,0,0,0-11.728,35.313,100.984,100.984,0,0,0-1.463,18.468,78.361,78.361,0,0,0,.75,9.151,53.552,53.552,0,0,0,2.1,8.79,29.478,29.478,0,0,0,3.876,7.807,27.043,27.043,0,0,0,6.229,5.979c4.862,3.472,10.589,5.94,16.4,8.565a70.205,70.205,0,0,1,8.812,4.539,19.354,19.354,0,0,1,4.218,3.561,13.647,13.647,0,0,1,.909,1.206l.714,1.188c.242.395.416.822.624,1.233a10.712,10.712,0,0,1,.537,1.264,22.15,22.15,0,0,1,1.3,5.2,36.609,36.609,0,0,1,.315,5.114c-.009,3.344-.306,6.552-.5,9.68l-.134,2.333c-.025.752-.056,1.5-.048,2.254a43.191,43.191,0,0,0,.227,4.493,40.063,40.063,0,0,0,1.849,8.721c1.924,5.57,5.121,10.83,9.674,14.321a25.113,25.113,0,0,0,7.54,4.135,27.152,27.152,0,0,0,8.495,1.443,24.122,24.122,0,0,0,8.417-1.406l1.941-.835c.617-.327,1.214-.689,1.826-1.026.587-.372,1.119-.814,1.687-1.211a5.933,5.933,0,0,0,.72-.628c.11-.108.233-.2.335-.317l.292-.353a11.14,11.14,0,0,0,2.381-7.2,29.344,29.344,0,0,0-1.283-8.6,58.975,58.975,0,0,0-3.234-8.511q-.968-2.083-2.066-4.106c-.363-.675-.742-1.337-1.125-1.994s-.794-1.316-1.157-1.848l-1.136-1.664,1.255-1.521,6.321-7.659a19.73,19.73,0,0,0,3.471-7.961,36.64,36.64,0,0,0-.958-18.3,31.491,31.491,0,0,0-3.853-8.182,24.672,24.672,0,0,0-2.791-3.432,28.054,28.054,0,0,0-3.432-2.978,51.625,51.625,0,0,0-8.032-4.841,85.616,85.616,0,0,0-8.967-3.7l-.006,0a.893.893,0,0,1,.287-1.734Z" transform="translate(-5929.296 -5886.431)"/></g><g transform="translate(181.289 250.85)"><path class="et" d="M6265.462,6670.866a1.985,1.985,0,0,1-1.964-1.719c-3.087-22.834,10.435-33.628,16.391-37.209,9.875-5.937,21.775-6.492,28.94-1.349a1.985,1.985,0,1,1-2.316,3.224c-5.821-4.179-16.158-3.536-24.582,1.526-5.284,3.177-17.275,12.778-14.5,33.276a1.984,1.984,0,0,1-1.7,2.231A1.857,1.857,0,0,1,6265.462,6670.866Z" transform="translate(-6263.046 -6627.078)"/></g><g transform="translate(203.771 301.113)"><path class="et" d="M6448.554,6991.329c-.279.266-.468.425-.7.62s-.448.359-.675.534c-.45.349-.92.661-1.394.967a24.7,24.7,0,0,1-2.972,1.612,22.122,22.122,0,0,1-6.569,1.843,15.772,15.772,0,0,1-6.839-.6,11.689,11.689,0,0,1-5.476-3.734,27.409,27.409,0,0,0,6,.574,19.727,19.727,0,0,0,2.762-.242,16.41,16.41,0,0,0,2.667-.587,26.433,26.433,0,0,0,5.072-2.127c.825-.422,1.619-.91,2.415-1.388l1.167-.751,1.071-.723.162-.109a2.646,2.646,0,0,1,3.3,4.11Z" transform="translate(-6423.93 -6986.767)"/></g><g transform="translate(274.611 72.483)"><path class="er" d="M6937.039,5396.579h0a1.425,1.425,0,0,1-1.514-1.333l-2.623-41.022a1.426,1.426,0,0,1,1.333-1.515h0a14.972,14.972,0,0,1,15.9,13.985l.894,13.988A14.97,14.97,0,0,1,6937.039,5396.579Z" transform="translate(-6932.617 -5352.395)"/><path class="et" d="M6935.207,5395.12a1.712,1.712,0,0,1-1.707-1.6l-2.621-41.022a1.713,1.713,0,0,1,1.6-1.817,15.275,15.275,0,0,1,16.2,14.251l.894,13.988a15.253,15.253,0,0,1-14.25,16.2h0A.983.983,0,0,1,6935.207,5395.12Zm.092-.287h0Zm-1.829-43.616c-.318,0-.637.009-.957.03a1.144,1.144,0,0,0-1.068,1.215l2.622,41.021a1.14,1.14,0,0,0,1.215,1.068A14.687,14.687,0,0,0,6949,5378.958l-.895-13.988a14.691,14.691,0,0,0-14.636-13.753Z" transform="translate(-6930.876 -5350.649)"/></g><g class="ew" transform="translate(276.817 94.212)"><path class="et" d="M6962.443,5506.15l.421,6.561a14.979,14.979,0,0,1-13.988,15.9,1.431,1.431,0,0,1-1.516-1.336l-.7-10.905a1.428,1.428,0,0,0,1.349.762l.973-.064A14.961,14.961,0,0,0,6962.443,5506.15Z" transform="translate(-6946.66 -5506.15)"/></g><g transform="translate(272.249 70.122)"><path class="et" d="M6920.663,5382.947a4.08,4.08,0,0,1-4.062-3.812l-2.621-41.022a4.076,4.076,0,0,1,3.8-4.323,17.619,17.619,0,0,1,18.706,16.457l.894,13.988a17.617,17.617,0,0,1-16.457,18.706h0C6920.836,5382.945,6920.749,5382.947,6920.663,5382.947Zm.093-2.649h0Zm-1.415-41.248,2.46,38.47a12.342,12.342,0,0,0,10.3-12.95l-.894-13.988a12.329,12.329,0,0,0-11.867-11.532Z" transform="translate(-6913.971 -5333.752)"/></g><g transform="translate(126.524 81.17)"><path class="er" d="M5887.2,5414.822h0a1.425,1.425,0,0,1,1.514,1.333l2.623,41.022a1.426,1.426,0,0,1-1.333,1.515h0a14.97,14.97,0,0,1-15.9-13.985l-.895-13.988A14.971,14.971,0,0,1,5887.2,5414.822Z" transform="translate(-5872.901 -5414.539)"/><path class="et" d="M5887.272,5457.283a15.257,15.257,0,0,1-15.2-14.283l-.894-13.988a15.251,15.251,0,0,1,14.25-16.2h0a1.714,1.714,0,0,1,1.816,1.6l2.622,41.021a1.711,1.711,0,0,1-1.6,1.816C5887.935,5457.271,5887.6,5457.283,5887.272,5457.283Zm-1.81-43.9a14.687,14.687,0,0,0-13.72,15.594l.894,13.988a14.687,14.687,0,0,0,15.6,13.721,1.144,1.144,0,0,0,1.068-1.214l-2.622-41.022a1.145,1.145,0,0,0-1.216-1.066Z" transform="translate(-5871.143 -5412.814)"/></g><g class="ew" transform="translate(127.361 105.447)"><path class="et" d="M5894.009,5593.53l.727,11.38a1.431,1.431,0,0,1-1.336,1.516,14.964,14.964,0,0,1-15.893-13.982l-.377-5.895a14.976,14.976,0,0,0,14.172,7.9l1.5-.1A1.448,1.448,0,0,0,5894.009,5593.53Z" transform="translate(-5877.13 -5586.55)"/></g><g transform="translate(124.164 78.804)"><path class="et" d="M5872.748,5445.084a17.639,17.639,0,0,1-17.569-16.494l-.894-13.987a17.616,17.616,0,0,1,16.457-18.706h0a4.074,4.074,0,0,1,4.324,3.8l2.621,41.021a4.07,4.07,0,0,1-3.8,4.323Q5873.313,5445.084,5872.748,5445.084Zm-2.881-43.77a12.343,12.343,0,0,0-10.3,12.95l.894,13.988a12.329,12.329,0,0,0,11.867,11.533Z" transform="translate(-5854.248 -5395.889)"/></g><g transform="translate(110.867 0)"><circle class="er" cx="70.047" cy="70.047" r="70.047" transform="translate(0 99.061) rotate(-45)"/><path class="et" d="M6035.106,5178.21h-.511a70.33,70.33,0,0,1,.495-140.659h.511a70.33,70.33,0,0,1-.495,140.659Zm-.022-140.094a69.98,69.98,0,1,0,.513,0Z" transform="translate(-5936.026 -5008.819)"/></g><g class="ew" transform="translate(139.89 89.859)"><path class="et" d="M6106.279,5475a70.05,70.05,0,1,1-139.491,8.7c.007-1.113.041-2.227.1-3.322A70.05,70.05,0,0,0,6106.279,5475Z" transform="translate(-5966.786 -5475)"/></g><g transform="translate(137.246 26.367)"><path class="et" d="M6020.573,5166.02h-.534a72.823,72.823,0,1,1,.534,0Zm-.027-140.093a66.844,66.844,0,1,0,.494,0Z" transform="translate(-5947.866 -5020.635)"/></g><g transform="translate(140.527 50.599)"><path class="et" d="M6110.566,5244.806a62.825,62.825,0,0,1-11.765,37.056c-5.643,7.938-28.983,21.94-57.94,22.431-26.85.456-51.393-13.667-57.161-21.514a62.828,62.828,0,0,1-12.353-36.865c-.288-36.272,30.755-51.557,69.2-51.863S6110.279,5208.534,6110.566,5244.806Z" transform="translate(-5971.347 -5194.047)"/></g><g transform="translate(138.948 49.02)"><path class="et" d="M6029.84,5296.16c-27.2,0-51.2-14.094-57.134-22.169a64.35,64.35,0,0,1-12.659-37.787c-.141-17.707,6.849-31.415,20.775-40.743,12.17-8.152,29.457-12.547,49.992-12.71s37.889,3.957,50.187,11.914c14.073,9.105,21.28,22.7,21.421,40.407h0a64.349,64.349,0,0,1-12.057,37.984c-5.541,7.8-28.595,22.576-59.2,23.095C6030.725,5296.157,6030.28,5296.16,6029.84,5296.16Zm2.035-110.257c-.352,0-.7,0-1.034,0-20.455.162-67.992,5.387-67.635,50.271a61.2,61.2,0,0,0,12.046,35.942c5.439,7.4,28.829,20.881,54.617,20.882.417,0,.829,0,1.245-.011,29.117-.494,51.625-14.653,56.68-21.768a61.2,61.2,0,0,0,11.472-36.129h0C6098.915,5190.954,6052.854,5185.9,6031.875,5185.9Z" transform="translate(-5960.045 -5182.745)"/></g><g class="fd" transform="translate(246.181 82.857)"><ellipse class="er" cx="12.396" cy="8.982" rx="12.396" ry="8.982" transform="matrix(0.17, -0.985, 0.985, 0.17, 0, 24.431)"/></g><g class="fd" transform="translate(239.941 114.318)"><ellipse class="er" cx="5.69" cy="4.882" rx="5.69" ry="4.882" transform="translate(0 10.839) rotate(-72.243)"/></g><g class="ew" transform="translate(181.284 67.627)"><path class="fe" d="M6347.666,5315.9c8.574,8.052,13.688,19.161,13.808,33.729a62.859,62.859,0,0,1-11.762,37.059c-5.645,7.938-28.988,21.939-57.943,22.433a86.376,86.376,0,0,1-28.758-4.673c35.581-1.365,64.013-18.547,71.01-28.394a79.724,79.724,0,0,0,14.93-47.03A71.047,71.047,0,0,0,6347.666,5315.9Z" transform="translate(-6263.01 -5315.9)"/></g><g transform="translate(143.333 40.667)"><path class="et" d="M5995.711,5155.425l-4.154-3.276,1.951,1.561-2.078-1.388c12.3-18.412,36.326-29.107,65.925-29.344,29.414-.222,53.554,9.723,66.346,27.317a2.645,2.645,0,0,1-3.819,3.618,2.68,2.68,0,0,1-.429-.464c-11.767-16.222-34.39-25.415-62.055-25.181-27.817.223-50.258,10.06-61.567,26.991A1.886,1.886,0,0,1,5995.711,5155.425Zm-2.087-1.624h0Z" transform="translate(-5991.43 -5122.974)"/></g><g class="fd" transform="translate(152.902 60.24)"><path class="er" d="M6063.335,5326.719s-11.519-35.694,7.652-50.106,46.916-14.576,46.282-12.792c0,0-30.656,7.68-42.481,32.057C6065.669,5314.68,6063.335,5326.719,6063.335,5326.719Z" transform="translate(-6059.904 -5263.04)"/></g><g transform="translate(199.421 196.536)"><path class="er" d="M6447.523,6243.582l1.895,14.627,1.476,11.378a5.936,5.936,0,0,1-4.709,6.585c-1.969.4-4.413.874-7.227,1.358a221.306,221.306,0,0,1-39.55,3.432,5.944,5.944,0,0,1-5.837-5.8l-.763-30.2a5.943,5.943,0,0,1,6.091-6.094c10.286.266,30.783.6,42.2-.447A5.934,5.934,0,0,1,6447.523,6243.582Z" transform="translate(-6392.807 -6238.399)"/></g><g transform="translate(188.527 197.017)"><path class="er" d="M6331.375,6241.84l-12.006,1.28a5.062,5.062,0,0,0-4.523,5.187l.914,29.96a5.062,5.062,0,0,0,4.743,4.9l11.092.694" transform="translate(-6314.843 -6241.84)"/></g><g class="ev" transform="translate(188.527 197.017)"><path class="et" d="M6331.375,6241.84l-12.006,1.28a5.062,5.062,0,0,0-4.523,5.187l.914,29.96a5.062,5.062,0,0,0,4.743,4.9l11.092.694" transform="translate(-6314.843 -6241.84)"/></g><g transform="translate(197.085 194.199)"><path class="et" d="M6387.466,6268.932q-1.236,0-2.476-.019a8.252,8.252,0,0,1-8.133-8.073l-.765-30.2a8.281,8.281,0,0,1,8.486-8.488c10.866.277,30.763.588,41.927-.439a8.247,8.247,0,0,1,8.952,7.183l3.372,26a8.307,8.307,0,0,1-6.557,9.178A235.673,235.673,0,0,1,6387.466,6268.932Zm-3.1-42.111a3.61,3.61,0,0,0-3.6,3.7l.764,30.2a3.593,3.593,0,0,0,3.536,3.521c18.564.278,36.965-2.85,46.279-4.746a3.622,3.622,0,0,0,2.856-4l-3.372-26a3.584,3.584,0,0,0-3.892-3.131c-11.4,1.049-31.505.738-42.474.458h0C6384.429,6226.82,6384.4,6226.82,6384.365,6226.82Z" transform="translate(-6376.089 -6221.675)"/></g><g transform="translate(186.195 194.682)"><path class="et" d="M6317.244,6271.82c-.049,0-.1,0-.148,0l-11.093-.694a7.366,7.366,0,0,1-6.931-7.158l-.914-29.96a7.429,7.429,0,0,1,6.61-7.581l12.006-1.282a2.336,2.336,0,1,1,.5,4.645l-12.007,1.282a2.739,2.739,0,0,0-2.436,2.794l.914,29.96a2.713,2.713,0,0,0,2.555,2.637l11.092.694a2.335,2.335,0,0,1-.144,4.666Z" transform="translate(-6298.155 -6225.127)"/></g><g transform="translate(217.337 194.918)"><path class="et" d="M6534.278,6272.251a2.336,2.336,0,0,1-2.329-2.2l-.893-15.3-7.749-5.227a2.337,2.337,0,0,1-1.024-1.776l-1.268-18.43a2.336,2.336,0,0,1,4.66-.32l1.189,17.292,7.761,5.235a2.332,2.332,0,0,1,1.026,1.8l.96,16.456a2.335,2.335,0,0,1-2.2,2.468C6534.369,6272.25,6534.323,6272.251,6534.278,6272.251Z" transform="translate(-6521.01 -6226.821)"/></g><g transform="translate(239.167 207.415)"><path class="ff" d="M6690.456,6324.523c.1.926-.43,8.543-.43,8.543l-5.279.55c-3.636.379-6.975-3.08-7.458-7.724s2.072-8.715,5.709-9.093l5.278-.549S6690.3,6323.014,6690.456,6324.523Z" transform="translate(-6677.23 -6316.251)"/></g><g transform="translate(239.17 207.418)"><path class="er" d="M6690.471,6324.541c.1.927-.425,8.544-.425,8.544l-.175.017c.138-2.2.274-4.809.22-5.327-.153-1.51-2.174-8.271-2.174-8.271s-2.829.293-5.279.549c-2.541.262-4.557,2.334-5.379,5.142-.171-4.341,2.309-8.019,5.757-8.375l5.28-.549S6690.317,6323.03,6690.471,6324.541Z" transform="translate(-6677.25 -6316.271)"/></g><g transform="translate(237.184 205.587)"><path class="et" d="M6672,6324.372c-4.421,0-8.331-4.106-8.9-9.53-.595-5.725,2.758-10.78,7.476-11.271l3.686-.384a3.9,3.9,0,0,1,4.158,2.8c1.649,5.692,1.756,6.734,1.792,7.076h0c.03.275.1.918-.314,7.258a3.9,3.9,0,0,1-3.495,3.632l-3.668.382A6.714,6.714,0,0,1,6672,6324.372Zm2.627-17.232-3.636.379c-2.5.26-4.3,3.426-3.941,6.914s2.784,6.206,5.278,5.954l3.616-.376c.272-4.229.344-6.166.323-6.551A63.8,63.8,0,0,0,6674.632,6307.14Z" transform="translate(-6663.04 -6303.166)"/></g><g transform="translate(243.643 206.655)"><ellipse class="ff" cx="6.618" cy="8.453" rx="6.618" ry="8.453" transform="translate(0 1.37) rotate(-5.941)"/></g><g transform="translate(244.446 207.389)"><path class="er" d="M6728.235,6323.815a10.578,10.578,0,0,1,.042,1.653c-1.006-3.787-3.96-6.409-7.154-6.079s-5.559,3.521-5.751,7.441a10.863,10.863,0,0,1-.3-1.649c-.483-4.642,2.075-8.714,5.712-9.089S6727.751,6319.172,6728.235,6323.815Z" transform="translate(-6715.01 -6316.064)"/></g><g transform="translate(242.462 205.402)"><path class="et" d="M6709.756,6322.686a8.019,8.019,0,0,1-5.781-2.613,12.165,12.165,0,0,1-1.49-14.325,7.639,7.639,0,0,1,12.419-1.291,11.69,11.69,0,0,1,3.093,6.918h0a11.689,11.689,0,0,1-1.6,7.406,7.891,7.891,0,0,1-5.875,3.865C6710.265,6322.672,6710.009,6322.686,6709.756,6322.686Zm-.651-16.874c-.112,0-.224.006-.334.017a4.019,4.019,0,0,0-2.924,2.027,8.2,8.2,0,0,0,.983,9.457,3.691,3.691,0,0,0,6.2-.644,7.722,7.722,0,0,0,1.018-4.885h0a7.726,7.726,0,0,0-2-4.571A4.152,4.152,0,0,0,6709.1,6305.813Z" transform="translate(-6700.813 -6301.843)"/></g><g transform="translate(134.925 207.572)"><path class="er" d="M5936.219,6317.37s15.795,7.149,53.361,5.858c0,0,6.882,6.6,0,12.044s-45.617,8.584-55.963-2.581C5927.066,6325.622,5936.219,6317.37,5936.219,6317.37Z" transform="translate(-5931.255 -6317.37)"/></g><g class="ev" transform="translate(134.924 213.022)"><path class="et" d="M5989.574,6368.825c-6.879,5.444-45.614,8.578-55.964-2.586-3.114-3.361-2.679-6.986-1.355-9.869a9.54,9.54,0,0,0,1.355,1.846c10.352,11.166,49.086,8.029,55.964,2.587a9.552,9.552,0,0,0,1.747-1.767C5992.763,6361.437,5993.946,6365.359,5989.574,6368.825Z" transform="translate(-5931.25 -6356.37)"/></g><g transform="translate(132.588 204.813)"><path class="et" d="M5947.923,6325.568c-8.773,0-23.782-1.123-30.406-8.271a10.386,10.386,0,0,1-2.974-7.725c.266-5.932,5.5-10.718,5.725-10.919l1.135-1.023,1.388.629c.238.1,16.018,6.9,52.321,5.654l.984-.034.712.682c.407.393,3.988,3.961,3.769,8.588a9.366,9.366,0,0,1-3.936,6.973c-4.615,3.654-17.811,5.384-28.118,5.444Zm-25.489-22.438c-1.2,1.367-3.108,3.948-3.224,6.667a5.806,5.806,0,0,0,1.734,4.325c9.478,10.228,46.992,6.935,52.8,2.336a4.863,4.863,0,0,0,2.169-3.531,7.1,7.1,0,0,0-1.729-4.312C5943.325,6309.557,5927.254,6304.866,5922.434,6303.13Z" transform="translate(-5914.532 -6297.63)"/></g><g class="ev" transform="translate(224.46 242.712)"><path class="et" d="M6622.651,6589.168c-5.655,6.833-23.792,13.428-33.555,7.309-8.155-5.106-8.414-12.422-14.195-16.629a25.494,25.494,0,0,0-2.911-1.369,211.347,211.347,0,0,1,50.137-9.638C6628.625,6576.838,6627.335,6583.505,6622.651,6589.168Z" transform="translate(-6571.99 -6568.84)"/></g><g transform="translate(172.029 176.58)"><path class="er" d="M6221.06,6095.59c20.455,25.522,54.205,41.169,74.367,59.36,11.05,9.97,9.311,14.768,3.8,21.436-5.651,6.836-18.925,13.43-28.688,7.313-8.155-5.11-8.662-9.965-14.442-14.175-2.279-1.66-38.955-11.394-59.315-43.125" transform="translate(-6196.78 -6095.59)"/></g><g class="ev" transform="translate(172.029 206.855)"><path class="et" d="M6299.225,6362.763c-5.648,6.833-18.924,13.428-28.687,7.309-8.155-5.106-8.666-9.962-14.447-14.176-2.274-1.66-38.951-11.39-59.311-43.126l.416-.529c22.708,23.871,46.377,25.3,62.1,37.4,5.665,4.359,6.157,5.806,14.313,10.912,9.764,6.118,23.039-.477,28.687-7.309q.546-.653,1.031-1.289C6304.26,6355.812,6302.348,6358.987,6299.225,6362.763Z" transform="translate(-6196.78 -6312.24)"/></g><g transform="translate(171.271 175.844)"><path class="et" d="M6217.081,6090.507c4.343,3.065,7.926,6.549,11.759,9.888,3.761,3.38,7.628,6.677,11.531,9.955,3.973,3.207,8.085,6.249,12.3,9.188,4.189,2.964,8.465,5.844,12.733,8.751s8.568,5.806,12.795,8.862c1.065.746,2.117,1.519,3.162,2.307s2.1,1.554,3.139,2.354c2.055,1.638,4.137,3.232,6.115,4.993a60.365,60.365,0,0,1,5.856,5.568c.455.535.914,1.058,1.358,1.606.424.587.862,1.147,1.268,1.762l.58.963.286.483c.09.169.168.352.252.528l.486,1.068c.144.374.255.776.378,1.164a10.521,10.521,0,0,1,.254,5.048,14.087,14.087,0,0,1-1.751,4.424,30.529,30.529,0,0,1-2.454,3.463c-.4.525-.888,1.069-1.38,1.608-.472.559-1.009,1.02-1.519,1.521a32.257,32.257,0,0,1-6.895,4.828,30.284,30.284,0,0,1-7.963,2.878,22.154,22.154,0,0,1-8.734.108l-1.1-.254a6.3,6.3,0,0,1-1.081-.315c-.7-.276-1.433-.491-2.1-.834s-1.348-.707-1.983-1.078c-.578-.39-1.168-.753-1.734-1.168a31.371,31.371,0,0,1-3.27-2.686,33.985,33.985,0,0,1-2.854-3.08,62.419,62.419,0,0,0-4.767-5.7c-.2-.207-.417-.38-.625-.569s-.421-.373-.646-.54l-.335-.259-.166-.13-.084-.066c-.037-.031,0,.007,0,.006a.088.088,0,0,0,.048.029l-.139-.063c-.112-.049-.2-.094-.346-.152-1.085-.446-2.333-.911-3.536-1.378-2.432-.94-4.869-1.929-7.275-2.983a125.71,125.71,0,0,1-27.216-16c-2.1-1.618-4.1-3.35-6.08-5.119-1.941-1.807-3.941-3.562-5.78-5.49a34.763,34.763,0,0,1-2.641-3c-.422-.515-.84-1.034-1.212-1.59s-.768-1.09-1.133-1.649a27.985,27.985,0,0,1-1.917-3.53,21.421,21.421,0,0,1-1.286-3.886.94.94,0,0,1,1.44-.981l.045.03a26.577,26.577,0,0,1,3.059,2.529c.975.854,1.827,1.783,2.714,2.68.44.452.862.916,1.28,1.382s.858.914,1.276,1.379.846.922,1.251,1.4c.423.459.846.921,1.262,1.39a72,72,0,0,0,5.215,5.424c1.866,1.684,3.776,3.323,5.768,4.862a120.46,120.46,0,0,0,26.079,15.323c2.324,1.019,4.675,1.971,7.061,2.9,1.2.468,2.378.9,3.683,1.436.15.059.357.157.539.239.1.05.167.074.3.143.158.086.315.176.467.271.066.042.178.11.2.131l.106.083.218.168.431.336a21.338,21.338,0,0,1,1.646,1.435,64.232,64.232,0,0,1,5.186,6.155,26.05,26.05,0,0,0,5.12,4.825c.474.351.987.662,1.477,1l1.423.769c.474.25,1,.383,1.494.591a3.581,3.581,0,0,0,.773.225l.79.184a16.91,16.91,0,0,0,6.645-.106,26.741,26.741,0,0,0,12.316-6.406c.408-.405.859-.783,1.217-1.217.378-.416.759-.831,1.142-1.331a25.541,25.541,0,0,0,2.029-2.847,8.816,8.816,0,0,0,1.112-2.728,5.212,5.212,0,0,0-.146-2.606,15.128,15.128,0,0,0-3.462-5.5,55.482,55.482,0,0,0-5.372-5.092c-1.88-1.676-3.9-3.222-5.886-4.805-1.008-.777-2.04-1.529-3.061-2.294s-2.046-1.523-3.1-2.26c-4.146-3-8.424-5.874-12.682-8.781s-8.563-5.8-12.809-8.8c-4.264-2.967-8.429-6.108-12.632-9.216a107.481,107.481,0,0,1-11.937-10.268,44.425,44.425,0,0,1-9.35-12.77.907.907,0,0,1,1.343-1.127Z" transform="translate(-6191.354 -6090.321)"/></g><g transform="translate(195.559 201.377)"><path class="et" d="M6367.507,6307.686a2.335,2.335,0,0,1-2.271-2.89c.318-1.3,7.993-31.756,29.2-31.756.116,0,.229,0,.346,0a2.335,2.335,0,1,1-.073,4.67h-.26c-17.6,0-24.609,27.907-24.679,28.191A2.333,2.333,0,0,1,6367.507,6307.686Z" transform="translate(-6365.169 -6273.04)"/></g><g transform="translate(270.55 143.02)"><path class="et" d="M6915.655,5900.16a2.33,2.33,0,0,1-1.141-.3c-11.776-6.614-12.637-38.45-12.7-42.058a2.337,2.337,0,0,1,2.3-2.374h.039a2.338,2.338,0,0,1,2.335,2.3c.152,9.061,2.3,33.561,10.313,38.062a2.335,2.335,0,0,1-1.146,4.371Z" transform="translate(-6901.817 -5855.429)"/></g><g transform="translate(299.456 125.892)"><path class="et" d="M7112.938,5734.978c.024.146.035.416.05.642l.043.715c.041.482.057.971.106,1.456.065.979.188,1.957.327,2.943s.342,1.97.535,3c.154,1.055.42,2.083.548,3.339a8.142,8.142,0,0,1-2.826-2.223,10.833,10.833,0,0,1-1.027-1.466,16.573,16.573,0,0,1-.787-1.6,15.556,15.556,0,0,1-1.027-3.423,15.006,15.006,0,0,1-.2-1.787c-.012-.3-.023-.6-.007-.913a8.466,8.466,0,0,1,.081-.986,2.084,2.084,0,0,1,4.123-.06Z" transform="translate(-7108.669 -5732.859)"/></g></svg>