<svg xmlns="http://www.w3.org/2000/svg" width="350.837" height="388.767" viewBox="0 0 350.837 388.767"><defs><style>.a{opacity:0.35;}.b{fill:#371a45;}.c{fill:#fff;}.d{opacity:0.7;}.e{fill:#111a28;}.f{opacity:0.43;}.g{fill:#22a7f0;}.h{opacity:0.5;}.i{opacity:0.3;}.j{fill:#102770;}.k{fill:#fce5e5;}</style></defs><g transform="translate(0)"><g transform="translate(10880.407 9567.502)"><g transform="translate(-11494.2 -10342.88)"><g transform="translate(687.67 775.378)"><g class="a" transform="translate(0 357.054)"><ellipse class="b" cx="132.895" cy="15.856" rx="132.895" ry="15.856"/></g><g transform="translate(63.887 138.01)"><path class="c" d="M1586.38,1778.653V1868a28.719,28.719,0,0,0,3.714,14.141,29.02,29.02,0,0,0,25.245,14.813h83.2a29.01,29.01,0,0,0,24.679-13.852,28.7,28.7,0,0,0,4.281-15.1v-89.349a28.826,28.826,0,0,0-7.39-19.263,28.9,28.9,0,0,0-21.569-9.69h-83.2a29.063,29.063,0,0,0-27.172,18.962A28.734,28.734,0,0,0,1586.38,1778.653Z" transform="translate(-1586.38 -1749.7)"/></g><g transform="translate(61.729 135.847)"><path class="b" d="M1685.455,1886.009h-83.2a31.15,31.15,0,0,1-31.116-31.116v-89.347a31.15,31.15,0,0,1,31.116-31.116h83.2a31.15,31.15,0,0,1,31.116,31.116v89.347A31.151,31.151,0,0,1,1685.455,1886.009Zm-83.2-147.257a26.824,26.824,0,0,0-26.794,26.793v89.347a26.823,26.823,0,0,0,26.794,26.793h83.2a26.824,26.824,0,0,0,26.794-26.793v-89.347a26.823,26.823,0,0,0-26.794-26.793Z" transform="translate(-1571.14 -1734.43)"/></g><g transform="translate(46.438 146.465)"><path class="c" d="M1499.222,1809.39s-36.032,40.974-36.032,75.2c0,29.288,36.032,39.364,36.032,39.364l49.939-84.578Z" transform="translate(-1463.19 -1809.39)"/></g><g transform="translate(46.439 146.462)"><path class="c" d="M1463.2,1884.565c0,29.294,36.032,39.365,36.032,39.365l1.232-2.082,48.708-82.494-37.649-22.605-12.291-7.378S1463.2,1850.347,1463.2,1884.565Z" transform="translate(-1463.2 -1809.37)"/></g><g class="a" transform="translate(61.54 153.841)"><path class="b" d="M1569.81,1933.284c0,16.913,12.015,27.419,22.164,33.276l48.708-82.494-37.649-22.605C1594.552,1871.935,1569.81,1904.923,1569.81,1933.284Z" transform="translate(-1569.81 -1861.46)"/></g><g transform="translate(44.276 143.683)"><path class="b" d="M1487.141,1909.619l-1.6-.448a69.68,69.68,0,0,1-18.656-9c-12.4-8.507-18.955-19.727-18.955-32.447,0-34.639,35.078-74.925,36.571-76.623l1.19-1.354,53.325,32.014Zm-.555-114.29c-6.126,7.354-34.333,42.83-34.333,72.4,0,23.933,26.15,34.464,32.888,36.779l47.972-81.243Z" transform="translate(-1447.93 -1789.75)"/></g><g transform="translate(181.558 143.672)"><path class="c" d="M2425.384,1842.126s15.267,19.12,39.721,14.9c25.359-4.375,20.869-46.581,20.869-46.581l-38.53-14.835s2.394,13.183-3.187,13.18c-6.248,0-17.4-14.707-27.147-19.12Z" transform="translate(-2417.11 -1789.67)"/></g><g class="a" transform="translate(184.143 160.076)"><path class="b" d="M2435.36,1905.48l5.687,36.055s15.265,19.115,39.724,14.9c25.358-4.375,20.869-46.582,20.869-46.582l-17.723,9.509c11.961,2.135,10.458,23.889-7.686,27.021-24.453,4.224-39.1-34.335-39.1-34.335Z" transform="translate(-2435.36 -1905.48)"/></g><g transform="translate(179.397 141.513)"><path class="b" d="M2444.9,1846.719c-21,0-33.714-15.593-34.3-16.331a2.161,2.161,0,0,1,3.375-2.7h0c.146.181,14.808,18.063,37.667,14.121,20.685-3.57,19.654-35.983,19.19-42.922l-33.89-13.05c.246,3.288.133,7.789-1.893,10.214a4.917,4.917,0,0,1-3.885,1.815h0c-4.156,0-9.03-4.319-14.675-9.316-4.483-3.969-9.119-8.074-13.363-10a2.161,2.161,0,1,1,1.783-3.936c4.839,2.191,9.723,6.516,14.445,10.7,4.356,3.857,9.294,8.228,11.811,8.23h0a.629.629,0,0,0,.567-.262c1.326-1.585,1.077-7.126.491-10.373l-.681-3.781,43.348,16.689.14,1.313c.193,1.806,4.394,44.272-22.651,48.939A44.066,44.066,0,0,1,2444.9,1846.719Z" transform="translate(-2401.85 -1774.425)"/></g><g class="a" transform="translate(161.675 306.7)"><path class="b" d="M2277.453,2940.61c-.238.106-.475.207-.713.309v.006C2276.977,2940.824,2277.215,2940.716,2277.453,2940.61Z" transform="translate(-2276.74 -2940.61)"/></g><g class="a" transform="translate(130.653 240.509)"><path class="b" d="M2059.488,2473.32q-.907,1.392-1.758,2.731C2058.3,2475.157,2058.889,2474.241,2059.488,2473.32Z" transform="translate(-2057.73 -2473.32)"/></g><g transform="translate(58.018 145.087)"><path class="c" d="M1545.013,2011.56c.034.367.085.735.153,1.085,1.832,10.85,14.542,14.729,37.418,11.731,10.357-1.346,24.679-2.946,28.456-11.194,7.543-16.464-.153-49.776.741-71.125v-.034a85.769,85.769,0,0,0,18.652,0c.006.176.011.344.017.52.764,21.36-6.756,54.3.724,70.64,3.776,8.25,18.093,9.849,28.456,11.194,22.9,3,35.613-.888,37.429-11.765.057-.35.108-.7.147-1.051,1.317-13.258-17.176-19.416-17.176-19.416s4.031-28.134,6.694-53.519a241.471,241.471,0,0,0,1.023-32.7q-.127-4.267-.378-8.52-.357-6.047-.911-12-.484-5.157-1.091-10.189c-1.5-12.6-3.528-24.526-5.615-35.014-1.865-9.408-3.782-17.668-5.428-24.226q-.55-2.172-1.045-4.088c-2.007-7.728-3.4-12.23-3.4-12.23h-97.546s-1.4,4.534-3.415,12.3c-1.187,4.551-2.584,10.223-4.037,16.747q-.848,3.825-1.718,8.029c-2.334,11.325-4.647,24.526-6.32,38.576q-.584,4.919-1.062,9.962c-.384,4.1-.7,8.261-.939,12.438q-.263,4.445-.389,8.917-.085,2.96-.113,5.925a231.268,231.268,0,0,0,1.159,26.07c2.657,25.386,6.689,53.519,6.689,53.519S1543.7,1998.3,1545.013,2011.56Z" transform="translate(-1544.946 -1799.66)"/></g><g class="a" transform="translate(140.9 276.9)"><path class="b" d="M2133.418,2811.941c3.778,8.248,18.094,9.849,28.454,11.2,22.906,2.986,35.615-.892,37.427-11.775-18.75,7.451-51.8,3.2-57.457-6.258-7.319-12.241-8.5-24.475,2.878-39.727s12.26-35.153,12.26-35.153c-5.439,4.006-16.626,8.356-24.287,11.074C2133.46,2762.665,2125.935,2795.6,2133.418,2811.941Z" transform="translate(-2130.074 -2730.23)"/></g><g class="a" transform="translate(58.237 276.9)"><path class="b" d="M1546.49,2811.406c1.832,10.85,14.54,14.723,37.416,11.737,10.36-1.353,24.682-2.953,28.46-11.2,7.539-16.464-.159-49.779.737-71.123-6.339-1.984-18.076-6.041-24.256-10.588,0,0-3.115,14.313,10.142,33.878,10.7,15.788,11.475,28.346,4.156,40.582C1597.953,2813.37,1567.1,2816.935,1546.49,2811.406Z" transform="translate(-1546.49 -2730.23)"/></g><g transform="translate(55.871 159.569)"><path class="b" d="M1662,1903.559c2.36,7.058,4.292,14.244,6.009,21.481.848,3.621,1.65,7.254,2.36,10.906.353,1.826.721,3.65,1.051,5.482l.928,5.5c.32,1.833.6,3.673.871,5.516l.819,5.526q.37,2.769.694,5.544c.239,1.847.422,3.7.6,5.555.823,7.407,1.238,14.859,1.554,22.312.167,7.461.3,14.93-.126,22.4l-.13,2.8-.065,1.4-.116,1.4-.466,5.595c-.32,3.725-.769,7.391-1.171,11.085q-2.537,22.12-5.665,44.147l-1.456-2.357c1,.35,1.849.7,2.744,1.1q1.319.591,2.6,1.266a37.4,37.4,0,0,1,4.919,3.109,26.3,26.3,0,0,1,4.359,4.074,18.2,18.2,0,0,1,3.159,5.336,15.172,15.172,0,0,1,.892,6.279,16.026,16.026,0,0,1-1.595,6.1,14.582,14.582,0,0,1-4.048,4.928,19.521,19.521,0,0,1-5.365,2.962,39.337,39.337,0,0,1-11.38,2.163,84.237,84.237,0,0,1-11.26-.2c-1.857-.16-3.711-.336-5.551-.575l-5.47-.715a91.231,91.231,0,0,1-11.039-2.091,39.878,39.878,0,0,1-5.489-1.874,22.214,22.214,0,0,1-5.22-3.1,15.408,15.408,0,0,1-2.245-2.3,12.507,12.507,0,0,1-1.653-2.813,32.318,32.318,0,0,1-1.839-5.573,60.3,60.3,0,0,1-1.446-11.272c-.176-3.744-.122-7.461.028-11.155.3-7.391.991-14.7,1.585-21.977a186.964,186.964,0,0,0,.883-21.647l2.424,2.054c-1.645.188-3.2.3-4.8.394s-3.187.132-4.788.133-3.2-.047-4.788-.133-3.159-.205-4.8-.394l2.424-2.054a186.99,186.99,0,0,0,.882,21.647c.594,7.274,1.282,14.585,1.585,21.977.15,3.7.2,7.412.028,11.155a60.184,60.184,0,0,1-1.448,11.272,32.427,32.427,0,0,1-1.837,5.573,12.49,12.49,0,0,1-1.653,2.813,15.4,15.4,0,0,1-2.245,2.3,22.211,22.211,0,0,1-5.22,3.1,39.937,39.937,0,0,1-5.489,1.874,91.524,91.524,0,0,1-11.039,2.091l-5.47.715c-1.84.239-3.694.415-5.551.575a84.689,84.689,0,0,1-11.26.2,39.337,39.337,0,0,1-11.381-2.163,19.522,19.522,0,0,1-5.366-2.962,14.609,14.609,0,0,1-4.048-4.928,16,16,0,0,1-1.595-6.1,15.17,15.17,0,0,1,.892-6.279,18.18,18.18,0,0,1,3.159-5.336,26.3,26.3,0,0,1,4.358-4.074,37.409,37.409,0,0,1,4.919-3.109q1.279-.673,2.6-1.266c.9-.4,1.739-.751,2.744-1.1l-1.458,2.357q-3.128-22.222-5.7-44.494c-.406-3.725-.855-7.415-1.18-11.177-.151-1.88-.363-3.756-.463-5.639l-.319-5.645c-.295-7.529-.254-15.059.045-22.57s.883-15,1.662-22.471c.171-1.87.39-3.732.606-5.6s.433-3.728.676-5.588c.462-3.724.967-7.442,1.548-11.149,1.143-7.429,2.534-14.758,4.276-22.123q.684-2.739,1.459-5.441c.5-1.807,1.047-3.6,1.615-5.4a97.177,97.177,0,0,1,3.946-10.6.724.724,0,0,1,1.368.445v.01c-1.5,7.282-2.874,14.6-4.322,21.887-1.3,7.255-2.594,14.62-3.793,21.936a351.922,351.922,0,0,0-4.721,44.259c-.295,7.407-.334,14.819-.045,22.212.306,7.388,1.094,14.724,1.938,22.154q2.539,22.21,5.686,44.368l.248,1.764-1.705.594c-.722.252-1.569.6-2.344.946s-1.568.735-2.333,1.137a32.881,32.881,0,0,0-4.347,2.745,17.219,17.219,0,0,0-6.06,7.448,10.853,10.853,0,0,0-.636,4.5,11.723,11.723,0,0,0,1.15,4.452,12.326,12.326,0,0,0,7.074,5.778,35.137,35.137,0,0,0,10.1,1.891,80.239,80.239,0,0,0,10.666-.2c1.788-.154,3.575-.324,5.363-.557l5.409-.707a87.258,87.258,0,0,0,10.51-1.983,24.537,24.537,0,0,0,9.08-4.135,11.064,11.064,0,0,0,1.584-1.616l.326-.442.286-.46a4.748,4.748,0,0,0,.255-.475l.125-.239.119-.289a28.17,28.17,0,0,0,1.589-4.834,56.019,56.019,0,0,0,1.333-10.462c.168-3.565.117-7.17-.03-10.784-.3-7.23-.977-14.49-1.574-21.8a190.79,190.79,0,0,1-.894-22.182l.085-2.32,2.339.266c1.45.166,3,.285,4.51.368s3.038.125,4.553.127,3.034-.044,4.553-.127,3.06-.2,4.51-.368l2.339-.266.085,2.32a190.145,190.145,0,0,1-.894,22.182c-.6,7.306-1.278,14.568-1.574,21.8-.147,3.614-.2,7.219-.03,10.784a56.019,56.019,0,0,0,1.333,10.462,28.04,28.04,0,0,0,1.588,4.834l.12.289.125.239a4.748,4.748,0,0,0,.255.475l.286.46.326.442a11.217,11.217,0,0,0,1.584,1.616,24.515,24.515,0,0,0,9.08,4.135,87.307,87.307,0,0,0,10.51,1.983l5.409.707c1.786.232,3.575.4,5.363.557a80.2,80.2,0,0,0,10.666.2,35.186,35.186,0,0,0,10.1-1.891,12.326,12.326,0,0,0,7.074-5.778,11.723,11.723,0,0,0,1.15-4.452,10.853,10.853,0,0,0-.636-4.5,17.22,17.22,0,0,0-6.06-7.448,32.985,32.985,0,0,0-4.347-2.745c-.765-.4-1.544-.785-2.333-1.137s-1.622-.694-2.344-.946l-1.705-.594.248-1.764q3.091-21.963,5.647-44.023c.4-3.669.851-7.359,1.164-11.013l.456-5.479.115-1.37.057-1.375.113-2.749c.367-7.329.237-14.687-.017-22.032-.713-14.694-2.291-29.352-4.441-43.938-2.188-14.584-4.834-29.1-7.363-43.71a.722.722,0,0,1,1.4-.348Z" transform="translate(-1529.785 -1901.9)"/></g><g transform="translate(69.678 309.894)"><path class="b" d="M1651.86,2974.811c-17.717,0-23.811-7.715-24.168-8.188a2.161,2.161,0,0,1,3.442-2.615c.188.235,11.792,14.019,51.165.554a2.162,2.162,0,0,1,1.4,4.091C1670.328,2973.221,1659.9,2974.811,1651.86,2974.811Z" transform="translate(-1627.258 -2963.162)"/></g><g transform="translate(140.436 312.385)"><path class="b" d="M2162.206,2990.916c-15.859,0-32.855-5.6-33.936-5.958a2.161,2.161,0,0,1,1.373-4.1c.382.127,38.3,12.612,51.448.462a2.161,2.161,0,0,1,2.934,3.174C2178.8,2989.324,2170.663,2990.916,2162.206,2990.916Z" transform="translate(-2126.794 -2980.747)"/></g><g transform="translate(28.461 0)"><g transform="translate(1.774 68.996)"><path class="c" d="M1373.664,1316.167h0a1.669,1.669,0,0,0,1.426-1.88l-6.538-47.615a1.669,1.669,0,0,0-1.88-1.426h0a17.505,17.505,0,0,0-14.961,19.723l2.229,16.237A17.5,17.5,0,0,0,1373.664,1316.167Z" transform="translate(-1351.158 -1264.839)"/><path class="b" d="M1368.891,1314.352a17.9,17.9,0,0,1-17.689-15.462l-2.23-16.237a17.893,17.893,0,0,1,15.292-20.162,2.057,2.057,0,0,1,2.317,1.758l6.538,47.615a2.059,2.059,0,0,1-1.758,2.317h0A17.99,17.99,0,0,1,1368.891,1314.352Zm-4.344-51.1a1.25,1.25,0,0,0-.177.013,17.117,17.117,0,0,0-14.628,19.287l2.229,16.237a17.117,17.117,0,0,0,19.287,14.629,1.281,1.281,0,0,0,1.094-1.443l-6.538-47.615a1.283,1.283,0,0,0-1.266-1.108Z" transform="translate(-1348.803 -1262.471)"/></g><g class="a" transform="translate(3.512 97.748)"><path class="b" d="M1361.07,1465.46l1.044,7.615a17.513,17.513,0,0,0,19.726,14.962,1.674,1.674,0,0,0,1.426-1.884l-1.734-12.659a1.67,1.67,0,0,1-1.37,1.187l-1.129.151A17.487,17.487,0,0,1,1361.07,1465.46Z" transform="translate(-1361.07 -1465.46)"/></g><g transform="translate(0 67.224)"><path class="b" d="M1358.134,1305.388a19.675,19.675,0,0,1-19.443-16.995l-2.229-16.237A19.665,19.665,0,0,1,1353.27,1250a3.829,3.829,0,0,1,4.315,3.275l6.538,47.615a3.835,3.835,0,0,1-3.273,4.316h0A20.157,20.157,0,0,1,1358.134,1305.388Zm-4.764-51.033a15.342,15.342,0,0,0-12.626,17.213l2.229,16.237a15.343,15.343,0,0,0,16.8,13.173Z" transform="translate(-1336.276 -1249.961)"/></g><g transform="translate(172.624 47.266)"><path class="c" d="M2559.142,1111.972h0a1.669,1.669,0,0,0-1.427,1.88l6.538,47.615a1.67,1.67,0,0,0,1.88,1.427h0a17.506,17.506,0,0,0,14.961-19.723l-2.229-16.237A17.5,17.5,0,0,0,2559.142,1111.972Z" transform="translate(-2557.313 -1111.418)"/><path class="b" d="M2563.556,1160.942a2.06,2.06,0,0,1-2.034-1.778l-6.538-47.615a2.059,2.059,0,0,1,1.758-2.317h0a17.891,17.891,0,0,1,20.161,15.292l2.23,16.237a17.893,17.893,0,0,1-15.292,20.162A2.389,2.389,0,0,1,2563.556,1160.942Zm-6.71-50.941a1.281,1.281,0,0,0-1.094,1.442l6.539,47.615a1.281,1.281,0,0,0,1.442,1.095,17.117,17.117,0,0,0,14.628-19.287l-2.229-16.237A17.114,17.114,0,0,0,2556.846,1110Z" transform="translate(-2554.964 -1109.063)"/></g><g class="a" transform="translate(177.748 72.178)"><path class="b" d="M2591.14,1296.867l1.816,13.209a1.674,1.674,0,0,0,1.884,1.426,17.5,17.5,0,0,0,14.958-19.72l-.939-6.842a17.51,17.51,0,0,1-14.4,12.354l-1.738.238A1.685,1.685,0,0,1,2591.14,1296.867Z" transform="translate(-2591.14 -1284.94)"/></g><g transform="translate(170.851 45.491)"><path class="b" d="M2552.813,1151.959a3.835,3.835,0,0,1-3.792-3.31l-6.539-47.615a3.834,3.834,0,0,1,3.274-4.315h0a19.665,19.665,0,0,1,22.158,16.808l2.229,16.237a19.665,19.665,0,0,1-16.808,22.158A3.63,3.63,0,0,1,2552.813,1151.959Zm-5.98-51.016,6.4,46.623a15.342,15.342,0,0,0,12.626-17.213l-2.229-16.237a15.344,15.344,0,0,0-16.8-13.173Z" transform="translate(-2542.446 -1096.532)"/></g><g class="a" transform="translate(37.213 138.008)"><path class="b" d="M1598.99,1768.645q2.171,2.273,4.489,4.37a85.886,85.886,0,0,0,114.325.892q1.29-1.137,2.527-2.324a84.388,84.388,0,0,0,6.83-7.322q1.984-2.375,3.765-4.891a28.9,28.9,0,0,0-21.569-9.69h-83.2A29.065,29.065,0,0,0,1598.99,1768.645Z" transform="translate(-1598.99 -1749.68)"/></g><g transform="translate(17.041 1.772)"><circle class="c" cx="81.902" cy="81.902" r="81.902" transform="translate(0.415 0.398)"/><path class="b" d="M1538.731,952.505a82.416,82.416,0,1,1,17.117-1.793A83.025,83.025,0,0,1,1538.731,952.505Zm.187-163.84a81.518,81.518,0,1,0,79.746,64.732A81.618,81.618,0,0,0,1538.918,788.666Z" transform="translate(-1456.582 -787.888)"/></g><g class="a" transform="translate(17.646 63.42)"><path class="b" d="M1460.85,1249.376a81.9,81.9,0,1,0,161.859-22.484c-.268-1.273-.565-2.541-.89-3.782a81.9,81.9,0,0,1-160.97,26.266Z" transform="translate(-1460.85 -1223.11)"/></g><g transform="translate(15.267)"><path class="b" d="M1527.98,943.541a84.135,84.135,0,0,1-82.09-66.776h0a84.063,84.063,0,1,1,99.575,64.945A84.843,84.843,0,0,1,1527.98,943.541Zm.188-163.84a79.751,79.751,0,0,0-78.049,96.173h0a79.74,79.74,0,1,0,78.049-96.173Z" transform="translate(-1444.059 -775.378)"/></g><g transform="translate(18.655 25.698)"><path class="b" d="M1469.22,1034.046a73.462,73.462,0,0,0,22.1,39.725c8.312,7.784,38.316,18.4,71.61,12.223,30.871-5.725,55.71-27.616,60.494-37.95a73.465,73.465,0,0,0,5.578-45.116c-8.108-41.63-47.235-51.922-91.36-43.329S1461.113,992.418,1469.22,1034.046Z" transform="translate(-1467.973 -956.799)"/></g><g transform="translate(16.474 23.547)"><path class="b" d="M1529.133,1077.011c-25.742,0-45.989-8.594-52.5-14.694a75.548,75.548,0,0,1-22.746-40.889c-3.98-20.433,1.146-37.783,15.233-51.57,12.285-12.023,31.269-20.809,54.9-25.412s44.521-3.581,60.421,2.952c18.233,7.492,29.494,21.651,33.473,42.083a75.548,75.548,0,0,1-5.738,46.436c-5.026,10.859-30.063,33.235-62.06,39.168A115.065,115.065,0,0,1,1529.133,1077.011Zm-71.006-56.411a71.262,71.262,0,0,0,21.457,38.561c7.41,6.938,36.371,17.865,69.739,11.676,30.109-5.584,54.366-26.882,58.925-36.734a71.255,71.255,0,0,0,5.418-43.795c-3.684-18.916-14.071-32.008-30.873-38.912-15.117-6.213-35.156-7.149-57.952-2.708s-41.02,12.828-52.7,24.257C1459.158,985.651,1454.444,1001.684,1458.126,1020.6Z" transform="translate(-1452.578 -941.613)"/></g><g class="d" transform="translate(29.704 74.91)"><ellipse class="c" cx="10.503" cy="14.493" rx="10.503" ry="14.493" transform="matrix(0.932, -0.363, 0.363, 0.932, 0, 7.627)"/></g><g class="d" transform="translate(54.649 109.348)"><ellipse class="c" cx="5.708" cy="6.653" rx="5.708" ry="6.653" transform="translate(0 5.576) rotate(-29.236)"/></g><g class="a" transform="translate(18.656 61.083)"><path class="e" d="M1477.2,1206.61c-7.952,11.221-11.228,25.14-7.975,41.86a73.506,73.506,0,0,0,22.1,39.728c8.313,7.784,38.32,18.4,71.614,12.224a101.029,101.029,0,0,0,31.866-12.044c-41.088,6.713-77.665-6.361-87.973-16.016a93.2,93.2,0,0,1-28.048-50.417A82.855,82.855,0,0,1,1477.2,1206.61Z" transform="translate(-1467.982 -1206.61)"/></g><g transform="translate(17.501 15.441)"><path class="b" d="M1461.991,936.21a2.162,2.162,0,0,1-1.908-3.176c10.449-22.838,35.582-39.66,68.978-46.164,33.664-6.555,63.38.017,81.532,18.033l-1.51,1.544-1.363,1.677,1.363-1.677-1.364,1.677-.17-.152c-17.12-16.991-45.424-23.138-77.661-16.859-32.058,6.244-56.084,22.215-65.919,43.819l-.1.214-.211.276A2.161,2.161,0,0,1,1461.991,936.21Z" transform="translate(-1459.831 -884.388)"/></g><g class="d" transform="translate(90.102 37.24)"><path class="c" d="M2048.842,1101.133s4.9-43.579-20.426-55.634-57.151-5.788-56.008-3.89c0,0,36.915,1.669,56.135,26.851C2043.366,1087.879,2048.842,1101.133,2048.842,1101.133Z" transform="translate(-1972.379 -1038.286)"/></g></g><g transform="translate(141.4 276.904)"><path class="b" d="M2135.346,2738.678l3.042-.782c1.031-.291,2.071-.56,3.1-.873q3.1-.888,6.165-1.98c2.051-.7,4.053-1.534,6.1-2.332,2.062-.779,4.065-1.687,6.258-2.452a26.406,26.406,0,0,1-4.983,4.722,33.531,33.531,0,0,1-2.848,1.921c-.994.561-1.989,1.137-3.014,1.646a49.421,49.421,0,0,1-6.329,2.694,37.342,37.342,0,0,1-6.764,1.7,2.161,2.161,0,0,1-.853-4.229Z" transform="translate(-2133.604 -2730.26)"/></g><g transform="translate(100.594 276.903)"><path class="b" d="M1869.46,2742.93a37.435,37.435,0,0,1-6.764-1.7,49.6,49.6,0,0,1-6.329-2.694c-1.026-.51-2.02-1.085-3.014-1.646a33.824,33.824,0,0,1-2.849-1.921,26.366,26.366,0,0,1-4.985-4.722c2.193.765,4.2,1.673,6.258,2.452,2.044.8,4.047,1.627,6.1,2.332q3.057,1.088,6.165,1.98c1.03.313,2.069.582,3.1.873l3.043.782.119.03a2.161,2.161,0,0,1-.841,4.232Z" transform="translate(-1845.52 -2730.25)"/></g><g transform="translate(160.386 334.586)"><path class="b" d="M2299.966,3142.594c-1.258-.152-2.652-.295-3.99-.409s-2.708-.221-4.065-.275q-4.071-.212-8.144-.048a73.878,73.878,0,0,0-8.082.923,60.763,60.763,0,0,0-8.044,2.14,23.657,23.657,0,0,1,7.309-4.637,40.018,40.018,0,0,1,8.429-2.222,56.4,56.4,0,0,1,8.667-.581c1.446.028,2.893.081,4.334.229a37.638,37.638,0,0,1,4.359.629,2.161,2.161,0,0,1-.684,4.264Z" transform="translate(-2267.64 -3137.482)"/></g><g transform="translate(73.134 334.585)"><path class="b" d="M1653.387,3138.333a37.6,37.6,0,0,1,4.359-.629c1.442-.149,2.888-.2,4.334-.229a56.393,56.393,0,0,1,8.667.581,40.2,40.2,0,0,1,8.429,2.222,23.631,23.631,0,0,1,7.309,4.637,60.989,60.989,0,0,0-8.044-2.14,73.878,73.878,0,0,0-8.083-.923q-4.069-.166-8.143.048c-1.357.054-2.714.164-4.065.275s-2.732.258-3.99.409l-.081.01a2.16,2.16,0,0,1-.693-4.261Z" transform="translate(-1651.659 -3137.472)"/></g><g class="a" transform="translate(101.614 277.628)"><path class="b" d="M1917.823,2735.37s-17.22,2.9-30.518,2.9-34.585-2.9-34.585-2.9,12.779,10.267,33.155,9.825C1906.761,2744.741,1917.823,2735.37,1917.823,2735.37Z" transform="translate(-1852.72 -2735.37)"/></g><g class="a" transform="translate(67.913 200.476)"><path class="b" d="M1614.8,2233.357c2.839.193,5.812.306,8.792.278.406,0,.8-.006,1.21-.017.424-.006.849-.017,1.272-.04.289-.006.571-.017.849-.028.333-.017.667-.034,1-.057.418-.023.843-.051,1.261-.085h.028c.418-.028.843-.068,1.261-.108.272-.028.548-.057.82-.091.232-.017.463-.045.69-.074.361-.04.724-.091,1.074-.142s.667-.1,1-.153a1.1,1.1,0,0,0,.2-.028c.384-.057.763-.125,1.136-.2s.758-.142,1.125-.221l.091-.017c.21-.051.418-.091.616-.142.232-.051.458-.1.684-.164h.006c.125-.034.244-.062.367-.1v4.608a11.616,11.616,0,0,0,11.58,11.574h63.2a11.613,11.613,0,0,0,11.568-11.574v-3.68c7.322,1.108,15.7.809,22.706.147q-.357-6.047-.911-12-.484-5.157-1.091-10.189a183.093,183.093,0,0,1-20.7-.344v-8.255a11.6,11.6,0,0,0-11.568-11.568h-63.2a11.591,11.591,0,0,0-11.578,11.567v7.734c-1.334.2-2.748.355-4.2.486a165.557,165.557,0,0,1-17.273.474q-.584,4.919-1.062,9.962C1615.354,2225.023,1615.037,2229.179,1614.8,2233.357Z" transform="translate(-1614.8 -2190.69)"/></g><g transform="translate(166.521 214.571)"><path class="c" d="M2310.95,2309.947c8.955,3.625,22.814,2.867,32.263,1.724a10.145,10.145,0,0,0,8.811-11.561h0a10.143,10.143,0,0,0-10.5-8.656c-8.837.414-22.094.608-30.488-1.253" transform="translate(-2310.95 -2290.2)"/></g><g class="a" transform="translate(166.521 220.87)"><path class="b" d="M2310.95,2348.117c8.956,3.625,22.814,2.867,32.26,1.724a10.152,10.152,0,0,0,7.554-15.17,10.094,10.094,0,0,1-7.554,4.986c-9.431,1.142-23.26,1.9-32.215-1.707Z" transform="translate(-2310.95 -2334.67)"/></g><g transform="translate(160.108 212.374)"><path class="b" d="M2289.89,2301.466c-6.672,0-13.387-.711-18.611-2.826h0c-6.242-2.527-6.425-12.469-4.582-18.393,1.783-5.733,4.752-5.734,5.947-5.47,8.019,1.779,20.7,1.637,29.92,1.205a12.313,12.313,0,0,1,2.051,24.523A124.753,124.753,0,0,1,2289.89,2301.466Zm-16.988-6.833c8.417,3.408,21.61,2.741,31.192,1.581a7.99,7.99,0,0,0-1.33-15.913c-9.371.44-22.26.577-30.75-1.237-.855.858-2.339,5.006-1.938,9.7.126,1.472.653,4.993,2.826,5.873Z" transform="translate(-2265.678 -2274.692)"/></g><g transform="translate(56.844 214.564)"><path class="c" d="M1545.574,2311.626a120.236,120.236,0,0,0,15.26.939c.373,0,.741-.006,1.113-.017.39-.006.786-.017,1.176-.034.266-.006.526-.017.78-.028l.922-.051c.39-.023.781-.051,1.164-.079h.028c.384-.028.775-.062,1.159-.1.255-.023.508-.051.758-.079.215-.017.429-.045.639-.068.334-.04.667-.085.99-.13s.616-.091.917-.142a.94.94,0,0,0,.181-.028c.355-.051.707-.113,1.051-.181s.7-.13,1.034-.2l.085-.017c.193-.045.384-.085.571-.13.21-.045.418-.1.628-.153h.006c.639-.159,1.266-.339,1.877-.531.329-.1.656-.215.979-.329s.639-.238.945-.361l-.04-9.482-.045-10.268a57.563,57.563,0,0,1-7.248,1.057,181.588,181.588,0,0,1-23.237.2c-.159-.006-.317-.011-.48-.011a10.154,10.154,0,0,0-1.211,20.233Z" transform="translate(-1536.655 -2290.15)"/></g><g class="a" transform="translate(56.844 221.432)"><path class="b" d="M1545.575,2353.249a120.238,120.238,0,0,0,15.26.939c.372,0,.741-.006,1.113-.017.39-.006.786-.017,1.176-.034.266-.006.526-.017.781-.028l.922-.051c.39-.023.781-.051,1.164-.079h.028c.384-.028.775-.062,1.159-.1.255-.023.509-.051.758-.08.215-.017.429-.045.639-.068.333-.04.667-.085.99-.13s.616-.091.916-.142a.923.923,0,0,0,.181-.028c.355-.051.707-.113,1.051-.181s.7-.13,1.034-.2l.085-.017c.193-.045.384-.085.571-.13.21-.045.418-.1.627-.153h.006c.639-.159,1.266-.34,1.877-.531.329-.1.656-.215.979-.327s.639-.238.945-.361l-.04-9.051c-.295.119-.594.238-.905.344s-.65.227-.979.327c-.61.193-1.238.372-1.877.531h-.006c-.21.057-.418.108-.627.153-.187.045-.378.085-.571.13l-.085.017q-.51.111-1.034.2c-.344.068-.7.13-1.051.181a.923.923,0,0,1-.181.028c-.3.051-.6.1-.916.142s-.656.091-.99.13c-.21.023-.424.051-.639.068-.249.028-.5.057-.758.079-.384.04-.775.074-1.159.1h-.028c-.384.028-.775.057-1.164.079l-.922.051c-.255.011-.514.023-.781.028-.39.017-.786.028-1.176.034-.373.011-.741.017-1.113.017a120.015,120.015,0,0,1-15.26-.939,10.118,10.118,0,0,1-7.853-5.541,10.158,10.158,0,0,0,7.853,14.609Z" transform="translate(-1536.655 -2338.64)"/></g><g transform="translate(54.677 212.376)"><path class="b" d="M1546.907,2301.474a124.747,124.747,0,0,1-14.723-.96,12.313,12.313,0,0,1,2.051-24.522c9.223.432,21.9.574,29.92-1.205,1.194-.264,4.163-.264,5.946,5.47,1.843,5.924,1.659,15.865-4.584,18.393h0C1560.3,2300.761,1553.579,2301.474,1546.907,2301.474Zm-13.254-21.175a7.99,7.99,0,0,0-.948,15.921c9.584,1.16,22.774,1.827,31.192-1.581l.812,2-.812-2c2.173-.88,2.7-4.4,2.827-5.874.4-4.688-1.082-8.836-1.938-9.694-8.492,1.812-21.379,1.676-30.75,1.237C1533.907,2280.3,1533.779,2280.3,1533.653,2280.3Z" transform="translate(-1521.359 -2274.701)"/></g><g transform="translate(94.564 197.372)"><path class="c" d="M1802.95,2179.45V2211.1a10.711,10.711,0,0,0,10.679,10.679h58.285a10.709,10.709,0,0,0,10.67-10.679V2179.45a10.7,10.7,0,0,0-10.67-10.67h-58.285a10.7,10.7,0,0,0-10.679,10.67Z" transform="translate(-1802.95 -2168.78)"/></g><g class="f" transform="translate(94.564 197.375)"><path class="c" d="M1802.95,2179.469v31.65a10.71,10.71,0,0,0,10.68,10.675h58.285a10.708,10.708,0,0,0,10.669-10.675v-31.65a10.7,10.7,0,0,0-10.669-10.669H1813.63a10.7,10.7,0,0,0-10.68,10.669Z" transform="translate(-1802.95 -2168.8)"/></g><g class="a" transform="translate(94.564 215.462)"><path class="b" d="M1802.95,2303.744v16.978a10.71,10.71,0,0,0,10.68,10.675h58.285a10.708,10.708,0,0,0,10.669-10.675V2296.49c-11.415,4.54-6.017,24.58-28.553,23.257-18.284-1.074-21.013-15.811-21.013-15.811h-21.756s.059,9.5-3.49,9.56C1805,2313.542,1803.81,2309.306,1802.95,2303.744Z" transform="translate(-1802.95 -2296.49)"/></g><g transform="translate(177.945 191.655)"><path class="c" d="M2391.6,2128.42" transform="translate(-2391.6 -2128.42)"/></g><g transform="translate(92.405 195.208)"><path class="b" d="M1858.831,2210.822h-58.286a12.849,12.849,0,0,1-12.835-12.835v-31.653a12.849,12.849,0,0,1,12.835-12.835h58.286a12.849,12.849,0,0,1,12.835,12.835v31.653A12.851,12.851,0,0,1,1858.831,2210.822Zm-58.288-53a8.522,8.522,0,0,0-8.512,8.512v31.653a8.521,8.521,0,0,0,8.512,8.512h58.287a8.522,8.522,0,0,0,8.512-8.512v-31.653a8.521,8.521,0,0,0-8.512-8.512Z" transform="translate(-1787.71 -2153.5)"/></g><g transform="translate(100.712 210.852)"><circle class="g" cx="9.204" cy="9.204" r="9.204" transform="translate(0 13.017) rotate(-45)"/></g><g transform="translate(104.527 214.666)"><path class="c" d="M1873.29,2300.076a8.769,8.769,0,0,0,.119,1.466,9.2,9.2,0,0,1,18.173,0,8.641,8.641,0,0,0,.119-1.466,9.206,9.206,0,0,0-18.411,0Z" transform="translate(-1873.29 -2290.87)"/></g><g class="a" transform="translate(104.532 220.537)"><path class="b" d="M1873.32,2335.65a9.2,9.2,0,1,0,18.406,0,8.986,8.986,0,0,0-.632-3.33,9.2,9.2,0,0,1-17.142,0A8.981,8.981,0,0,0,1873.32,2335.65Z" transform="translate(-1873.32 -2332.32)"/></g><g transform="translate(102.907 213.044)"><path class="b" d="M1872.676,2301.071a10.825,10.825,0,1,1,10.826-10.825A10.838,10.838,0,0,1,1872.676,2301.071Zm0-18.408a7.583,7.583,0,1,0,7.584,7.584A7.593,7.593,0,0,0,1872.676,2282.663Z" transform="translate(-1861.85 -2279.42)"/></g><g transform="translate(137.656 195.209)"><path class="b" d="M2109.332,2210.83a2.161,2.161,0,0,1-2.162-2.162v-18.375a10.62,10.62,0,0,1,4.213-8.444l4.953-3.729a6.276,6.276,0,0,0,2.49-4.99v-17.459a2.161,2.161,0,1,1,4.323,0v17.459a10.623,10.623,0,0,1-4.213,8.444l-4.953,3.729a6.276,6.276,0,0,0-2.49,4.99v18.375A2.161,2.161,0,0,1,2109.332,2210.83Z" transform="translate(-2107.17 -2153.51)"/></g><g transform="translate(207.819 88.521)"><g transform="translate(2.151 34.81)"><path class="c" d="M2618.469,1678.226c5.1,21.171,26.458,19.2,32.338,17.767,12.261-2.986,16.468-14.542,16.468-14.542l-9.89-13.071-4.4-7.074-5.252-1.579c-4.128-7.523-12.92-16.054-17.968-13.044C2629.768,1646.684,2614.071,1659.978,2618.469,1678.226Z" transform="translate(-2617.691 -1646.063)"/></g><g class="a" transform="translate(14.372 49.889)"><path class="b" d="M2743.154,1765.995c0,6.6-8.64,12.581-27.24,10.412-6.551-.763-11.944-5.347-11.944-11.944a11.944,11.944,0,0,1,11.944-11.944C2722.51,1752.521,2743.154,1759.4,2743.154,1765.995Z" transform="translate(-2703.97 -1752.52)"/></g><g transform="translate(20.783 2.158)"><path class="c" d="M2781.347,1455.408c-4.884,4.9-9.159,8.514-9.159,8.514l-13.706,14.025-9.25-22.587s-.054-4.558.3-10.593c.693-11.947,2.969-29.668,10.352-29.21,13.278.824,4.491,35.792,4.491,35.792s21.2-28.259,29.687-20.233C2799.031,1435.814,2789.367,1447.352,2781.347,1455.408Z" transform="translate(-2749.229 -1415.549)"/></g><g class="a" transform="translate(20.783 31.377)"><path class="b" d="M2781.347,1632.47c-4.884,4.9-9.159,8.514-9.159,8.514l-13.706,14.025-9.25-22.587s-.054-4.558.3-10.593c3.558,2.812,10.2,7.918,12.519,10.961C2766.053,1638.03,2775.987,1631.435,2781.347,1632.47Z" transform="translate(-2749.229 -1621.83)"/></g><g transform="translate(18.62)"><path class="b" d="M2745.374,1467.036a2.159,2.159,0,0,1-2-1.341l-9.248-22.591a2.182,2.182,0,0,1-.161-.795c-.037-3.3-.135-32.456,7.783-39.981a6.809,6.809,0,0,1,5.165-2,8.267,8.267,0,0,1,6.326,3.49c4.241,5.8,3.249,17.944,1.883,26.341,5.669-6.448,14.471-15.088,21.369-15.675a7.5,7.5,0,0,1,5.953,1.993,6.622,6.622,0,0,1,2.033,5.15c-.29,10.432-21.145,28.451-23.92,30.8l-13.635,13.957A2.171,2.171,0,0,1,2745.374,1467.036Zm-7.091-25.188,7.844,19.162,11.407-11.675a1.982,1.982,0,0,1,.15-.14c8.591-7.264,22.288-21.2,22.468-27.691a2.262,2.262,0,0,0-.68-1.89,3.163,3.163,0,0,0-2.616-.827c-7.236.615-19.676,15.213-23.859,20.787a2.161,2.161,0,0,1-3.825-1.824c1.673-6.662,5.036-25.288.577-31.385a3.913,3.913,0,0,0-3.1-1.727,2.421,2.421,0,0,0-1.918.819C2739.255,1410.657,2738.225,1433.092,2738.283,1441.848Z" transform="translate(-2733.958 -1400.315)"/></g><g transform="translate(27.248 46.735)"><path class="c" d="M2821.865,1751.273c-3.252,5.286-17.059,7.755-22.183,3.782-4.36-3.384-.006-7.7,1.234-8.792.193-.174.313-.265.313-.265s-5.3-1.626-6.232-6.094a6.072,6.072,0,0,1-.12-.909c-.326-5.155,13.439-9.6,19.69-8.6,4.673.752,6.455,2.656,6.894,4.691.47,2.167-.583,4.486-1.289,5.727-.326.567-.572.9-.572.9S2824.472,1747.039,2821.865,1751.273Z" transform="translate(-2794.87 -1730.253)"/></g><g class="a" transform="translate(27.374 51.568)"><path class="b" d="M2820.937,1770.1c-3.691,1.891-11.091,5.106-19.257,5.449.193-.174.313-.265.313-.265s-5.3-1.626-6.232-6.094c4.9,1.072,18.42,3.113,26.466-4.817C2822.7,1766.539,2821.642,1768.857,2820.937,1770.1Z" transform="translate(-2795.76 -1764.37)"/></g><g class="a" transform="translate(30.164 61.681)"><path class="b" d="M2839.536,1841.844c-3.252,5.286-17.059,7.755-22.183,3.782a4.071,4.071,0,0,1-1.517-5.166,6.47,6.47,0,0,0,.837.771c5.118,3.975,18.926,1.506,22.178-3.775a4.987,4.987,0,0,0,.663-1.686A6.39,6.39,0,0,1,2839.536,1841.844Z" transform="translate(-2815.457 -1835.77)"/></g><g transform="translate(25.091 44.578)"><path class="b" d="M2794.114,1746.111c-3.647,0-6.782-.834-8.826-2.419a6.338,6.338,0,0,1-2.735-5.089,8.417,8.417,0,0,1,1.973-5.033,9.6,9.6,0,0,1-4.875-7.506c-.079-1.251.285-3.157,2.472-5.146,4.611-4.188,14.562-6.557,19.717-5.73h0c4.38.705,7.175,2.46,8.308,5.218,1.254,3.054-.006,6.276-.99,8.091,1.55,2.184,4.013,6.72,1.476,10.839-1.826,2.963-6.178,5.326-11.646,6.318A27.28,27.28,0,0,1,2794.114,1746.111Zm5.366-26.773c-4.415,0-11.383,1.992-14.451,4.781-.7.639-1.092,1.248-1.064,1.67.228,3.578,4.789,5.06,4.836,5.074a2.166,2.166,0,0,1,.69,3.766c-.853.676-2.622,2.541-2.614,3.969,0,.368.115.943,1.062,1.677,1.87,1.45,6,1.9,10.28,1.126,4.086-.742,7.6-2.483,8.737-4.332,1.687-2.741-1.986-6.927-2.024-6.968a2.168,2.168,0,0,1-.146-2.732c.585-.812,2.1-3.546,1.361-5.327-.654-1.578-3.075-2.278-4.992-2.585A10.631,10.631,0,0,0,2799.48,1719.338Z" transform="translate(-2779.641 -1715.024)"/></g><g transform="translate(31.445 56.04)"><path class="b" d="M2828.4,1804.6q-.918,0-1.858-.054a2.162,2.162,0,0,1,.253-4.316,34.007,34.007,0,0,0,17.148-3.984,2.162,2.162,0,0,1,2.194,3.725A38.127,38.127,0,0,1,2828.4,1804.6Z" transform="translate(-2824.503 -1795.946)"/></g><g transform="translate(9.293 34.813)"><path class="c" d="M2673.047,1646.708c6.7-4,19.985,12.326,20.229,19.652.187,5.592-6.436,10.258-14.352,3.122C2670.9,1662.253,2662.522,1652.983,2673.047,1646.708Z" transform="translate(-2668.111 -1646.088)"/></g><g transform="translate(2.15 34.813)"><path class="c" d="M2667.271,1681.476s-4.21,11.551-16.467,14.537c-5.881,1.432-27.239,3.405-32.343-17.767-4.4-18.247,11.3-31.538,11.3-31.538,6.7-4,19.985,12.326,20.229,19.652.187,5.592-8.125,8.764-15.085-1.077,0,0,3.667,8.938-4.163,15.036l18.449,10.626,13.952-2.724Z" transform="translate(-2617.684 -1646.088)"/></g><g transform="translate(18.487 63.901)"><path class="c" d="M2733.387,1852.3l-.367-.211c.278-.217.53-.428.771-.65C2733.67,1851.723,2733.539,1852.012,2733.387,1852.3Z" transform="translate(-2733.02 -1851.44)"/></g><g class="a" transform="translate(19.596 51.499)"><path class="b" d="M2740.916,1764.738c-.982-3.614,9.4,5.585,14.795,3.221-.259,4.54-6.238,7.177-12.206,1.741A9.02,9.02,0,0,0,2740.916,1764.738Z" transform="translate(-2740.851 -1763.886)"/></g><g class="a" transform="translate(2.149 39.23)"><path class="b" d="M2660.784,1715.447l2.354-.458a23.211,23.211,0,0,1-12.344,7.792c-5.883,1.433-27.242,3.4-32.342-17.77-2.993-12.417,3.324-22.545,7.666-27.742-3.534,5.636-6.671,13.777-4.39,23.249,5.1,21.172,26.458,19.2,32.343,17.77A22.465,22.465,0,0,0,2660.784,1715.447Z" transform="translate(-2617.674 -1677.27)"/></g><g transform="translate(50.287 70.211)"><path class="c" d="M2958.965,1895.99a19.175,19.175,0,0,1-1.083,2.295l-.361.072Z" transform="translate(-2957.52 -1895.99)"/></g><g transform="translate(50.287 72.458)"><path class="c" d="M2958.122,1911.85c-.193.229-.391.463-.6.693.126-.222.247-.439.361-.645Z" transform="translate(-2957.52 -1911.85)"/></g><g transform="translate(0 32.662)"><path class="b" d="M2614.005,1679.886a9.285,9.285,0,0,1-3.316-1.415,12.215,12.215,0,0,1-2.676-2.4,19.347,19.347,0,0,1-3.52-6.189,31.829,31.829,0,0,1,2.309-27.039,42.346,42.346,0,0,1,3.8-5.727q1.058-1.351,2.222-2.618c.391-.421.785-.839,1.2-1.245s.807-.79,1.316-1.234a2.043,2.043,0,0,1,.249-.183l.041-.024a6.992,6.992,0,0,1,4.483-.847,11.607,11.607,0,0,1,3.745,1.232,19.575,19.575,0,0,1,3.026,1.942,28.026,28.026,0,0,1,2.619,2.266,40.306,40.306,0,0,1,4.452,5.13,36.331,36.331,0,0,1,3.521,5.863,20.854,20.854,0,0,1,1.252,3.373,11.348,11.348,0,0,1,.353,1.931l.041.52c0,.183-.013.374-.021.561a6.56,6.56,0,0,1-.118,1.126,6.882,6.882,0,0,1-2.263,3.941,7.441,7.441,0,0,1-4.019,1.807,4.914,4.914,0,0,1-1.062.075,7.171,7.171,0,0,1-1.05-.033,9.873,9.873,0,0,1-1.986-.416c-.316-.1-.636-.2-.945-.313l-.873-.418a10.569,10.569,0,0,1-1.636-.963,21.3,21.3,0,0,1-5.037-5.1l3.764-2.068a12.274,12.274,0,0,1,.4,1.239q.163.584.275,1.169a18.188,18.188,0,0,1,.309,2.368,19.093,19.093,0,0,1-.358,4.844,10.791,10.791,0,0,1-.776,2.363c-.194.368-.412.725-.619,1.085a8.763,8.763,0,0,1-.754.984,6.681,6.681,0,0,1-4.2,2.371.824.824,0,0,1-.917-1l.031-.133a13.1,13.1,0,0,1,.761-2.019c.239-.61.54-1.123.763-1.666a23.615,23.615,0,0,0,1.317-3.125,8.649,8.649,0,0,0,.438-3.446,13.918,13.918,0,0,0-.232-1.776c-.057-.295-.123-.584-.2-.867-.071-.266-.18-.595-.237-.751l-.011-.031a2.167,2.167,0,0,1,3.776-2.038,17.073,17.073,0,0,0,3.935,4.017,6.69,6.69,0,0,0,4.524,1.363,3.113,3.113,0,0,0,1.758-.768,2.558,2.558,0,0,0,.878-1.52,2.228,2.228,0,0,0,.042-.469l.021-.241-.027-.281a7.08,7.08,0,0,0-.229-1.227,16.437,16.437,0,0,0-.989-2.643,34.841,34.841,0,0,0-7.06-9.711,20.247,20.247,0,0,0-4.612-3.469,7.389,7.389,0,0,0-2.322-.792,2.664,2.664,0,0,0-1.722.271l.29-.207c-.312.271-.712.65-1.062,1s-.715.731-1.065,1.108c-.7.756-1.365,1.547-2,2.358a38.1,38.1,0,0,0-3.414,5.142,29.3,29.3,0,0,0-3.657,11.51,24.07,24.07,0,0,0,1.839,11.784,37.74,37.74,0,0,0,2.735,5.227c1.06,1.663,2.187,3.244,3.329,5.256l.007.013a.789.789,0,0,1-.3,1.076A.773.773,0,0,1,2614.005,1679.886Z" transform="translate(-2602.506 -1630.9)"/></g><g transform="translate(35.147 68.034)"><path class="b" d="M2869.253,1883.527a16.308,16.308,0,0,1-.633,1.52c-.224.472-.46.929-.715,1.377s-.531.88-.8,1.319c-.286.426-.586.841-.883,1.259l-.952,1.207-1.034,1.137a21.693,21.693,0,0,1-2.265,2.077,24.919,24.919,0,0,1-2.493,1.788,26.215,26.215,0,0,1-2.72,1.4,10.033,10.033,0,0,1-5.965.9.2.2,0,0,1-.1-.341l.011-.01a43.8,43.8,0,0,1,4.633-3.194,23.128,23.128,0,0,0,2.143-1.559c.643-.611,1.337-1.143,1.925-1.8.306-.314.616-.622.891-.966s.588-.649.853-1l.8-1.043.755-1.074c.47-.738.94-1.475,1.357-2.238.206-.384.421-.759.606-1.145.187-.368.394-.795.518-1.084l.058-.132a2.159,2.159,0,0,1,4,1.61Z" transform="translate(-2850.633 -1880.619)"/></g></g><g transform="translate(201.815 161.172)"><path class="b" d="M2584.284,1965.084c-4,0-17.608-1.068-21.978-15.189-6.286-20.321,2.936-35.3,3.333-35.923a1.62,1.62,0,0,1,2.742,1.727,42.921,42.921,0,0,0-2.979,33.238c4.337,14.017,19.091,12.938,19.716,12.884a1.621,1.621,0,0,1,.282,3.23C2585.375,1965.052,2584.971,1965.084,2584.284,1965.084Z" transform="translate(-2560.119 -1913.215)"/></g><g transform="translate(49.275 197.002)"><path class="b" d="M1504.511,2186.741a1.6,1.6,0,0,1-.428-.058c-16.471-4.5-20.628-17.86-20.8-18.427a1.621,1.621,0,0,1,3.106-.929c.156.514,3.88,12.221,18.546,16.229a1.622,1.622,0,0,1-.428,3.186Z" transform="translate(-1483.218 -2166.171)"/></g></g><g transform="translate(613.793 788.882)"><g transform="translate(0 0)"><g transform="translate(2.549 2.548)"><path class="b" d="M701.543,973.969a2.533,2.533,0,0,1-1.285-.348l-15.995-9.339a5.89,5.89,0,0,0-2.962-.806,5.674,5.674,0,0,0-1.483.2,38.155,38.155,0,0,1-9.565,1.3h-.329a38.3,38.3,0,0,1-38.134-37.518A38.136,38.136,0,0,1,669.92,888.7c.251,0,.5,0,.751.007a38.126,38.126,0,0,1,27.566,63.659,6.045,6.045,0,0,0-.707,7.125l6.213,10.642a2.551,2.551,0,0,1-2.2,3.836Z" transform="translate(-631.785 -888.7)"/></g><path class="b" d="M654.478,875.808c.234,0,.467,0,.7.007a35.577,35.577,0,0,1,25.722,59.4,8.62,8.62,0,0,0-1.016,10.118l6.213,10.642-15.993-9.339a8.424,8.424,0,0,0-4.248-1.153,8.313,8.313,0,0,0-2.145.282,35.592,35.592,0,0,1-8.925,1.213h-.307a35.587,35.587,0,1,1,0-71.174m0-5.1h0a40.688,40.688,0,0,0-40.68,41.343,40.861,40.861,0,0,0,40.684,40.028h.351a40.7,40.7,0,0,0,10.2-1.387,3.154,3.154,0,0,1,.823-.108,3.344,3.344,0,0,1,1.677.458l15.995,9.339a5.1,5.1,0,0,0,6.972-6.973l-6.213-10.642a3.507,3.507,0,0,1,.4-4.132,40.675,40.675,0,0,0-29.407-67.917c-.269,0-.535-.007-.8-.007Z" transform="translate(-613.793 -870.71)"/></g><g class="h" transform="translate(5.097 5.098)"><path class="c" d="M687.935,909.511a35.589,35.589,0,0,0-36.284,36.158,35.208,35.208,0,0,0,5.051,17.62,35.517,35.517,0,0,1,29.365-56.58,35.652,35.652,0,0,1,29.815,17.359A35.579,35.579,0,0,0,687.935,909.511Z" transform="translate(-649.778 -906.702)"/></g><g class="i" transform="translate(9.625 15.836)"><path class="j" d="M707.5,1035.471a35.609,35.609,0,0,0,8.927-1.213,7.431,7.431,0,0,1,1.312-.174,18.4,18.4,0,0,0,13.275-7.415c.8-1.038,1.7-1.968,2.6-2.96a35.42,35.42,0,0,0,4.579-41.2,35.473,35.473,0,0,1,1.118,48.571,8.655,8.655,0,0,0-1.142,10.159l6.249,10.7-15.995-9.337a8.442,8.442,0,0,0-6.435-.86,35.567,35.567,0,0,1-40.253-17.078A35.519,35.519,0,0,0,707.5,1035.471Z" transform="translate(-681.74 -982.51)"/></g><g transform="translate(23.472 26.368)"><path class="c" d="M809.687,1059.287h0c-3.636-3.636-9.53-2.984-13.166.651l-.565.565-.565-.565c-3.636-3.636-9.53-4.288-13.166-.651h0a9.309,9.309,0,0,0,0,13.166l.565.565,11.431,11.431a2.453,2.453,0,0,0,3.47,0l11.431-11.431.565-.565A9.309,9.309,0,0,0,809.687,1059.287Z" transform="translate(-779.498 -1056.864)"/></g><g class="h" transform="translate(48.329 32.403)"><path class="k" d="M959.128,1100.867a3.363,3.363,0,0,0-3.946-1.137c-.656.476.452,1.322,1.571,2.863s1.826,3.194,2.482,2.717S960.247,1102.408,959.128,1100.867Z" transform="translate(-954.985 -1099.47)"/></g><g class="h" transform="translate(45.515 30.03)"><path class="k" d="M935.126,1083.312a1.049,1.049,0,0,0,1.861.724c.263-.373.028-.989-.594-1.231S935.183,1082.858,935.126,1083.312Z" transform="translate(-935.119 -1082.718)"/></g></g></g></g></g></svg>